%TF.GenerationSoftware,KiCad,Pcbnew,6.0.2+dfsg-1*%
%TF.CreationDate,2022-05-25T17:35:34+01:00*%
%TF.ProjectId,AY-3-8910 to 12 Adapter,41592d33-2d38-4393-9130-20746f203132,rev?*%
%TF.SameCoordinates,Original*%
%TF.FileFunction,Copper,L2,Bot*%
%TF.FilePolarity,Positive*%
%FSLAX46Y46*%
G04 Gerber Fmt 4.6, Leading zero omitted, Abs format (unit mm)*
G04 Created by KiCad (PCBNEW 6.0.2+dfsg-1) date 2022-05-25 17:35:34*
%MOMM*%
%LPD*%
G01*
G04 APERTURE LIST*
%TA.AperFunction,ComponentPad*%
%ADD10R,1.700000X1.700000*%
%TD*%
%TA.AperFunction,ComponentPad*%
%ADD11O,1.700000X1.700000*%
%TD*%
%TA.AperFunction,ComponentPad*%
%ADD12R,1.600000X1.600000*%
%TD*%
%TA.AperFunction,ComponentPad*%
%ADD13O,1.600000X1.600000*%
%TD*%
%TA.AperFunction,ViaPad*%
%ADD14C,0.800000*%
%TD*%
%TA.AperFunction,Conductor*%
%ADD15C,0.300000*%
%TD*%
G04 APERTURE END LIST*
D10*
%TO.P,IO-B,1,Pin_1*%
%TO.N,Net-(J1-Pad1)*%
X76708000Y-71120000D03*
D11*
%TO.P,IO-B,2,Pin_2*%
%TO.N,Net-(J1-Pad2)*%
X76708000Y-68580000D03*
%TO.P,IO-B,3,Pin_3*%
%TO.N,Net-(J1-Pad3)*%
X76708000Y-66040000D03*
%TO.P,IO-B,4,Pin_4*%
%TO.N,Net-(J1-Pad4)*%
X76708000Y-63500000D03*
%TO.P,IO-B,5,Pin_5*%
%TO.N,Net-(J1-Pad5)*%
X76708000Y-60960000D03*
%TO.P,IO-B,6,Pin_6*%
%TO.N,Net-(J1-Pad6)*%
X76708000Y-58420000D03*
%TO.P,IO-B,7,Pin_7*%
%TO.N,Net-(J1-Pad7)*%
X76708000Y-55880000D03*
%TO.P,IO-B,8,Pin_8*%
%TO.N,Net-(J1-Pad8)*%
X76708000Y-53340000D03*
%TD*%
D12*
%TO.P,U2,1,Analog_C*%
%TO.N,Net-(U1-Pad38)*%
X83820000Y-53340000D03*
D13*
%TO.P,U2,2,TEST1*%
%TO.N,unconnected-(U2-Pad2)*%
X83820000Y-55880000D03*
%TO.P,U2,3,Vcc*%
%TO.N,Net-(U1-Pad40)*%
X83820000Y-58420000D03*
%TO.P,U2,4,Analog_B*%
%TO.N,Net-(U1-Pad3)*%
X83820000Y-60960000D03*
%TO.P,U2,5,Analog_A*%
%TO.N,Net-(U1-Pad4)*%
X83820000Y-63500000D03*
%TO.P,U2,6,Vss*%
%TO.N,GND*%
X83820000Y-66040000D03*
%TO.P,U2,7,IOA7*%
%TO.N,Net-(J2-Pad8)*%
X83820000Y-68580000D03*
%TO.P,U2,8,IOA6*%
%TO.N,Net-(J2-Pad7)*%
X83820000Y-71120000D03*
%TO.P,U2,9,IOA5*%
%TO.N,Net-(J2-Pad6)*%
X83820000Y-73660000D03*
%TO.P,U2,10,IOA4*%
%TO.N,Net-(J2-Pad5)*%
X83820000Y-76200000D03*
%TO.P,U2,11,IOA3*%
%TO.N,Net-(J2-Pad4)*%
X83820000Y-78740000D03*
%TO.P,U2,12,IOA2*%
%TO.N,Net-(J2-Pad3)*%
X83820000Y-81280000D03*
%TO.P,U2,13,IOA1*%
%TO.N,Net-(J2-Pad2)*%
X83820000Y-83820000D03*
%TO.P,U2,14,IOA0*%
%TO.N,Net-(J2-Pad1)*%
X83820000Y-86360000D03*
%TO.P,U2,15,CLOCK*%
%TO.N,Net-(U1-Pad22)*%
X99060000Y-86360000D03*
%TO.P,U2,16,/RESET*%
%TO.N,Net-(U1-Pad23)*%
X99060000Y-83820000D03*
%TO.P,U2,17,A8*%
%TO.N,Net-(U1-Pad25)*%
X99060000Y-81280000D03*
%TO.P,U2,18,BDIR*%
%TO.N,Net-(U1-Pad27)*%
X99060000Y-78740000D03*
%TO.P,U2,19,BC2*%
%TO.N,Net-(U1-Pad28)*%
X99060000Y-76200000D03*
%TO.P,U2,20,BC1*%
%TO.N,Net-(U1-Pad29)*%
X99060000Y-73660000D03*
%TO.P,U2,21,DA7*%
%TO.N,Net-(U1-Pad30)*%
X99060000Y-71120000D03*
%TO.P,U2,22,DA6*%
%TO.N,Net-(U1-Pad31)*%
X99060000Y-68580000D03*
%TO.P,U2,23,DA5*%
%TO.N,Net-(U1-Pad32)*%
X99060000Y-66040000D03*
%TO.P,U2,24,DA4*%
%TO.N,Net-(U1-Pad33)*%
X99060000Y-63500000D03*
%TO.P,U2,25,DA3*%
%TO.N,Net-(U1-Pad34)*%
X99060000Y-60960000D03*
%TO.P,U2,26,DA2*%
%TO.N,Net-(U1-Pad35)*%
X99060000Y-58420000D03*
%TO.P,U2,27,DA1*%
%TO.N,Net-(U1-Pad36)*%
X99060000Y-55880000D03*
%TO.P,U2,28,DA0*%
%TO.N,Net-(U1-Pad37)*%
X99060000Y-53340000D03*
%TD*%
D12*
%TO.P,U1,1,Vss*%
%TO.N,GND*%
X90932000Y-45212000D03*
D13*
%TO.P,U1,2,NC*%
%TO.N,unconnected-(U1-Pad2)*%
X90932000Y-47752000D03*
%TO.P,U1,3,Analog_B*%
%TO.N,Net-(U1-Pad3)*%
X90932000Y-50292000D03*
%TO.P,U1,4,Analog_A*%
%TO.N,Net-(U1-Pad4)*%
X90932000Y-52832000D03*
%TO.P,U1,5,NC*%
%TO.N,unconnected-(U1-Pad5)*%
X90932000Y-55372000D03*
%TO.P,U1,6,IOB7*%
%TO.N,Net-(J1-Pad8)*%
X90932000Y-57912000D03*
%TO.P,U1,7,IOB6*%
%TO.N,Net-(J1-Pad7)*%
X90932000Y-60452000D03*
%TO.P,U1,8,IOB5*%
%TO.N,Net-(J1-Pad6)*%
X90932000Y-62992000D03*
%TO.P,U1,9,IOB4*%
%TO.N,Net-(J1-Pad5)*%
X90932000Y-65532000D03*
%TO.P,U1,10,IOB3*%
%TO.N,Net-(J1-Pad4)*%
X90932000Y-68072000D03*
%TO.P,U1,11,IOB2*%
%TO.N,Net-(J1-Pad3)*%
X90932000Y-70612000D03*
%TO.P,U1,12,IOB1*%
%TO.N,Net-(J1-Pad2)*%
X90932000Y-73152000D03*
%TO.P,U1,13,IOB0*%
%TO.N,Net-(J1-Pad1)*%
X90932000Y-75692000D03*
%TO.P,U1,14,IOA7*%
%TO.N,Net-(J2-Pad8)*%
X90932000Y-78232000D03*
%TO.P,U1,15,IOA6*%
%TO.N,Net-(J2-Pad7)*%
X90932000Y-80772000D03*
%TO.P,U1,16,IOA5*%
%TO.N,Net-(J2-Pad6)*%
X90932000Y-83312000D03*
%TO.P,U1,17,IOA4*%
%TO.N,Net-(J2-Pad5)*%
X90932000Y-85852000D03*
%TO.P,U1,18,IOA3*%
%TO.N,Net-(J2-Pad4)*%
X90932000Y-88392000D03*
%TO.P,U1,19,IOA2*%
%TO.N,Net-(J2-Pad3)*%
X90932000Y-90932000D03*
%TO.P,U1,20,IOA1*%
%TO.N,Net-(J2-Pad2)*%
X90932000Y-93472000D03*
%TO.P,U1,21,IOA0*%
%TO.N,Net-(J2-Pad1)*%
X106172000Y-93472000D03*
%TO.P,U1,22,CLOCK*%
%TO.N,Net-(U1-Pad22)*%
X106172000Y-90932000D03*
%TO.P,U1,23,/RESET*%
%TO.N,Net-(U1-Pad23)*%
X106172000Y-88392000D03*
%TO.P,U1,24,/A9*%
%TO.N,GND*%
X106172000Y-85852000D03*
%TO.P,U1,25,A8*%
%TO.N,Net-(U1-Pad25)*%
X106172000Y-83312000D03*
%TO.P,U1,26,TEST2*%
%TO.N,unconnected-(U1-Pad26)*%
X106172000Y-80772000D03*
%TO.P,U1,27,BDIR*%
%TO.N,Net-(U1-Pad27)*%
X106172000Y-78232000D03*
%TO.P,U1,28,BC2*%
%TO.N,Net-(U1-Pad28)*%
X106172000Y-75692000D03*
%TO.P,U1,29,BC1*%
%TO.N,Net-(U1-Pad29)*%
X106172000Y-73152000D03*
%TO.P,U1,30,DA7*%
%TO.N,Net-(U1-Pad30)*%
X106172000Y-70612000D03*
%TO.P,U1,31,DA6*%
%TO.N,Net-(U1-Pad31)*%
X106172000Y-68072000D03*
%TO.P,U1,32,DA5*%
%TO.N,Net-(U1-Pad32)*%
X106172000Y-65532000D03*
%TO.P,U1,33,DA4*%
%TO.N,Net-(U1-Pad33)*%
X106172000Y-62992000D03*
%TO.P,U1,34,DA3*%
%TO.N,Net-(U1-Pad34)*%
X106172000Y-60452000D03*
%TO.P,U1,35,DA2*%
%TO.N,Net-(U1-Pad35)*%
X106172000Y-57912000D03*
%TO.P,U1,36,DA1*%
%TO.N,Net-(U1-Pad36)*%
X106172000Y-55372000D03*
%TO.P,U1,37,DA0*%
%TO.N,Net-(U1-Pad37)*%
X106172000Y-52832000D03*
%TO.P,U1,38,Analog_C*%
%TO.N,Net-(U1-Pad38)*%
X106172000Y-50292000D03*
%TO.P,U1,39,TEST1*%
%TO.N,unconnected-(U1-Pad39)*%
X106172000Y-47752000D03*
%TO.P,U1,40,Vcc*%
%TO.N,Net-(U1-Pad40)*%
X106172000Y-45212000D03*
%TD*%
D10*
%TO.P,IO-A,1,Pin_1*%
%TO.N,Net-(J2-Pad1)*%
X76708000Y-93472000D03*
D11*
%TO.P,IO-A,2,Pin_2*%
%TO.N,Net-(J2-Pad2)*%
X76708000Y-90932000D03*
%TO.P,IO-A,3,Pin_3*%
%TO.N,Net-(J2-Pad3)*%
X76708000Y-88392000D03*
%TO.P,IO-A,4,Pin_4*%
%TO.N,Net-(J2-Pad4)*%
X76708000Y-85852000D03*
%TO.P,IO-A,5,Pin_5*%
%TO.N,Net-(J2-Pad5)*%
X76708000Y-83312000D03*
%TO.P,IO-A,6,Pin_6*%
%TO.N,Net-(J2-Pad6)*%
X76708000Y-80772000D03*
%TO.P,IO-A,7,Pin_7*%
%TO.N,Net-(J2-Pad7)*%
X76708000Y-78232000D03*
%TO.P,IO-A,8,Pin_8*%
%TO.N,Net-(J2-Pad8)*%
X76708000Y-75692000D03*
%TD*%
D14*
%TO.N,GND*%
X81280000Y-63500000D03*
X81280000Y-58420000D03*
X81280000Y-60960000D03*
X107950000Y-46990000D03*
X97790000Y-48260000D03*
X87630000Y-86360000D03*
X88900000Y-59690000D03*
X88900000Y-62230000D03*
X87630000Y-63500000D03*
X86360000Y-64770000D03*
X81280000Y-53340000D03*
X81280000Y-72390000D03*
X81280000Y-74930000D03*
X80010000Y-78740000D03*
X80010000Y-81280000D03*
X80010000Y-83820000D03*
X80010000Y-87630000D03*
X80010000Y-92710000D03*
X101600000Y-87630000D03*
X102870000Y-80010000D03*
X102870000Y-77470000D03*
X102870000Y-74930000D03*
X102870000Y-72390000D03*
X102870000Y-69850000D03*
X102870000Y-67310000D03*
X102870000Y-64770000D03*
X102870000Y-62230000D03*
X102870000Y-59690000D03*
X102870000Y-57150000D03*
X102870000Y-54610000D03*
X89020489Y-45840489D03*
%TD*%
D15*
%TO.N,GND*%
X89020489Y-45840489D02*
X89648978Y-45212000D01*
%TO.N,Net-(U1-Pad38)*%
X109220000Y-46990000D02*
X109220000Y-49530000D01*
%TO.N,Net-(U1-Pad40)*%
X95637511Y-49142489D02*
X102241511Y-49142489D01*
%TO.N,GND*%
X83820000Y-66040000D02*
X82670489Y-64890489D01*
X89648978Y-45212000D02*
X90932000Y-45212000D01*
X82670489Y-64890489D02*
X82670489Y-52190489D01*
X82670489Y-52190489D02*
X89020489Y-45840489D01*
%TO.N,Net-(U1-Pad3)*%
X83820000Y-60960000D02*
X86360000Y-58420000D01*
X86360000Y-54864000D02*
X90932000Y-50292000D01*
X86360000Y-58420000D02*
X86360000Y-54864000D01*
%TO.N,Net-(U1-Pad4)*%
X87630000Y-59690000D02*
X87630000Y-54610000D01*
X87630000Y-54610000D02*
X89408000Y-52832000D01*
X89408000Y-52832000D02*
X90932000Y-52832000D01*
X83820000Y-63500000D02*
X87630000Y-59690000D01*
%TO.N,Net-(U1-Pad38)*%
X83820000Y-53340000D02*
X83820000Y-52240000D01*
X109220000Y-44450000D02*
X109220000Y-46990000D01*
X89457511Y-46602489D02*
X100717511Y-46602489D01*
X108458000Y-50292000D02*
X106172000Y-50292000D01*
X108832489Y-44062489D02*
X109220000Y-44450000D01*
X103257511Y-44062489D02*
X108832489Y-44062489D01*
X100717511Y-46602489D02*
X103257511Y-44062489D01*
X83820000Y-52240000D02*
X89457511Y-46602489D01*
X109220000Y-49530000D02*
X108458000Y-50292000D01*
%TO.N,Net-(U1-Pad40)*%
X85860480Y-53737865D02*
X90455856Y-49142489D01*
X102241511Y-49142489D02*
X106172000Y-45212000D01*
X90455856Y-49142489D02*
X95637511Y-49142489D01*
X85860480Y-56379520D02*
X85860480Y-53737865D01*
X83820000Y-58420000D02*
X85860480Y-56379520D01*
%TD*%
%TA.AperFunction,Conductor*%
%TO.N,GND*%
G36*
X109924121Y-42438002D02*
G01*
X109970614Y-42491658D01*
X109982000Y-42544000D01*
X109982000Y-43984287D01*
X109961998Y-44052408D01*
X109908342Y-44098901D01*
X109838068Y-44109005D01*
X109773488Y-44079511D01*
X109753804Y-44055925D01*
X109753346Y-44056281D01*
X109748490Y-44050020D01*
X109744452Y-44043193D01*
X109729291Y-44028032D01*
X109716449Y-44012997D01*
X109703841Y-43995643D01*
X109668248Y-43966198D01*
X109659467Y-43958208D01*
X109356140Y-43654880D01*
X109348152Y-43646101D01*
X109343905Y-43639409D01*
X109292230Y-43590883D01*
X109289389Y-43588129D01*
X109268822Y-43567562D01*
X109265315Y-43564842D01*
X109256293Y-43557136D01*
X109222622Y-43525517D01*
X109215670Y-43521695D01*
X109203831Y-43515186D01*
X109187307Y-43504332D01*
X109176621Y-43496044D01*
X109170357Y-43491185D01*
X109163085Y-43488038D01*
X109163083Y-43488037D01*
X109127954Y-43472835D01*
X109117294Y-43467613D01*
X109083773Y-43449184D01*
X109083771Y-43449183D01*
X109076826Y-43445365D01*
X109056048Y-43440030D01*
X109037358Y-43433631D01*
X109017665Y-43425109D01*
X108972041Y-43417883D01*
X108960418Y-43415476D01*
X108926150Y-43406678D01*
X108915677Y-43403989D01*
X108894230Y-43403989D01*
X108874520Y-43402438D01*
X108861166Y-43400323D01*
X108853337Y-43399083D01*
X108807348Y-43403430D01*
X108795493Y-43403989D01*
X103339567Y-43403989D01*
X103327711Y-43403430D01*
X103327708Y-43403430D01*
X103319974Y-43401701D01*
X103264957Y-43403430D01*
X103249142Y-43403927D01*
X103245184Y-43403989D01*
X103216079Y-43403989D01*
X103211679Y-43404545D01*
X103199847Y-43405477D01*
X103153680Y-43406927D01*
X103133090Y-43412909D01*
X103113729Y-43416919D01*
X103106741Y-43417801D01*
X103100307Y-43418614D01*
X103100306Y-43418614D01*
X103092447Y-43419607D01*
X103085082Y-43422523D01*
X103085078Y-43422524D01*
X103049493Y-43436613D01*
X103038263Y-43440458D01*
X102993910Y-43453344D01*
X102987086Y-43457380D01*
X102975454Y-43464259D01*
X102957698Y-43472958D01*
X102937755Y-43480854D01*
X102923536Y-43491185D01*
X102900379Y-43508009D01*
X102890460Y-43514524D01*
X102857534Y-43533997D01*
X102857530Y-43534000D01*
X102850704Y-43538037D01*
X102835543Y-43553198D01*
X102820511Y-43566037D01*
X102803154Y-43578648D01*
X102773704Y-43614247D01*
X102765714Y-43623027D01*
X100481656Y-45907084D01*
X100419344Y-45941110D01*
X100392561Y-45943989D01*
X92366000Y-45943989D01*
X92297879Y-45923987D01*
X92251386Y-45870331D01*
X92240000Y-45817989D01*
X92240000Y-45484115D01*
X92235525Y-45468876D01*
X92234135Y-45467671D01*
X92226452Y-45466000D01*
X89642116Y-45466000D01*
X89626877Y-45470475D01*
X89625672Y-45471865D01*
X89624001Y-45479548D01*
X89624001Y-45816328D01*
X89603999Y-45884449D01*
X89550343Y-45930942D01*
X89501959Y-45942266D01*
X89449110Y-45943927D01*
X89445152Y-45943989D01*
X89416079Y-45943989D01*
X89412145Y-45944486D01*
X89412143Y-45944486D01*
X89411700Y-45944542D01*
X89399865Y-45945474D01*
X89367075Y-45946505D01*
X89361600Y-45946677D01*
X89361599Y-45946677D01*
X89353680Y-45946926D01*
X89333955Y-45952657D01*
X89333082Y-45952910D01*
X89313729Y-45956918D01*
X89310254Y-45957357D01*
X89292447Y-45959607D01*
X89285079Y-45962524D01*
X89285076Y-45962525D01*
X89249493Y-45976614D01*
X89238258Y-45980460D01*
X89201527Y-45991131D01*
X89201524Y-45991132D01*
X89193911Y-45993344D01*
X89175446Y-46004264D01*
X89157706Y-46012955D01*
X89137755Y-46020854D01*
X89100385Y-46048005D01*
X89090463Y-46054522D01*
X89057534Y-46073996D01*
X89057530Y-46073999D01*
X89050704Y-46078036D01*
X89035540Y-46093200D01*
X89020507Y-46106040D01*
X89003154Y-46118648D01*
X88973709Y-46154241D01*
X88965719Y-46163021D01*
X83412395Y-51716345D01*
X83403615Y-51724335D01*
X83403613Y-51724337D01*
X83396920Y-51728584D01*
X83391494Y-51734362D01*
X83391493Y-51734363D01*
X83348396Y-51780257D01*
X83345641Y-51783099D01*
X83325073Y-51803667D01*
X83322356Y-51807170D01*
X83314648Y-51816195D01*
X83283028Y-51849867D01*
X83279207Y-51856818D01*
X83279206Y-51856819D01*
X83272697Y-51868658D01*
X83261843Y-51885182D01*
X83254018Y-51895271D01*
X83248696Y-51902132D01*
X83245549Y-51909404D01*
X83245548Y-51909406D01*
X83230346Y-51944535D01*
X83225126Y-51955190D01*
X83219076Y-51966196D01*
X83168733Y-52016257D01*
X83108659Y-52031500D01*
X82971866Y-52031500D01*
X82909684Y-52038255D01*
X82773295Y-52089385D01*
X82656739Y-52176739D01*
X82569385Y-52293295D01*
X82518255Y-52429684D01*
X82511500Y-52491866D01*
X82511500Y-54188134D01*
X82518255Y-54250316D01*
X82569385Y-54386705D01*
X82656739Y-54503261D01*
X82773295Y-54590615D01*
X82909684Y-54641745D01*
X82920474Y-54642917D01*
X82922606Y-54643803D01*
X82925222Y-54644425D01*
X82925121Y-54644848D01*
X82986035Y-54670155D01*
X83026463Y-54728517D01*
X83028922Y-54799471D01*
X82992629Y-54860490D01*
X82983969Y-54867489D01*
X82980207Y-54870646D01*
X82975700Y-54873802D01*
X82813802Y-55035700D01*
X82810645Y-55040208D01*
X82810643Y-55040211D01*
X82755902Y-55118389D01*
X82682477Y-55223251D01*
X82680154Y-55228233D01*
X82680151Y-55228238D01*
X82597908Y-55404610D01*
X82585716Y-55430757D01*
X82584294Y-55436065D01*
X82584293Y-55436067D01*
X82532407Y-55629707D01*
X82526457Y-55651913D01*
X82506502Y-55880000D01*
X82526457Y-56108087D01*
X82527881Y-56113400D01*
X82527881Y-56113402D01*
X82575851Y-56292425D01*
X82585716Y-56329243D01*
X82588039Y-56334224D01*
X82588039Y-56334225D01*
X82680151Y-56531762D01*
X82680154Y-56531767D01*
X82682477Y-56536749D01*
X82685634Y-56541257D01*
X82804461Y-56710959D01*
X82813802Y-56724300D01*
X82975700Y-56886198D01*
X82980208Y-56889355D01*
X82980211Y-56889357D01*
X83020445Y-56917529D01*
X83163251Y-57017523D01*
X83168233Y-57019846D01*
X83168238Y-57019849D01*
X83202457Y-57035805D01*
X83255742Y-57082722D01*
X83275203Y-57150999D01*
X83254661Y-57218959D01*
X83202457Y-57264195D01*
X83168238Y-57280151D01*
X83168233Y-57280154D01*
X83163251Y-57282477D01*
X83058389Y-57355902D01*
X82980211Y-57410643D01*
X82980208Y-57410645D01*
X82975700Y-57413802D01*
X82813802Y-57575700D01*
X82810645Y-57580208D01*
X82810643Y-57580211D01*
X82761195Y-57650830D01*
X82682477Y-57763251D01*
X82680154Y-57768233D01*
X82680151Y-57768238D01*
X82597908Y-57944610D01*
X82585716Y-57970757D01*
X82584294Y-57976065D01*
X82584293Y-57976067D01*
X82532407Y-58169707D01*
X82526457Y-58191913D01*
X82506502Y-58420000D01*
X82526457Y-58648087D01*
X82527881Y-58653400D01*
X82527881Y-58653402D01*
X82575851Y-58832425D01*
X82585716Y-58869243D01*
X82588039Y-58874224D01*
X82588039Y-58874225D01*
X82680151Y-59071762D01*
X82680154Y-59071767D01*
X82682477Y-59076749D01*
X82685634Y-59081257D01*
X82804461Y-59250959D01*
X82813802Y-59264300D01*
X82975700Y-59426198D01*
X82980208Y-59429355D01*
X82980211Y-59429357D01*
X83015612Y-59454145D01*
X83163251Y-59557523D01*
X83168233Y-59559846D01*
X83168238Y-59559849D01*
X83202457Y-59575805D01*
X83255742Y-59622722D01*
X83275203Y-59690999D01*
X83254661Y-59758959D01*
X83202457Y-59804195D01*
X83168238Y-59820151D01*
X83168233Y-59820154D01*
X83163251Y-59822477D01*
X83153147Y-59829552D01*
X82980211Y-59950643D01*
X82980208Y-59950645D01*
X82975700Y-59953802D01*
X82813802Y-60115700D01*
X82810645Y-60120208D01*
X82810643Y-60120211D01*
X82789965Y-60149743D01*
X82682477Y-60303251D01*
X82680154Y-60308233D01*
X82680151Y-60308238D01*
X82597908Y-60484610D01*
X82585716Y-60510757D01*
X82584294Y-60516065D01*
X82584293Y-60516067D01*
X82532407Y-60709707D01*
X82526457Y-60731913D01*
X82506502Y-60960000D01*
X82526457Y-61188087D01*
X82527881Y-61193400D01*
X82527881Y-61193402D01*
X82575851Y-61372425D01*
X82585716Y-61409243D01*
X82588039Y-61414224D01*
X82588039Y-61414225D01*
X82680151Y-61611762D01*
X82680154Y-61611767D01*
X82682477Y-61616749D01*
X82685634Y-61621257D01*
X82804461Y-61790959D01*
X82813802Y-61804300D01*
X82975700Y-61966198D01*
X82980208Y-61969355D01*
X82980211Y-61969357D01*
X83020445Y-61997529D01*
X83163251Y-62097523D01*
X83168233Y-62099846D01*
X83168238Y-62099849D01*
X83202457Y-62115805D01*
X83255742Y-62162722D01*
X83275203Y-62230999D01*
X83254661Y-62298959D01*
X83202457Y-62344195D01*
X83168238Y-62360151D01*
X83168233Y-62360154D01*
X83163251Y-62362477D01*
X83058389Y-62435902D01*
X82980211Y-62490643D01*
X82980208Y-62490645D01*
X82975700Y-62493802D01*
X82813802Y-62655700D01*
X82810645Y-62660208D01*
X82810643Y-62660211D01*
X82755902Y-62738389D01*
X82682477Y-62843251D01*
X82680154Y-62848233D01*
X82680151Y-62848238D01*
X82597908Y-63024610D01*
X82585716Y-63050757D01*
X82584294Y-63056065D01*
X82584293Y-63056067D01*
X82532407Y-63249707D01*
X82526457Y-63271913D01*
X82506502Y-63500000D01*
X82526457Y-63728087D01*
X82527881Y-63733400D01*
X82527881Y-63733402D01*
X82575851Y-63912425D01*
X82585716Y-63949243D01*
X82588039Y-63954224D01*
X82588039Y-63954225D01*
X82680151Y-64151762D01*
X82680154Y-64151767D01*
X82682477Y-64156749D01*
X82685634Y-64161257D01*
X82804461Y-64330959D01*
X82813802Y-64344300D01*
X82975700Y-64506198D01*
X82980208Y-64509355D01*
X82980211Y-64509357D01*
X83020445Y-64537529D01*
X83163251Y-64637523D01*
X83168233Y-64639846D01*
X83168238Y-64639849D01*
X83203049Y-64656081D01*
X83256334Y-64702998D01*
X83275795Y-64771275D01*
X83255253Y-64839235D01*
X83203049Y-64884471D01*
X83168489Y-64900586D01*
X83158993Y-64906069D01*
X82980533Y-65031028D01*
X82972125Y-65038084D01*
X82818084Y-65192125D01*
X82811028Y-65200533D01*
X82686069Y-65378993D01*
X82680586Y-65388489D01*
X82588510Y-65585947D01*
X82584764Y-65596239D01*
X82538606Y-65768503D01*
X82538942Y-65782599D01*
X82546884Y-65786000D01*
X85087967Y-65786000D01*
X85101498Y-65782027D01*
X85102727Y-65773478D01*
X85055236Y-65596239D01*
X85051490Y-65585947D01*
X84959414Y-65388489D01*
X84953931Y-65378993D01*
X84828972Y-65200533D01*
X84821916Y-65192125D01*
X84667875Y-65038084D01*
X84659467Y-65031028D01*
X84481007Y-64906069D01*
X84471511Y-64900586D01*
X84436951Y-64884471D01*
X84383666Y-64837554D01*
X84364205Y-64769277D01*
X84384747Y-64701317D01*
X84436951Y-64656081D01*
X84471762Y-64639849D01*
X84471767Y-64639846D01*
X84476749Y-64637523D01*
X84619555Y-64537529D01*
X84659789Y-64509357D01*
X84659792Y-64509355D01*
X84664300Y-64506198D01*
X84826198Y-64344300D01*
X84835540Y-64330959D01*
X84954366Y-64161257D01*
X84957523Y-64156749D01*
X84959846Y-64151767D01*
X84959849Y-64151762D01*
X85051961Y-63954225D01*
X85051961Y-63954224D01*
X85054284Y-63949243D01*
X85064150Y-63912425D01*
X85112119Y-63733402D01*
X85112119Y-63733400D01*
X85113543Y-63728087D01*
X85133498Y-63500000D01*
X85113543Y-63271913D01*
X85107593Y-63249707D01*
X85104012Y-63236341D01*
X85105702Y-63165365D01*
X85136624Y-63114636D01*
X88037605Y-60213655D01*
X88046385Y-60205665D01*
X88046387Y-60205663D01*
X88053080Y-60201416D01*
X88101605Y-60149742D01*
X88104359Y-60146901D01*
X88124927Y-60126333D01*
X88127647Y-60122826D01*
X88135353Y-60113804D01*
X88137232Y-60111803D01*
X88166972Y-60080133D01*
X88170794Y-60073181D01*
X88177303Y-60061342D01*
X88188157Y-60044818D01*
X88196445Y-60034132D01*
X88201304Y-60027868D01*
X88204452Y-60020594D01*
X88219654Y-59985465D01*
X88224876Y-59974805D01*
X88243305Y-59941284D01*
X88243306Y-59941282D01*
X88247124Y-59934337D01*
X88252459Y-59913559D01*
X88258858Y-59894869D01*
X88267380Y-59875176D01*
X88274606Y-59829552D01*
X88277013Y-59817929D01*
X88286528Y-59780868D01*
X88288500Y-59773188D01*
X88288500Y-59751741D01*
X88290051Y-59732031D01*
X88292166Y-59718677D01*
X88293406Y-59710848D01*
X88289059Y-59664859D01*
X88288500Y-59653004D01*
X88288500Y-54934950D01*
X88308502Y-54866829D01*
X88325405Y-54845855D01*
X89642186Y-53529074D01*
X89704498Y-53495048D01*
X89775313Y-53500113D01*
X89834494Y-53545899D01*
X89922639Y-53671784D01*
X89922643Y-53671789D01*
X89925802Y-53676300D01*
X90087700Y-53838198D01*
X90092208Y-53841355D01*
X90092211Y-53841357D01*
X90099489Y-53846453D01*
X90275251Y-53969523D01*
X90280233Y-53971846D01*
X90280238Y-53971849D01*
X90314457Y-53987805D01*
X90367742Y-54034722D01*
X90387203Y-54102999D01*
X90366661Y-54170959D01*
X90314457Y-54216195D01*
X90280238Y-54232151D01*
X90280233Y-54232154D01*
X90275251Y-54234477D01*
X90252631Y-54250316D01*
X90092211Y-54362643D01*
X90092208Y-54362645D01*
X90087700Y-54365802D01*
X89925802Y-54527700D01*
X89922645Y-54532208D01*
X89922643Y-54532211D01*
X89893183Y-54574284D01*
X89794477Y-54715251D01*
X89792154Y-54720233D01*
X89792151Y-54720238D01*
X89716367Y-54882760D01*
X89697716Y-54922757D01*
X89638457Y-55143913D01*
X89618502Y-55372000D01*
X89638457Y-55600087D01*
X89639881Y-55605400D01*
X89639881Y-55605402D01*
X89655187Y-55662522D01*
X89697716Y-55821243D01*
X89700039Y-55826224D01*
X89700039Y-55826225D01*
X89792151Y-56023762D01*
X89792154Y-56023767D01*
X89794477Y-56028749D01*
X89925802Y-56216300D01*
X90087700Y-56378198D01*
X90092208Y-56381355D01*
X90092211Y-56381357D01*
X90099489Y-56386453D01*
X90275251Y-56509523D01*
X90280233Y-56511846D01*
X90280238Y-56511849D01*
X90314457Y-56527805D01*
X90367742Y-56574722D01*
X90387203Y-56642999D01*
X90366661Y-56710959D01*
X90314457Y-56756195D01*
X90280238Y-56772151D01*
X90280233Y-56772154D01*
X90275251Y-56774477D01*
X90170389Y-56847902D01*
X90092211Y-56902643D01*
X90092208Y-56902645D01*
X90087700Y-56905802D01*
X89925802Y-57067700D01*
X89922645Y-57072208D01*
X89922643Y-57072211D01*
X89893183Y-57114284D01*
X89794477Y-57255251D01*
X89792154Y-57260233D01*
X89792151Y-57260238D01*
X89716231Y-57423051D01*
X89697716Y-57462757D01*
X89696294Y-57468065D01*
X89696293Y-57468067D01*
X89645965Y-57655894D01*
X89638457Y-57683913D01*
X89618502Y-57912000D01*
X89638457Y-58140087D01*
X89639881Y-58145400D01*
X89639881Y-58145402D01*
X89655187Y-58202522D01*
X89697716Y-58361243D01*
X89700039Y-58366224D01*
X89700039Y-58366225D01*
X89792151Y-58563762D01*
X89792154Y-58563767D01*
X89794477Y-58568749D01*
X89925802Y-58756300D01*
X90087700Y-58918198D01*
X90092208Y-58921355D01*
X90092211Y-58921357D01*
X90099489Y-58926453D01*
X90275251Y-59049523D01*
X90280233Y-59051846D01*
X90280238Y-59051849D01*
X90314457Y-59067805D01*
X90367742Y-59114722D01*
X90387203Y-59182999D01*
X90366661Y-59250959D01*
X90314457Y-59296195D01*
X90280238Y-59312151D01*
X90280233Y-59312154D01*
X90275251Y-59314477D01*
X90170389Y-59387902D01*
X90092211Y-59442643D01*
X90092208Y-59442645D01*
X90087700Y-59445802D01*
X89925802Y-59607700D01*
X89922645Y-59612208D01*
X89922643Y-59612211D01*
X89894080Y-59653004D01*
X89794477Y-59795251D01*
X89792154Y-59800233D01*
X89792151Y-59800238D01*
X89716231Y-59963051D01*
X89697716Y-60002757D01*
X89696294Y-60008065D01*
X89696293Y-60008067D01*
X89639881Y-60218598D01*
X89638457Y-60223913D01*
X89618502Y-60452000D01*
X89638457Y-60680087D01*
X89639881Y-60685400D01*
X89639881Y-60685402D01*
X89655187Y-60742522D01*
X89697716Y-60901243D01*
X89700039Y-60906224D01*
X89700039Y-60906225D01*
X89792151Y-61103762D01*
X89792154Y-61103767D01*
X89794477Y-61108749D01*
X89925802Y-61296300D01*
X90087700Y-61458198D01*
X90092208Y-61461355D01*
X90092211Y-61461357D01*
X90099489Y-61466453D01*
X90275251Y-61589523D01*
X90280233Y-61591846D01*
X90280238Y-61591849D01*
X90314457Y-61607805D01*
X90367742Y-61654722D01*
X90387203Y-61722999D01*
X90366661Y-61790959D01*
X90314457Y-61836195D01*
X90280238Y-61852151D01*
X90280233Y-61852154D01*
X90275251Y-61854477D01*
X90170389Y-61927902D01*
X90092211Y-61982643D01*
X90092208Y-61982645D01*
X90087700Y-61985802D01*
X89925802Y-62147700D01*
X89922645Y-62152208D01*
X89922643Y-62152211D01*
X89893183Y-62194284D01*
X89794477Y-62335251D01*
X89792154Y-62340233D01*
X89792151Y-62340238D01*
X89716231Y-62503051D01*
X89697716Y-62542757D01*
X89638457Y-62763913D01*
X89618502Y-62992000D01*
X89638457Y-63220087D01*
X89639881Y-63225400D01*
X89639881Y-63225402D01*
X89655187Y-63282522D01*
X89697716Y-63441243D01*
X89700039Y-63446224D01*
X89700039Y-63446225D01*
X89792151Y-63643762D01*
X89792154Y-63643767D01*
X89794477Y-63648749D01*
X89925802Y-63836300D01*
X90087700Y-63998198D01*
X90092208Y-64001355D01*
X90092211Y-64001357D01*
X90099489Y-64006453D01*
X90275251Y-64129523D01*
X90280233Y-64131846D01*
X90280238Y-64131849D01*
X90314457Y-64147805D01*
X90367742Y-64194722D01*
X90387203Y-64262999D01*
X90366661Y-64330959D01*
X90314457Y-64376195D01*
X90280238Y-64392151D01*
X90280233Y-64392154D01*
X90275251Y-64394477D01*
X90170389Y-64467902D01*
X90092211Y-64522643D01*
X90092208Y-64522645D01*
X90087700Y-64525802D01*
X89925802Y-64687700D01*
X89922645Y-64692208D01*
X89922643Y-64692211D01*
X89893183Y-64734284D01*
X89794477Y-64875251D01*
X89792154Y-64880233D01*
X89792151Y-64880238D01*
X89716231Y-65043051D01*
X89697716Y-65082757D01*
X89638457Y-65303913D01*
X89618502Y-65532000D01*
X89638457Y-65760087D01*
X89639881Y-65765400D01*
X89639881Y-65765402D01*
X89655187Y-65822522D01*
X89697716Y-65981243D01*
X89700039Y-65986224D01*
X89700039Y-65986225D01*
X89792151Y-66183762D01*
X89792154Y-66183767D01*
X89794477Y-66188749D01*
X89925802Y-66376300D01*
X90087700Y-66538198D01*
X90092208Y-66541355D01*
X90092211Y-66541357D01*
X90099489Y-66546453D01*
X90275251Y-66669523D01*
X90280233Y-66671846D01*
X90280238Y-66671849D01*
X90314457Y-66687805D01*
X90367742Y-66734722D01*
X90387203Y-66802999D01*
X90366661Y-66870959D01*
X90314457Y-66916195D01*
X90280238Y-66932151D01*
X90280233Y-66932154D01*
X90275251Y-66934477D01*
X90170389Y-67007902D01*
X90092211Y-67062643D01*
X90092208Y-67062645D01*
X90087700Y-67065802D01*
X89925802Y-67227700D01*
X89922645Y-67232208D01*
X89922643Y-67232211D01*
X89893183Y-67274284D01*
X89794477Y-67415251D01*
X89792154Y-67420233D01*
X89792151Y-67420238D01*
X89716231Y-67583051D01*
X89697716Y-67622757D01*
X89638457Y-67843913D01*
X89618502Y-68072000D01*
X89638457Y-68300087D01*
X89639881Y-68305400D01*
X89639881Y-68305402D01*
X89655187Y-68362522D01*
X89697716Y-68521243D01*
X89700039Y-68526224D01*
X89700039Y-68526225D01*
X89792151Y-68723762D01*
X89792154Y-68723767D01*
X89794477Y-68728749D01*
X89925802Y-68916300D01*
X90087700Y-69078198D01*
X90092208Y-69081355D01*
X90092211Y-69081357D01*
X90099489Y-69086453D01*
X90275251Y-69209523D01*
X90280233Y-69211846D01*
X90280238Y-69211849D01*
X90314457Y-69227805D01*
X90367742Y-69274722D01*
X90387203Y-69342999D01*
X90366661Y-69410959D01*
X90314457Y-69456195D01*
X90280238Y-69472151D01*
X90280233Y-69472154D01*
X90275251Y-69474477D01*
X90170389Y-69547902D01*
X90092211Y-69602643D01*
X90092208Y-69602645D01*
X90087700Y-69605802D01*
X89925802Y-69767700D01*
X89922645Y-69772208D01*
X89922643Y-69772211D01*
X89915283Y-69782722D01*
X89794477Y-69955251D01*
X89792154Y-69960233D01*
X89792151Y-69960238D01*
X89758827Y-70031703D01*
X89697716Y-70162757D01*
X89638457Y-70383913D01*
X89618502Y-70612000D01*
X89638457Y-70840087D01*
X89697716Y-71061243D01*
X89700039Y-71066224D01*
X89700039Y-71066225D01*
X89792151Y-71263762D01*
X89792154Y-71263767D01*
X89794477Y-71268749D01*
X89925802Y-71456300D01*
X90087700Y-71618198D01*
X90092208Y-71621355D01*
X90092211Y-71621357D01*
X90170389Y-71676098D01*
X90275251Y-71749523D01*
X90280233Y-71751846D01*
X90280238Y-71751849D01*
X90314457Y-71767805D01*
X90367742Y-71814722D01*
X90387203Y-71882999D01*
X90366661Y-71950959D01*
X90314457Y-71996195D01*
X90280238Y-72012151D01*
X90280233Y-72012154D01*
X90275251Y-72014477D01*
X90170657Y-72087715D01*
X90092211Y-72142643D01*
X90092208Y-72142645D01*
X90087700Y-72145802D01*
X89925802Y-72307700D01*
X89922645Y-72312208D01*
X89922643Y-72312211D01*
X89915283Y-72322722D01*
X89794477Y-72495251D01*
X89792154Y-72500233D01*
X89792151Y-72500238D01*
X89790306Y-72504195D01*
X89697716Y-72702757D01*
X89638457Y-72923913D01*
X89618502Y-73152000D01*
X89638457Y-73380087D01*
X89697716Y-73601243D01*
X89700039Y-73606224D01*
X89700039Y-73606225D01*
X89792151Y-73803762D01*
X89792154Y-73803767D01*
X89794477Y-73808749D01*
X89925802Y-73996300D01*
X90087700Y-74158198D01*
X90092208Y-74161355D01*
X90092211Y-74161357D01*
X90170389Y-74216098D01*
X90275251Y-74289523D01*
X90280233Y-74291846D01*
X90280238Y-74291849D01*
X90314457Y-74307805D01*
X90367742Y-74354722D01*
X90387203Y-74422999D01*
X90366661Y-74490959D01*
X90314457Y-74536195D01*
X90280238Y-74552151D01*
X90280233Y-74552154D01*
X90275251Y-74554477D01*
X90170389Y-74627902D01*
X90092211Y-74682643D01*
X90092208Y-74682645D01*
X90087700Y-74685802D01*
X89925802Y-74847700D01*
X89922645Y-74852208D01*
X89922643Y-74852211D01*
X89893183Y-74894284D01*
X89794477Y-75035251D01*
X89792154Y-75040233D01*
X89792151Y-75040238D01*
X89782866Y-75060151D01*
X89697716Y-75242757D01*
X89696294Y-75248065D01*
X89696293Y-75248067D01*
X89644407Y-75441707D01*
X89638457Y-75463913D01*
X89618502Y-75692000D01*
X89638457Y-75920087D01*
X89639881Y-75925400D01*
X89639881Y-75925402D01*
X89687851Y-76104425D01*
X89697716Y-76141243D01*
X89700039Y-76146224D01*
X89700039Y-76146225D01*
X89792151Y-76343762D01*
X89792154Y-76343767D01*
X89794477Y-76348749D01*
X89797634Y-76353257D01*
X89901078Y-76500990D01*
X89925802Y-76536300D01*
X90087700Y-76698198D01*
X90092208Y-76701355D01*
X90092211Y-76701357D01*
X90132445Y-76729529D01*
X90275251Y-76829523D01*
X90280233Y-76831846D01*
X90280238Y-76831849D01*
X90314457Y-76847805D01*
X90367742Y-76894722D01*
X90387203Y-76962999D01*
X90366661Y-77030959D01*
X90314457Y-77076195D01*
X90280238Y-77092151D01*
X90280233Y-77092154D01*
X90275251Y-77094477D01*
X90170389Y-77167902D01*
X90092211Y-77222643D01*
X90092208Y-77222645D01*
X90087700Y-77225802D01*
X89925802Y-77387700D01*
X89922645Y-77392208D01*
X89922643Y-77392211D01*
X89893183Y-77434284D01*
X89794477Y-77575251D01*
X89792154Y-77580233D01*
X89792151Y-77580238D01*
X89782866Y-77600151D01*
X89697716Y-77782757D01*
X89696294Y-77788065D01*
X89696293Y-77788067D01*
X89644407Y-77981707D01*
X89638457Y-78003913D01*
X89618502Y-78232000D01*
X89638457Y-78460087D01*
X89639881Y-78465400D01*
X89639881Y-78465402D01*
X89687851Y-78644425D01*
X89697716Y-78681243D01*
X89700039Y-78686224D01*
X89700039Y-78686225D01*
X89792151Y-78883762D01*
X89792154Y-78883767D01*
X89794477Y-78888749D01*
X89797634Y-78893257D01*
X89901078Y-79040990D01*
X89925802Y-79076300D01*
X90087700Y-79238198D01*
X90092208Y-79241355D01*
X90092211Y-79241357D01*
X90132445Y-79269529D01*
X90275251Y-79369523D01*
X90280233Y-79371846D01*
X90280238Y-79371849D01*
X90314457Y-79387805D01*
X90367742Y-79434722D01*
X90387203Y-79502999D01*
X90366661Y-79570959D01*
X90314457Y-79616195D01*
X90280238Y-79632151D01*
X90280233Y-79632154D01*
X90275251Y-79634477D01*
X90170389Y-79707902D01*
X90092211Y-79762643D01*
X90092208Y-79762645D01*
X90087700Y-79765802D01*
X89925802Y-79927700D01*
X89922645Y-79932208D01*
X89922643Y-79932211D01*
X89893183Y-79974284D01*
X89794477Y-80115251D01*
X89792154Y-80120233D01*
X89792151Y-80120238D01*
X89782866Y-80140151D01*
X89697716Y-80322757D01*
X89696294Y-80328065D01*
X89696293Y-80328067D01*
X89644407Y-80521707D01*
X89638457Y-80543913D01*
X89618502Y-80772000D01*
X89638457Y-81000087D01*
X89639881Y-81005400D01*
X89639881Y-81005402D01*
X89687851Y-81184425D01*
X89697716Y-81221243D01*
X89700039Y-81226224D01*
X89700039Y-81226225D01*
X89792151Y-81423762D01*
X89792154Y-81423767D01*
X89794477Y-81428749D01*
X89797634Y-81433257D01*
X89901078Y-81580990D01*
X89925802Y-81616300D01*
X90087700Y-81778198D01*
X90092208Y-81781355D01*
X90092211Y-81781357D01*
X90132445Y-81809529D01*
X90275251Y-81909523D01*
X90280233Y-81911846D01*
X90280238Y-81911849D01*
X90314457Y-81927805D01*
X90367742Y-81974722D01*
X90387203Y-82042999D01*
X90366661Y-82110959D01*
X90314457Y-82156195D01*
X90280238Y-82172151D01*
X90280233Y-82172154D01*
X90275251Y-82174477D01*
X90170389Y-82247902D01*
X90092211Y-82302643D01*
X90092208Y-82302645D01*
X90087700Y-82305802D01*
X89925802Y-82467700D01*
X89922645Y-82472208D01*
X89922643Y-82472211D01*
X89893183Y-82514284D01*
X89794477Y-82655251D01*
X89792154Y-82660233D01*
X89792151Y-82660238D01*
X89782866Y-82680151D01*
X89697716Y-82862757D01*
X89696294Y-82868065D01*
X89696293Y-82868067D01*
X89644407Y-83061707D01*
X89638457Y-83083913D01*
X89618502Y-83312000D01*
X89638457Y-83540087D01*
X89639881Y-83545400D01*
X89639881Y-83545402D01*
X89687851Y-83724425D01*
X89697716Y-83761243D01*
X89700039Y-83766224D01*
X89700039Y-83766225D01*
X89792151Y-83963762D01*
X89792154Y-83963767D01*
X89794477Y-83968749D01*
X89797634Y-83973257D01*
X89901078Y-84120990D01*
X89925802Y-84156300D01*
X90087700Y-84318198D01*
X90092208Y-84321355D01*
X90092211Y-84321357D01*
X90132445Y-84349529D01*
X90275251Y-84449523D01*
X90280233Y-84451846D01*
X90280238Y-84451849D01*
X90314457Y-84467805D01*
X90367742Y-84514722D01*
X90387203Y-84582999D01*
X90366661Y-84650959D01*
X90314457Y-84696195D01*
X90280238Y-84712151D01*
X90280233Y-84712154D01*
X90275251Y-84714477D01*
X90170389Y-84787902D01*
X90092211Y-84842643D01*
X90092208Y-84842645D01*
X90087700Y-84845802D01*
X89925802Y-85007700D01*
X89922645Y-85012208D01*
X89922643Y-85012211D01*
X89893183Y-85054284D01*
X89794477Y-85195251D01*
X89792154Y-85200233D01*
X89792151Y-85200238D01*
X89782866Y-85220151D01*
X89697716Y-85402757D01*
X89696294Y-85408065D01*
X89696293Y-85408067D01*
X89645400Y-85598000D01*
X89638457Y-85623913D01*
X89618502Y-85852000D01*
X89638457Y-86080087D01*
X89639881Y-86085400D01*
X89639881Y-86085402D01*
X89687851Y-86264425D01*
X89697716Y-86301243D01*
X89700039Y-86306224D01*
X89700039Y-86306225D01*
X89792151Y-86503762D01*
X89792154Y-86503767D01*
X89794477Y-86508749D01*
X89797634Y-86513257D01*
X89901078Y-86660990D01*
X89925802Y-86696300D01*
X90087700Y-86858198D01*
X90092208Y-86861355D01*
X90092211Y-86861357D01*
X90132445Y-86889529D01*
X90275251Y-86989523D01*
X90280233Y-86991846D01*
X90280238Y-86991849D01*
X90314457Y-87007805D01*
X90367742Y-87054722D01*
X90387203Y-87122999D01*
X90366661Y-87190959D01*
X90314457Y-87236195D01*
X90280238Y-87252151D01*
X90280233Y-87252154D01*
X90275251Y-87254477D01*
X90170389Y-87327902D01*
X90092211Y-87382643D01*
X90092208Y-87382645D01*
X90087700Y-87385802D01*
X89925802Y-87547700D01*
X89922645Y-87552208D01*
X89922643Y-87552211D01*
X89894810Y-87591961D01*
X89794477Y-87735251D01*
X89792154Y-87740233D01*
X89792151Y-87740238D01*
X89709908Y-87916610D01*
X89697716Y-87942757D01*
X89696294Y-87948065D01*
X89696293Y-87948067D01*
X89644407Y-88141707D01*
X89638457Y-88163913D01*
X89618502Y-88392000D01*
X89638457Y-88620087D01*
X89639881Y-88625400D01*
X89639881Y-88625402D01*
X89687851Y-88804425D01*
X89697716Y-88841243D01*
X89700039Y-88846224D01*
X89700039Y-88846225D01*
X89792151Y-89043762D01*
X89792154Y-89043767D01*
X89794477Y-89048749D01*
X89797634Y-89053257D01*
X89901078Y-89200990D01*
X89925802Y-89236300D01*
X90087700Y-89398198D01*
X90092208Y-89401355D01*
X90092211Y-89401357D01*
X90132445Y-89429529D01*
X90275251Y-89529523D01*
X90280233Y-89531846D01*
X90280238Y-89531849D01*
X90314457Y-89547805D01*
X90367742Y-89594722D01*
X90387203Y-89662999D01*
X90366661Y-89730959D01*
X90314457Y-89776195D01*
X90280238Y-89792151D01*
X90280233Y-89792154D01*
X90275251Y-89794477D01*
X90170389Y-89867902D01*
X90092211Y-89922643D01*
X90092208Y-89922645D01*
X90087700Y-89925802D01*
X89925802Y-90087700D01*
X89922645Y-90092208D01*
X89922643Y-90092211D01*
X89867902Y-90170389D01*
X89794477Y-90275251D01*
X89792154Y-90280233D01*
X89792151Y-90280238D01*
X89709908Y-90456610D01*
X89697716Y-90482757D01*
X89696294Y-90488065D01*
X89696293Y-90488067D01*
X89644407Y-90681707D01*
X89638457Y-90703913D01*
X89618502Y-90932000D01*
X89638457Y-91160087D01*
X89639881Y-91165400D01*
X89639881Y-91165402D01*
X89687851Y-91344425D01*
X89697716Y-91381243D01*
X89700039Y-91386224D01*
X89700039Y-91386225D01*
X89792151Y-91583762D01*
X89792154Y-91583767D01*
X89794477Y-91588749D01*
X89797634Y-91593257D01*
X89901078Y-91740990D01*
X89925802Y-91776300D01*
X90087700Y-91938198D01*
X90092208Y-91941355D01*
X90092211Y-91941357D01*
X90137649Y-91973173D01*
X90275251Y-92069523D01*
X90280233Y-92071846D01*
X90280238Y-92071849D01*
X90314457Y-92087805D01*
X90367742Y-92134722D01*
X90387203Y-92202999D01*
X90366661Y-92270959D01*
X90314457Y-92316195D01*
X90280238Y-92332151D01*
X90280233Y-92332154D01*
X90275251Y-92334477D01*
X90227220Y-92368109D01*
X90092211Y-92462643D01*
X90092208Y-92462645D01*
X90087700Y-92465802D01*
X89925802Y-92627700D01*
X89794477Y-92815251D01*
X89792154Y-92820233D01*
X89792151Y-92820238D01*
X89700039Y-93017775D01*
X89697716Y-93022757D01*
X89638457Y-93243913D01*
X89618502Y-93472000D01*
X89638457Y-93700087D01*
X89697716Y-93921243D01*
X89700039Y-93926224D01*
X89700039Y-93926225D01*
X89792151Y-94123762D01*
X89792154Y-94123767D01*
X89794477Y-94128749D01*
X89925802Y-94316300D01*
X90087700Y-94478198D01*
X90092208Y-94481355D01*
X90092211Y-94481357D01*
X90170389Y-94536098D01*
X90275251Y-94609523D01*
X90280233Y-94611846D01*
X90280238Y-94611849D01*
X90449212Y-94690642D01*
X90482757Y-94706284D01*
X90488065Y-94707706D01*
X90488067Y-94707707D01*
X90698598Y-94764119D01*
X90698600Y-94764119D01*
X90703913Y-94765543D01*
X90932000Y-94785498D01*
X91160087Y-94765543D01*
X91165400Y-94764119D01*
X91165402Y-94764119D01*
X91375933Y-94707707D01*
X91375935Y-94707706D01*
X91381243Y-94706284D01*
X91414788Y-94690642D01*
X91583762Y-94611849D01*
X91583767Y-94611846D01*
X91588749Y-94609523D01*
X91693611Y-94536098D01*
X91771789Y-94481357D01*
X91771792Y-94481355D01*
X91776300Y-94478198D01*
X91938198Y-94316300D01*
X92069523Y-94128749D01*
X92071846Y-94123767D01*
X92071849Y-94123762D01*
X92163961Y-93926225D01*
X92163961Y-93926224D01*
X92166284Y-93921243D01*
X92225543Y-93700087D01*
X92245498Y-93472000D01*
X104858502Y-93472000D01*
X104878457Y-93700087D01*
X104937716Y-93921243D01*
X104940039Y-93926224D01*
X104940039Y-93926225D01*
X105032151Y-94123762D01*
X105032154Y-94123767D01*
X105034477Y-94128749D01*
X105165802Y-94316300D01*
X105327700Y-94478198D01*
X105332208Y-94481355D01*
X105332211Y-94481357D01*
X105410389Y-94536098D01*
X105515251Y-94609523D01*
X105520233Y-94611846D01*
X105520238Y-94611849D01*
X105689212Y-94690642D01*
X105722757Y-94706284D01*
X105728065Y-94707706D01*
X105728067Y-94707707D01*
X105938598Y-94764119D01*
X105938600Y-94764119D01*
X105943913Y-94765543D01*
X106172000Y-94785498D01*
X106400087Y-94765543D01*
X106405400Y-94764119D01*
X106405402Y-94764119D01*
X106615933Y-94707707D01*
X106615935Y-94707706D01*
X106621243Y-94706284D01*
X106654788Y-94690642D01*
X106823762Y-94611849D01*
X106823767Y-94611846D01*
X106828749Y-94609523D01*
X106933611Y-94536098D01*
X107011789Y-94481357D01*
X107011792Y-94481355D01*
X107016300Y-94478198D01*
X107178198Y-94316300D01*
X107309523Y-94128749D01*
X107311846Y-94123767D01*
X107311849Y-94123762D01*
X107403961Y-93926225D01*
X107403961Y-93926224D01*
X107406284Y-93921243D01*
X107465543Y-93700087D01*
X107485498Y-93472000D01*
X107465543Y-93243913D01*
X107406284Y-93022757D01*
X107403961Y-93017775D01*
X107311849Y-92820238D01*
X107311846Y-92820233D01*
X107309523Y-92815251D01*
X107178198Y-92627700D01*
X107016300Y-92465802D01*
X107011792Y-92462645D01*
X107011789Y-92462643D01*
X106876780Y-92368109D01*
X106828749Y-92334477D01*
X106823767Y-92332154D01*
X106823762Y-92332151D01*
X106789543Y-92316195D01*
X106736258Y-92269278D01*
X106716797Y-92201001D01*
X106737339Y-92133041D01*
X106789543Y-92087805D01*
X106823762Y-92071849D01*
X106823767Y-92071846D01*
X106828749Y-92069523D01*
X106966351Y-91973173D01*
X107011789Y-91941357D01*
X107011792Y-91941355D01*
X107016300Y-91938198D01*
X107178198Y-91776300D01*
X107202923Y-91740990D01*
X107306366Y-91593257D01*
X107309523Y-91588749D01*
X107311846Y-91583767D01*
X107311849Y-91583762D01*
X107403961Y-91386225D01*
X107403961Y-91386224D01*
X107406284Y-91381243D01*
X107416150Y-91344425D01*
X107464119Y-91165402D01*
X107464119Y-91165400D01*
X107465543Y-91160087D01*
X107485498Y-90932000D01*
X107465543Y-90703913D01*
X107459593Y-90681707D01*
X107407707Y-90488067D01*
X107407706Y-90488065D01*
X107406284Y-90482757D01*
X107394092Y-90456610D01*
X107311849Y-90280238D01*
X107311846Y-90280233D01*
X107309523Y-90275251D01*
X107236098Y-90170389D01*
X107181357Y-90092211D01*
X107181355Y-90092208D01*
X107178198Y-90087700D01*
X107016300Y-89925802D01*
X107011792Y-89922645D01*
X107011789Y-89922643D01*
X106933611Y-89867902D01*
X106828749Y-89794477D01*
X106823767Y-89792154D01*
X106823762Y-89792151D01*
X106789543Y-89776195D01*
X106736258Y-89729278D01*
X106716797Y-89661001D01*
X106737339Y-89593041D01*
X106789543Y-89547805D01*
X106823762Y-89531849D01*
X106823767Y-89531846D01*
X106828749Y-89529523D01*
X106971555Y-89429529D01*
X107011789Y-89401357D01*
X107011792Y-89401355D01*
X107016300Y-89398198D01*
X107178198Y-89236300D01*
X107202923Y-89200990D01*
X107306366Y-89053257D01*
X107309523Y-89048749D01*
X107311846Y-89043767D01*
X107311849Y-89043762D01*
X107403961Y-88846225D01*
X107403961Y-88846224D01*
X107406284Y-88841243D01*
X107416150Y-88804425D01*
X107464119Y-88625402D01*
X107464119Y-88625400D01*
X107465543Y-88620087D01*
X107485498Y-88392000D01*
X107465543Y-88163913D01*
X107459593Y-88141707D01*
X107407707Y-87948067D01*
X107407706Y-87948065D01*
X107406284Y-87942757D01*
X107394092Y-87916610D01*
X107311849Y-87740238D01*
X107311846Y-87740233D01*
X107309523Y-87735251D01*
X107209190Y-87591961D01*
X107181357Y-87552211D01*
X107181355Y-87552208D01*
X107178198Y-87547700D01*
X107016300Y-87385802D01*
X107011792Y-87382645D01*
X107011789Y-87382643D01*
X106933611Y-87327902D01*
X106828749Y-87254477D01*
X106823767Y-87252154D01*
X106823762Y-87252151D01*
X106788951Y-87235919D01*
X106735666Y-87189002D01*
X106716205Y-87120725D01*
X106736747Y-87052765D01*
X106788951Y-87007529D01*
X106823511Y-86991414D01*
X106833007Y-86985931D01*
X107011467Y-86860972D01*
X107019875Y-86853916D01*
X107173916Y-86699875D01*
X107180972Y-86691467D01*
X107305931Y-86513007D01*
X107311414Y-86503511D01*
X107403490Y-86306053D01*
X107407236Y-86295761D01*
X107453394Y-86123497D01*
X107453058Y-86109401D01*
X107445116Y-86106000D01*
X104904033Y-86106000D01*
X104890502Y-86109973D01*
X104889273Y-86118522D01*
X104936764Y-86295761D01*
X104940510Y-86306053D01*
X105032586Y-86503511D01*
X105038069Y-86513007D01*
X105163028Y-86691467D01*
X105170084Y-86699875D01*
X105324125Y-86853916D01*
X105332533Y-86860972D01*
X105510993Y-86985931D01*
X105520489Y-86991414D01*
X105555049Y-87007529D01*
X105608334Y-87054446D01*
X105627795Y-87122723D01*
X105607253Y-87190683D01*
X105555049Y-87235919D01*
X105520238Y-87252151D01*
X105520233Y-87252154D01*
X105515251Y-87254477D01*
X105410389Y-87327902D01*
X105332211Y-87382643D01*
X105332208Y-87382645D01*
X105327700Y-87385802D01*
X105165802Y-87547700D01*
X105162645Y-87552208D01*
X105162643Y-87552211D01*
X105134810Y-87591961D01*
X105034477Y-87735251D01*
X105032154Y-87740233D01*
X105032151Y-87740238D01*
X104949908Y-87916610D01*
X104937716Y-87942757D01*
X104936294Y-87948065D01*
X104936293Y-87948067D01*
X104884407Y-88141707D01*
X104878457Y-88163913D01*
X104858502Y-88392000D01*
X104878457Y-88620087D01*
X104879881Y-88625400D01*
X104879881Y-88625402D01*
X104927851Y-88804425D01*
X104937716Y-88841243D01*
X104940039Y-88846224D01*
X104940039Y-88846225D01*
X105032151Y-89043762D01*
X105032154Y-89043767D01*
X105034477Y-89048749D01*
X105037634Y-89053257D01*
X105141078Y-89200990D01*
X105165802Y-89236300D01*
X105327700Y-89398198D01*
X105332208Y-89401355D01*
X105332211Y-89401357D01*
X105372445Y-89429529D01*
X105515251Y-89529523D01*
X105520233Y-89531846D01*
X105520238Y-89531849D01*
X105554457Y-89547805D01*
X105607742Y-89594722D01*
X105627203Y-89662999D01*
X105606661Y-89730959D01*
X105554457Y-89776195D01*
X105520238Y-89792151D01*
X105520233Y-89792154D01*
X105515251Y-89794477D01*
X105410389Y-89867902D01*
X105332211Y-89922643D01*
X105332208Y-89922645D01*
X105327700Y-89925802D01*
X105165802Y-90087700D01*
X105162645Y-90092208D01*
X105162643Y-90092211D01*
X105107902Y-90170389D01*
X105034477Y-90275251D01*
X105032154Y-90280233D01*
X105032151Y-90280238D01*
X104949908Y-90456610D01*
X104937716Y-90482757D01*
X104936294Y-90488065D01*
X104936293Y-90488067D01*
X104884407Y-90681707D01*
X104878457Y-90703913D01*
X104858502Y-90932000D01*
X104878457Y-91160087D01*
X104879881Y-91165400D01*
X104879881Y-91165402D01*
X104927851Y-91344425D01*
X104937716Y-91381243D01*
X104940039Y-91386224D01*
X104940039Y-91386225D01*
X105032151Y-91583762D01*
X105032154Y-91583767D01*
X105034477Y-91588749D01*
X105037634Y-91593257D01*
X105141078Y-91740990D01*
X105165802Y-91776300D01*
X105327700Y-91938198D01*
X105332208Y-91941355D01*
X105332211Y-91941357D01*
X105377649Y-91973173D01*
X105515251Y-92069523D01*
X105520233Y-92071846D01*
X105520238Y-92071849D01*
X105554457Y-92087805D01*
X105607742Y-92134722D01*
X105627203Y-92202999D01*
X105606661Y-92270959D01*
X105554457Y-92316195D01*
X105520238Y-92332151D01*
X105520233Y-92332154D01*
X105515251Y-92334477D01*
X105467220Y-92368109D01*
X105332211Y-92462643D01*
X105332208Y-92462645D01*
X105327700Y-92465802D01*
X105165802Y-92627700D01*
X105034477Y-92815251D01*
X105032154Y-92820233D01*
X105032151Y-92820238D01*
X104940039Y-93017775D01*
X104937716Y-93022757D01*
X104878457Y-93243913D01*
X104858502Y-93472000D01*
X92245498Y-93472000D01*
X92225543Y-93243913D01*
X92166284Y-93022757D01*
X92163961Y-93017775D01*
X92071849Y-92820238D01*
X92071846Y-92820233D01*
X92069523Y-92815251D01*
X91938198Y-92627700D01*
X91776300Y-92465802D01*
X91771792Y-92462645D01*
X91771789Y-92462643D01*
X91636780Y-92368109D01*
X91588749Y-92334477D01*
X91583767Y-92332154D01*
X91583762Y-92332151D01*
X91549543Y-92316195D01*
X91496258Y-92269278D01*
X91476797Y-92201001D01*
X91497339Y-92133041D01*
X91549543Y-92087805D01*
X91583762Y-92071849D01*
X91583767Y-92071846D01*
X91588749Y-92069523D01*
X91726351Y-91973173D01*
X91771789Y-91941357D01*
X91771792Y-91941355D01*
X91776300Y-91938198D01*
X91938198Y-91776300D01*
X91962923Y-91740990D01*
X92066366Y-91593257D01*
X92069523Y-91588749D01*
X92071846Y-91583767D01*
X92071849Y-91583762D01*
X92163961Y-91386225D01*
X92163961Y-91386224D01*
X92166284Y-91381243D01*
X92176150Y-91344425D01*
X92224119Y-91165402D01*
X92224119Y-91165400D01*
X92225543Y-91160087D01*
X92245498Y-90932000D01*
X92225543Y-90703913D01*
X92219593Y-90681707D01*
X92167707Y-90488067D01*
X92167706Y-90488065D01*
X92166284Y-90482757D01*
X92154092Y-90456610D01*
X92071849Y-90280238D01*
X92071846Y-90280233D01*
X92069523Y-90275251D01*
X91996098Y-90170389D01*
X91941357Y-90092211D01*
X91941355Y-90092208D01*
X91938198Y-90087700D01*
X91776300Y-89925802D01*
X91771792Y-89922645D01*
X91771789Y-89922643D01*
X91693611Y-89867902D01*
X91588749Y-89794477D01*
X91583767Y-89792154D01*
X91583762Y-89792151D01*
X91549543Y-89776195D01*
X91496258Y-89729278D01*
X91476797Y-89661001D01*
X91497339Y-89593041D01*
X91549543Y-89547805D01*
X91583762Y-89531849D01*
X91583767Y-89531846D01*
X91588749Y-89529523D01*
X91731555Y-89429529D01*
X91771789Y-89401357D01*
X91771792Y-89401355D01*
X91776300Y-89398198D01*
X91938198Y-89236300D01*
X91962923Y-89200990D01*
X92066366Y-89053257D01*
X92069523Y-89048749D01*
X92071846Y-89043767D01*
X92071849Y-89043762D01*
X92163961Y-88846225D01*
X92163961Y-88846224D01*
X92166284Y-88841243D01*
X92176150Y-88804425D01*
X92224119Y-88625402D01*
X92224119Y-88625400D01*
X92225543Y-88620087D01*
X92245498Y-88392000D01*
X92225543Y-88163913D01*
X92219593Y-88141707D01*
X92167707Y-87948067D01*
X92167706Y-87948065D01*
X92166284Y-87942757D01*
X92154092Y-87916610D01*
X92071849Y-87740238D01*
X92071846Y-87740233D01*
X92069523Y-87735251D01*
X91969190Y-87591961D01*
X91941357Y-87552211D01*
X91941355Y-87552208D01*
X91938198Y-87547700D01*
X91776300Y-87385802D01*
X91771792Y-87382645D01*
X91771789Y-87382643D01*
X91693611Y-87327902D01*
X91588749Y-87254477D01*
X91583767Y-87252154D01*
X91583762Y-87252151D01*
X91549543Y-87236195D01*
X91496258Y-87189278D01*
X91476797Y-87121001D01*
X91497339Y-87053041D01*
X91549543Y-87007805D01*
X91583762Y-86991849D01*
X91583767Y-86991846D01*
X91588749Y-86989523D01*
X91731555Y-86889529D01*
X91771789Y-86861357D01*
X91771792Y-86861355D01*
X91776300Y-86858198D01*
X91938198Y-86696300D01*
X91962923Y-86660990D01*
X92066366Y-86513257D01*
X92069523Y-86508749D01*
X92071846Y-86503767D01*
X92071849Y-86503762D01*
X92138886Y-86360000D01*
X97746502Y-86360000D01*
X97766457Y-86588087D01*
X97767881Y-86593400D01*
X97767881Y-86593402D01*
X97805954Y-86735489D01*
X97825716Y-86809243D01*
X97828039Y-86814224D01*
X97828039Y-86814225D01*
X97920151Y-87011762D01*
X97920154Y-87011767D01*
X97922477Y-87016749D01*
X97947696Y-87052765D01*
X98044461Y-87190959D01*
X98053802Y-87204300D01*
X98215700Y-87366198D01*
X98220208Y-87369355D01*
X98220211Y-87369357D01*
X98252332Y-87391848D01*
X98403251Y-87497523D01*
X98408233Y-87499846D01*
X98408238Y-87499849D01*
X98529636Y-87556457D01*
X98610757Y-87594284D01*
X98616065Y-87595706D01*
X98616067Y-87595707D01*
X98826598Y-87652119D01*
X98826600Y-87652119D01*
X98831913Y-87653543D01*
X99060000Y-87673498D01*
X99288087Y-87653543D01*
X99293400Y-87652119D01*
X99293402Y-87652119D01*
X99503933Y-87595707D01*
X99503935Y-87595706D01*
X99509243Y-87594284D01*
X99590364Y-87556457D01*
X99711762Y-87499849D01*
X99711767Y-87499846D01*
X99716749Y-87497523D01*
X99867668Y-87391848D01*
X99899789Y-87369357D01*
X99899792Y-87369355D01*
X99904300Y-87366198D01*
X100066198Y-87204300D01*
X100075540Y-87190959D01*
X100172304Y-87052765D01*
X100197523Y-87016749D01*
X100199846Y-87011767D01*
X100199849Y-87011762D01*
X100291961Y-86814225D01*
X100291961Y-86814224D01*
X100294284Y-86809243D01*
X100314047Y-86735489D01*
X100352119Y-86593402D01*
X100352119Y-86593400D01*
X100353543Y-86588087D01*
X100373498Y-86360000D01*
X100353543Y-86131913D01*
X100330728Y-86046767D01*
X100295707Y-85916067D01*
X100295706Y-85916065D01*
X100294284Y-85910757D01*
X100291961Y-85905775D01*
X100199849Y-85708238D01*
X100199846Y-85708233D01*
X100197523Y-85703251D01*
X100066198Y-85515700D01*
X99904300Y-85353802D01*
X99899792Y-85350645D01*
X99899789Y-85350643D01*
X99821611Y-85295902D01*
X99716749Y-85222477D01*
X99711767Y-85220154D01*
X99711762Y-85220151D01*
X99677543Y-85204195D01*
X99624258Y-85157278D01*
X99604797Y-85089001D01*
X99625339Y-85021041D01*
X99677543Y-84975805D01*
X99711762Y-84959849D01*
X99711767Y-84959846D01*
X99716749Y-84957523D01*
X99867668Y-84851848D01*
X99899789Y-84829357D01*
X99899792Y-84829355D01*
X99904300Y-84826198D01*
X100066198Y-84664300D01*
X100075347Y-84651235D01*
X100165058Y-84523114D01*
X100197523Y-84476749D01*
X100199846Y-84471767D01*
X100199849Y-84471762D01*
X100291961Y-84274225D01*
X100291961Y-84274224D01*
X100294284Y-84269243D01*
X100314047Y-84195489D01*
X100352119Y-84053402D01*
X100352119Y-84053400D01*
X100353543Y-84048087D01*
X100373498Y-83820000D01*
X100353543Y-83591913D01*
X100330728Y-83506767D01*
X100295707Y-83376067D01*
X100295706Y-83376065D01*
X100294284Y-83370757D01*
X100291961Y-83365775D01*
X100199849Y-83168238D01*
X100199846Y-83168233D01*
X100197523Y-83163251D01*
X100066198Y-82975700D01*
X99904300Y-82813802D01*
X99899792Y-82810645D01*
X99899789Y-82810643D01*
X99821611Y-82755902D01*
X99716749Y-82682477D01*
X99711767Y-82680154D01*
X99711762Y-82680151D01*
X99677543Y-82664195D01*
X99624258Y-82617278D01*
X99604797Y-82549001D01*
X99625339Y-82481041D01*
X99677543Y-82435805D01*
X99711762Y-82419849D01*
X99711767Y-82419846D01*
X99716749Y-82417523D01*
X99867668Y-82311848D01*
X99899789Y-82289357D01*
X99899792Y-82289355D01*
X99904300Y-82286198D01*
X100066198Y-82124300D01*
X100075540Y-82110959D01*
X100172111Y-81973041D01*
X100197523Y-81936749D01*
X100199846Y-81931767D01*
X100199849Y-81931762D01*
X100291961Y-81734225D01*
X100291961Y-81734224D01*
X100294284Y-81729243D01*
X100314047Y-81655489D01*
X100352119Y-81513402D01*
X100352119Y-81513400D01*
X100353543Y-81508087D01*
X100373498Y-81280000D01*
X100353543Y-81051913D01*
X100330728Y-80966767D01*
X100295707Y-80836067D01*
X100295706Y-80836065D01*
X100294284Y-80830757D01*
X100291961Y-80825775D01*
X100199849Y-80628238D01*
X100199846Y-80628233D01*
X100197523Y-80623251D01*
X100066198Y-80435700D01*
X99904300Y-80273802D01*
X99899792Y-80270645D01*
X99899789Y-80270643D01*
X99821611Y-80215902D01*
X99716749Y-80142477D01*
X99711767Y-80140154D01*
X99711762Y-80140151D01*
X99677543Y-80124195D01*
X99624258Y-80077278D01*
X99604797Y-80009001D01*
X99625339Y-79941041D01*
X99677543Y-79895805D01*
X99711762Y-79879849D01*
X99711767Y-79879846D01*
X99716749Y-79877523D01*
X99867668Y-79771848D01*
X99899789Y-79749357D01*
X99899792Y-79749355D01*
X99904300Y-79746198D01*
X100066198Y-79584300D01*
X100075540Y-79570959D01*
X100172111Y-79433041D01*
X100197523Y-79396749D01*
X100199846Y-79391767D01*
X100199849Y-79391762D01*
X100291961Y-79194225D01*
X100291961Y-79194224D01*
X100294284Y-79189243D01*
X100314047Y-79115489D01*
X100352119Y-78973402D01*
X100352119Y-78973400D01*
X100353543Y-78968087D01*
X100373498Y-78740000D01*
X100353543Y-78511913D01*
X100330728Y-78426767D01*
X100295707Y-78296067D01*
X100295706Y-78296065D01*
X100294284Y-78290757D01*
X100291961Y-78285775D01*
X100199849Y-78088238D01*
X100199846Y-78088233D01*
X100197523Y-78083251D01*
X100066198Y-77895700D01*
X99904300Y-77733802D01*
X99899792Y-77730645D01*
X99899789Y-77730643D01*
X99821611Y-77675902D01*
X99716749Y-77602477D01*
X99711767Y-77600154D01*
X99711762Y-77600151D01*
X99677543Y-77584195D01*
X99624258Y-77537278D01*
X99604797Y-77469001D01*
X99625339Y-77401041D01*
X99677543Y-77355805D01*
X99711762Y-77339849D01*
X99711767Y-77339846D01*
X99716749Y-77337523D01*
X99867668Y-77231848D01*
X99899789Y-77209357D01*
X99899792Y-77209355D01*
X99904300Y-77206198D01*
X100066198Y-77044300D01*
X100075540Y-77030959D01*
X100172111Y-76893041D01*
X100197523Y-76856749D01*
X100199846Y-76851767D01*
X100199849Y-76851762D01*
X100291961Y-76654225D01*
X100291961Y-76654224D01*
X100294284Y-76649243D01*
X100314047Y-76575489D01*
X100352119Y-76433402D01*
X100352119Y-76433400D01*
X100353543Y-76428087D01*
X100373498Y-76200000D01*
X100353543Y-75971913D01*
X100330728Y-75886767D01*
X100295707Y-75756067D01*
X100295706Y-75756065D01*
X100294284Y-75750757D01*
X100291961Y-75745775D01*
X100199849Y-75548238D01*
X100199846Y-75548233D01*
X100197523Y-75543251D01*
X100066198Y-75355700D01*
X99904300Y-75193802D01*
X99899792Y-75190645D01*
X99899789Y-75190643D01*
X99821611Y-75135902D01*
X99716749Y-75062477D01*
X99711767Y-75060154D01*
X99711762Y-75060151D01*
X99677543Y-75044195D01*
X99624258Y-74997278D01*
X99604797Y-74929001D01*
X99625339Y-74861041D01*
X99677543Y-74815805D01*
X99711762Y-74799849D01*
X99711767Y-74799846D01*
X99716749Y-74797523D01*
X99867668Y-74691848D01*
X99899789Y-74669357D01*
X99899792Y-74669355D01*
X99904300Y-74666198D01*
X100066198Y-74504300D01*
X100075540Y-74490959D01*
X100184183Y-74335800D01*
X100197523Y-74316749D01*
X100199846Y-74311767D01*
X100199849Y-74311762D01*
X100291961Y-74114225D01*
X100291961Y-74114224D01*
X100294284Y-74109243D01*
X100353543Y-73888087D01*
X100373498Y-73660000D01*
X100353543Y-73431913D01*
X100294284Y-73210757D01*
X100291961Y-73205775D01*
X100199849Y-73008238D01*
X100199846Y-73008233D01*
X100197523Y-73003251D01*
X100066198Y-72815700D01*
X99904300Y-72653802D01*
X99899792Y-72650645D01*
X99899789Y-72650643D01*
X99821611Y-72595902D01*
X99716749Y-72522477D01*
X99711767Y-72520154D01*
X99711762Y-72520151D01*
X99677543Y-72504195D01*
X99624258Y-72457278D01*
X99604797Y-72389001D01*
X99625339Y-72321041D01*
X99677543Y-72275805D01*
X99711762Y-72259849D01*
X99711767Y-72259846D01*
X99716749Y-72257523D01*
X99821611Y-72184098D01*
X99899789Y-72129357D01*
X99899792Y-72129355D01*
X99904300Y-72126198D01*
X100066198Y-71964300D01*
X100075540Y-71950959D01*
X100194366Y-71781257D01*
X100197523Y-71776749D01*
X100199846Y-71771767D01*
X100199849Y-71771762D01*
X100291961Y-71574225D01*
X100291961Y-71574224D01*
X100294284Y-71569243D01*
X100353543Y-71348087D01*
X100373498Y-71120000D01*
X100353543Y-70891913D01*
X100294284Y-70670757D01*
X100291961Y-70665775D01*
X100199849Y-70468238D01*
X100199846Y-70468233D01*
X100197523Y-70463251D01*
X100066198Y-70275700D01*
X99904300Y-70113802D01*
X99899792Y-70110645D01*
X99899789Y-70110643D01*
X99764780Y-70016109D01*
X99716749Y-69982477D01*
X99711767Y-69980154D01*
X99711762Y-69980151D01*
X99677543Y-69964195D01*
X99624258Y-69917278D01*
X99604797Y-69849001D01*
X99625339Y-69781041D01*
X99677543Y-69735805D01*
X99711762Y-69719849D01*
X99711767Y-69719846D01*
X99716749Y-69717523D01*
X99854351Y-69621173D01*
X99899789Y-69589357D01*
X99899792Y-69589355D01*
X99904300Y-69586198D01*
X100066198Y-69424300D01*
X100075540Y-69410959D01*
X100194366Y-69241257D01*
X100197523Y-69236749D01*
X100199846Y-69231767D01*
X100199849Y-69231762D01*
X100291961Y-69034225D01*
X100291961Y-69034224D01*
X100294284Y-69029243D01*
X100304150Y-68992425D01*
X100352119Y-68813402D01*
X100352119Y-68813400D01*
X100353543Y-68808087D01*
X100373498Y-68580000D01*
X100353543Y-68351913D01*
X100347593Y-68329707D01*
X100295707Y-68136067D01*
X100295706Y-68136065D01*
X100294284Y-68130757D01*
X100282092Y-68104610D01*
X100199849Y-67928238D01*
X100199846Y-67928233D01*
X100197523Y-67923251D01*
X100124098Y-67818389D01*
X100069357Y-67740211D01*
X100069355Y-67740208D01*
X100066198Y-67735700D01*
X99904300Y-67573802D01*
X99899792Y-67570645D01*
X99899789Y-67570643D01*
X99821611Y-67515902D01*
X99716749Y-67442477D01*
X99711767Y-67440154D01*
X99711762Y-67440151D01*
X99677543Y-67424195D01*
X99624258Y-67377278D01*
X99604797Y-67309001D01*
X99625339Y-67241041D01*
X99677543Y-67195805D01*
X99711762Y-67179849D01*
X99711767Y-67179846D01*
X99716749Y-67177523D01*
X99859555Y-67077529D01*
X99899789Y-67049357D01*
X99899792Y-67049355D01*
X99904300Y-67046198D01*
X100066198Y-66884300D01*
X100075540Y-66870959D01*
X100194366Y-66701257D01*
X100197523Y-66696749D01*
X100199846Y-66691767D01*
X100199849Y-66691762D01*
X100291961Y-66494225D01*
X100291961Y-66494224D01*
X100294284Y-66489243D01*
X100304150Y-66452425D01*
X100352119Y-66273402D01*
X100352119Y-66273400D01*
X100353543Y-66268087D01*
X100373498Y-66040000D01*
X100353543Y-65811913D01*
X100346600Y-65786000D01*
X100295707Y-65596067D01*
X100295706Y-65596065D01*
X100294284Y-65590757D01*
X100282092Y-65564610D01*
X100199849Y-65388238D01*
X100199846Y-65388233D01*
X100197523Y-65383251D01*
X100124098Y-65278389D01*
X100069357Y-65200211D01*
X100069355Y-65200208D01*
X100066198Y-65195700D01*
X99904300Y-65033802D01*
X99899792Y-65030645D01*
X99899789Y-65030643D01*
X99821611Y-64975902D01*
X99716749Y-64902477D01*
X99711767Y-64900154D01*
X99711762Y-64900151D01*
X99677543Y-64884195D01*
X99624258Y-64837278D01*
X99604797Y-64769001D01*
X99625339Y-64701041D01*
X99677543Y-64655805D01*
X99711762Y-64639849D01*
X99711767Y-64639846D01*
X99716749Y-64637523D01*
X99859555Y-64537529D01*
X99899789Y-64509357D01*
X99899792Y-64509355D01*
X99904300Y-64506198D01*
X100066198Y-64344300D01*
X100075540Y-64330959D01*
X100194366Y-64161257D01*
X100197523Y-64156749D01*
X100199846Y-64151767D01*
X100199849Y-64151762D01*
X100291961Y-63954225D01*
X100291961Y-63954224D01*
X100294284Y-63949243D01*
X100304150Y-63912425D01*
X100352119Y-63733402D01*
X100352119Y-63733400D01*
X100353543Y-63728087D01*
X100373498Y-63500000D01*
X100353543Y-63271913D01*
X100347593Y-63249707D01*
X100295707Y-63056067D01*
X100295706Y-63056065D01*
X100294284Y-63050757D01*
X100282092Y-63024610D01*
X100199849Y-62848238D01*
X100199846Y-62848233D01*
X100197523Y-62843251D01*
X100124098Y-62738389D01*
X100069357Y-62660211D01*
X100069355Y-62660208D01*
X100066198Y-62655700D01*
X99904300Y-62493802D01*
X99899792Y-62490645D01*
X99899789Y-62490643D01*
X99821611Y-62435902D01*
X99716749Y-62362477D01*
X99711767Y-62360154D01*
X99711762Y-62360151D01*
X99677543Y-62344195D01*
X99624258Y-62297278D01*
X99604797Y-62229001D01*
X99625339Y-62161041D01*
X99677543Y-62115805D01*
X99711762Y-62099849D01*
X99711767Y-62099846D01*
X99716749Y-62097523D01*
X99859555Y-61997529D01*
X99899789Y-61969357D01*
X99899792Y-61969355D01*
X99904300Y-61966198D01*
X100066198Y-61804300D01*
X100075540Y-61790959D01*
X100194366Y-61621257D01*
X100197523Y-61616749D01*
X100199846Y-61611767D01*
X100199849Y-61611762D01*
X100291961Y-61414225D01*
X100291961Y-61414224D01*
X100294284Y-61409243D01*
X100304150Y-61372425D01*
X100352119Y-61193402D01*
X100352119Y-61193400D01*
X100353543Y-61188087D01*
X100373498Y-60960000D01*
X100353543Y-60731913D01*
X100347593Y-60709707D01*
X100295707Y-60516067D01*
X100295706Y-60516065D01*
X100294284Y-60510757D01*
X100282092Y-60484610D01*
X100199849Y-60308238D01*
X100199846Y-60308233D01*
X100197523Y-60303251D01*
X100090035Y-60149743D01*
X100069357Y-60120211D01*
X100069355Y-60120208D01*
X100066198Y-60115700D01*
X99904300Y-59953802D01*
X99899792Y-59950645D01*
X99899789Y-59950643D01*
X99726853Y-59829552D01*
X99716749Y-59822477D01*
X99711767Y-59820154D01*
X99711762Y-59820151D01*
X99677543Y-59804195D01*
X99624258Y-59757278D01*
X99604797Y-59689001D01*
X99625339Y-59621041D01*
X99677543Y-59575805D01*
X99711762Y-59559849D01*
X99711767Y-59559846D01*
X99716749Y-59557523D01*
X99864388Y-59454145D01*
X99899789Y-59429357D01*
X99899792Y-59429355D01*
X99904300Y-59426198D01*
X100066198Y-59264300D01*
X100075540Y-59250959D01*
X100194366Y-59081257D01*
X100197523Y-59076749D01*
X100199846Y-59071767D01*
X100199849Y-59071762D01*
X100291961Y-58874225D01*
X100291961Y-58874224D01*
X100294284Y-58869243D01*
X100304150Y-58832425D01*
X100352119Y-58653402D01*
X100352119Y-58653400D01*
X100353543Y-58648087D01*
X100373498Y-58420000D01*
X100353543Y-58191913D01*
X100347593Y-58169707D01*
X100295707Y-57976067D01*
X100295706Y-57976065D01*
X100294284Y-57970757D01*
X100282092Y-57944610D01*
X100199849Y-57768238D01*
X100199846Y-57768233D01*
X100197523Y-57763251D01*
X100118805Y-57650830D01*
X100069357Y-57580211D01*
X100069355Y-57580208D01*
X100066198Y-57575700D01*
X99904300Y-57413802D01*
X99899792Y-57410645D01*
X99899789Y-57410643D01*
X99821611Y-57355902D01*
X99716749Y-57282477D01*
X99711767Y-57280154D01*
X99711762Y-57280151D01*
X99677543Y-57264195D01*
X99624258Y-57217278D01*
X99604797Y-57149001D01*
X99625339Y-57081041D01*
X99677543Y-57035805D01*
X99711762Y-57019849D01*
X99711767Y-57019846D01*
X99716749Y-57017523D01*
X99859555Y-56917529D01*
X99899789Y-56889357D01*
X99899792Y-56889355D01*
X99904300Y-56886198D01*
X100066198Y-56724300D01*
X100075540Y-56710959D01*
X100194366Y-56541257D01*
X100197523Y-56536749D01*
X100199846Y-56531767D01*
X100199849Y-56531762D01*
X100291961Y-56334225D01*
X100291961Y-56334224D01*
X100294284Y-56329243D01*
X100304150Y-56292425D01*
X100352119Y-56113402D01*
X100352119Y-56113400D01*
X100353543Y-56108087D01*
X100373498Y-55880000D01*
X100353543Y-55651913D01*
X100347593Y-55629707D01*
X100295707Y-55436067D01*
X100295706Y-55436065D01*
X100294284Y-55430757D01*
X100282092Y-55404610D01*
X100199849Y-55228238D01*
X100199846Y-55228233D01*
X100197523Y-55223251D01*
X100124098Y-55118389D01*
X100069357Y-55040211D01*
X100069355Y-55040208D01*
X100066198Y-55035700D01*
X99904300Y-54873802D01*
X99899792Y-54870645D01*
X99899789Y-54870643D01*
X99821611Y-54815902D01*
X99716749Y-54742477D01*
X99711767Y-54740154D01*
X99711762Y-54740151D01*
X99677543Y-54724195D01*
X99624258Y-54677278D01*
X99604797Y-54609001D01*
X99625339Y-54541041D01*
X99677543Y-54495805D01*
X99711762Y-54479849D01*
X99711767Y-54479846D01*
X99716749Y-54477523D01*
X99859555Y-54377529D01*
X99899789Y-54349357D01*
X99899792Y-54349355D01*
X99904300Y-54346198D01*
X100066198Y-54184300D01*
X100075540Y-54170959D01*
X100194366Y-54001257D01*
X100197523Y-53996749D01*
X100199846Y-53991767D01*
X100199849Y-53991762D01*
X100291961Y-53794225D01*
X100291961Y-53794224D01*
X100294284Y-53789243D01*
X100304150Y-53752425D01*
X100352119Y-53573402D01*
X100352119Y-53573400D01*
X100353543Y-53568087D01*
X100373498Y-53340000D01*
X100353543Y-53111913D01*
X100347593Y-53089707D01*
X100295707Y-52896067D01*
X100295706Y-52896065D01*
X100294284Y-52890757D01*
X100282092Y-52864610D01*
X100199849Y-52688238D01*
X100199846Y-52688233D01*
X100197523Y-52683251D01*
X100124098Y-52578389D01*
X100069357Y-52500211D01*
X100069355Y-52500208D01*
X100066198Y-52495700D01*
X99904300Y-52333802D01*
X99899792Y-52330645D01*
X99899789Y-52330643D01*
X99821611Y-52275902D01*
X99716749Y-52202477D01*
X99711767Y-52200154D01*
X99711762Y-52200151D01*
X99514225Y-52108039D01*
X99514224Y-52108039D01*
X99509243Y-52105716D01*
X99503935Y-52104294D01*
X99503933Y-52104293D01*
X99293402Y-52047881D01*
X99293400Y-52047881D01*
X99288087Y-52046457D01*
X99060000Y-52026502D01*
X98831913Y-52046457D01*
X98826600Y-52047881D01*
X98826598Y-52047881D01*
X98616067Y-52104293D01*
X98616065Y-52104294D01*
X98610757Y-52105716D01*
X98605776Y-52108039D01*
X98605775Y-52108039D01*
X98408238Y-52200151D01*
X98408233Y-52200154D01*
X98403251Y-52202477D01*
X98298389Y-52275902D01*
X98220211Y-52330643D01*
X98220208Y-52330645D01*
X98215700Y-52333802D01*
X98053802Y-52495700D01*
X98050645Y-52500208D01*
X98050643Y-52500211D01*
X97995902Y-52578389D01*
X97922477Y-52683251D01*
X97920154Y-52688233D01*
X97920151Y-52688238D01*
X97837908Y-52864610D01*
X97825716Y-52890757D01*
X97824294Y-52896065D01*
X97824293Y-52896067D01*
X97772407Y-53089707D01*
X97766457Y-53111913D01*
X97746502Y-53340000D01*
X97766457Y-53568087D01*
X97767881Y-53573400D01*
X97767881Y-53573402D01*
X97815851Y-53752425D01*
X97825716Y-53789243D01*
X97828039Y-53794224D01*
X97828039Y-53794225D01*
X97920151Y-53991762D01*
X97920154Y-53991767D01*
X97922477Y-53996749D01*
X97925634Y-54001257D01*
X98044461Y-54170959D01*
X98053802Y-54184300D01*
X98215700Y-54346198D01*
X98220208Y-54349355D01*
X98220211Y-54349357D01*
X98260445Y-54377529D01*
X98403251Y-54477523D01*
X98408233Y-54479846D01*
X98408238Y-54479849D01*
X98442457Y-54495805D01*
X98495742Y-54542722D01*
X98515203Y-54610999D01*
X98494661Y-54678959D01*
X98442457Y-54724195D01*
X98408238Y-54740151D01*
X98408233Y-54740154D01*
X98403251Y-54742477D01*
X98298389Y-54815902D01*
X98220211Y-54870643D01*
X98220208Y-54870645D01*
X98215700Y-54873802D01*
X98053802Y-55035700D01*
X98050645Y-55040208D01*
X98050643Y-55040211D01*
X97995902Y-55118389D01*
X97922477Y-55223251D01*
X97920154Y-55228233D01*
X97920151Y-55228238D01*
X97837908Y-55404610D01*
X97825716Y-55430757D01*
X97824294Y-55436065D01*
X97824293Y-55436067D01*
X97772407Y-55629707D01*
X97766457Y-55651913D01*
X97746502Y-55880000D01*
X97766457Y-56108087D01*
X97767881Y-56113400D01*
X97767881Y-56113402D01*
X97815851Y-56292425D01*
X97825716Y-56329243D01*
X97828039Y-56334224D01*
X97828039Y-56334225D01*
X97920151Y-56531762D01*
X97920154Y-56531767D01*
X97922477Y-56536749D01*
X97925634Y-56541257D01*
X98044461Y-56710959D01*
X98053802Y-56724300D01*
X98215700Y-56886198D01*
X98220208Y-56889355D01*
X98220211Y-56889357D01*
X98260445Y-56917529D01*
X98403251Y-57017523D01*
X98408233Y-57019846D01*
X98408238Y-57019849D01*
X98442457Y-57035805D01*
X98495742Y-57082722D01*
X98515203Y-57150999D01*
X98494661Y-57218959D01*
X98442457Y-57264195D01*
X98408238Y-57280151D01*
X98408233Y-57280154D01*
X98403251Y-57282477D01*
X98298389Y-57355902D01*
X98220211Y-57410643D01*
X98220208Y-57410645D01*
X98215700Y-57413802D01*
X98053802Y-57575700D01*
X98050645Y-57580208D01*
X98050643Y-57580211D01*
X98001195Y-57650830D01*
X97922477Y-57763251D01*
X97920154Y-57768233D01*
X97920151Y-57768238D01*
X97837908Y-57944610D01*
X97825716Y-57970757D01*
X97824294Y-57976065D01*
X97824293Y-57976067D01*
X97772407Y-58169707D01*
X97766457Y-58191913D01*
X97746502Y-58420000D01*
X97766457Y-58648087D01*
X97767881Y-58653400D01*
X97767881Y-58653402D01*
X97815851Y-58832425D01*
X97825716Y-58869243D01*
X97828039Y-58874224D01*
X97828039Y-58874225D01*
X97920151Y-59071762D01*
X97920154Y-59071767D01*
X97922477Y-59076749D01*
X97925634Y-59081257D01*
X98044461Y-59250959D01*
X98053802Y-59264300D01*
X98215700Y-59426198D01*
X98220208Y-59429355D01*
X98220211Y-59429357D01*
X98255612Y-59454145D01*
X98403251Y-59557523D01*
X98408233Y-59559846D01*
X98408238Y-59559849D01*
X98442457Y-59575805D01*
X98495742Y-59622722D01*
X98515203Y-59690999D01*
X98494661Y-59758959D01*
X98442457Y-59804195D01*
X98408238Y-59820151D01*
X98408233Y-59820154D01*
X98403251Y-59822477D01*
X98393147Y-59829552D01*
X98220211Y-59950643D01*
X98220208Y-59950645D01*
X98215700Y-59953802D01*
X98053802Y-60115700D01*
X98050645Y-60120208D01*
X98050643Y-60120211D01*
X98029965Y-60149743D01*
X97922477Y-60303251D01*
X97920154Y-60308233D01*
X97920151Y-60308238D01*
X97837908Y-60484610D01*
X97825716Y-60510757D01*
X97824294Y-60516065D01*
X97824293Y-60516067D01*
X97772407Y-60709707D01*
X97766457Y-60731913D01*
X97746502Y-60960000D01*
X97766457Y-61188087D01*
X97767881Y-61193400D01*
X97767881Y-61193402D01*
X97815851Y-61372425D01*
X97825716Y-61409243D01*
X97828039Y-61414224D01*
X97828039Y-61414225D01*
X97920151Y-61611762D01*
X97920154Y-61611767D01*
X97922477Y-61616749D01*
X97925634Y-61621257D01*
X98044461Y-61790959D01*
X98053802Y-61804300D01*
X98215700Y-61966198D01*
X98220208Y-61969355D01*
X98220211Y-61969357D01*
X98260445Y-61997529D01*
X98403251Y-62097523D01*
X98408233Y-62099846D01*
X98408238Y-62099849D01*
X98442457Y-62115805D01*
X98495742Y-62162722D01*
X98515203Y-62230999D01*
X98494661Y-62298959D01*
X98442457Y-62344195D01*
X98408238Y-62360151D01*
X98408233Y-62360154D01*
X98403251Y-62362477D01*
X98298389Y-62435902D01*
X98220211Y-62490643D01*
X98220208Y-62490645D01*
X98215700Y-62493802D01*
X98053802Y-62655700D01*
X98050645Y-62660208D01*
X98050643Y-62660211D01*
X97995902Y-62738389D01*
X97922477Y-62843251D01*
X97920154Y-62848233D01*
X97920151Y-62848238D01*
X97837908Y-63024610D01*
X97825716Y-63050757D01*
X97824294Y-63056065D01*
X97824293Y-63056067D01*
X97772407Y-63249707D01*
X97766457Y-63271913D01*
X97746502Y-63500000D01*
X97766457Y-63728087D01*
X97767881Y-63733400D01*
X97767881Y-63733402D01*
X97815851Y-63912425D01*
X97825716Y-63949243D01*
X97828039Y-63954224D01*
X97828039Y-63954225D01*
X97920151Y-64151762D01*
X97920154Y-64151767D01*
X97922477Y-64156749D01*
X97925634Y-64161257D01*
X98044461Y-64330959D01*
X98053802Y-64344300D01*
X98215700Y-64506198D01*
X98220208Y-64509355D01*
X98220211Y-64509357D01*
X98260445Y-64537529D01*
X98403251Y-64637523D01*
X98408233Y-64639846D01*
X98408238Y-64639849D01*
X98442457Y-64655805D01*
X98495742Y-64702722D01*
X98515203Y-64770999D01*
X98494661Y-64838959D01*
X98442457Y-64884195D01*
X98408238Y-64900151D01*
X98408233Y-64900154D01*
X98403251Y-64902477D01*
X98298389Y-64975902D01*
X98220211Y-65030643D01*
X98220208Y-65030645D01*
X98215700Y-65033802D01*
X98053802Y-65195700D01*
X98050645Y-65200208D01*
X98050643Y-65200211D01*
X97995902Y-65278389D01*
X97922477Y-65383251D01*
X97920154Y-65388233D01*
X97920151Y-65388238D01*
X97837908Y-65564610D01*
X97825716Y-65590757D01*
X97824294Y-65596065D01*
X97824293Y-65596067D01*
X97773400Y-65786000D01*
X97766457Y-65811913D01*
X97746502Y-66040000D01*
X97766457Y-66268087D01*
X97767881Y-66273400D01*
X97767881Y-66273402D01*
X97815851Y-66452425D01*
X97825716Y-66489243D01*
X97828039Y-66494224D01*
X97828039Y-66494225D01*
X97920151Y-66691762D01*
X97920154Y-66691767D01*
X97922477Y-66696749D01*
X97925634Y-66701257D01*
X98044461Y-66870959D01*
X98053802Y-66884300D01*
X98215700Y-67046198D01*
X98220208Y-67049355D01*
X98220211Y-67049357D01*
X98260445Y-67077529D01*
X98403251Y-67177523D01*
X98408233Y-67179846D01*
X98408238Y-67179849D01*
X98442457Y-67195805D01*
X98495742Y-67242722D01*
X98515203Y-67310999D01*
X98494661Y-67378959D01*
X98442457Y-67424195D01*
X98408238Y-67440151D01*
X98408233Y-67440154D01*
X98403251Y-67442477D01*
X98298389Y-67515902D01*
X98220211Y-67570643D01*
X98220208Y-67570645D01*
X98215700Y-67573802D01*
X98053802Y-67735700D01*
X98050645Y-67740208D01*
X98050643Y-67740211D01*
X97995902Y-67818389D01*
X97922477Y-67923251D01*
X97920154Y-67928233D01*
X97920151Y-67928238D01*
X97837908Y-68104610D01*
X97825716Y-68130757D01*
X97824294Y-68136065D01*
X97824293Y-68136067D01*
X97772407Y-68329707D01*
X97766457Y-68351913D01*
X97746502Y-68580000D01*
X97766457Y-68808087D01*
X97767881Y-68813400D01*
X97767881Y-68813402D01*
X97815851Y-68992425D01*
X97825716Y-69029243D01*
X97828039Y-69034224D01*
X97828039Y-69034225D01*
X97920151Y-69231762D01*
X97920154Y-69231767D01*
X97922477Y-69236749D01*
X97925634Y-69241257D01*
X98044461Y-69410959D01*
X98053802Y-69424300D01*
X98215700Y-69586198D01*
X98220208Y-69589355D01*
X98220211Y-69589357D01*
X98265649Y-69621173D01*
X98403251Y-69717523D01*
X98408233Y-69719846D01*
X98408238Y-69719849D01*
X98442457Y-69735805D01*
X98495742Y-69782722D01*
X98515203Y-69850999D01*
X98494661Y-69918959D01*
X98442457Y-69964195D01*
X98408238Y-69980151D01*
X98408233Y-69980154D01*
X98403251Y-69982477D01*
X98355220Y-70016109D01*
X98220211Y-70110643D01*
X98220208Y-70110645D01*
X98215700Y-70113802D01*
X98053802Y-70275700D01*
X97922477Y-70463251D01*
X97920154Y-70468233D01*
X97920151Y-70468238D01*
X97828039Y-70665775D01*
X97825716Y-70670757D01*
X97766457Y-70891913D01*
X97746502Y-71120000D01*
X97766457Y-71348087D01*
X97825716Y-71569243D01*
X97828039Y-71574224D01*
X97828039Y-71574225D01*
X97920151Y-71771762D01*
X97920154Y-71771767D01*
X97922477Y-71776749D01*
X97925634Y-71781257D01*
X98044461Y-71950959D01*
X98053802Y-71964300D01*
X98215700Y-72126198D01*
X98220208Y-72129355D01*
X98220211Y-72129357D01*
X98298389Y-72184098D01*
X98403251Y-72257523D01*
X98408233Y-72259846D01*
X98408238Y-72259849D01*
X98442457Y-72275805D01*
X98495742Y-72322722D01*
X98515203Y-72390999D01*
X98494661Y-72458959D01*
X98442457Y-72504195D01*
X98408238Y-72520151D01*
X98408233Y-72520154D01*
X98403251Y-72522477D01*
X98298389Y-72595902D01*
X98220211Y-72650643D01*
X98220208Y-72650645D01*
X98215700Y-72653802D01*
X98053802Y-72815700D01*
X97922477Y-73003251D01*
X97920154Y-73008233D01*
X97920151Y-73008238D01*
X97828039Y-73205775D01*
X97825716Y-73210757D01*
X97766457Y-73431913D01*
X97746502Y-73660000D01*
X97766457Y-73888087D01*
X97825716Y-74109243D01*
X97828039Y-74114224D01*
X97828039Y-74114225D01*
X97920151Y-74311762D01*
X97920154Y-74311767D01*
X97922477Y-74316749D01*
X97935817Y-74335800D01*
X98044461Y-74490959D01*
X98053802Y-74504300D01*
X98215700Y-74666198D01*
X98220208Y-74669355D01*
X98220211Y-74669357D01*
X98252332Y-74691848D01*
X98403251Y-74797523D01*
X98408233Y-74799846D01*
X98408238Y-74799849D01*
X98442457Y-74815805D01*
X98495742Y-74862722D01*
X98515203Y-74930999D01*
X98494661Y-74998959D01*
X98442457Y-75044195D01*
X98408238Y-75060151D01*
X98408233Y-75060154D01*
X98403251Y-75062477D01*
X98298389Y-75135902D01*
X98220211Y-75190643D01*
X98220208Y-75190645D01*
X98215700Y-75193802D01*
X98053802Y-75355700D01*
X97922477Y-75543251D01*
X97920154Y-75548233D01*
X97920151Y-75548238D01*
X97828039Y-75745775D01*
X97825716Y-75750757D01*
X97824294Y-75756065D01*
X97824293Y-75756067D01*
X97789272Y-75886767D01*
X97766457Y-75971913D01*
X97746502Y-76200000D01*
X97766457Y-76428087D01*
X97767881Y-76433400D01*
X97767881Y-76433402D01*
X97805954Y-76575489D01*
X97825716Y-76649243D01*
X97828039Y-76654224D01*
X97828039Y-76654225D01*
X97920151Y-76851762D01*
X97920154Y-76851767D01*
X97922477Y-76856749D01*
X97947889Y-76893041D01*
X98044461Y-77030959D01*
X98053802Y-77044300D01*
X98215700Y-77206198D01*
X98220208Y-77209355D01*
X98220211Y-77209357D01*
X98252332Y-77231848D01*
X98403251Y-77337523D01*
X98408233Y-77339846D01*
X98408238Y-77339849D01*
X98442457Y-77355805D01*
X98495742Y-77402722D01*
X98515203Y-77470999D01*
X98494661Y-77538959D01*
X98442457Y-77584195D01*
X98408238Y-77600151D01*
X98408233Y-77600154D01*
X98403251Y-77602477D01*
X98298389Y-77675902D01*
X98220211Y-77730643D01*
X98220208Y-77730645D01*
X98215700Y-77733802D01*
X98053802Y-77895700D01*
X97922477Y-78083251D01*
X97920154Y-78088233D01*
X97920151Y-78088238D01*
X97828039Y-78285775D01*
X97825716Y-78290757D01*
X97824294Y-78296065D01*
X97824293Y-78296067D01*
X97789272Y-78426767D01*
X97766457Y-78511913D01*
X97746502Y-78740000D01*
X97766457Y-78968087D01*
X97767881Y-78973400D01*
X97767881Y-78973402D01*
X97805954Y-79115489D01*
X97825716Y-79189243D01*
X97828039Y-79194224D01*
X97828039Y-79194225D01*
X97920151Y-79391762D01*
X97920154Y-79391767D01*
X97922477Y-79396749D01*
X97947889Y-79433041D01*
X98044461Y-79570959D01*
X98053802Y-79584300D01*
X98215700Y-79746198D01*
X98220208Y-79749355D01*
X98220211Y-79749357D01*
X98252332Y-79771848D01*
X98403251Y-79877523D01*
X98408233Y-79879846D01*
X98408238Y-79879849D01*
X98442457Y-79895805D01*
X98495742Y-79942722D01*
X98515203Y-80010999D01*
X98494661Y-80078959D01*
X98442457Y-80124195D01*
X98408238Y-80140151D01*
X98408233Y-80140154D01*
X98403251Y-80142477D01*
X98298389Y-80215902D01*
X98220211Y-80270643D01*
X98220208Y-80270645D01*
X98215700Y-80273802D01*
X98053802Y-80435700D01*
X97922477Y-80623251D01*
X97920154Y-80628233D01*
X97920151Y-80628238D01*
X97828039Y-80825775D01*
X97825716Y-80830757D01*
X97824294Y-80836065D01*
X97824293Y-80836067D01*
X97789272Y-80966767D01*
X97766457Y-81051913D01*
X97746502Y-81280000D01*
X97766457Y-81508087D01*
X97767881Y-81513400D01*
X97767881Y-81513402D01*
X97805954Y-81655489D01*
X97825716Y-81729243D01*
X97828039Y-81734224D01*
X97828039Y-81734225D01*
X97920151Y-81931762D01*
X97920154Y-81931767D01*
X97922477Y-81936749D01*
X97947889Y-81973041D01*
X98044461Y-82110959D01*
X98053802Y-82124300D01*
X98215700Y-82286198D01*
X98220208Y-82289355D01*
X98220211Y-82289357D01*
X98252332Y-82311848D01*
X98403251Y-82417523D01*
X98408233Y-82419846D01*
X98408238Y-82419849D01*
X98442457Y-82435805D01*
X98495742Y-82482722D01*
X98515203Y-82550999D01*
X98494661Y-82618959D01*
X98442457Y-82664195D01*
X98408238Y-82680151D01*
X98408233Y-82680154D01*
X98403251Y-82682477D01*
X98298389Y-82755902D01*
X98220211Y-82810643D01*
X98220208Y-82810645D01*
X98215700Y-82813802D01*
X98053802Y-82975700D01*
X97922477Y-83163251D01*
X97920154Y-83168233D01*
X97920151Y-83168238D01*
X97828039Y-83365775D01*
X97825716Y-83370757D01*
X97824294Y-83376065D01*
X97824293Y-83376067D01*
X97789272Y-83506767D01*
X97766457Y-83591913D01*
X97746502Y-83820000D01*
X97766457Y-84048087D01*
X97767881Y-84053400D01*
X97767881Y-84053402D01*
X97805954Y-84195489D01*
X97825716Y-84269243D01*
X97828039Y-84274224D01*
X97828039Y-84274225D01*
X97920151Y-84471762D01*
X97920154Y-84471767D01*
X97922477Y-84476749D01*
X97954942Y-84523114D01*
X98044654Y-84651235D01*
X98053802Y-84664300D01*
X98215700Y-84826198D01*
X98220208Y-84829355D01*
X98220211Y-84829357D01*
X98252332Y-84851848D01*
X98403251Y-84957523D01*
X98408233Y-84959846D01*
X98408238Y-84959849D01*
X98442457Y-84975805D01*
X98495742Y-85022722D01*
X98515203Y-85090999D01*
X98494661Y-85158959D01*
X98442457Y-85204195D01*
X98408238Y-85220151D01*
X98408233Y-85220154D01*
X98403251Y-85222477D01*
X98298389Y-85295902D01*
X98220211Y-85350643D01*
X98220208Y-85350645D01*
X98215700Y-85353802D01*
X98053802Y-85515700D01*
X97922477Y-85703251D01*
X97920154Y-85708233D01*
X97920151Y-85708238D01*
X97828039Y-85905775D01*
X97825716Y-85910757D01*
X97824294Y-85916065D01*
X97824293Y-85916067D01*
X97789272Y-86046767D01*
X97766457Y-86131913D01*
X97746502Y-86360000D01*
X92138886Y-86360000D01*
X92163961Y-86306225D01*
X92163961Y-86306224D01*
X92166284Y-86301243D01*
X92176150Y-86264425D01*
X92224119Y-86085402D01*
X92224119Y-86085400D01*
X92225543Y-86080087D01*
X92245498Y-85852000D01*
X92225543Y-85623913D01*
X92218600Y-85598000D01*
X92167707Y-85408067D01*
X92167706Y-85408065D01*
X92166284Y-85402757D01*
X92081134Y-85220151D01*
X92071849Y-85200238D01*
X92071846Y-85200233D01*
X92069523Y-85195251D01*
X91970817Y-85054284D01*
X91941357Y-85012211D01*
X91941355Y-85012208D01*
X91938198Y-85007700D01*
X91776300Y-84845802D01*
X91771792Y-84842645D01*
X91771789Y-84842643D01*
X91693611Y-84787902D01*
X91588749Y-84714477D01*
X91583767Y-84712154D01*
X91583762Y-84712151D01*
X91549543Y-84696195D01*
X91496258Y-84649278D01*
X91476797Y-84581001D01*
X91497339Y-84513041D01*
X91549543Y-84467805D01*
X91583762Y-84451849D01*
X91583767Y-84451846D01*
X91588749Y-84449523D01*
X91731555Y-84349529D01*
X91771789Y-84321357D01*
X91771792Y-84321355D01*
X91776300Y-84318198D01*
X91938198Y-84156300D01*
X91962923Y-84120990D01*
X92066366Y-83973257D01*
X92069523Y-83968749D01*
X92071846Y-83963767D01*
X92071849Y-83963762D01*
X92163961Y-83766225D01*
X92163961Y-83766224D01*
X92166284Y-83761243D01*
X92176150Y-83724425D01*
X92224119Y-83545402D01*
X92224119Y-83545400D01*
X92225543Y-83540087D01*
X92245498Y-83312000D01*
X92225543Y-83083913D01*
X92219593Y-83061707D01*
X92167707Y-82868067D01*
X92167706Y-82868065D01*
X92166284Y-82862757D01*
X92081134Y-82680151D01*
X92071849Y-82660238D01*
X92071846Y-82660233D01*
X92069523Y-82655251D01*
X91970817Y-82514284D01*
X91941357Y-82472211D01*
X91941355Y-82472208D01*
X91938198Y-82467700D01*
X91776300Y-82305802D01*
X91771792Y-82302645D01*
X91771789Y-82302643D01*
X91693611Y-82247902D01*
X91588749Y-82174477D01*
X91583767Y-82172154D01*
X91583762Y-82172151D01*
X91549543Y-82156195D01*
X91496258Y-82109278D01*
X91476797Y-82041001D01*
X91497339Y-81973041D01*
X91549543Y-81927805D01*
X91583762Y-81911849D01*
X91583767Y-81911846D01*
X91588749Y-81909523D01*
X91731555Y-81809529D01*
X91771789Y-81781357D01*
X91771792Y-81781355D01*
X91776300Y-81778198D01*
X91938198Y-81616300D01*
X91962923Y-81580990D01*
X92066366Y-81433257D01*
X92069523Y-81428749D01*
X92071846Y-81423767D01*
X92071849Y-81423762D01*
X92163961Y-81226225D01*
X92163961Y-81226224D01*
X92166284Y-81221243D01*
X92176150Y-81184425D01*
X92224119Y-81005402D01*
X92224119Y-81005400D01*
X92225543Y-81000087D01*
X92245498Y-80772000D01*
X92225543Y-80543913D01*
X92219593Y-80521707D01*
X92167707Y-80328067D01*
X92167706Y-80328065D01*
X92166284Y-80322757D01*
X92081134Y-80140151D01*
X92071849Y-80120238D01*
X92071846Y-80120233D01*
X92069523Y-80115251D01*
X91970817Y-79974284D01*
X91941357Y-79932211D01*
X91941355Y-79932208D01*
X91938198Y-79927700D01*
X91776300Y-79765802D01*
X91771792Y-79762645D01*
X91771789Y-79762643D01*
X91693611Y-79707902D01*
X91588749Y-79634477D01*
X91583767Y-79632154D01*
X91583762Y-79632151D01*
X91549543Y-79616195D01*
X91496258Y-79569278D01*
X91476797Y-79501001D01*
X91497339Y-79433041D01*
X91549543Y-79387805D01*
X91583762Y-79371849D01*
X91583767Y-79371846D01*
X91588749Y-79369523D01*
X91731555Y-79269529D01*
X91771789Y-79241357D01*
X91771792Y-79241355D01*
X91776300Y-79238198D01*
X91938198Y-79076300D01*
X91962923Y-79040990D01*
X92066366Y-78893257D01*
X92069523Y-78888749D01*
X92071846Y-78883767D01*
X92071849Y-78883762D01*
X92163961Y-78686225D01*
X92163961Y-78686224D01*
X92166284Y-78681243D01*
X92176150Y-78644425D01*
X92224119Y-78465402D01*
X92224119Y-78465400D01*
X92225543Y-78460087D01*
X92245498Y-78232000D01*
X92225543Y-78003913D01*
X92219593Y-77981707D01*
X92167707Y-77788067D01*
X92167706Y-77788065D01*
X92166284Y-77782757D01*
X92081134Y-77600151D01*
X92071849Y-77580238D01*
X92071846Y-77580233D01*
X92069523Y-77575251D01*
X91970817Y-77434284D01*
X91941357Y-77392211D01*
X91941355Y-77392208D01*
X91938198Y-77387700D01*
X91776300Y-77225802D01*
X91771792Y-77222645D01*
X91771789Y-77222643D01*
X91693611Y-77167902D01*
X91588749Y-77094477D01*
X91583767Y-77092154D01*
X91583762Y-77092151D01*
X91549543Y-77076195D01*
X91496258Y-77029278D01*
X91476797Y-76961001D01*
X91497339Y-76893041D01*
X91549543Y-76847805D01*
X91583762Y-76831849D01*
X91583767Y-76831846D01*
X91588749Y-76829523D01*
X91731555Y-76729529D01*
X91771789Y-76701357D01*
X91771792Y-76701355D01*
X91776300Y-76698198D01*
X91938198Y-76536300D01*
X91962923Y-76500990D01*
X92066366Y-76353257D01*
X92069523Y-76348749D01*
X92071846Y-76343767D01*
X92071849Y-76343762D01*
X92163961Y-76146225D01*
X92163961Y-76146224D01*
X92166284Y-76141243D01*
X92176150Y-76104425D01*
X92224119Y-75925402D01*
X92224119Y-75925400D01*
X92225543Y-75920087D01*
X92245498Y-75692000D01*
X92225543Y-75463913D01*
X92219593Y-75441707D01*
X92167707Y-75248067D01*
X92167706Y-75248065D01*
X92166284Y-75242757D01*
X92081134Y-75060151D01*
X92071849Y-75040238D01*
X92071846Y-75040233D01*
X92069523Y-75035251D01*
X91970817Y-74894284D01*
X91941357Y-74852211D01*
X91941355Y-74852208D01*
X91938198Y-74847700D01*
X91776300Y-74685802D01*
X91771792Y-74682645D01*
X91771789Y-74682643D01*
X91693611Y-74627902D01*
X91588749Y-74554477D01*
X91583767Y-74552154D01*
X91583762Y-74552151D01*
X91549543Y-74536195D01*
X91496258Y-74489278D01*
X91476797Y-74421001D01*
X91497339Y-74353041D01*
X91549543Y-74307805D01*
X91583762Y-74291849D01*
X91583767Y-74291846D01*
X91588749Y-74289523D01*
X91693611Y-74216098D01*
X91771789Y-74161357D01*
X91771792Y-74161355D01*
X91776300Y-74158198D01*
X91938198Y-73996300D01*
X92069523Y-73808749D01*
X92071846Y-73803767D01*
X92071849Y-73803762D01*
X92163961Y-73606225D01*
X92163961Y-73606224D01*
X92166284Y-73601243D01*
X92225543Y-73380087D01*
X92245498Y-73152000D01*
X92225543Y-72923913D01*
X92166284Y-72702757D01*
X92073694Y-72504195D01*
X92071849Y-72500238D01*
X92071846Y-72500233D01*
X92069523Y-72495251D01*
X91948717Y-72322722D01*
X91941357Y-72312211D01*
X91941355Y-72312208D01*
X91938198Y-72307700D01*
X91776300Y-72145802D01*
X91771792Y-72142645D01*
X91771789Y-72142643D01*
X91693343Y-72087715D01*
X91588749Y-72014477D01*
X91583767Y-72012154D01*
X91583762Y-72012151D01*
X91549543Y-71996195D01*
X91496258Y-71949278D01*
X91476797Y-71881001D01*
X91497339Y-71813041D01*
X91549543Y-71767805D01*
X91583762Y-71751849D01*
X91583767Y-71751846D01*
X91588749Y-71749523D01*
X91693611Y-71676098D01*
X91771789Y-71621357D01*
X91771792Y-71621355D01*
X91776300Y-71618198D01*
X91938198Y-71456300D01*
X92069523Y-71268749D01*
X92071846Y-71263767D01*
X92071849Y-71263762D01*
X92163961Y-71066225D01*
X92163961Y-71066224D01*
X92166284Y-71061243D01*
X92225543Y-70840087D01*
X92245498Y-70612000D01*
X92225543Y-70383913D01*
X92166284Y-70162757D01*
X92105173Y-70031703D01*
X92071849Y-69960238D01*
X92071846Y-69960233D01*
X92069523Y-69955251D01*
X91948717Y-69782722D01*
X91941357Y-69772211D01*
X91941355Y-69772208D01*
X91938198Y-69767700D01*
X91776300Y-69605802D01*
X91771792Y-69602645D01*
X91771789Y-69602643D01*
X91693611Y-69547902D01*
X91588749Y-69474477D01*
X91583767Y-69472154D01*
X91583762Y-69472151D01*
X91549543Y-69456195D01*
X91496258Y-69409278D01*
X91476797Y-69341001D01*
X91497339Y-69273041D01*
X91549543Y-69227805D01*
X91583762Y-69211849D01*
X91583767Y-69211846D01*
X91588749Y-69209523D01*
X91764511Y-69086453D01*
X91771789Y-69081357D01*
X91771792Y-69081355D01*
X91776300Y-69078198D01*
X91938198Y-68916300D01*
X92069523Y-68728749D01*
X92071846Y-68723767D01*
X92071849Y-68723762D01*
X92163961Y-68526225D01*
X92163961Y-68526224D01*
X92166284Y-68521243D01*
X92208814Y-68362522D01*
X92224119Y-68305402D01*
X92224119Y-68305400D01*
X92225543Y-68300087D01*
X92245498Y-68072000D01*
X92225543Y-67843913D01*
X92166284Y-67622757D01*
X92147769Y-67583051D01*
X92071849Y-67420238D01*
X92071846Y-67420233D01*
X92069523Y-67415251D01*
X91970817Y-67274284D01*
X91941357Y-67232211D01*
X91941355Y-67232208D01*
X91938198Y-67227700D01*
X91776300Y-67065802D01*
X91771792Y-67062645D01*
X91771789Y-67062643D01*
X91693611Y-67007902D01*
X91588749Y-66934477D01*
X91583767Y-66932154D01*
X91583762Y-66932151D01*
X91549543Y-66916195D01*
X91496258Y-66869278D01*
X91476797Y-66801001D01*
X91497339Y-66733041D01*
X91549543Y-66687805D01*
X91583762Y-66671849D01*
X91583767Y-66671846D01*
X91588749Y-66669523D01*
X91764511Y-66546453D01*
X91771789Y-66541357D01*
X91771792Y-66541355D01*
X91776300Y-66538198D01*
X91938198Y-66376300D01*
X92069523Y-66188749D01*
X92071846Y-66183767D01*
X92071849Y-66183762D01*
X92163961Y-65986225D01*
X92163961Y-65986224D01*
X92166284Y-65981243D01*
X92208814Y-65822522D01*
X92224119Y-65765402D01*
X92224119Y-65765400D01*
X92225543Y-65760087D01*
X92245498Y-65532000D01*
X92225543Y-65303913D01*
X92166284Y-65082757D01*
X92147769Y-65043051D01*
X92071849Y-64880238D01*
X92071846Y-64880233D01*
X92069523Y-64875251D01*
X91970817Y-64734284D01*
X91941357Y-64692211D01*
X91941355Y-64692208D01*
X91938198Y-64687700D01*
X91776300Y-64525802D01*
X91771792Y-64522645D01*
X91771789Y-64522643D01*
X91693611Y-64467902D01*
X91588749Y-64394477D01*
X91583767Y-64392154D01*
X91583762Y-64392151D01*
X91549543Y-64376195D01*
X91496258Y-64329278D01*
X91476797Y-64261001D01*
X91497339Y-64193041D01*
X91549543Y-64147805D01*
X91583762Y-64131849D01*
X91583767Y-64131846D01*
X91588749Y-64129523D01*
X91764511Y-64006453D01*
X91771789Y-64001357D01*
X91771792Y-64001355D01*
X91776300Y-63998198D01*
X91938198Y-63836300D01*
X92069523Y-63648749D01*
X92071846Y-63643767D01*
X92071849Y-63643762D01*
X92163961Y-63446225D01*
X92163961Y-63446224D01*
X92166284Y-63441243D01*
X92208814Y-63282522D01*
X92224119Y-63225402D01*
X92224119Y-63225400D01*
X92225543Y-63220087D01*
X92245498Y-62992000D01*
X92225543Y-62763913D01*
X92166284Y-62542757D01*
X92147769Y-62503051D01*
X92071849Y-62340238D01*
X92071846Y-62340233D01*
X92069523Y-62335251D01*
X91970817Y-62194284D01*
X91941357Y-62152211D01*
X91941355Y-62152208D01*
X91938198Y-62147700D01*
X91776300Y-61985802D01*
X91771792Y-61982645D01*
X91771789Y-61982643D01*
X91693611Y-61927902D01*
X91588749Y-61854477D01*
X91583767Y-61852154D01*
X91583762Y-61852151D01*
X91549543Y-61836195D01*
X91496258Y-61789278D01*
X91476797Y-61721001D01*
X91497339Y-61653041D01*
X91549543Y-61607805D01*
X91583762Y-61591849D01*
X91583767Y-61591846D01*
X91588749Y-61589523D01*
X91764511Y-61466453D01*
X91771789Y-61461357D01*
X91771792Y-61461355D01*
X91776300Y-61458198D01*
X91938198Y-61296300D01*
X92069523Y-61108749D01*
X92071846Y-61103767D01*
X92071849Y-61103762D01*
X92163961Y-60906225D01*
X92163961Y-60906224D01*
X92166284Y-60901243D01*
X92208814Y-60742522D01*
X92224119Y-60685402D01*
X92224119Y-60685400D01*
X92225543Y-60680087D01*
X92245498Y-60452000D01*
X92225543Y-60223913D01*
X92224119Y-60218598D01*
X92167707Y-60008067D01*
X92167706Y-60008065D01*
X92166284Y-60002757D01*
X92147769Y-59963051D01*
X92071849Y-59800238D01*
X92071846Y-59800233D01*
X92069523Y-59795251D01*
X91969920Y-59653004D01*
X91941357Y-59612211D01*
X91941355Y-59612208D01*
X91938198Y-59607700D01*
X91776300Y-59445802D01*
X91771792Y-59442645D01*
X91771789Y-59442643D01*
X91693611Y-59387902D01*
X91588749Y-59314477D01*
X91583767Y-59312154D01*
X91583762Y-59312151D01*
X91549543Y-59296195D01*
X91496258Y-59249278D01*
X91476797Y-59181001D01*
X91497339Y-59113041D01*
X91549543Y-59067805D01*
X91583762Y-59051849D01*
X91583767Y-59051846D01*
X91588749Y-59049523D01*
X91764511Y-58926453D01*
X91771789Y-58921357D01*
X91771792Y-58921355D01*
X91776300Y-58918198D01*
X91938198Y-58756300D01*
X92069523Y-58568749D01*
X92071846Y-58563767D01*
X92071849Y-58563762D01*
X92163961Y-58366225D01*
X92163961Y-58366224D01*
X92166284Y-58361243D01*
X92208814Y-58202522D01*
X92224119Y-58145402D01*
X92224119Y-58145400D01*
X92225543Y-58140087D01*
X92245498Y-57912000D01*
X92225543Y-57683913D01*
X92218035Y-57655894D01*
X92167707Y-57468067D01*
X92167706Y-57468065D01*
X92166284Y-57462757D01*
X92147769Y-57423051D01*
X92071849Y-57260238D01*
X92071846Y-57260233D01*
X92069523Y-57255251D01*
X91970817Y-57114284D01*
X91941357Y-57072211D01*
X91941355Y-57072208D01*
X91938198Y-57067700D01*
X91776300Y-56905802D01*
X91771792Y-56902645D01*
X91771789Y-56902643D01*
X91693611Y-56847902D01*
X91588749Y-56774477D01*
X91583767Y-56772154D01*
X91583762Y-56772151D01*
X91549543Y-56756195D01*
X91496258Y-56709278D01*
X91476797Y-56641001D01*
X91497339Y-56573041D01*
X91549543Y-56527805D01*
X91583762Y-56511849D01*
X91583767Y-56511846D01*
X91588749Y-56509523D01*
X91764511Y-56386453D01*
X91771789Y-56381357D01*
X91771792Y-56381355D01*
X91776300Y-56378198D01*
X91938198Y-56216300D01*
X92069523Y-56028749D01*
X92071846Y-56023767D01*
X92071849Y-56023762D01*
X92163961Y-55826225D01*
X92163961Y-55826224D01*
X92166284Y-55821243D01*
X92208814Y-55662522D01*
X92224119Y-55605402D01*
X92224119Y-55605400D01*
X92225543Y-55600087D01*
X92245498Y-55372000D01*
X92225543Y-55143913D01*
X92166284Y-54922757D01*
X92147633Y-54882760D01*
X92071849Y-54720238D01*
X92071846Y-54720233D01*
X92069523Y-54715251D01*
X91970817Y-54574284D01*
X91941357Y-54532211D01*
X91941355Y-54532208D01*
X91938198Y-54527700D01*
X91776300Y-54365802D01*
X91771792Y-54362645D01*
X91771789Y-54362643D01*
X91611369Y-54250316D01*
X91588749Y-54234477D01*
X91583767Y-54232154D01*
X91583762Y-54232151D01*
X91549543Y-54216195D01*
X91496258Y-54169278D01*
X91476797Y-54101001D01*
X91497339Y-54033041D01*
X91549543Y-53987805D01*
X91583762Y-53971849D01*
X91583767Y-53971846D01*
X91588749Y-53969523D01*
X91764511Y-53846453D01*
X91771789Y-53841357D01*
X91771792Y-53841355D01*
X91776300Y-53838198D01*
X91938198Y-53676300D01*
X91941361Y-53671784D01*
X92017807Y-53562607D01*
X92069523Y-53488749D01*
X92071846Y-53483767D01*
X92071849Y-53483762D01*
X92163961Y-53286225D01*
X92163961Y-53286224D01*
X92166284Y-53281243D01*
X92174632Y-53250090D01*
X92224119Y-53065402D01*
X92224119Y-53065400D01*
X92225543Y-53060087D01*
X92245498Y-52832000D01*
X92225543Y-52603913D01*
X92196547Y-52495700D01*
X92167707Y-52388067D01*
X92167706Y-52388065D01*
X92166284Y-52382757D01*
X92147769Y-52343051D01*
X92071849Y-52180238D01*
X92071846Y-52180233D01*
X92069523Y-52175251D01*
X91979005Y-52045978D01*
X91941357Y-51992211D01*
X91941355Y-51992208D01*
X91938198Y-51987700D01*
X91776300Y-51825802D01*
X91771792Y-51822645D01*
X91771789Y-51822643D01*
X91645712Y-51734363D01*
X91588749Y-51694477D01*
X91583767Y-51692154D01*
X91583762Y-51692151D01*
X91549543Y-51676195D01*
X91496258Y-51629278D01*
X91476797Y-51561001D01*
X91497339Y-51493041D01*
X91549543Y-51447805D01*
X91583762Y-51431849D01*
X91583767Y-51431846D01*
X91588749Y-51429523D01*
X91693611Y-51356098D01*
X91771789Y-51301357D01*
X91771792Y-51301355D01*
X91776300Y-51298198D01*
X91938198Y-51136300D01*
X92069523Y-50948749D01*
X92071846Y-50943767D01*
X92071849Y-50943762D01*
X92163961Y-50746225D01*
X92163961Y-50746224D01*
X92166284Y-50741243D01*
X92225543Y-50520087D01*
X92245498Y-50292000D01*
X92225543Y-50063913D01*
X92197592Y-49959599D01*
X92199282Y-49888624D01*
X92239076Y-49829828D01*
X92304340Y-49801880D01*
X92319299Y-49800989D01*
X102159455Y-49800989D01*
X102171311Y-49801548D01*
X102171314Y-49801548D01*
X102179048Y-49803277D01*
X102249880Y-49801051D01*
X102253838Y-49800989D01*
X102282943Y-49800989D01*
X102287343Y-49800433D01*
X102299175Y-49799501D01*
X102345342Y-49798051D01*
X102365932Y-49792069D01*
X102385293Y-49788059D01*
X102392281Y-49787177D01*
X102398715Y-49786364D01*
X102398716Y-49786364D01*
X102406575Y-49785371D01*
X102413940Y-49782455D01*
X102413944Y-49782454D01*
X102449532Y-49768363D01*
X102460742Y-49764524D01*
X102505111Y-49751634D01*
X102523576Y-49740714D01*
X102541316Y-49732023D01*
X102561267Y-49724124D01*
X102598640Y-49696971D01*
X102608559Y-49690456D01*
X102641488Y-49670982D01*
X102641492Y-49670979D01*
X102648318Y-49666942D01*
X102663482Y-49651778D01*
X102678516Y-49638937D01*
X102689454Y-49630990D01*
X102695868Y-49626330D01*
X102725314Y-49590736D01*
X102733303Y-49581957D01*
X104643886Y-47671374D01*
X104706198Y-47637348D01*
X104777013Y-47642413D01*
X104833849Y-47684960D01*
X104858569Y-47751236D01*
X104858502Y-47752000D01*
X104878457Y-47980087D01*
X104937716Y-48201243D01*
X104940039Y-48206224D01*
X104940039Y-48206225D01*
X105032151Y-48403762D01*
X105032154Y-48403767D01*
X105034477Y-48408749D01*
X105165802Y-48596300D01*
X105327700Y-48758198D01*
X105332208Y-48761355D01*
X105332211Y-48761357D01*
X105410389Y-48816098D01*
X105515251Y-48889523D01*
X105520233Y-48891846D01*
X105520238Y-48891849D01*
X105554457Y-48907805D01*
X105607742Y-48954722D01*
X105627203Y-49022999D01*
X105606661Y-49090959D01*
X105554457Y-49136195D01*
X105520238Y-49152151D01*
X105520233Y-49152154D01*
X105515251Y-49154477D01*
X105410389Y-49227902D01*
X105332211Y-49282643D01*
X105332208Y-49282645D01*
X105327700Y-49285802D01*
X105165802Y-49447700D01*
X105034477Y-49635251D01*
X105032154Y-49640233D01*
X105032151Y-49640238D01*
X104956932Y-49801548D01*
X104937716Y-49842757D01*
X104936294Y-49848065D01*
X104936293Y-49848067D01*
X104879881Y-50058598D01*
X104878457Y-50063913D01*
X104858502Y-50292000D01*
X104878457Y-50520087D01*
X104937716Y-50741243D01*
X104940039Y-50746224D01*
X104940039Y-50746225D01*
X105032151Y-50943762D01*
X105032154Y-50943767D01*
X105034477Y-50948749D01*
X105165802Y-51136300D01*
X105327700Y-51298198D01*
X105332208Y-51301355D01*
X105332211Y-51301357D01*
X105410389Y-51356098D01*
X105515251Y-51429523D01*
X105520233Y-51431846D01*
X105520238Y-51431849D01*
X105554457Y-51447805D01*
X105607742Y-51494722D01*
X105627203Y-51562999D01*
X105606661Y-51630959D01*
X105554457Y-51676195D01*
X105520238Y-51692151D01*
X105520233Y-51692154D01*
X105515251Y-51694477D01*
X105458288Y-51734363D01*
X105332211Y-51822643D01*
X105332208Y-51822645D01*
X105327700Y-51825802D01*
X105165802Y-51987700D01*
X105162645Y-51992208D01*
X105162643Y-51992211D01*
X105124995Y-52045978D01*
X105034477Y-52175251D01*
X105032154Y-52180233D01*
X105032151Y-52180238D01*
X104956231Y-52343051D01*
X104937716Y-52382757D01*
X104936294Y-52388065D01*
X104936293Y-52388067D01*
X104907453Y-52495700D01*
X104878457Y-52603913D01*
X104858502Y-52832000D01*
X104878457Y-53060087D01*
X104879881Y-53065400D01*
X104879881Y-53065402D01*
X104929369Y-53250090D01*
X104937716Y-53281243D01*
X104940039Y-53286224D01*
X104940039Y-53286225D01*
X105032151Y-53483762D01*
X105032154Y-53483767D01*
X105034477Y-53488749D01*
X105086193Y-53562607D01*
X105162640Y-53671784D01*
X105165802Y-53676300D01*
X105327700Y-53838198D01*
X105332208Y-53841355D01*
X105332211Y-53841357D01*
X105339489Y-53846453D01*
X105515251Y-53969523D01*
X105520233Y-53971846D01*
X105520238Y-53971849D01*
X105554457Y-53987805D01*
X105607742Y-54034722D01*
X105627203Y-54102999D01*
X105606661Y-54170959D01*
X105554457Y-54216195D01*
X105520238Y-54232151D01*
X105520233Y-54232154D01*
X105515251Y-54234477D01*
X105492631Y-54250316D01*
X105332211Y-54362643D01*
X105332208Y-54362645D01*
X105327700Y-54365802D01*
X105165802Y-54527700D01*
X105162645Y-54532208D01*
X105162643Y-54532211D01*
X105133183Y-54574284D01*
X105034477Y-54715251D01*
X105032154Y-54720233D01*
X105032151Y-54720238D01*
X104956367Y-54882760D01*
X104937716Y-54922757D01*
X104878457Y-55143913D01*
X104858502Y-55372000D01*
X104878457Y-55600087D01*
X104879881Y-55605400D01*
X104879881Y-55605402D01*
X104895187Y-55662522D01*
X104937716Y-55821243D01*
X104940039Y-55826224D01*
X104940039Y-55826225D01*
X105032151Y-56023762D01*
X105032154Y-56023767D01*
X105034477Y-56028749D01*
X105165802Y-56216300D01*
X105327700Y-56378198D01*
X105332208Y-56381355D01*
X105332211Y-56381357D01*
X105339489Y-56386453D01*
X105515251Y-56509523D01*
X105520233Y-56511846D01*
X105520238Y-56511849D01*
X105554457Y-56527805D01*
X105607742Y-56574722D01*
X105627203Y-56642999D01*
X105606661Y-56710959D01*
X105554457Y-56756195D01*
X105520238Y-56772151D01*
X105520233Y-56772154D01*
X105515251Y-56774477D01*
X105410389Y-56847902D01*
X105332211Y-56902643D01*
X105332208Y-56902645D01*
X105327700Y-56905802D01*
X105165802Y-57067700D01*
X105162645Y-57072208D01*
X105162643Y-57072211D01*
X105133183Y-57114284D01*
X105034477Y-57255251D01*
X105032154Y-57260233D01*
X105032151Y-57260238D01*
X104956231Y-57423051D01*
X104937716Y-57462757D01*
X104936294Y-57468065D01*
X104936293Y-57468067D01*
X104885965Y-57655894D01*
X104878457Y-57683913D01*
X104858502Y-57912000D01*
X104878457Y-58140087D01*
X104879881Y-58145400D01*
X104879881Y-58145402D01*
X104895187Y-58202522D01*
X104937716Y-58361243D01*
X104940039Y-58366224D01*
X104940039Y-58366225D01*
X105032151Y-58563762D01*
X105032154Y-58563767D01*
X105034477Y-58568749D01*
X105165802Y-58756300D01*
X105327700Y-58918198D01*
X105332208Y-58921355D01*
X105332211Y-58921357D01*
X105339489Y-58926453D01*
X105515251Y-59049523D01*
X105520233Y-59051846D01*
X105520238Y-59051849D01*
X105554457Y-59067805D01*
X105607742Y-59114722D01*
X105627203Y-59182999D01*
X105606661Y-59250959D01*
X105554457Y-59296195D01*
X105520238Y-59312151D01*
X105520233Y-59312154D01*
X105515251Y-59314477D01*
X105410389Y-59387902D01*
X105332211Y-59442643D01*
X105332208Y-59442645D01*
X105327700Y-59445802D01*
X105165802Y-59607700D01*
X105162645Y-59612208D01*
X105162643Y-59612211D01*
X105134080Y-59653004D01*
X105034477Y-59795251D01*
X105032154Y-59800233D01*
X105032151Y-59800238D01*
X104956231Y-59963051D01*
X104937716Y-60002757D01*
X104936294Y-60008065D01*
X104936293Y-60008067D01*
X104879881Y-60218598D01*
X104878457Y-60223913D01*
X104858502Y-60452000D01*
X104878457Y-60680087D01*
X104879881Y-60685400D01*
X104879881Y-60685402D01*
X104895187Y-60742522D01*
X104937716Y-60901243D01*
X104940039Y-60906224D01*
X104940039Y-60906225D01*
X105032151Y-61103762D01*
X105032154Y-61103767D01*
X105034477Y-61108749D01*
X105165802Y-61296300D01*
X105327700Y-61458198D01*
X105332208Y-61461355D01*
X105332211Y-61461357D01*
X105339489Y-61466453D01*
X105515251Y-61589523D01*
X105520233Y-61591846D01*
X105520238Y-61591849D01*
X105554457Y-61607805D01*
X105607742Y-61654722D01*
X105627203Y-61722999D01*
X105606661Y-61790959D01*
X105554457Y-61836195D01*
X105520238Y-61852151D01*
X105520233Y-61852154D01*
X105515251Y-61854477D01*
X105410389Y-61927902D01*
X105332211Y-61982643D01*
X105332208Y-61982645D01*
X105327700Y-61985802D01*
X105165802Y-62147700D01*
X105162645Y-62152208D01*
X105162643Y-62152211D01*
X105133183Y-62194284D01*
X105034477Y-62335251D01*
X105032154Y-62340233D01*
X105032151Y-62340238D01*
X104956231Y-62503051D01*
X104937716Y-62542757D01*
X104878457Y-62763913D01*
X104858502Y-62992000D01*
X104878457Y-63220087D01*
X104879881Y-63225400D01*
X104879881Y-63225402D01*
X104895187Y-63282522D01*
X104937716Y-63441243D01*
X104940039Y-63446224D01*
X104940039Y-63446225D01*
X105032151Y-63643762D01*
X105032154Y-63643767D01*
X105034477Y-63648749D01*
X105165802Y-63836300D01*
X105327700Y-63998198D01*
X105332208Y-64001355D01*
X105332211Y-64001357D01*
X105339489Y-64006453D01*
X105515251Y-64129523D01*
X105520233Y-64131846D01*
X105520238Y-64131849D01*
X105554457Y-64147805D01*
X105607742Y-64194722D01*
X105627203Y-64262999D01*
X105606661Y-64330959D01*
X105554457Y-64376195D01*
X105520238Y-64392151D01*
X105520233Y-64392154D01*
X105515251Y-64394477D01*
X105410389Y-64467902D01*
X105332211Y-64522643D01*
X105332208Y-64522645D01*
X105327700Y-64525802D01*
X105165802Y-64687700D01*
X105162645Y-64692208D01*
X105162643Y-64692211D01*
X105133183Y-64734284D01*
X105034477Y-64875251D01*
X105032154Y-64880233D01*
X105032151Y-64880238D01*
X104956231Y-65043051D01*
X104937716Y-65082757D01*
X104878457Y-65303913D01*
X104858502Y-65532000D01*
X104878457Y-65760087D01*
X104879881Y-65765400D01*
X104879881Y-65765402D01*
X104895187Y-65822522D01*
X104937716Y-65981243D01*
X104940039Y-65986224D01*
X104940039Y-65986225D01*
X105032151Y-66183762D01*
X105032154Y-66183767D01*
X105034477Y-66188749D01*
X105165802Y-66376300D01*
X105327700Y-66538198D01*
X105332208Y-66541355D01*
X105332211Y-66541357D01*
X105339489Y-66546453D01*
X105515251Y-66669523D01*
X105520233Y-66671846D01*
X105520238Y-66671849D01*
X105554457Y-66687805D01*
X105607742Y-66734722D01*
X105627203Y-66802999D01*
X105606661Y-66870959D01*
X105554457Y-66916195D01*
X105520238Y-66932151D01*
X105520233Y-66932154D01*
X105515251Y-66934477D01*
X105410389Y-67007902D01*
X105332211Y-67062643D01*
X105332208Y-67062645D01*
X105327700Y-67065802D01*
X105165802Y-67227700D01*
X105162645Y-67232208D01*
X105162643Y-67232211D01*
X105133183Y-67274284D01*
X105034477Y-67415251D01*
X105032154Y-67420233D01*
X105032151Y-67420238D01*
X104956231Y-67583051D01*
X104937716Y-67622757D01*
X104878457Y-67843913D01*
X104858502Y-68072000D01*
X104878457Y-68300087D01*
X104879881Y-68305400D01*
X104879881Y-68305402D01*
X104895187Y-68362522D01*
X104937716Y-68521243D01*
X104940039Y-68526224D01*
X104940039Y-68526225D01*
X105032151Y-68723762D01*
X105032154Y-68723767D01*
X105034477Y-68728749D01*
X105165802Y-68916300D01*
X105327700Y-69078198D01*
X105332208Y-69081355D01*
X105332211Y-69081357D01*
X105339489Y-69086453D01*
X105515251Y-69209523D01*
X105520233Y-69211846D01*
X105520238Y-69211849D01*
X105554457Y-69227805D01*
X105607742Y-69274722D01*
X105627203Y-69342999D01*
X105606661Y-69410959D01*
X105554457Y-69456195D01*
X105520238Y-69472151D01*
X105520233Y-69472154D01*
X105515251Y-69474477D01*
X105410389Y-69547902D01*
X105332211Y-69602643D01*
X105332208Y-69602645D01*
X105327700Y-69605802D01*
X105165802Y-69767700D01*
X105162645Y-69772208D01*
X105162643Y-69772211D01*
X105155283Y-69782722D01*
X105034477Y-69955251D01*
X105032154Y-69960233D01*
X105032151Y-69960238D01*
X104998827Y-70031703D01*
X104937716Y-70162757D01*
X104878457Y-70383913D01*
X104858502Y-70612000D01*
X104878457Y-70840087D01*
X104937716Y-71061243D01*
X104940039Y-71066224D01*
X104940039Y-71066225D01*
X105032151Y-71263762D01*
X105032154Y-71263767D01*
X105034477Y-71268749D01*
X105165802Y-71456300D01*
X105327700Y-71618198D01*
X105332208Y-71621355D01*
X105332211Y-71621357D01*
X105410389Y-71676098D01*
X105515251Y-71749523D01*
X105520233Y-71751846D01*
X105520238Y-71751849D01*
X105554457Y-71767805D01*
X105607742Y-71814722D01*
X105627203Y-71882999D01*
X105606661Y-71950959D01*
X105554457Y-71996195D01*
X105520238Y-72012151D01*
X105520233Y-72012154D01*
X105515251Y-72014477D01*
X105410657Y-72087715D01*
X105332211Y-72142643D01*
X105332208Y-72142645D01*
X105327700Y-72145802D01*
X105165802Y-72307700D01*
X105162645Y-72312208D01*
X105162643Y-72312211D01*
X105155283Y-72322722D01*
X105034477Y-72495251D01*
X105032154Y-72500233D01*
X105032151Y-72500238D01*
X105030306Y-72504195D01*
X104937716Y-72702757D01*
X104878457Y-72923913D01*
X104858502Y-73152000D01*
X104878457Y-73380087D01*
X104937716Y-73601243D01*
X104940039Y-73606224D01*
X104940039Y-73606225D01*
X105032151Y-73803762D01*
X105032154Y-73803767D01*
X105034477Y-73808749D01*
X105165802Y-73996300D01*
X105327700Y-74158198D01*
X105332208Y-74161355D01*
X105332211Y-74161357D01*
X105410389Y-74216098D01*
X105515251Y-74289523D01*
X105520233Y-74291846D01*
X105520238Y-74291849D01*
X105554457Y-74307805D01*
X105607742Y-74354722D01*
X105627203Y-74422999D01*
X105606661Y-74490959D01*
X105554457Y-74536195D01*
X105520238Y-74552151D01*
X105520233Y-74552154D01*
X105515251Y-74554477D01*
X105410389Y-74627902D01*
X105332211Y-74682643D01*
X105332208Y-74682645D01*
X105327700Y-74685802D01*
X105165802Y-74847700D01*
X105162645Y-74852208D01*
X105162643Y-74852211D01*
X105133183Y-74894284D01*
X105034477Y-75035251D01*
X105032154Y-75040233D01*
X105032151Y-75040238D01*
X105022866Y-75060151D01*
X104937716Y-75242757D01*
X104936294Y-75248065D01*
X104936293Y-75248067D01*
X104884407Y-75441707D01*
X104878457Y-75463913D01*
X104858502Y-75692000D01*
X104878457Y-75920087D01*
X104879881Y-75925400D01*
X104879881Y-75925402D01*
X104927851Y-76104425D01*
X104937716Y-76141243D01*
X104940039Y-76146224D01*
X104940039Y-76146225D01*
X105032151Y-76343762D01*
X105032154Y-76343767D01*
X105034477Y-76348749D01*
X105037634Y-76353257D01*
X105141078Y-76500990D01*
X105165802Y-76536300D01*
X105327700Y-76698198D01*
X105332208Y-76701355D01*
X105332211Y-76701357D01*
X105372445Y-76729529D01*
X105515251Y-76829523D01*
X105520233Y-76831846D01*
X105520238Y-76831849D01*
X105554457Y-76847805D01*
X105607742Y-76894722D01*
X105627203Y-76962999D01*
X105606661Y-77030959D01*
X105554457Y-77076195D01*
X105520238Y-77092151D01*
X105520233Y-77092154D01*
X105515251Y-77094477D01*
X105410389Y-77167902D01*
X105332211Y-77222643D01*
X105332208Y-77222645D01*
X105327700Y-77225802D01*
X105165802Y-77387700D01*
X105162645Y-77392208D01*
X105162643Y-77392211D01*
X105133183Y-77434284D01*
X105034477Y-77575251D01*
X105032154Y-77580233D01*
X105032151Y-77580238D01*
X105022866Y-77600151D01*
X104937716Y-77782757D01*
X104936294Y-77788065D01*
X104936293Y-77788067D01*
X104884407Y-77981707D01*
X104878457Y-78003913D01*
X104858502Y-78232000D01*
X104878457Y-78460087D01*
X104879881Y-78465400D01*
X104879881Y-78465402D01*
X104927851Y-78644425D01*
X104937716Y-78681243D01*
X104940039Y-78686224D01*
X104940039Y-78686225D01*
X105032151Y-78883762D01*
X105032154Y-78883767D01*
X105034477Y-78888749D01*
X105037634Y-78893257D01*
X105141078Y-79040990D01*
X105165802Y-79076300D01*
X105327700Y-79238198D01*
X105332208Y-79241355D01*
X105332211Y-79241357D01*
X105372445Y-79269529D01*
X105515251Y-79369523D01*
X105520233Y-79371846D01*
X105520238Y-79371849D01*
X105554457Y-79387805D01*
X105607742Y-79434722D01*
X105627203Y-79502999D01*
X105606661Y-79570959D01*
X105554457Y-79616195D01*
X105520238Y-79632151D01*
X105520233Y-79632154D01*
X105515251Y-79634477D01*
X105410389Y-79707902D01*
X105332211Y-79762643D01*
X105332208Y-79762645D01*
X105327700Y-79765802D01*
X105165802Y-79927700D01*
X105162645Y-79932208D01*
X105162643Y-79932211D01*
X105133183Y-79974284D01*
X105034477Y-80115251D01*
X105032154Y-80120233D01*
X105032151Y-80120238D01*
X105022866Y-80140151D01*
X104937716Y-80322757D01*
X104936294Y-80328065D01*
X104936293Y-80328067D01*
X104884407Y-80521707D01*
X104878457Y-80543913D01*
X104858502Y-80772000D01*
X104878457Y-81000087D01*
X104879881Y-81005400D01*
X104879881Y-81005402D01*
X104927851Y-81184425D01*
X104937716Y-81221243D01*
X104940039Y-81226224D01*
X104940039Y-81226225D01*
X105032151Y-81423762D01*
X105032154Y-81423767D01*
X105034477Y-81428749D01*
X105037634Y-81433257D01*
X105141078Y-81580990D01*
X105165802Y-81616300D01*
X105327700Y-81778198D01*
X105332208Y-81781355D01*
X105332211Y-81781357D01*
X105372445Y-81809529D01*
X105515251Y-81909523D01*
X105520233Y-81911846D01*
X105520238Y-81911849D01*
X105554457Y-81927805D01*
X105607742Y-81974722D01*
X105627203Y-82042999D01*
X105606661Y-82110959D01*
X105554457Y-82156195D01*
X105520238Y-82172151D01*
X105520233Y-82172154D01*
X105515251Y-82174477D01*
X105410389Y-82247902D01*
X105332211Y-82302643D01*
X105332208Y-82302645D01*
X105327700Y-82305802D01*
X105165802Y-82467700D01*
X105162645Y-82472208D01*
X105162643Y-82472211D01*
X105133183Y-82514284D01*
X105034477Y-82655251D01*
X105032154Y-82660233D01*
X105032151Y-82660238D01*
X105022866Y-82680151D01*
X104937716Y-82862757D01*
X104936294Y-82868065D01*
X104936293Y-82868067D01*
X104884407Y-83061707D01*
X104878457Y-83083913D01*
X104858502Y-83312000D01*
X104878457Y-83540087D01*
X104879881Y-83545400D01*
X104879881Y-83545402D01*
X104927851Y-83724425D01*
X104937716Y-83761243D01*
X104940039Y-83766224D01*
X104940039Y-83766225D01*
X105032151Y-83963762D01*
X105032154Y-83963767D01*
X105034477Y-83968749D01*
X105037634Y-83973257D01*
X105141078Y-84120990D01*
X105165802Y-84156300D01*
X105327700Y-84318198D01*
X105332208Y-84321355D01*
X105332211Y-84321357D01*
X105372445Y-84349529D01*
X105515251Y-84449523D01*
X105520233Y-84451846D01*
X105520238Y-84451849D01*
X105555049Y-84468081D01*
X105608334Y-84514998D01*
X105627795Y-84583275D01*
X105607253Y-84651235D01*
X105555049Y-84696471D01*
X105520489Y-84712586D01*
X105510993Y-84718069D01*
X105332533Y-84843028D01*
X105324125Y-84850084D01*
X105170084Y-85004125D01*
X105163028Y-85012533D01*
X105038069Y-85190993D01*
X105032586Y-85200489D01*
X104940510Y-85397947D01*
X104936764Y-85408239D01*
X104890606Y-85580503D01*
X104890942Y-85594599D01*
X104898884Y-85598000D01*
X107439967Y-85598000D01*
X107453498Y-85594027D01*
X107454727Y-85585478D01*
X107407236Y-85408239D01*
X107403490Y-85397947D01*
X107311414Y-85200489D01*
X107305931Y-85190993D01*
X107180972Y-85012533D01*
X107173916Y-85004125D01*
X107019875Y-84850084D01*
X107011467Y-84843028D01*
X106833007Y-84718069D01*
X106823511Y-84712586D01*
X106788951Y-84696471D01*
X106735666Y-84649554D01*
X106716205Y-84581277D01*
X106736747Y-84513317D01*
X106788951Y-84468081D01*
X106823762Y-84451849D01*
X106823767Y-84451846D01*
X106828749Y-84449523D01*
X106971555Y-84349529D01*
X107011789Y-84321357D01*
X107011792Y-84321355D01*
X107016300Y-84318198D01*
X107178198Y-84156300D01*
X107202923Y-84120990D01*
X107306366Y-83973257D01*
X107309523Y-83968749D01*
X107311846Y-83963767D01*
X107311849Y-83963762D01*
X107403961Y-83766225D01*
X107403961Y-83766224D01*
X107406284Y-83761243D01*
X107416150Y-83724425D01*
X107464119Y-83545402D01*
X107464119Y-83545400D01*
X107465543Y-83540087D01*
X107485498Y-83312000D01*
X107465543Y-83083913D01*
X107459593Y-83061707D01*
X107407707Y-82868067D01*
X107407706Y-82868065D01*
X107406284Y-82862757D01*
X107321134Y-82680151D01*
X107311849Y-82660238D01*
X107311846Y-82660233D01*
X107309523Y-82655251D01*
X107210817Y-82514284D01*
X107181357Y-82472211D01*
X107181355Y-82472208D01*
X107178198Y-82467700D01*
X107016300Y-82305802D01*
X107011792Y-82302645D01*
X107011789Y-82302643D01*
X106933611Y-82247902D01*
X106828749Y-82174477D01*
X106823767Y-82172154D01*
X106823762Y-82172151D01*
X106789543Y-82156195D01*
X106736258Y-82109278D01*
X106716797Y-82041001D01*
X106737339Y-81973041D01*
X106789543Y-81927805D01*
X106823762Y-81911849D01*
X106823767Y-81911846D01*
X106828749Y-81909523D01*
X106971555Y-81809529D01*
X107011789Y-81781357D01*
X107011792Y-81781355D01*
X107016300Y-81778198D01*
X107178198Y-81616300D01*
X107202923Y-81580990D01*
X107306366Y-81433257D01*
X107309523Y-81428749D01*
X107311846Y-81423767D01*
X107311849Y-81423762D01*
X107403961Y-81226225D01*
X107403961Y-81226224D01*
X107406284Y-81221243D01*
X107416150Y-81184425D01*
X107464119Y-81005402D01*
X107464119Y-81005400D01*
X107465543Y-81000087D01*
X107485498Y-80772000D01*
X107465543Y-80543913D01*
X107459593Y-80521707D01*
X107407707Y-80328067D01*
X107407706Y-80328065D01*
X107406284Y-80322757D01*
X107321134Y-80140151D01*
X107311849Y-80120238D01*
X107311846Y-80120233D01*
X107309523Y-80115251D01*
X107210817Y-79974284D01*
X107181357Y-79932211D01*
X107181355Y-79932208D01*
X107178198Y-79927700D01*
X107016300Y-79765802D01*
X107011792Y-79762645D01*
X107011789Y-79762643D01*
X106933611Y-79707902D01*
X106828749Y-79634477D01*
X106823767Y-79632154D01*
X106823762Y-79632151D01*
X106789543Y-79616195D01*
X106736258Y-79569278D01*
X106716797Y-79501001D01*
X106737339Y-79433041D01*
X106789543Y-79387805D01*
X106823762Y-79371849D01*
X106823767Y-79371846D01*
X106828749Y-79369523D01*
X106971555Y-79269529D01*
X107011789Y-79241357D01*
X107011792Y-79241355D01*
X107016300Y-79238198D01*
X107178198Y-79076300D01*
X107202923Y-79040990D01*
X107306366Y-78893257D01*
X107309523Y-78888749D01*
X107311846Y-78883767D01*
X107311849Y-78883762D01*
X107403961Y-78686225D01*
X107403961Y-78686224D01*
X107406284Y-78681243D01*
X107416150Y-78644425D01*
X107464119Y-78465402D01*
X107464119Y-78465400D01*
X107465543Y-78460087D01*
X107485498Y-78232000D01*
X107465543Y-78003913D01*
X107459593Y-77981707D01*
X107407707Y-77788067D01*
X107407706Y-77788065D01*
X107406284Y-77782757D01*
X107321134Y-77600151D01*
X107311849Y-77580238D01*
X107311846Y-77580233D01*
X107309523Y-77575251D01*
X107210817Y-77434284D01*
X107181357Y-77392211D01*
X107181355Y-77392208D01*
X107178198Y-77387700D01*
X107016300Y-77225802D01*
X107011792Y-77222645D01*
X107011789Y-77222643D01*
X106933611Y-77167902D01*
X106828749Y-77094477D01*
X106823767Y-77092154D01*
X106823762Y-77092151D01*
X106789543Y-77076195D01*
X106736258Y-77029278D01*
X106716797Y-76961001D01*
X106737339Y-76893041D01*
X106789543Y-76847805D01*
X106823762Y-76831849D01*
X106823767Y-76831846D01*
X106828749Y-76829523D01*
X106971555Y-76729529D01*
X107011789Y-76701357D01*
X107011792Y-76701355D01*
X107016300Y-76698198D01*
X107178198Y-76536300D01*
X107202923Y-76500990D01*
X107306366Y-76353257D01*
X107309523Y-76348749D01*
X107311846Y-76343767D01*
X107311849Y-76343762D01*
X107403961Y-76146225D01*
X107403961Y-76146224D01*
X107406284Y-76141243D01*
X107416150Y-76104425D01*
X107464119Y-75925402D01*
X107464119Y-75925400D01*
X107465543Y-75920087D01*
X107485498Y-75692000D01*
X107465543Y-75463913D01*
X107459593Y-75441707D01*
X107407707Y-75248067D01*
X107407706Y-75248065D01*
X107406284Y-75242757D01*
X107321134Y-75060151D01*
X107311849Y-75040238D01*
X107311846Y-75040233D01*
X107309523Y-75035251D01*
X107210817Y-74894284D01*
X107181357Y-74852211D01*
X107181355Y-74852208D01*
X107178198Y-74847700D01*
X107016300Y-74685802D01*
X107011792Y-74682645D01*
X107011789Y-74682643D01*
X106933611Y-74627902D01*
X106828749Y-74554477D01*
X106823767Y-74552154D01*
X106823762Y-74552151D01*
X106789543Y-74536195D01*
X106736258Y-74489278D01*
X106716797Y-74421001D01*
X106737339Y-74353041D01*
X106789543Y-74307805D01*
X106823762Y-74291849D01*
X106823767Y-74291846D01*
X106828749Y-74289523D01*
X106933611Y-74216098D01*
X107011789Y-74161357D01*
X107011792Y-74161355D01*
X107016300Y-74158198D01*
X107178198Y-73996300D01*
X107309523Y-73808749D01*
X107311846Y-73803767D01*
X107311849Y-73803762D01*
X107403961Y-73606225D01*
X107403961Y-73606224D01*
X107406284Y-73601243D01*
X107465543Y-73380087D01*
X107485498Y-73152000D01*
X107465543Y-72923913D01*
X107406284Y-72702757D01*
X107313694Y-72504195D01*
X107311849Y-72500238D01*
X107311846Y-72500233D01*
X107309523Y-72495251D01*
X107188717Y-72322722D01*
X107181357Y-72312211D01*
X107181355Y-72312208D01*
X107178198Y-72307700D01*
X107016300Y-72145802D01*
X107011792Y-72142645D01*
X107011789Y-72142643D01*
X106933343Y-72087715D01*
X106828749Y-72014477D01*
X106823767Y-72012154D01*
X106823762Y-72012151D01*
X106789543Y-71996195D01*
X106736258Y-71949278D01*
X106716797Y-71881001D01*
X106737339Y-71813041D01*
X106789543Y-71767805D01*
X106823762Y-71751849D01*
X106823767Y-71751846D01*
X106828749Y-71749523D01*
X106933611Y-71676098D01*
X107011789Y-71621357D01*
X107011792Y-71621355D01*
X107016300Y-71618198D01*
X107178198Y-71456300D01*
X107309523Y-71268749D01*
X107311846Y-71263767D01*
X107311849Y-71263762D01*
X107403961Y-71066225D01*
X107403961Y-71066224D01*
X107406284Y-71061243D01*
X107465543Y-70840087D01*
X107485498Y-70612000D01*
X107465543Y-70383913D01*
X107406284Y-70162757D01*
X107345173Y-70031703D01*
X107311849Y-69960238D01*
X107311846Y-69960233D01*
X107309523Y-69955251D01*
X107188717Y-69782722D01*
X107181357Y-69772211D01*
X107181355Y-69772208D01*
X107178198Y-69767700D01*
X107016300Y-69605802D01*
X107011792Y-69602645D01*
X107011789Y-69602643D01*
X106933611Y-69547902D01*
X106828749Y-69474477D01*
X106823767Y-69472154D01*
X106823762Y-69472151D01*
X106789543Y-69456195D01*
X106736258Y-69409278D01*
X106716797Y-69341001D01*
X106737339Y-69273041D01*
X106789543Y-69227805D01*
X106823762Y-69211849D01*
X106823767Y-69211846D01*
X106828749Y-69209523D01*
X107004511Y-69086453D01*
X107011789Y-69081357D01*
X107011792Y-69081355D01*
X107016300Y-69078198D01*
X107178198Y-68916300D01*
X107309523Y-68728749D01*
X107311846Y-68723767D01*
X107311849Y-68723762D01*
X107403961Y-68526225D01*
X107403961Y-68526224D01*
X107406284Y-68521243D01*
X107448814Y-68362522D01*
X107464119Y-68305402D01*
X107464119Y-68305400D01*
X107465543Y-68300087D01*
X107485498Y-68072000D01*
X107465543Y-67843913D01*
X107406284Y-67622757D01*
X107387769Y-67583051D01*
X107311849Y-67420238D01*
X107311846Y-67420233D01*
X107309523Y-67415251D01*
X107210817Y-67274284D01*
X107181357Y-67232211D01*
X107181355Y-67232208D01*
X107178198Y-67227700D01*
X107016300Y-67065802D01*
X107011792Y-67062645D01*
X107011789Y-67062643D01*
X106933611Y-67007902D01*
X106828749Y-66934477D01*
X106823767Y-66932154D01*
X106823762Y-66932151D01*
X106789543Y-66916195D01*
X106736258Y-66869278D01*
X106716797Y-66801001D01*
X106737339Y-66733041D01*
X106789543Y-66687805D01*
X106823762Y-66671849D01*
X106823767Y-66671846D01*
X106828749Y-66669523D01*
X107004511Y-66546453D01*
X107011789Y-66541357D01*
X107011792Y-66541355D01*
X107016300Y-66538198D01*
X107178198Y-66376300D01*
X107309523Y-66188749D01*
X107311846Y-66183767D01*
X107311849Y-66183762D01*
X107403961Y-65986225D01*
X107403961Y-65986224D01*
X107406284Y-65981243D01*
X107448814Y-65822522D01*
X107464119Y-65765402D01*
X107464119Y-65765400D01*
X107465543Y-65760087D01*
X107485498Y-65532000D01*
X107465543Y-65303913D01*
X107406284Y-65082757D01*
X107387769Y-65043051D01*
X107311849Y-64880238D01*
X107311846Y-64880233D01*
X107309523Y-64875251D01*
X107210817Y-64734284D01*
X107181357Y-64692211D01*
X107181355Y-64692208D01*
X107178198Y-64687700D01*
X107016300Y-64525802D01*
X107011792Y-64522645D01*
X107011789Y-64522643D01*
X106933611Y-64467902D01*
X106828749Y-64394477D01*
X106823767Y-64392154D01*
X106823762Y-64392151D01*
X106789543Y-64376195D01*
X106736258Y-64329278D01*
X106716797Y-64261001D01*
X106737339Y-64193041D01*
X106789543Y-64147805D01*
X106823762Y-64131849D01*
X106823767Y-64131846D01*
X106828749Y-64129523D01*
X107004511Y-64006453D01*
X107011789Y-64001357D01*
X107011792Y-64001355D01*
X107016300Y-63998198D01*
X107178198Y-63836300D01*
X107309523Y-63648749D01*
X107311846Y-63643767D01*
X107311849Y-63643762D01*
X107403961Y-63446225D01*
X107403961Y-63446224D01*
X107406284Y-63441243D01*
X107448814Y-63282522D01*
X107464119Y-63225402D01*
X107464119Y-63225400D01*
X107465543Y-63220087D01*
X107485498Y-62992000D01*
X107465543Y-62763913D01*
X107406284Y-62542757D01*
X107387769Y-62503051D01*
X107311849Y-62340238D01*
X107311846Y-62340233D01*
X107309523Y-62335251D01*
X107210817Y-62194284D01*
X107181357Y-62152211D01*
X107181355Y-62152208D01*
X107178198Y-62147700D01*
X107016300Y-61985802D01*
X107011792Y-61982645D01*
X107011789Y-61982643D01*
X106933611Y-61927902D01*
X106828749Y-61854477D01*
X106823767Y-61852154D01*
X106823762Y-61852151D01*
X106789543Y-61836195D01*
X106736258Y-61789278D01*
X106716797Y-61721001D01*
X106737339Y-61653041D01*
X106789543Y-61607805D01*
X106823762Y-61591849D01*
X106823767Y-61591846D01*
X106828749Y-61589523D01*
X107004511Y-61466453D01*
X107011789Y-61461357D01*
X107011792Y-61461355D01*
X107016300Y-61458198D01*
X107178198Y-61296300D01*
X107309523Y-61108749D01*
X107311846Y-61103767D01*
X107311849Y-61103762D01*
X107403961Y-60906225D01*
X107403961Y-60906224D01*
X107406284Y-60901243D01*
X107448814Y-60742522D01*
X107464119Y-60685402D01*
X107464119Y-60685400D01*
X107465543Y-60680087D01*
X107485498Y-60452000D01*
X107465543Y-60223913D01*
X107464119Y-60218598D01*
X107407707Y-60008067D01*
X107407706Y-60008065D01*
X107406284Y-60002757D01*
X107387769Y-59963051D01*
X107311849Y-59800238D01*
X107311846Y-59800233D01*
X107309523Y-59795251D01*
X107209920Y-59653004D01*
X107181357Y-59612211D01*
X107181355Y-59612208D01*
X107178198Y-59607700D01*
X107016300Y-59445802D01*
X107011792Y-59442645D01*
X107011789Y-59442643D01*
X106933611Y-59387902D01*
X106828749Y-59314477D01*
X106823767Y-59312154D01*
X106823762Y-59312151D01*
X106789543Y-59296195D01*
X106736258Y-59249278D01*
X106716797Y-59181001D01*
X106737339Y-59113041D01*
X106789543Y-59067805D01*
X106823762Y-59051849D01*
X106823767Y-59051846D01*
X106828749Y-59049523D01*
X107004511Y-58926453D01*
X107011789Y-58921357D01*
X107011792Y-58921355D01*
X107016300Y-58918198D01*
X107178198Y-58756300D01*
X107309523Y-58568749D01*
X107311846Y-58563767D01*
X107311849Y-58563762D01*
X107403961Y-58366225D01*
X107403961Y-58366224D01*
X107406284Y-58361243D01*
X107448814Y-58202522D01*
X107464119Y-58145402D01*
X107464119Y-58145400D01*
X107465543Y-58140087D01*
X107485498Y-57912000D01*
X107465543Y-57683913D01*
X107458035Y-57655894D01*
X107407707Y-57468067D01*
X107407706Y-57468065D01*
X107406284Y-57462757D01*
X107387769Y-57423051D01*
X107311849Y-57260238D01*
X107311846Y-57260233D01*
X107309523Y-57255251D01*
X107210817Y-57114284D01*
X107181357Y-57072211D01*
X107181355Y-57072208D01*
X107178198Y-57067700D01*
X107016300Y-56905802D01*
X107011792Y-56902645D01*
X107011789Y-56902643D01*
X106933611Y-56847902D01*
X106828749Y-56774477D01*
X106823767Y-56772154D01*
X106823762Y-56772151D01*
X106789543Y-56756195D01*
X106736258Y-56709278D01*
X106716797Y-56641001D01*
X106737339Y-56573041D01*
X106789543Y-56527805D01*
X106823762Y-56511849D01*
X106823767Y-56511846D01*
X106828749Y-56509523D01*
X107004511Y-56386453D01*
X107011789Y-56381357D01*
X107011792Y-56381355D01*
X107016300Y-56378198D01*
X107178198Y-56216300D01*
X107309523Y-56028749D01*
X107311846Y-56023767D01*
X107311849Y-56023762D01*
X107403961Y-55826225D01*
X107403961Y-55826224D01*
X107406284Y-55821243D01*
X107448814Y-55662522D01*
X107464119Y-55605402D01*
X107464119Y-55605400D01*
X107465543Y-55600087D01*
X107485498Y-55372000D01*
X107465543Y-55143913D01*
X107406284Y-54922757D01*
X107387633Y-54882760D01*
X107311849Y-54720238D01*
X107311846Y-54720233D01*
X107309523Y-54715251D01*
X107210817Y-54574284D01*
X107181357Y-54532211D01*
X107181355Y-54532208D01*
X107178198Y-54527700D01*
X107016300Y-54365802D01*
X107011792Y-54362645D01*
X107011789Y-54362643D01*
X106851369Y-54250316D01*
X106828749Y-54234477D01*
X106823767Y-54232154D01*
X106823762Y-54232151D01*
X106789543Y-54216195D01*
X106736258Y-54169278D01*
X106716797Y-54101001D01*
X106737339Y-54033041D01*
X106789543Y-53987805D01*
X106823762Y-53971849D01*
X106823767Y-53971846D01*
X106828749Y-53969523D01*
X107004511Y-53846453D01*
X107011789Y-53841357D01*
X107011792Y-53841355D01*
X107016300Y-53838198D01*
X107178198Y-53676300D01*
X107181361Y-53671784D01*
X107257807Y-53562607D01*
X107309523Y-53488749D01*
X107311846Y-53483767D01*
X107311849Y-53483762D01*
X107403961Y-53286225D01*
X107403961Y-53286224D01*
X107406284Y-53281243D01*
X107414632Y-53250090D01*
X107464119Y-53065402D01*
X107464119Y-53065400D01*
X107465543Y-53060087D01*
X107485498Y-52832000D01*
X107465543Y-52603913D01*
X107436547Y-52495700D01*
X107407707Y-52388067D01*
X107407706Y-52388065D01*
X107406284Y-52382757D01*
X107387769Y-52343051D01*
X107311849Y-52180238D01*
X107311846Y-52180233D01*
X107309523Y-52175251D01*
X107219005Y-52045978D01*
X107181357Y-51992211D01*
X107181355Y-51992208D01*
X107178198Y-51987700D01*
X107016300Y-51825802D01*
X107011792Y-51822645D01*
X107011789Y-51822643D01*
X106885712Y-51734363D01*
X106828749Y-51694477D01*
X106823767Y-51692154D01*
X106823762Y-51692151D01*
X106789543Y-51676195D01*
X106736258Y-51629278D01*
X106716797Y-51561001D01*
X106737339Y-51493041D01*
X106789543Y-51447805D01*
X106823762Y-51431849D01*
X106823767Y-51431846D01*
X106828749Y-51429523D01*
X106933611Y-51356098D01*
X107011789Y-51301357D01*
X107011792Y-51301355D01*
X107016300Y-51298198D01*
X107178198Y-51136300D01*
X107270676Y-51004228D01*
X107326132Y-50959901D01*
X107373888Y-50950500D01*
X108375944Y-50950500D01*
X108387800Y-50951059D01*
X108387803Y-50951059D01*
X108395537Y-50952788D01*
X108466369Y-50950562D01*
X108470327Y-50950500D01*
X108499432Y-50950500D01*
X108503832Y-50949944D01*
X108515664Y-50949012D01*
X108561831Y-50947562D01*
X108582421Y-50941580D01*
X108601782Y-50937570D01*
X108608770Y-50936688D01*
X108615204Y-50935875D01*
X108615205Y-50935875D01*
X108623064Y-50934882D01*
X108630429Y-50931966D01*
X108630433Y-50931965D01*
X108666021Y-50917874D01*
X108677231Y-50914035D01*
X108721600Y-50901145D01*
X108740065Y-50890225D01*
X108757805Y-50881534D01*
X108777756Y-50873635D01*
X108815129Y-50846482D01*
X108825048Y-50839967D01*
X108857977Y-50820493D01*
X108857981Y-50820490D01*
X108864807Y-50816453D01*
X108879971Y-50801289D01*
X108895005Y-50788448D01*
X108905943Y-50780501D01*
X108912357Y-50775841D01*
X108941803Y-50740247D01*
X108949792Y-50731468D01*
X109627605Y-50053655D01*
X109636385Y-50045665D01*
X109636387Y-50045663D01*
X109643080Y-50041416D01*
X109691605Y-49989742D01*
X109694359Y-49986901D01*
X109714927Y-49966333D01*
X109717647Y-49962826D01*
X109725353Y-49953804D01*
X109751547Y-49925910D01*
X109756972Y-49920133D01*
X109757013Y-49920172D01*
X109810284Y-49879092D01*
X109881020Y-49873015D01*
X109943813Y-49906146D01*
X109978725Y-49967965D01*
X109982000Y-49996506D01*
X109982000Y-97156000D01*
X109961998Y-97224121D01*
X109908342Y-97270614D01*
X109856000Y-97282000D01*
X74294000Y-97282000D01*
X74225879Y-97261998D01*
X74179386Y-97208342D01*
X74168000Y-97156000D01*
X74168000Y-90898695D01*
X75345251Y-90898695D01*
X75345548Y-90903848D01*
X75345548Y-90903851D01*
X75351011Y-90998590D01*
X75358110Y-91121715D01*
X75359247Y-91126761D01*
X75359248Y-91126767D01*
X75367955Y-91165402D01*
X75407222Y-91339639D01*
X75491266Y-91546616D01*
X75607987Y-91737088D01*
X75754250Y-91905938D01*
X75758230Y-91909242D01*
X75762981Y-91913187D01*
X75802616Y-91972090D01*
X75804113Y-92043071D01*
X75766997Y-92103593D01*
X75726724Y-92128112D01*
X75611295Y-92171385D01*
X75494739Y-92258739D01*
X75407385Y-92375295D01*
X75356255Y-92511684D01*
X75349500Y-92573866D01*
X75349500Y-94370134D01*
X75356255Y-94432316D01*
X75407385Y-94568705D01*
X75494739Y-94685261D01*
X75611295Y-94772615D01*
X75747684Y-94823745D01*
X75809866Y-94830500D01*
X77606134Y-94830500D01*
X77668316Y-94823745D01*
X77804705Y-94772615D01*
X77921261Y-94685261D01*
X78008615Y-94568705D01*
X78059745Y-94432316D01*
X78066500Y-94370134D01*
X78066500Y-92573866D01*
X78059745Y-92511684D01*
X78008615Y-92375295D01*
X77921261Y-92258739D01*
X77804705Y-92171385D01*
X77791098Y-92166284D01*
X77686203Y-92126960D01*
X77629439Y-92084318D01*
X77604739Y-92017756D01*
X77619947Y-91948408D01*
X77641493Y-91919727D01*
X77742435Y-91819137D01*
X77746096Y-91815489D01*
X77777498Y-91771789D01*
X77873435Y-91638277D01*
X77876453Y-91634077D01*
X77896628Y-91593257D01*
X77973136Y-91438453D01*
X77973137Y-91438451D01*
X77975430Y-91433811D01*
X78040370Y-91220069D01*
X78069529Y-90998590D01*
X78071156Y-90932000D01*
X78052852Y-90709361D01*
X77998431Y-90492702D01*
X77909354Y-90287840D01*
X77788014Y-90100277D01*
X77637670Y-89935051D01*
X77633619Y-89931852D01*
X77633615Y-89931848D01*
X77466414Y-89799800D01*
X77466410Y-89799798D01*
X77462359Y-89796598D01*
X77421053Y-89773796D01*
X77371084Y-89723364D01*
X77356312Y-89653921D01*
X77381428Y-89587516D01*
X77408780Y-89560909D01*
X77457207Y-89526366D01*
X77587860Y-89433173D01*
X77619788Y-89401357D01*
X77742435Y-89279137D01*
X77746096Y-89275489D01*
X77777498Y-89231789D01*
X77873435Y-89098277D01*
X77876453Y-89094077D01*
X77896628Y-89053257D01*
X77973136Y-88898453D01*
X77973137Y-88898451D01*
X77975430Y-88893811D01*
X78040370Y-88680069D01*
X78069529Y-88458590D01*
X78071156Y-88392000D01*
X78052852Y-88169361D01*
X77998431Y-87952702D01*
X77909354Y-87747840D01*
X77810014Y-87594284D01*
X77790822Y-87564617D01*
X77790820Y-87564614D01*
X77788014Y-87560277D01*
X77637670Y-87395051D01*
X77633619Y-87391852D01*
X77633615Y-87391848D01*
X77466414Y-87259800D01*
X77466410Y-87259798D01*
X77462359Y-87256598D01*
X77421053Y-87233796D01*
X77371084Y-87183364D01*
X77356312Y-87113921D01*
X77381428Y-87047516D01*
X77408780Y-87020909D01*
X77457817Y-86985931D01*
X77587860Y-86893173D01*
X77619788Y-86861357D01*
X77742435Y-86739137D01*
X77746096Y-86735489D01*
X77777498Y-86691789D01*
X77873435Y-86558277D01*
X77876453Y-86554077D01*
X77896628Y-86513257D01*
X77972371Y-86360000D01*
X82506502Y-86360000D01*
X82526457Y-86588087D01*
X82527881Y-86593400D01*
X82527881Y-86593402D01*
X82565954Y-86735489D01*
X82585716Y-86809243D01*
X82588039Y-86814224D01*
X82588039Y-86814225D01*
X82680151Y-87011762D01*
X82680154Y-87011767D01*
X82682477Y-87016749D01*
X82707696Y-87052765D01*
X82804461Y-87190959D01*
X82813802Y-87204300D01*
X82975700Y-87366198D01*
X82980208Y-87369355D01*
X82980211Y-87369357D01*
X83012332Y-87391848D01*
X83163251Y-87497523D01*
X83168233Y-87499846D01*
X83168238Y-87499849D01*
X83289636Y-87556457D01*
X83370757Y-87594284D01*
X83376065Y-87595706D01*
X83376067Y-87595707D01*
X83586598Y-87652119D01*
X83586600Y-87652119D01*
X83591913Y-87653543D01*
X83820000Y-87673498D01*
X84048087Y-87653543D01*
X84053400Y-87652119D01*
X84053402Y-87652119D01*
X84263933Y-87595707D01*
X84263935Y-87595706D01*
X84269243Y-87594284D01*
X84350364Y-87556457D01*
X84471762Y-87499849D01*
X84471767Y-87499846D01*
X84476749Y-87497523D01*
X84627668Y-87391848D01*
X84659789Y-87369357D01*
X84659792Y-87369355D01*
X84664300Y-87366198D01*
X84826198Y-87204300D01*
X84835540Y-87190959D01*
X84932304Y-87052765D01*
X84957523Y-87016749D01*
X84959846Y-87011767D01*
X84959849Y-87011762D01*
X85051961Y-86814225D01*
X85051961Y-86814224D01*
X85054284Y-86809243D01*
X85074047Y-86735489D01*
X85112119Y-86593402D01*
X85112119Y-86593400D01*
X85113543Y-86588087D01*
X85133498Y-86360000D01*
X85113543Y-86131913D01*
X85090728Y-86046767D01*
X85055707Y-85916067D01*
X85055706Y-85916065D01*
X85054284Y-85910757D01*
X85051961Y-85905775D01*
X84959849Y-85708238D01*
X84959846Y-85708233D01*
X84957523Y-85703251D01*
X84826198Y-85515700D01*
X84664300Y-85353802D01*
X84659792Y-85350645D01*
X84659789Y-85350643D01*
X84581611Y-85295902D01*
X84476749Y-85222477D01*
X84471767Y-85220154D01*
X84471762Y-85220151D01*
X84437543Y-85204195D01*
X84384258Y-85157278D01*
X84364797Y-85089001D01*
X84385339Y-85021041D01*
X84437543Y-84975805D01*
X84471762Y-84959849D01*
X84471767Y-84959846D01*
X84476749Y-84957523D01*
X84627668Y-84851848D01*
X84659789Y-84829357D01*
X84659792Y-84829355D01*
X84664300Y-84826198D01*
X84826198Y-84664300D01*
X84835347Y-84651235D01*
X84925058Y-84523114D01*
X84957523Y-84476749D01*
X84959846Y-84471767D01*
X84959849Y-84471762D01*
X85051961Y-84274225D01*
X85051961Y-84274224D01*
X85054284Y-84269243D01*
X85074047Y-84195489D01*
X85112119Y-84053402D01*
X85112119Y-84053400D01*
X85113543Y-84048087D01*
X85133498Y-83820000D01*
X85113543Y-83591913D01*
X85090728Y-83506767D01*
X85055707Y-83376067D01*
X85055706Y-83376065D01*
X85054284Y-83370757D01*
X85051961Y-83365775D01*
X84959849Y-83168238D01*
X84959846Y-83168233D01*
X84957523Y-83163251D01*
X84826198Y-82975700D01*
X84664300Y-82813802D01*
X84659792Y-82810645D01*
X84659789Y-82810643D01*
X84581611Y-82755902D01*
X84476749Y-82682477D01*
X84471767Y-82680154D01*
X84471762Y-82680151D01*
X84437543Y-82664195D01*
X84384258Y-82617278D01*
X84364797Y-82549001D01*
X84385339Y-82481041D01*
X84437543Y-82435805D01*
X84471762Y-82419849D01*
X84471767Y-82419846D01*
X84476749Y-82417523D01*
X84627668Y-82311848D01*
X84659789Y-82289357D01*
X84659792Y-82289355D01*
X84664300Y-82286198D01*
X84826198Y-82124300D01*
X84835540Y-82110959D01*
X84932111Y-81973041D01*
X84957523Y-81936749D01*
X84959846Y-81931767D01*
X84959849Y-81931762D01*
X85051961Y-81734225D01*
X85051961Y-81734224D01*
X85054284Y-81729243D01*
X85074047Y-81655489D01*
X85112119Y-81513402D01*
X85112119Y-81513400D01*
X85113543Y-81508087D01*
X85133498Y-81280000D01*
X85113543Y-81051913D01*
X85090728Y-80966767D01*
X85055707Y-80836067D01*
X85055706Y-80836065D01*
X85054284Y-80830757D01*
X85051961Y-80825775D01*
X84959849Y-80628238D01*
X84959846Y-80628233D01*
X84957523Y-80623251D01*
X84826198Y-80435700D01*
X84664300Y-80273802D01*
X84659792Y-80270645D01*
X84659789Y-80270643D01*
X84581611Y-80215902D01*
X84476749Y-80142477D01*
X84471767Y-80140154D01*
X84471762Y-80140151D01*
X84437543Y-80124195D01*
X84384258Y-80077278D01*
X84364797Y-80009001D01*
X84385339Y-79941041D01*
X84437543Y-79895805D01*
X84471762Y-79879849D01*
X84471767Y-79879846D01*
X84476749Y-79877523D01*
X84627668Y-79771848D01*
X84659789Y-79749357D01*
X84659792Y-79749355D01*
X84664300Y-79746198D01*
X84826198Y-79584300D01*
X84835540Y-79570959D01*
X84932111Y-79433041D01*
X84957523Y-79396749D01*
X84959846Y-79391767D01*
X84959849Y-79391762D01*
X85051961Y-79194225D01*
X85051961Y-79194224D01*
X85054284Y-79189243D01*
X85074047Y-79115489D01*
X85112119Y-78973402D01*
X85112119Y-78973400D01*
X85113543Y-78968087D01*
X85133498Y-78740000D01*
X85113543Y-78511913D01*
X85090728Y-78426767D01*
X85055707Y-78296067D01*
X85055706Y-78296065D01*
X85054284Y-78290757D01*
X85051961Y-78285775D01*
X84959849Y-78088238D01*
X84959846Y-78088233D01*
X84957523Y-78083251D01*
X84826198Y-77895700D01*
X84664300Y-77733802D01*
X84659792Y-77730645D01*
X84659789Y-77730643D01*
X84581611Y-77675902D01*
X84476749Y-77602477D01*
X84471767Y-77600154D01*
X84471762Y-77600151D01*
X84437543Y-77584195D01*
X84384258Y-77537278D01*
X84364797Y-77469001D01*
X84385339Y-77401041D01*
X84437543Y-77355805D01*
X84471762Y-77339849D01*
X84471767Y-77339846D01*
X84476749Y-77337523D01*
X84627668Y-77231848D01*
X84659789Y-77209357D01*
X84659792Y-77209355D01*
X84664300Y-77206198D01*
X84826198Y-77044300D01*
X84835540Y-77030959D01*
X84932111Y-76893041D01*
X84957523Y-76856749D01*
X84959846Y-76851767D01*
X84959849Y-76851762D01*
X85051961Y-76654225D01*
X85051961Y-76654224D01*
X85054284Y-76649243D01*
X85074047Y-76575489D01*
X85112119Y-76433402D01*
X85112119Y-76433400D01*
X85113543Y-76428087D01*
X85133498Y-76200000D01*
X85113543Y-75971913D01*
X85090728Y-75886767D01*
X85055707Y-75756067D01*
X85055706Y-75756065D01*
X85054284Y-75750757D01*
X85051961Y-75745775D01*
X84959849Y-75548238D01*
X84959846Y-75548233D01*
X84957523Y-75543251D01*
X84826198Y-75355700D01*
X84664300Y-75193802D01*
X84659792Y-75190645D01*
X84659789Y-75190643D01*
X84581611Y-75135902D01*
X84476749Y-75062477D01*
X84471767Y-75060154D01*
X84471762Y-75060151D01*
X84437543Y-75044195D01*
X84384258Y-74997278D01*
X84364797Y-74929001D01*
X84385339Y-74861041D01*
X84437543Y-74815805D01*
X84471762Y-74799849D01*
X84471767Y-74799846D01*
X84476749Y-74797523D01*
X84627668Y-74691848D01*
X84659789Y-74669357D01*
X84659792Y-74669355D01*
X84664300Y-74666198D01*
X84826198Y-74504300D01*
X84835540Y-74490959D01*
X84944183Y-74335800D01*
X84957523Y-74316749D01*
X84959846Y-74311767D01*
X84959849Y-74311762D01*
X85051961Y-74114225D01*
X85051961Y-74114224D01*
X85054284Y-74109243D01*
X85113543Y-73888087D01*
X85133498Y-73660000D01*
X85113543Y-73431913D01*
X85054284Y-73210757D01*
X85051961Y-73205775D01*
X84959849Y-73008238D01*
X84959846Y-73008233D01*
X84957523Y-73003251D01*
X84826198Y-72815700D01*
X84664300Y-72653802D01*
X84659792Y-72650645D01*
X84659789Y-72650643D01*
X84581611Y-72595902D01*
X84476749Y-72522477D01*
X84471767Y-72520154D01*
X84471762Y-72520151D01*
X84437543Y-72504195D01*
X84384258Y-72457278D01*
X84364797Y-72389001D01*
X84385339Y-72321041D01*
X84437543Y-72275805D01*
X84471762Y-72259849D01*
X84471767Y-72259846D01*
X84476749Y-72257523D01*
X84581611Y-72184098D01*
X84659789Y-72129357D01*
X84659792Y-72129355D01*
X84664300Y-72126198D01*
X84826198Y-71964300D01*
X84835540Y-71950959D01*
X84954366Y-71781257D01*
X84957523Y-71776749D01*
X84959846Y-71771767D01*
X84959849Y-71771762D01*
X85051961Y-71574225D01*
X85051961Y-71574224D01*
X85054284Y-71569243D01*
X85113543Y-71348087D01*
X85133498Y-71120000D01*
X85113543Y-70891913D01*
X85054284Y-70670757D01*
X85051961Y-70665775D01*
X84959849Y-70468238D01*
X84959846Y-70468233D01*
X84957523Y-70463251D01*
X84826198Y-70275700D01*
X84664300Y-70113802D01*
X84659792Y-70110645D01*
X84659789Y-70110643D01*
X84524780Y-70016109D01*
X84476749Y-69982477D01*
X84471767Y-69980154D01*
X84471762Y-69980151D01*
X84437543Y-69964195D01*
X84384258Y-69917278D01*
X84364797Y-69849001D01*
X84385339Y-69781041D01*
X84437543Y-69735805D01*
X84471762Y-69719849D01*
X84471767Y-69719846D01*
X84476749Y-69717523D01*
X84614351Y-69621173D01*
X84659789Y-69589357D01*
X84659792Y-69589355D01*
X84664300Y-69586198D01*
X84826198Y-69424300D01*
X84835540Y-69410959D01*
X84954366Y-69241257D01*
X84957523Y-69236749D01*
X84959846Y-69231767D01*
X84959849Y-69231762D01*
X85051961Y-69034225D01*
X85051961Y-69034224D01*
X85054284Y-69029243D01*
X85064150Y-68992425D01*
X85112119Y-68813402D01*
X85112119Y-68813400D01*
X85113543Y-68808087D01*
X85133498Y-68580000D01*
X85113543Y-68351913D01*
X85107593Y-68329707D01*
X85055707Y-68136067D01*
X85055706Y-68136065D01*
X85054284Y-68130757D01*
X85042092Y-68104610D01*
X84959849Y-67928238D01*
X84959846Y-67928233D01*
X84957523Y-67923251D01*
X84884098Y-67818389D01*
X84829357Y-67740211D01*
X84829355Y-67740208D01*
X84826198Y-67735700D01*
X84664300Y-67573802D01*
X84659792Y-67570645D01*
X84659789Y-67570643D01*
X84581611Y-67515902D01*
X84476749Y-67442477D01*
X84471767Y-67440154D01*
X84471762Y-67440151D01*
X84436951Y-67423919D01*
X84383666Y-67377002D01*
X84364205Y-67308725D01*
X84384747Y-67240765D01*
X84436951Y-67195529D01*
X84471511Y-67179414D01*
X84481007Y-67173931D01*
X84659467Y-67048972D01*
X84667875Y-67041916D01*
X84821916Y-66887875D01*
X84828972Y-66879467D01*
X84953931Y-66701007D01*
X84959414Y-66691511D01*
X85051490Y-66494053D01*
X85055236Y-66483761D01*
X85101394Y-66311497D01*
X85101058Y-66297401D01*
X85093116Y-66294000D01*
X82552033Y-66294000D01*
X82538502Y-66297973D01*
X82537273Y-66306522D01*
X82584764Y-66483761D01*
X82588510Y-66494053D01*
X82680586Y-66691511D01*
X82686069Y-66701007D01*
X82811028Y-66879467D01*
X82818084Y-66887875D01*
X82972125Y-67041916D01*
X82980533Y-67048972D01*
X83158993Y-67173931D01*
X83168489Y-67179414D01*
X83203049Y-67195529D01*
X83256334Y-67242446D01*
X83275795Y-67310723D01*
X83255253Y-67378683D01*
X83203049Y-67423919D01*
X83168238Y-67440151D01*
X83168233Y-67440154D01*
X83163251Y-67442477D01*
X83058389Y-67515902D01*
X82980211Y-67570643D01*
X82980208Y-67570645D01*
X82975700Y-67573802D01*
X82813802Y-67735700D01*
X82810645Y-67740208D01*
X82810643Y-67740211D01*
X82755902Y-67818389D01*
X82682477Y-67923251D01*
X82680154Y-67928233D01*
X82680151Y-67928238D01*
X82597908Y-68104610D01*
X82585716Y-68130757D01*
X82584294Y-68136065D01*
X82584293Y-68136067D01*
X82532407Y-68329707D01*
X82526457Y-68351913D01*
X82506502Y-68580000D01*
X82526457Y-68808087D01*
X82527881Y-68813400D01*
X82527881Y-68813402D01*
X82575851Y-68992425D01*
X82585716Y-69029243D01*
X82588039Y-69034224D01*
X82588039Y-69034225D01*
X82680151Y-69231762D01*
X82680154Y-69231767D01*
X82682477Y-69236749D01*
X82685634Y-69241257D01*
X82804461Y-69410959D01*
X82813802Y-69424300D01*
X82975700Y-69586198D01*
X82980208Y-69589355D01*
X82980211Y-69589357D01*
X83025649Y-69621173D01*
X83163251Y-69717523D01*
X83168233Y-69719846D01*
X83168238Y-69719849D01*
X83202457Y-69735805D01*
X83255742Y-69782722D01*
X83275203Y-69850999D01*
X83254661Y-69918959D01*
X83202457Y-69964195D01*
X83168238Y-69980151D01*
X83168233Y-69980154D01*
X83163251Y-69982477D01*
X83115220Y-70016109D01*
X82980211Y-70110643D01*
X82980208Y-70110645D01*
X82975700Y-70113802D01*
X82813802Y-70275700D01*
X82682477Y-70463251D01*
X82680154Y-70468233D01*
X82680151Y-70468238D01*
X82588039Y-70665775D01*
X82585716Y-70670757D01*
X82526457Y-70891913D01*
X82506502Y-71120000D01*
X82526457Y-71348087D01*
X82585716Y-71569243D01*
X82588039Y-71574224D01*
X82588039Y-71574225D01*
X82680151Y-71771762D01*
X82680154Y-71771767D01*
X82682477Y-71776749D01*
X82685634Y-71781257D01*
X82804461Y-71950959D01*
X82813802Y-71964300D01*
X82975700Y-72126198D01*
X82980208Y-72129355D01*
X82980211Y-72129357D01*
X83058389Y-72184098D01*
X83163251Y-72257523D01*
X83168233Y-72259846D01*
X83168238Y-72259849D01*
X83202457Y-72275805D01*
X83255742Y-72322722D01*
X83275203Y-72390999D01*
X83254661Y-72458959D01*
X83202457Y-72504195D01*
X83168238Y-72520151D01*
X83168233Y-72520154D01*
X83163251Y-72522477D01*
X83058389Y-72595902D01*
X82980211Y-72650643D01*
X82980208Y-72650645D01*
X82975700Y-72653802D01*
X82813802Y-72815700D01*
X82682477Y-73003251D01*
X82680154Y-73008233D01*
X82680151Y-73008238D01*
X82588039Y-73205775D01*
X82585716Y-73210757D01*
X82526457Y-73431913D01*
X82506502Y-73660000D01*
X82526457Y-73888087D01*
X82585716Y-74109243D01*
X82588039Y-74114224D01*
X82588039Y-74114225D01*
X82680151Y-74311762D01*
X82680154Y-74311767D01*
X82682477Y-74316749D01*
X82695817Y-74335800D01*
X82804461Y-74490959D01*
X82813802Y-74504300D01*
X82975700Y-74666198D01*
X82980208Y-74669355D01*
X82980211Y-74669357D01*
X83012332Y-74691848D01*
X83163251Y-74797523D01*
X83168233Y-74799846D01*
X83168238Y-74799849D01*
X83202457Y-74815805D01*
X83255742Y-74862722D01*
X83275203Y-74930999D01*
X83254661Y-74998959D01*
X83202457Y-75044195D01*
X83168238Y-75060151D01*
X83168233Y-75060154D01*
X83163251Y-75062477D01*
X83058389Y-75135902D01*
X82980211Y-75190643D01*
X82980208Y-75190645D01*
X82975700Y-75193802D01*
X82813802Y-75355700D01*
X82682477Y-75543251D01*
X82680154Y-75548233D01*
X82680151Y-75548238D01*
X82588039Y-75745775D01*
X82585716Y-75750757D01*
X82584294Y-75756065D01*
X82584293Y-75756067D01*
X82549272Y-75886767D01*
X82526457Y-75971913D01*
X82506502Y-76200000D01*
X82526457Y-76428087D01*
X82527881Y-76433400D01*
X82527881Y-76433402D01*
X82565954Y-76575489D01*
X82585716Y-76649243D01*
X82588039Y-76654224D01*
X82588039Y-76654225D01*
X82680151Y-76851762D01*
X82680154Y-76851767D01*
X82682477Y-76856749D01*
X82707889Y-76893041D01*
X82804461Y-77030959D01*
X82813802Y-77044300D01*
X82975700Y-77206198D01*
X82980208Y-77209355D01*
X82980211Y-77209357D01*
X83012332Y-77231848D01*
X83163251Y-77337523D01*
X83168233Y-77339846D01*
X83168238Y-77339849D01*
X83202457Y-77355805D01*
X83255742Y-77402722D01*
X83275203Y-77470999D01*
X83254661Y-77538959D01*
X83202457Y-77584195D01*
X83168238Y-77600151D01*
X83168233Y-77600154D01*
X83163251Y-77602477D01*
X83058389Y-77675902D01*
X82980211Y-77730643D01*
X82980208Y-77730645D01*
X82975700Y-77733802D01*
X82813802Y-77895700D01*
X82682477Y-78083251D01*
X82680154Y-78088233D01*
X82680151Y-78088238D01*
X82588039Y-78285775D01*
X82585716Y-78290757D01*
X82584294Y-78296065D01*
X82584293Y-78296067D01*
X82549272Y-78426767D01*
X82526457Y-78511913D01*
X82506502Y-78740000D01*
X82526457Y-78968087D01*
X82527881Y-78973400D01*
X82527881Y-78973402D01*
X82565954Y-79115489D01*
X82585716Y-79189243D01*
X82588039Y-79194224D01*
X82588039Y-79194225D01*
X82680151Y-79391762D01*
X82680154Y-79391767D01*
X82682477Y-79396749D01*
X82707889Y-79433041D01*
X82804461Y-79570959D01*
X82813802Y-79584300D01*
X82975700Y-79746198D01*
X82980208Y-79749355D01*
X82980211Y-79749357D01*
X83012332Y-79771848D01*
X83163251Y-79877523D01*
X83168233Y-79879846D01*
X83168238Y-79879849D01*
X83202457Y-79895805D01*
X83255742Y-79942722D01*
X83275203Y-80010999D01*
X83254661Y-80078959D01*
X83202457Y-80124195D01*
X83168238Y-80140151D01*
X83168233Y-80140154D01*
X83163251Y-80142477D01*
X83058389Y-80215902D01*
X82980211Y-80270643D01*
X82980208Y-80270645D01*
X82975700Y-80273802D01*
X82813802Y-80435700D01*
X82682477Y-80623251D01*
X82680154Y-80628233D01*
X82680151Y-80628238D01*
X82588039Y-80825775D01*
X82585716Y-80830757D01*
X82584294Y-80836065D01*
X82584293Y-80836067D01*
X82549272Y-80966767D01*
X82526457Y-81051913D01*
X82506502Y-81280000D01*
X82526457Y-81508087D01*
X82527881Y-81513400D01*
X82527881Y-81513402D01*
X82565954Y-81655489D01*
X82585716Y-81729243D01*
X82588039Y-81734224D01*
X82588039Y-81734225D01*
X82680151Y-81931762D01*
X82680154Y-81931767D01*
X82682477Y-81936749D01*
X82707889Y-81973041D01*
X82804461Y-82110959D01*
X82813802Y-82124300D01*
X82975700Y-82286198D01*
X82980208Y-82289355D01*
X82980211Y-82289357D01*
X83012332Y-82311848D01*
X83163251Y-82417523D01*
X83168233Y-82419846D01*
X83168238Y-82419849D01*
X83202457Y-82435805D01*
X83255742Y-82482722D01*
X83275203Y-82550999D01*
X83254661Y-82618959D01*
X83202457Y-82664195D01*
X83168238Y-82680151D01*
X83168233Y-82680154D01*
X83163251Y-82682477D01*
X83058389Y-82755902D01*
X82980211Y-82810643D01*
X82980208Y-82810645D01*
X82975700Y-82813802D01*
X82813802Y-82975700D01*
X82682477Y-83163251D01*
X82680154Y-83168233D01*
X82680151Y-83168238D01*
X82588039Y-83365775D01*
X82585716Y-83370757D01*
X82584294Y-83376065D01*
X82584293Y-83376067D01*
X82549272Y-83506767D01*
X82526457Y-83591913D01*
X82506502Y-83820000D01*
X82526457Y-84048087D01*
X82527881Y-84053400D01*
X82527881Y-84053402D01*
X82565954Y-84195489D01*
X82585716Y-84269243D01*
X82588039Y-84274224D01*
X82588039Y-84274225D01*
X82680151Y-84471762D01*
X82680154Y-84471767D01*
X82682477Y-84476749D01*
X82714942Y-84523114D01*
X82804654Y-84651235D01*
X82813802Y-84664300D01*
X82975700Y-84826198D01*
X82980208Y-84829355D01*
X82980211Y-84829357D01*
X83012332Y-84851848D01*
X83163251Y-84957523D01*
X83168233Y-84959846D01*
X83168238Y-84959849D01*
X83202457Y-84975805D01*
X83255742Y-85022722D01*
X83275203Y-85090999D01*
X83254661Y-85158959D01*
X83202457Y-85204195D01*
X83168238Y-85220151D01*
X83168233Y-85220154D01*
X83163251Y-85222477D01*
X83058389Y-85295902D01*
X82980211Y-85350643D01*
X82980208Y-85350645D01*
X82975700Y-85353802D01*
X82813802Y-85515700D01*
X82682477Y-85703251D01*
X82680154Y-85708233D01*
X82680151Y-85708238D01*
X82588039Y-85905775D01*
X82585716Y-85910757D01*
X82584294Y-85916065D01*
X82584293Y-85916067D01*
X82549272Y-86046767D01*
X82526457Y-86131913D01*
X82506502Y-86360000D01*
X77972371Y-86360000D01*
X77973136Y-86358453D01*
X77973137Y-86358451D01*
X77975430Y-86353811D01*
X78040370Y-86140069D01*
X78069529Y-85918590D01*
X78069611Y-85915240D01*
X78071074Y-85855365D01*
X78071074Y-85855361D01*
X78071156Y-85852000D01*
X78052852Y-85629361D01*
X77998431Y-85412702D01*
X77909354Y-85207840D01*
X77788014Y-85020277D01*
X77637670Y-84855051D01*
X77633619Y-84851852D01*
X77633615Y-84851848D01*
X77466414Y-84719800D01*
X77466410Y-84719798D01*
X77462359Y-84716598D01*
X77421053Y-84693796D01*
X77371084Y-84643364D01*
X77356312Y-84573921D01*
X77381428Y-84507516D01*
X77408780Y-84480909D01*
X77457207Y-84446366D01*
X77587860Y-84353173D01*
X77619788Y-84321357D01*
X77742435Y-84199137D01*
X77746096Y-84195489D01*
X77777498Y-84151789D01*
X77873435Y-84018277D01*
X77876453Y-84014077D01*
X77896628Y-83973257D01*
X77973136Y-83818453D01*
X77973137Y-83818451D01*
X77975430Y-83813811D01*
X78040370Y-83600069D01*
X78069529Y-83378590D01*
X78069611Y-83375240D01*
X78071074Y-83315365D01*
X78071074Y-83315361D01*
X78071156Y-83312000D01*
X78052852Y-83089361D01*
X77998431Y-82872702D01*
X77909354Y-82667840D01*
X77788014Y-82480277D01*
X77637670Y-82315051D01*
X77633619Y-82311852D01*
X77633615Y-82311848D01*
X77466414Y-82179800D01*
X77466410Y-82179798D01*
X77462359Y-82176598D01*
X77421053Y-82153796D01*
X77371084Y-82103364D01*
X77356312Y-82033921D01*
X77381428Y-81967516D01*
X77408780Y-81940909D01*
X77457207Y-81906366D01*
X77587860Y-81813173D01*
X77619788Y-81781357D01*
X77742435Y-81659137D01*
X77746096Y-81655489D01*
X77777498Y-81611789D01*
X77873435Y-81478277D01*
X77876453Y-81474077D01*
X77896628Y-81433257D01*
X77973136Y-81278453D01*
X77973137Y-81278451D01*
X77975430Y-81273811D01*
X78040370Y-81060069D01*
X78069529Y-80838590D01*
X78069611Y-80835240D01*
X78071074Y-80775365D01*
X78071074Y-80775361D01*
X78071156Y-80772000D01*
X78052852Y-80549361D01*
X77998431Y-80332702D01*
X77909354Y-80127840D01*
X77788014Y-79940277D01*
X77637670Y-79775051D01*
X77633619Y-79771852D01*
X77633615Y-79771848D01*
X77466414Y-79639800D01*
X77466410Y-79639798D01*
X77462359Y-79636598D01*
X77421053Y-79613796D01*
X77371084Y-79563364D01*
X77356312Y-79493921D01*
X77381428Y-79427516D01*
X77408780Y-79400909D01*
X77457207Y-79366366D01*
X77587860Y-79273173D01*
X77619788Y-79241357D01*
X77742435Y-79119137D01*
X77746096Y-79115489D01*
X77777498Y-79071789D01*
X77873435Y-78938277D01*
X77876453Y-78934077D01*
X77896628Y-78893257D01*
X77973136Y-78738453D01*
X77973137Y-78738451D01*
X77975430Y-78733811D01*
X78040370Y-78520069D01*
X78069529Y-78298590D01*
X78069611Y-78295240D01*
X78071074Y-78235365D01*
X78071074Y-78235361D01*
X78071156Y-78232000D01*
X78052852Y-78009361D01*
X77998431Y-77792702D01*
X77909354Y-77587840D01*
X77788014Y-77400277D01*
X77637670Y-77235051D01*
X77633619Y-77231852D01*
X77633615Y-77231848D01*
X77466414Y-77099800D01*
X77466410Y-77099798D01*
X77462359Y-77096598D01*
X77421053Y-77073796D01*
X77371084Y-77023364D01*
X77356312Y-76953921D01*
X77381428Y-76887516D01*
X77408780Y-76860909D01*
X77457207Y-76826366D01*
X77587860Y-76733173D01*
X77619788Y-76701357D01*
X77742435Y-76579137D01*
X77746096Y-76575489D01*
X77777498Y-76531789D01*
X77873435Y-76398277D01*
X77876453Y-76394077D01*
X77896628Y-76353257D01*
X77973136Y-76198453D01*
X77973137Y-76198451D01*
X77975430Y-76193811D01*
X78040370Y-75980069D01*
X78069529Y-75758590D01*
X78069611Y-75755240D01*
X78071074Y-75695365D01*
X78071074Y-75695361D01*
X78071156Y-75692000D01*
X78052852Y-75469361D01*
X77998431Y-75252702D01*
X77909354Y-75047840D01*
X77788014Y-74860277D01*
X77637670Y-74695051D01*
X77633619Y-74691852D01*
X77633615Y-74691848D01*
X77466414Y-74559800D01*
X77466410Y-74559798D01*
X77462359Y-74556598D01*
X77454304Y-74552151D01*
X77359449Y-74499789D01*
X77266789Y-74448638D01*
X77261920Y-74446914D01*
X77261916Y-74446912D01*
X77061087Y-74375795D01*
X77061083Y-74375794D01*
X77056212Y-74374069D01*
X77051119Y-74373162D01*
X77051116Y-74373161D01*
X76841373Y-74335800D01*
X76841367Y-74335799D01*
X76836284Y-74334894D01*
X76762452Y-74333992D01*
X76618081Y-74332228D01*
X76618079Y-74332228D01*
X76612911Y-74332165D01*
X76392091Y-74365955D01*
X76179756Y-74435357D01*
X75981607Y-74538507D01*
X75977474Y-74541610D01*
X75977471Y-74541612D01*
X75807100Y-74669530D01*
X75802965Y-74672635D01*
X75648629Y-74834138D01*
X75645715Y-74838410D01*
X75645714Y-74838411D01*
X75636300Y-74852211D01*
X75522743Y-75018680D01*
X75428688Y-75221305D01*
X75368989Y-75436570D01*
X75345251Y-75658695D01*
X75345548Y-75663848D01*
X75345548Y-75663851D01*
X75350865Y-75756067D01*
X75358110Y-75881715D01*
X75359247Y-75886761D01*
X75359248Y-75886767D01*
X75367955Y-75925402D01*
X75407222Y-76099639D01*
X75491266Y-76306616D01*
X75607987Y-76497088D01*
X75754250Y-76665938D01*
X75926126Y-76808632D01*
X75993163Y-76847805D01*
X75999445Y-76851476D01*
X76048169Y-76903114D01*
X76061240Y-76972897D01*
X76034509Y-77038669D01*
X75994055Y-77072027D01*
X75981607Y-77078507D01*
X75977474Y-77081610D01*
X75977471Y-77081612D01*
X75807100Y-77209530D01*
X75802965Y-77212635D01*
X75648629Y-77374138D01*
X75645715Y-77378410D01*
X75645714Y-77378411D01*
X75636300Y-77392211D01*
X75522743Y-77558680D01*
X75428688Y-77761305D01*
X75368989Y-77976570D01*
X75345251Y-78198695D01*
X75345548Y-78203848D01*
X75345548Y-78203851D01*
X75350865Y-78296067D01*
X75358110Y-78421715D01*
X75359247Y-78426761D01*
X75359248Y-78426767D01*
X75367955Y-78465402D01*
X75407222Y-78639639D01*
X75491266Y-78846616D01*
X75607987Y-79037088D01*
X75754250Y-79205938D01*
X75926126Y-79348632D01*
X75993163Y-79387805D01*
X75999445Y-79391476D01*
X76048169Y-79443114D01*
X76061240Y-79512897D01*
X76034509Y-79578669D01*
X75994055Y-79612027D01*
X75981607Y-79618507D01*
X75977474Y-79621610D01*
X75977471Y-79621612D01*
X75807100Y-79749530D01*
X75802965Y-79752635D01*
X75648629Y-79914138D01*
X75645715Y-79918410D01*
X75645714Y-79918411D01*
X75636300Y-79932211D01*
X75522743Y-80098680D01*
X75428688Y-80301305D01*
X75368989Y-80516570D01*
X75345251Y-80738695D01*
X75345548Y-80743848D01*
X75345548Y-80743851D01*
X75350865Y-80836067D01*
X75358110Y-80961715D01*
X75359247Y-80966761D01*
X75359248Y-80966767D01*
X75367955Y-81005402D01*
X75407222Y-81179639D01*
X75491266Y-81386616D01*
X75607987Y-81577088D01*
X75754250Y-81745938D01*
X75926126Y-81888632D01*
X75993163Y-81927805D01*
X75999445Y-81931476D01*
X76048169Y-81983114D01*
X76061240Y-82052897D01*
X76034509Y-82118669D01*
X75994055Y-82152027D01*
X75981607Y-82158507D01*
X75977474Y-82161610D01*
X75977471Y-82161612D01*
X75807100Y-82289530D01*
X75802965Y-82292635D01*
X75648629Y-82454138D01*
X75645715Y-82458410D01*
X75645714Y-82458411D01*
X75636300Y-82472211D01*
X75522743Y-82638680D01*
X75428688Y-82841305D01*
X75368989Y-83056570D01*
X75345251Y-83278695D01*
X75345548Y-83283848D01*
X75345548Y-83283851D01*
X75350865Y-83376067D01*
X75358110Y-83501715D01*
X75359247Y-83506761D01*
X75359248Y-83506767D01*
X75367955Y-83545402D01*
X75407222Y-83719639D01*
X75491266Y-83926616D01*
X75607987Y-84117088D01*
X75754250Y-84285938D01*
X75926126Y-84428632D01*
X75993163Y-84467805D01*
X75999445Y-84471476D01*
X76048169Y-84523114D01*
X76061240Y-84592897D01*
X76034509Y-84658669D01*
X75994055Y-84692027D01*
X75981607Y-84698507D01*
X75977474Y-84701610D01*
X75977471Y-84701612D01*
X75807100Y-84829530D01*
X75802965Y-84832635D01*
X75648629Y-84994138D01*
X75645715Y-84998410D01*
X75645714Y-84998411D01*
X75636300Y-85012211D01*
X75522743Y-85178680D01*
X75428688Y-85381305D01*
X75368989Y-85596570D01*
X75345251Y-85818695D01*
X75345548Y-85823848D01*
X75345548Y-85823851D01*
X75350865Y-85916067D01*
X75358110Y-86041715D01*
X75359247Y-86046761D01*
X75359248Y-86046767D01*
X75377239Y-86126598D01*
X75407222Y-86259639D01*
X75491266Y-86466616D01*
X75607987Y-86657088D01*
X75754250Y-86825938D01*
X75926126Y-86968632D01*
X75992691Y-87007529D01*
X75999445Y-87011476D01*
X76048169Y-87063114D01*
X76061240Y-87132897D01*
X76034509Y-87198669D01*
X75994055Y-87232027D01*
X75981607Y-87238507D01*
X75977474Y-87241610D01*
X75977471Y-87241612D01*
X75807100Y-87369530D01*
X75802965Y-87372635D01*
X75648629Y-87534138D01*
X75645715Y-87538410D01*
X75645714Y-87538411D01*
X75636300Y-87552211D01*
X75522743Y-87718680D01*
X75428688Y-87921305D01*
X75368989Y-88136570D01*
X75345251Y-88358695D01*
X75345548Y-88363848D01*
X75345548Y-88363851D01*
X75351011Y-88458590D01*
X75358110Y-88581715D01*
X75359247Y-88586761D01*
X75359248Y-88586767D01*
X75367955Y-88625402D01*
X75407222Y-88799639D01*
X75491266Y-89006616D01*
X75607987Y-89197088D01*
X75754250Y-89365938D01*
X75926126Y-89508632D01*
X75993163Y-89547805D01*
X75999445Y-89551476D01*
X76048169Y-89603114D01*
X76061240Y-89672897D01*
X76034509Y-89738669D01*
X75994055Y-89772027D01*
X75981607Y-89778507D01*
X75977474Y-89781610D01*
X75977471Y-89781612D01*
X75956132Y-89797634D01*
X75802965Y-89912635D01*
X75648629Y-90074138D01*
X75645715Y-90078410D01*
X75645714Y-90078411D01*
X75636300Y-90092211D01*
X75522743Y-90258680D01*
X75428688Y-90461305D01*
X75368989Y-90676570D01*
X75345251Y-90898695D01*
X74168000Y-90898695D01*
X74168000Y-68546695D01*
X75345251Y-68546695D01*
X75345548Y-68551848D01*
X75345548Y-68551851D01*
X75351011Y-68646590D01*
X75358110Y-68769715D01*
X75359247Y-68774761D01*
X75359248Y-68774767D01*
X75367955Y-68813402D01*
X75407222Y-68987639D01*
X75491266Y-69194616D01*
X75511604Y-69227805D01*
X75580971Y-69341001D01*
X75607987Y-69385088D01*
X75754250Y-69553938D01*
X75758230Y-69557242D01*
X75762981Y-69561187D01*
X75802616Y-69620090D01*
X75804113Y-69691071D01*
X75766997Y-69751593D01*
X75726724Y-69776112D01*
X75611295Y-69819385D01*
X75494739Y-69906739D01*
X75407385Y-70023295D01*
X75356255Y-70159684D01*
X75349500Y-70221866D01*
X75349500Y-72018134D01*
X75356255Y-72080316D01*
X75407385Y-72216705D01*
X75494739Y-72333261D01*
X75611295Y-72420615D01*
X75747684Y-72471745D01*
X75809866Y-72478500D01*
X77606134Y-72478500D01*
X77668316Y-72471745D01*
X77804705Y-72420615D01*
X77921261Y-72333261D01*
X78008615Y-72216705D01*
X78059745Y-72080316D01*
X78066500Y-72018134D01*
X78066500Y-70221866D01*
X78059745Y-70159684D01*
X78008615Y-70023295D01*
X77921261Y-69906739D01*
X77804705Y-69819385D01*
X77791098Y-69814284D01*
X77686203Y-69774960D01*
X77629439Y-69732318D01*
X77604739Y-69665756D01*
X77619947Y-69596408D01*
X77641493Y-69567727D01*
X77731901Y-69477634D01*
X77746096Y-69463489D01*
X77777498Y-69419789D01*
X77873435Y-69286277D01*
X77876453Y-69282077D01*
X77896628Y-69241257D01*
X77973136Y-69086453D01*
X77973137Y-69086451D01*
X77975430Y-69081811D01*
X78040370Y-68868069D01*
X78069529Y-68646590D01*
X78071156Y-68580000D01*
X78052852Y-68357361D01*
X77998431Y-68140702D01*
X77909354Y-67935840D01*
X77788014Y-67748277D01*
X77637670Y-67583051D01*
X77633619Y-67579852D01*
X77633615Y-67579848D01*
X77466414Y-67447800D01*
X77466410Y-67447798D01*
X77462359Y-67444598D01*
X77421053Y-67421796D01*
X77371084Y-67371364D01*
X77356312Y-67301921D01*
X77381428Y-67235516D01*
X77408780Y-67208909D01*
X77457817Y-67173931D01*
X77587860Y-67081173D01*
X77619788Y-67049357D01*
X77731901Y-66937634D01*
X77746096Y-66923489D01*
X77777498Y-66879789D01*
X77873435Y-66746277D01*
X77876453Y-66742077D01*
X77896628Y-66701257D01*
X77973136Y-66546453D01*
X77973137Y-66546451D01*
X77975430Y-66541811D01*
X78040370Y-66328069D01*
X78069529Y-66106590D01*
X78071156Y-66040000D01*
X78052852Y-65817361D01*
X77998431Y-65600702D01*
X77909354Y-65395840D01*
X77788014Y-65208277D01*
X77637670Y-65043051D01*
X77633619Y-65039852D01*
X77633615Y-65039848D01*
X77466414Y-64907800D01*
X77466410Y-64907798D01*
X77462359Y-64904598D01*
X77421053Y-64881796D01*
X77371084Y-64831364D01*
X77356312Y-64761921D01*
X77381428Y-64695516D01*
X77408780Y-64668909D01*
X77457207Y-64634366D01*
X77587860Y-64541173D01*
X77619788Y-64509357D01*
X77731901Y-64397634D01*
X77746096Y-64383489D01*
X77777498Y-64339789D01*
X77873435Y-64206277D01*
X77876453Y-64202077D01*
X77896628Y-64161257D01*
X77973136Y-64006453D01*
X77973137Y-64006451D01*
X77975430Y-64001811D01*
X78040370Y-63788069D01*
X78069529Y-63566590D01*
X78071156Y-63500000D01*
X78052852Y-63277361D01*
X77998431Y-63060702D01*
X77909354Y-62855840D01*
X77788014Y-62668277D01*
X77637670Y-62503051D01*
X77633619Y-62499852D01*
X77633615Y-62499848D01*
X77466414Y-62367800D01*
X77466410Y-62367798D01*
X77462359Y-62364598D01*
X77421053Y-62341796D01*
X77371084Y-62291364D01*
X77356312Y-62221921D01*
X77381428Y-62155516D01*
X77408780Y-62128909D01*
X77457207Y-62094366D01*
X77587860Y-62001173D01*
X77619788Y-61969357D01*
X77731901Y-61857634D01*
X77746096Y-61843489D01*
X77777498Y-61799789D01*
X77873435Y-61666277D01*
X77876453Y-61662077D01*
X77896628Y-61621257D01*
X77973136Y-61466453D01*
X77973137Y-61466451D01*
X77975430Y-61461811D01*
X78040370Y-61248069D01*
X78069529Y-61026590D01*
X78071156Y-60960000D01*
X78052852Y-60737361D01*
X77998431Y-60520702D01*
X77909354Y-60315840D01*
X77800977Y-60148315D01*
X77790822Y-60132617D01*
X77790820Y-60132614D01*
X77788014Y-60128277D01*
X77637670Y-59963051D01*
X77633619Y-59959852D01*
X77633615Y-59959848D01*
X77466414Y-59827800D01*
X77466410Y-59827798D01*
X77462359Y-59824598D01*
X77421053Y-59801796D01*
X77371084Y-59751364D01*
X77356312Y-59681921D01*
X77381428Y-59615516D01*
X77408780Y-59588909D01*
X77457207Y-59554366D01*
X77587860Y-59461173D01*
X77619788Y-59429357D01*
X77731901Y-59317634D01*
X77746096Y-59303489D01*
X77777498Y-59259789D01*
X77873435Y-59126277D01*
X77876453Y-59122077D01*
X77896628Y-59081257D01*
X77973136Y-58926453D01*
X77973137Y-58926451D01*
X77975430Y-58921811D01*
X78040370Y-58708069D01*
X78069529Y-58486590D01*
X78071156Y-58420000D01*
X78052852Y-58197361D01*
X77998431Y-57980702D01*
X77909354Y-57775840D01*
X77846445Y-57678598D01*
X77790822Y-57592617D01*
X77790820Y-57592614D01*
X77788014Y-57588277D01*
X77637670Y-57423051D01*
X77633619Y-57419852D01*
X77633615Y-57419848D01*
X77466414Y-57287800D01*
X77466410Y-57287798D01*
X77462359Y-57284598D01*
X77421053Y-57261796D01*
X77371084Y-57211364D01*
X77356312Y-57141921D01*
X77381428Y-57075516D01*
X77408780Y-57048909D01*
X77457207Y-57014366D01*
X77587860Y-56921173D01*
X77619788Y-56889357D01*
X77731901Y-56777634D01*
X77746096Y-56763489D01*
X77777498Y-56719789D01*
X77873435Y-56586277D01*
X77876453Y-56582077D01*
X77896628Y-56541257D01*
X77973136Y-56386453D01*
X77973137Y-56386451D01*
X77975430Y-56381811D01*
X78040370Y-56168069D01*
X78069529Y-55946590D01*
X78071156Y-55880000D01*
X78052852Y-55657361D01*
X77998431Y-55440702D01*
X77909354Y-55235840D01*
X77788014Y-55048277D01*
X77637670Y-54883051D01*
X77633619Y-54879852D01*
X77633615Y-54879848D01*
X77466414Y-54747800D01*
X77466410Y-54747798D01*
X77462359Y-54744598D01*
X77421053Y-54721796D01*
X77371084Y-54671364D01*
X77356312Y-54601921D01*
X77381428Y-54535516D01*
X77408780Y-54508909D01*
X77472004Y-54463812D01*
X77587860Y-54381173D01*
X77619788Y-54349357D01*
X77719175Y-54250316D01*
X77746096Y-54223489D01*
X77777498Y-54179789D01*
X77873435Y-54046277D01*
X77876453Y-54042077D01*
X77896628Y-54001257D01*
X77973136Y-53846453D01*
X77973137Y-53846451D01*
X77975430Y-53841811D01*
X78040370Y-53628069D01*
X78069529Y-53406590D01*
X78071156Y-53340000D01*
X78052852Y-53117361D01*
X77998431Y-52900702D01*
X77909354Y-52695840D01*
X77788014Y-52508277D01*
X77637670Y-52343051D01*
X77633619Y-52339852D01*
X77633615Y-52339848D01*
X77466414Y-52207800D01*
X77466410Y-52207798D01*
X77462359Y-52204598D01*
X77454304Y-52200151D01*
X77402145Y-52171358D01*
X77266789Y-52096638D01*
X77261920Y-52094914D01*
X77261916Y-52094912D01*
X77061087Y-52023795D01*
X77061083Y-52023794D01*
X77056212Y-52022069D01*
X77051119Y-52021162D01*
X77051116Y-52021161D01*
X76841373Y-51983800D01*
X76841367Y-51983799D01*
X76836284Y-51982894D01*
X76762452Y-51981992D01*
X76618081Y-51980228D01*
X76618079Y-51980228D01*
X76612911Y-51980165D01*
X76392091Y-52013955D01*
X76179756Y-52083357D01*
X76149443Y-52099137D01*
X75989566Y-52182364D01*
X75981607Y-52186507D01*
X75977474Y-52189610D01*
X75977471Y-52189612D01*
X75828180Y-52301703D01*
X75802965Y-52320635D01*
X75648629Y-52482138D01*
X75645715Y-52486410D01*
X75645714Y-52486411D01*
X75636300Y-52500211D01*
X75522743Y-52666680D01*
X75428688Y-52869305D01*
X75368989Y-53084570D01*
X75345251Y-53306695D01*
X75345548Y-53311848D01*
X75345548Y-53311851D01*
X75356111Y-53495048D01*
X75358110Y-53529715D01*
X75359247Y-53534761D01*
X75359248Y-53534767D01*
X75367955Y-53573402D01*
X75407222Y-53747639D01*
X75491266Y-53954616D01*
X75511604Y-53987805D01*
X75580971Y-54101001D01*
X75607987Y-54145088D01*
X75754250Y-54313938D01*
X75926126Y-54456632D01*
X75993163Y-54495805D01*
X75999445Y-54499476D01*
X76048169Y-54551114D01*
X76061240Y-54620897D01*
X76034509Y-54686669D01*
X75994055Y-54720027D01*
X75981607Y-54726507D01*
X75977474Y-54729610D01*
X75977471Y-54729612D01*
X75822650Y-54845855D01*
X75802965Y-54860635D01*
X75648629Y-55022138D01*
X75645715Y-55026410D01*
X75645714Y-55026411D01*
X75636300Y-55040211D01*
X75522743Y-55206680D01*
X75428688Y-55409305D01*
X75368989Y-55624570D01*
X75345251Y-55846695D01*
X75345548Y-55851848D01*
X75345548Y-55851851D01*
X75351011Y-55946590D01*
X75358110Y-56069715D01*
X75359247Y-56074761D01*
X75359248Y-56074767D01*
X75367955Y-56113402D01*
X75407222Y-56287639D01*
X75491266Y-56494616D01*
X75511604Y-56527805D01*
X75580971Y-56641001D01*
X75607987Y-56685088D01*
X75754250Y-56853938D01*
X75926126Y-56996632D01*
X75993163Y-57035805D01*
X75999445Y-57039476D01*
X76048169Y-57091114D01*
X76061240Y-57160897D01*
X76034509Y-57226669D01*
X75994055Y-57260027D01*
X75981607Y-57266507D01*
X75977474Y-57269610D01*
X75977471Y-57269612D01*
X75956132Y-57285634D01*
X75802965Y-57400635D01*
X75648629Y-57562138D01*
X75645715Y-57566410D01*
X75645714Y-57566411D01*
X75636300Y-57580211D01*
X75522743Y-57746680D01*
X75428688Y-57949305D01*
X75368989Y-58164570D01*
X75345251Y-58386695D01*
X75345548Y-58391848D01*
X75345548Y-58391851D01*
X75351011Y-58486590D01*
X75358110Y-58609715D01*
X75359247Y-58614761D01*
X75359248Y-58614767D01*
X75367955Y-58653402D01*
X75407222Y-58827639D01*
X75491266Y-59034616D01*
X75511604Y-59067805D01*
X75580971Y-59181001D01*
X75607987Y-59225088D01*
X75754250Y-59393938D01*
X75926126Y-59536632D01*
X75993163Y-59575805D01*
X75999445Y-59579476D01*
X76048169Y-59631114D01*
X76061240Y-59700897D01*
X76034509Y-59766669D01*
X75994055Y-59800027D01*
X75981607Y-59806507D01*
X75977474Y-59809610D01*
X75977471Y-59809612D01*
X75811353Y-59934337D01*
X75802965Y-59940635D01*
X75648629Y-60102138D01*
X75645715Y-60106410D01*
X75645714Y-60106411D01*
X75637717Y-60118134D01*
X75522743Y-60286680D01*
X75428688Y-60489305D01*
X75368989Y-60704570D01*
X75345251Y-60926695D01*
X75345548Y-60931848D01*
X75345548Y-60931851D01*
X75351011Y-61026590D01*
X75358110Y-61149715D01*
X75359247Y-61154761D01*
X75359248Y-61154767D01*
X75367955Y-61193402D01*
X75407222Y-61367639D01*
X75491266Y-61574616D01*
X75511604Y-61607805D01*
X75580971Y-61721001D01*
X75607987Y-61765088D01*
X75754250Y-61933938D01*
X75926126Y-62076632D01*
X75993163Y-62115805D01*
X75999445Y-62119476D01*
X76048169Y-62171114D01*
X76061240Y-62240897D01*
X76034509Y-62306669D01*
X75994055Y-62340027D01*
X75981607Y-62346507D01*
X75977474Y-62349610D01*
X75977471Y-62349612D01*
X75956132Y-62365634D01*
X75802965Y-62480635D01*
X75648629Y-62642138D01*
X75645715Y-62646410D01*
X75645714Y-62646411D01*
X75636300Y-62660211D01*
X75522743Y-62826680D01*
X75428688Y-63029305D01*
X75368989Y-63244570D01*
X75345251Y-63466695D01*
X75345548Y-63471848D01*
X75345548Y-63471851D01*
X75351011Y-63566590D01*
X75358110Y-63689715D01*
X75359247Y-63694761D01*
X75359248Y-63694767D01*
X75367955Y-63733402D01*
X75407222Y-63907639D01*
X75491266Y-64114616D01*
X75511604Y-64147805D01*
X75580971Y-64261001D01*
X75607987Y-64305088D01*
X75754250Y-64473938D01*
X75926126Y-64616632D01*
X75993163Y-64655805D01*
X75999445Y-64659476D01*
X76048169Y-64711114D01*
X76061240Y-64780897D01*
X76034509Y-64846669D01*
X75994055Y-64880027D01*
X75981607Y-64886507D01*
X75977474Y-64889610D01*
X75977471Y-64889612D01*
X75953247Y-64907800D01*
X75802965Y-65020635D01*
X75648629Y-65182138D01*
X75645715Y-65186410D01*
X75645714Y-65186411D01*
X75636300Y-65200211D01*
X75522743Y-65366680D01*
X75428688Y-65569305D01*
X75368989Y-65784570D01*
X75345251Y-66006695D01*
X75345548Y-66011848D01*
X75345548Y-66011851D01*
X75351011Y-66106590D01*
X75358110Y-66229715D01*
X75359247Y-66234761D01*
X75359248Y-66234767D01*
X75379119Y-66322939D01*
X75407222Y-66447639D01*
X75491266Y-66654616D01*
X75511604Y-66687805D01*
X75580971Y-66801001D01*
X75607987Y-66845088D01*
X75754250Y-67013938D01*
X75926126Y-67156632D01*
X75992691Y-67195529D01*
X75999445Y-67199476D01*
X76048169Y-67251114D01*
X76061240Y-67320897D01*
X76034509Y-67386669D01*
X75994055Y-67420027D01*
X75981607Y-67426507D01*
X75977474Y-67429610D01*
X75977471Y-67429612D01*
X75956132Y-67445634D01*
X75802965Y-67560635D01*
X75648629Y-67722138D01*
X75645715Y-67726410D01*
X75645714Y-67726411D01*
X75636300Y-67740211D01*
X75522743Y-67906680D01*
X75428688Y-68109305D01*
X75368989Y-68324570D01*
X75345251Y-68546695D01*
X74168000Y-68546695D01*
X74168000Y-44939885D01*
X89624000Y-44939885D01*
X89628475Y-44955124D01*
X89629865Y-44956329D01*
X89637548Y-44958000D01*
X90659885Y-44958000D01*
X90675124Y-44953525D01*
X90676329Y-44952135D01*
X90678000Y-44944452D01*
X90678000Y-44939885D01*
X91186000Y-44939885D01*
X91190475Y-44955124D01*
X91191865Y-44956329D01*
X91199548Y-44958000D01*
X92221884Y-44958000D01*
X92237123Y-44953525D01*
X92238328Y-44952135D01*
X92239999Y-44944452D01*
X92239999Y-44367331D01*
X92239629Y-44360510D01*
X92234105Y-44309648D01*
X92230479Y-44294396D01*
X92185324Y-44173946D01*
X92176786Y-44158351D01*
X92100285Y-44056276D01*
X92087724Y-44043715D01*
X91985649Y-43967214D01*
X91970054Y-43958676D01*
X91849606Y-43913522D01*
X91834351Y-43909895D01*
X91783486Y-43904369D01*
X91776672Y-43904000D01*
X91204115Y-43904000D01*
X91188876Y-43908475D01*
X91187671Y-43909865D01*
X91186000Y-43917548D01*
X91186000Y-44939885D01*
X90678000Y-44939885D01*
X90678000Y-43922116D01*
X90673525Y-43906877D01*
X90672135Y-43905672D01*
X90664452Y-43904001D01*
X90087331Y-43904001D01*
X90080510Y-43904371D01*
X90029648Y-43909895D01*
X90014396Y-43913521D01*
X89893946Y-43958676D01*
X89878351Y-43967214D01*
X89776276Y-44043715D01*
X89763715Y-44056276D01*
X89687214Y-44158351D01*
X89678676Y-44173946D01*
X89633522Y-44294394D01*
X89629895Y-44309649D01*
X89624369Y-44360514D01*
X89624000Y-44367328D01*
X89624000Y-44939885D01*
X74168000Y-44939885D01*
X74168000Y-42544000D01*
X74188002Y-42475879D01*
X74241658Y-42429386D01*
X74294000Y-42418000D01*
X109856000Y-42418000D01*
X109924121Y-42438002D01*
G37*
%TD.AperFunction*%
%TA.AperFunction,Conductor*%
G36*
X108503621Y-44740991D02*
G01*
X108550114Y-44794647D01*
X108561500Y-44846989D01*
X108561500Y-49205050D01*
X108541498Y-49273171D01*
X108524595Y-49294145D01*
X108222145Y-49596595D01*
X108159833Y-49630621D01*
X108133050Y-49633500D01*
X107373888Y-49633500D01*
X107305767Y-49613498D01*
X107270675Y-49579771D01*
X107181357Y-49452211D01*
X107181355Y-49452208D01*
X107178198Y-49447700D01*
X107016300Y-49285802D01*
X107011792Y-49282645D01*
X107011789Y-49282643D01*
X106933611Y-49227902D01*
X106828749Y-49154477D01*
X106823767Y-49152154D01*
X106823762Y-49152151D01*
X106789543Y-49136195D01*
X106736258Y-49089278D01*
X106716797Y-49021001D01*
X106737339Y-48953041D01*
X106789543Y-48907805D01*
X106823762Y-48891849D01*
X106823767Y-48891846D01*
X106828749Y-48889523D01*
X106933611Y-48816098D01*
X107011789Y-48761357D01*
X107011792Y-48761355D01*
X107016300Y-48758198D01*
X107178198Y-48596300D01*
X107309523Y-48408749D01*
X107311846Y-48403767D01*
X107311849Y-48403762D01*
X107403961Y-48206225D01*
X107403961Y-48206224D01*
X107406284Y-48201243D01*
X107465543Y-47980087D01*
X107485498Y-47752000D01*
X107465543Y-47523913D01*
X107464119Y-47518598D01*
X107407707Y-47308067D01*
X107407706Y-47308065D01*
X107406284Y-47302757D01*
X107387068Y-47261548D01*
X107311849Y-47100238D01*
X107311846Y-47100233D01*
X107309523Y-47095251D01*
X107178198Y-46907700D01*
X107016300Y-46745802D01*
X107011792Y-46742645D01*
X107011789Y-46742643D01*
X106933611Y-46687902D01*
X106828749Y-46614477D01*
X106823767Y-46612154D01*
X106823762Y-46612151D01*
X106789543Y-46596195D01*
X106736258Y-46549278D01*
X106716797Y-46481001D01*
X106737339Y-46413041D01*
X106789543Y-46367805D01*
X106823762Y-46351849D01*
X106823767Y-46351846D01*
X106828749Y-46349523D01*
X106933611Y-46276098D01*
X107011789Y-46221357D01*
X107011792Y-46221355D01*
X107016300Y-46218198D01*
X107178198Y-46056300D01*
X107181561Y-46051498D01*
X107250593Y-45952910D01*
X107309523Y-45868749D01*
X107311846Y-45863767D01*
X107311849Y-45863762D01*
X107403961Y-45666225D01*
X107403961Y-45666224D01*
X107406284Y-45661243D01*
X107423401Y-45597364D01*
X107464119Y-45445402D01*
X107464119Y-45445400D01*
X107465543Y-45440087D01*
X107485498Y-45212000D01*
X107465543Y-44983913D01*
X107437592Y-44879599D01*
X107439282Y-44808624D01*
X107479076Y-44749828D01*
X107544340Y-44721880D01*
X107559299Y-44720989D01*
X108435500Y-44720989D01*
X108503621Y-44740991D01*
G37*
%TD.AperFunction*%
%TA.AperFunction,Conductor*%
G36*
X104852822Y-44740991D02*
G01*
X104899315Y-44794647D01*
X104909419Y-44864921D01*
X104906410Y-44879593D01*
X104878457Y-44983913D01*
X104858502Y-45212000D01*
X104878457Y-45440087D01*
X104879881Y-45445402D01*
X104879882Y-45445405D01*
X104887988Y-45475659D01*
X104886298Y-45546635D01*
X104855376Y-45597364D01*
X102005656Y-48447084D01*
X101943344Y-48481110D01*
X101916561Y-48483989D01*
X92232218Y-48483989D01*
X92164097Y-48463987D01*
X92117604Y-48410331D01*
X92107500Y-48340057D01*
X92118023Y-48304739D01*
X92163961Y-48206225D01*
X92163961Y-48206224D01*
X92166284Y-48201243D01*
X92225543Y-47980087D01*
X92245498Y-47752000D01*
X92225543Y-47523913D01*
X92197592Y-47419599D01*
X92199282Y-47348624D01*
X92239076Y-47289828D01*
X92304340Y-47261880D01*
X92319299Y-47260989D01*
X100635455Y-47260989D01*
X100647311Y-47261548D01*
X100647314Y-47261548D01*
X100655048Y-47263277D01*
X100725880Y-47261051D01*
X100729838Y-47260989D01*
X100758943Y-47260989D01*
X100763343Y-47260433D01*
X100775175Y-47259501D01*
X100821342Y-47258051D01*
X100841932Y-47252069D01*
X100861293Y-47248059D01*
X100868281Y-47247177D01*
X100874715Y-47246364D01*
X100874716Y-47246364D01*
X100882575Y-47245371D01*
X100889940Y-47242455D01*
X100889944Y-47242454D01*
X100925532Y-47228363D01*
X100936742Y-47224524D01*
X100981111Y-47211634D01*
X100999576Y-47200714D01*
X101017316Y-47192023D01*
X101037267Y-47184124D01*
X101074640Y-47156971D01*
X101084559Y-47150456D01*
X101117488Y-47130982D01*
X101117492Y-47130979D01*
X101124318Y-47126942D01*
X101139482Y-47111778D01*
X101154516Y-47098937D01*
X101165454Y-47090990D01*
X101171868Y-47086330D01*
X101201314Y-47050736D01*
X101209303Y-47041957D01*
X102344176Y-45907084D01*
X103493365Y-44757894D01*
X103555677Y-44723869D01*
X103582460Y-44720989D01*
X104784701Y-44720989D01*
X104852822Y-44740991D01*
G37*
%TD.AperFunction*%
%TD*%
M02*
