%TF.GenerationSoftware,KiCad,Pcbnew,6.0.2+dfsg-1*%
%TF.CreationDate,2022-05-25T17:35:34+01:00*%
%TF.ProjectId,AY-3-8910 to 12 Adapter,41592d33-2d38-4393-9130-20746f203132,rev?*%
%TF.SameCoordinates,Original*%
%TF.FileFunction,Soldermask,Top*%
%TF.FilePolarity,Negative*%
%FSLAX46Y46*%
G04 Gerber Fmt 4.6, Leading zero omitted, Abs format (unit mm)*
G04 Created by KiCad (PCBNEW 6.0.2+dfsg-1) date 2022-05-25 17:35:34*
%MOMM*%
%LPD*%
G01*
G04 APERTURE LIST*
%ADD10R,1.700000X1.700000*%
%ADD11O,1.700000X1.700000*%
%ADD12R,1.600000X1.600000*%
%ADD13O,1.600000X1.600000*%
G04 APERTURE END LIST*
D10*
%TO.C,IO-B*%
X76708000Y-71120000D03*
D11*
X76708000Y-68580000D03*
X76708000Y-66040000D03*
X76708000Y-63500000D03*
X76708000Y-60960000D03*
X76708000Y-58420000D03*
X76708000Y-55880000D03*
X76708000Y-53340000D03*
%TD*%
D12*
%TO.C,U2*%
X83820000Y-53340000D03*
D13*
X83820000Y-55880000D03*
X83820000Y-58420000D03*
X83820000Y-60960000D03*
X83820000Y-63500000D03*
X83820000Y-66040000D03*
X83820000Y-68580000D03*
X83820000Y-71120000D03*
X83820000Y-73660000D03*
X83820000Y-76200000D03*
X83820000Y-78740000D03*
X83820000Y-81280000D03*
X83820000Y-83820000D03*
X83820000Y-86360000D03*
X99060000Y-86360000D03*
X99060000Y-83820000D03*
X99060000Y-81280000D03*
X99060000Y-78740000D03*
X99060000Y-76200000D03*
X99060000Y-73660000D03*
X99060000Y-71120000D03*
X99060000Y-68580000D03*
X99060000Y-66040000D03*
X99060000Y-63500000D03*
X99060000Y-60960000D03*
X99060000Y-58420000D03*
X99060000Y-55880000D03*
X99060000Y-53340000D03*
%TD*%
D12*
%TO.C,U1*%
X90932000Y-45212000D03*
D13*
X90932000Y-47752000D03*
X90932000Y-50292000D03*
X90932000Y-52832000D03*
X90932000Y-55372000D03*
X90932000Y-57912000D03*
X90932000Y-60452000D03*
X90932000Y-62992000D03*
X90932000Y-65532000D03*
X90932000Y-68072000D03*
X90932000Y-70612000D03*
X90932000Y-73152000D03*
X90932000Y-75692000D03*
X90932000Y-78232000D03*
X90932000Y-80772000D03*
X90932000Y-83312000D03*
X90932000Y-85852000D03*
X90932000Y-88392000D03*
X90932000Y-90932000D03*
X90932000Y-93472000D03*
X106172000Y-93472000D03*
X106172000Y-90932000D03*
X106172000Y-88392000D03*
X106172000Y-85852000D03*
X106172000Y-83312000D03*
X106172000Y-80772000D03*
X106172000Y-78232000D03*
X106172000Y-75692000D03*
X106172000Y-73152000D03*
X106172000Y-70612000D03*
X106172000Y-68072000D03*
X106172000Y-65532000D03*
X106172000Y-62992000D03*
X106172000Y-60452000D03*
X106172000Y-57912000D03*
X106172000Y-55372000D03*
X106172000Y-52832000D03*
X106172000Y-50292000D03*
X106172000Y-47752000D03*
X106172000Y-45212000D03*
%TD*%
D10*
%TO.C,IO-A*%
X76708000Y-93472000D03*
D11*
X76708000Y-90932000D03*
X76708000Y-88392000D03*
X76708000Y-85852000D03*
X76708000Y-83312000D03*
X76708000Y-80772000D03*
X76708000Y-78232000D03*
X76708000Y-75692000D03*
%TD*%
M02*
