M48
; DRILL file {KiCad 6.0.2+dfsg-1} date Wed 25 May 2022 17:35:26 BST
; FORMAT={-:-/ absolute / inch / decimal}
; #@! TF.CreationDate,2022-05-25T17:35:26+01:00
; #@! TF.GenerationSoftware,Kicad,Pcbnew,6.0.2+dfsg-1
; #@! TF.FileFunction,Plated,1,2,PTH
FMAT,2
INCH
; #@! TA.AperFunction,Plated,PTH,ViaDrill
T1C0.0157
; #@! TA.AperFunction,Plated,PTH,ComponentDrill
T2C0.0315
; #@! TA.AperFunction,Plated,PTH,ComponentDrill
T3C0.0394
%
G90
G05
T1
X3.15Y-3.1
X3.15Y-3.2
X3.15Y-3.3
X3.15Y-3.45
X3.15Y-3.65
X3.2Y-2.1
X3.2Y-2.3
X3.2Y-2.4
X3.2Y-2.5
X3.2Y-2.85
X3.2Y-2.95
X3.4Y-2.55
X3.45Y-2.5
X3.45Y-3.4
X3.5Y-2.35
X3.5Y-2.45
X3.5047Y-1.8047
X3.85Y-1.9
X4.0Y-3.45
X4.05Y-2.15
X4.05Y-2.25
X4.05Y-2.35
X4.05Y-2.45
X4.05Y-2.55
X4.05Y-2.65
X4.05Y-2.75
X4.05Y-2.85
X4.05Y-2.95
X4.05Y-3.05
X4.05Y-3.15
X4.25Y-1.85
T2
X3.3Y-2.1
X3.3Y-2.2
X3.3Y-2.3
X3.3Y-2.4
X3.3Y-2.5
X3.3Y-2.6
X3.3Y-2.7
X3.3Y-2.8
X3.3Y-2.9
X3.3Y-3.0
X3.3Y-3.1
X3.3Y-3.2
X3.3Y-3.3
X3.3Y-3.4
X3.58Y-1.78
X3.58Y-1.88
X3.58Y-1.98
X3.58Y-2.08
X3.58Y-2.18
X3.58Y-2.28
X3.58Y-2.38
X3.58Y-2.48
X3.58Y-2.58
X3.58Y-2.68
X3.58Y-2.78
X3.58Y-2.88
X3.58Y-2.98
X3.58Y-3.08
X3.58Y-3.18
X3.58Y-3.28
X3.58Y-3.38
X3.58Y-3.48
X3.58Y-3.58
X3.58Y-3.68
X3.9Y-2.1
X3.9Y-2.2
X3.9Y-2.3
X3.9Y-2.4
X3.9Y-2.5
X3.9Y-2.6
X3.9Y-2.7
X3.9Y-2.8
X3.9Y-2.9
X3.9Y-3.0
X3.9Y-3.1
X3.9Y-3.2
X3.9Y-3.3
X3.9Y-3.4
X4.18Y-1.78
X4.18Y-1.88
X4.18Y-1.98
X4.18Y-2.08
X4.18Y-2.18
X4.18Y-2.28
X4.18Y-2.38
X4.18Y-2.48
X4.18Y-2.58
X4.18Y-2.68
X4.18Y-2.78
X4.18Y-2.88
X4.18Y-2.98
X4.18Y-3.08
X4.18Y-3.18
X4.18Y-3.28
X4.18Y-3.38
X4.18Y-3.48
X4.18Y-3.58
X4.18Y-3.68
T3
X3.02Y-2.1
X3.02Y-2.2
X3.02Y-2.3
X3.02Y-2.4
X3.02Y-2.5
X3.02Y-2.6
X3.02Y-2.7
X3.02Y-2.8
X3.02Y-2.98
X3.02Y-3.08
X3.02Y-3.18
X3.02Y-3.28
X3.02Y-3.38
X3.02Y-3.48
X3.02Y-3.58
X3.02Y-3.68
T0
M30
