%TF.GenerationSoftware,KiCad,Pcbnew,6.0.2+dfsg-1*%
%TF.CreationDate,2022-05-25T17:35:34+01:00*%
%TF.ProjectId,AY-3-8910 to 12 Adapter,41592d33-2d38-4393-9130-20746f203132,rev?*%
%TF.SameCoordinates,Original*%
%TF.FileFunction,Copper,L1,Top*%
%TF.FilePolarity,Positive*%
%FSLAX46Y46*%
G04 Gerber Fmt 4.6, Leading zero omitted, Abs format (unit mm)*
G04 Created by KiCad (PCBNEW 6.0.2+dfsg-1) date 2022-05-25 17:35:34*
%MOMM*%
%LPD*%
G01*
G04 APERTURE LIST*
%TA.AperFunction,ComponentPad*%
%ADD10R,1.700000X1.700000*%
%TD*%
%TA.AperFunction,ComponentPad*%
%ADD11O,1.700000X1.700000*%
%TD*%
%TA.AperFunction,ComponentPad*%
%ADD12R,1.600000X1.600000*%
%TD*%
%TA.AperFunction,ComponentPad*%
%ADD13O,1.600000X1.600000*%
%TD*%
%TA.AperFunction,ViaPad*%
%ADD14C,0.800000*%
%TD*%
%TA.AperFunction,Conductor*%
%ADD15C,0.300000*%
%TD*%
G04 APERTURE END LIST*
D10*
%TO.P,IO-B,1,Pin_1*%
%TO.N,Net-(J1-Pad1)*%
X76708000Y-71120000D03*
D11*
%TO.P,IO-B,2,Pin_2*%
%TO.N,Net-(J1-Pad2)*%
X76708000Y-68580000D03*
%TO.P,IO-B,3,Pin_3*%
%TO.N,Net-(J1-Pad3)*%
X76708000Y-66040000D03*
%TO.P,IO-B,4,Pin_4*%
%TO.N,Net-(J1-Pad4)*%
X76708000Y-63500000D03*
%TO.P,IO-B,5,Pin_5*%
%TO.N,Net-(J1-Pad5)*%
X76708000Y-60960000D03*
%TO.P,IO-B,6,Pin_6*%
%TO.N,Net-(J1-Pad6)*%
X76708000Y-58420000D03*
%TO.P,IO-B,7,Pin_7*%
%TO.N,Net-(J1-Pad7)*%
X76708000Y-55880000D03*
%TO.P,IO-B,8,Pin_8*%
%TO.N,Net-(J1-Pad8)*%
X76708000Y-53340000D03*
%TD*%
D12*
%TO.P,U2,1,Analog_C*%
%TO.N,Net-(U1-Pad38)*%
X83820000Y-53340000D03*
D13*
%TO.P,U2,2,TEST1*%
%TO.N,unconnected-(U2-Pad2)*%
X83820000Y-55880000D03*
%TO.P,U2,3,Vcc*%
%TO.N,Net-(U1-Pad40)*%
X83820000Y-58420000D03*
%TO.P,U2,4,Analog_B*%
%TO.N,Net-(U1-Pad3)*%
X83820000Y-60960000D03*
%TO.P,U2,5,Analog_A*%
%TO.N,Net-(U1-Pad4)*%
X83820000Y-63500000D03*
%TO.P,U2,6,Vss*%
%TO.N,GND*%
X83820000Y-66040000D03*
%TO.P,U2,7,IOA7*%
%TO.N,Net-(J2-Pad8)*%
X83820000Y-68580000D03*
%TO.P,U2,8,IOA6*%
%TO.N,Net-(J2-Pad7)*%
X83820000Y-71120000D03*
%TO.P,U2,9,IOA5*%
%TO.N,Net-(J2-Pad6)*%
X83820000Y-73660000D03*
%TO.P,U2,10,IOA4*%
%TO.N,Net-(J2-Pad5)*%
X83820000Y-76200000D03*
%TO.P,U2,11,IOA3*%
%TO.N,Net-(J2-Pad4)*%
X83820000Y-78740000D03*
%TO.P,U2,12,IOA2*%
%TO.N,Net-(J2-Pad3)*%
X83820000Y-81280000D03*
%TO.P,U2,13,IOA1*%
%TO.N,Net-(J2-Pad2)*%
X83820000Y-83820000D03*
%TO.P,U2,14,IOA0*%
%TO.N,Net-(J2-Pad1)*%
X83820000Y-86360000D03*
%TO.P,U2,15,CLOCK*%
%TO.N,Net-(U1-Pad22)*%
X99060000Y-86360000D03*
%TO.P,U2,16,/RESET*%
%TO.N,Net-(U1-Pad23)*%
X99060000Y-83820000D03*
%TO.P,U2,17,A8*%
%TO.N,Net-(U1-Pad25)*%
X99060000Y-81280000D03*
%TO.P,U2,18,BDIR*%
%TO.N,Net-(U1-Pad27)*%
X99060000Y-78740000D03*
%TO.P,U2,19,BC2*%
%TO.N,Net-(U1-Pad28)*%
X99060000Y-76200000D03*
%TO.P,U2,20,BC1*%
%TO.N,Net-(U1-Pad29)*%
X99060000Y-73660000D03*
%TO.P,U2,21,DA7*%
%TO.N,Net-(U1-Pad30)*%
X99060000Y-71120000D03*
%TO.P,U2,22,DA6*%
%TO.N,Net-(U1-Pad31)*%
X99060000Y-68580000D03*
%TO.P,U2,23,DA5*%
%TO.N,Net-(U1-Pad32)*%
X99060000Y-66040000D03*
%TO.P,U2,24,DA4*%
%TO.N,Net-(U1-Pad33)*%
X99060000Y-63500000D03*
%TO.P,U2,25,DA3*%
%TO.N,Net-(U1-Pad34)*%
X99060000Y-60960000D03*
%TO.P,U2,26,DA2*%
%TO.N,Net-(U1-Pad35)*%
X99060000Y-58420000D03*
%TO.P,U2,27,DA1*%
%TO.N,Net-(U1-Pad36)*%
X99060000Y-55880000D03*
%TO.P,U2,28,DA0*%
%TO.N,Net-(U1-Pad37)*%
X99060000Y-53340000D03*
%TD*%
D12*
%TO.P,U1,1,Vss*%
%TO.N,GND*%
X90932000Y-45212000D03*
D13*
%TO.P,U1,2,NC*%
%TO.N,unconnected-(U1-Pad2)*%
X90932000Y-47752000D03*
%TO.P,U1,3,Analog_B*%
%TO.N,Net-(U1-Pad3)*%
X90932000Y-50292000D03*
%TO.P,U1,4,Analog_A*%
%TO.N,Net-(U1-Pad4)*%
X90932000Y-52832000D03*
%TO.P,U1,5,NC*%
%TO.N,unconnected-(U1-Pad5)*%
X90932000Y-55372000D03*
%TO.P,U1,6,IOB7*%
%TO.N,Net-(J1-Pad8)*%
X90932000Y-57912000D03*
%TO.P,U1,7,IOB6*%
%TO.N,Net-(J1-Pad7)*%
X90932000Y-60452000D03*
%TO.P,U1,8,IOB5*%
%TO.N,Net-(J1-Pad6)*%
X90932000Y-62992000D03*
%TO.P,U1,9,IOB4*%
%TO.N,Net-(J1-Pad5)*%
X90932000Y-65532000D03*
%TO.P,U1,10,IOB3*%
%TO.N,Net-(J1-Pad4)*%
X90932000Y-68072000D03*
%TO.P,U1,11,IOB2*%
%TO.N,Net-(J1-Pad3)*%
X90932000Y-70612000D03*
%TO.P,U1,12,IOB1*%
%TO.N,Net-(J1-Pad2)*%
X90932000Y-73152000D03*
%TO.P,U1,13,IOB0*%
%TO.N,Net-(J1-Pad1)*%
X90932000Y-75692000D03*
%TO.P,U1,14,IOA7*%
%TO.N,Net-(J2-Pad8)*%
X90932000Y-78232000D03*
%TO.P,U1,15,IOA6*%
%TO.N,Net-(J2-Pad7)*%
X90932000Y-80772000D03*
%TO.P,U1,16,IOA5*%
%TO.N,Net-(J2-Pad6)*%
X90932000Y-83312000D03*
%TO.P,U1,17,IOA4*%
%TO.N,Net-(J2-Pad5)*%
X90932000Y-85852000D03*
%TO.P,U1,18,IOA3*%
%TO.N,Net-(J2-Pad4)*%
X90932000Y-88392000D03*
%TO.P,U1,19,IOA2*%
%TO.N,Net-(J2-Pad3)*%
X90932000Y-90932000D03*
%TO.P,U1,20,IOA1*%
%TO.N,Net-(J2-Pad2)*%
X90932000Y-93472000D03*
%TO.P,U1,21,IOA0*%
%TO.N,Net-(J2-Pad1)*%
X106172000Y-93472000D03*
%TO.P,U1,22,CLOCK*%
%TO.N,Net-(U1-Pad22)*%
X106172000Y-90932000D03*
%TO.P,U1,23,/RESET*%
%TO.N,Net-(U1-Pad23)*%
X106172000Y-88392000D03*
%TO.P,U1,24,/A9*%
%TO.N,GND*%
X106172000Y-85852000D03*
%TO.P,U1,25,A8*%
%TO.N,Net-(U1-Pad25)*%
X106172000Y-83312000D03*
%TO.P,U1,26,TEST2*%
%TO.N,unconnected-(U1-Pad26)*%
X106172000Y-80772000D03*
%TO.P,U1,27,BDIR*%
%TO.N,Net-(U1-Pad27)*%
X106172000Y-78232000D03*
%TO.P,U1,28,BC2*%
%TO.N,Net-(U1-Pad28)*%
X106172000Y-75692000D03*
%TO.P,U1,29,BC1*%
%TO.N,Net-(U1-Pad29)*%
X106172000Y-73152000D03*
%TO.P,U1,30,DA7*%
%TO.N,Net-(U1-Pad30)*%
X106172000Y-70612000D03*
%TO.P,U1,31,DA6*%
%TO.N,Net-(U1-Pad31)*%
X106172000Y-68072000D03*
%TO.P,U1,32,DA5*%
%TO.N,Net-(U1-Pad32)*%
X106172000Y-65532000D03*
%TO.P,U1,33,DA4*%
%TO.N,Net-(U1-Pad33)*%
X106172000Y-62992000D03*
%TO.P,U1,34,DA3*%
%TO.N,Net-(U1-Pad34)*%
X106172000Y-60452000D03*
%TO.P,U1,35,DA2*%
%TO.N,Net-(U1-Pad35)*%
X106172000Y-57912000D03*
%TO.P,U1,36,DA1*%
%TO.N,Net-(U1-Pad36)*%
X106172000Y-55372000D03*
%TO.P,U1,37,DA0*%
%TO.N,Net-(U1-Pad37)*%
X106172000Y-52832000D03*
%TO.P,U1,38,Analog_C*%
%TO.N,Net-(U1-Pad38)*%
X106172000Y-50292000D03*
%TO.P,U1,39,TEST1*%
%TO.N,unconnected-(U1-Pad39)*%
X106172000Y-47752000D03*
%TO.P,U1,40,Vcc*%
%TO.N,Net-(U1-Pad40)*%
X106172000Y-45212000D03*
%TD*%
D10*
%TO.P,IO-A,1,Pin_1*%
%TO.N,Net-(J2-Pad1)*%
X76708000Y-93472000D03*
D11*
%TO.P,IO-A,2,Pin_2*%
%TO.N,Net-(J2-Pad2)*%
X76708000Y-90932000D03*
%TO.P,IO-A,3,Pin_3*%
%TO.N,Net-(J2-Pad3)*%
X76708000Y-88392000D03*
%TO.P,IO-A,4,Pin_4*%
%TO.N,Net-(J2-Pad4)*%
X76708000Y-85852000D03*
%TO.P,IO-A,5,Pin_5*%
%TO.N,Net-(J2-Pad5)*%
X76708000Y-83312000D03*
%TO.P,IO-A,6,Pin_6*%
%TO.N,Net-(J2-Pad6)*%
X76708000Y-80772000D03*
%TO.P,IO-A,7,Pin_7*%
%TO.N,Net-(J2-Pad7)*%
X76708000Y-78232000D03*
%TO.P,IO-A,8,Pin_8*%
%TO.N,Net-(J2-Pad8)*%
X76708000Y-75692000D03*
%TD*%
D14*
%TO.N,GND*%
X81280000Y-63500000D03*
X81280000Y-58420000D03*
X81280000Y-60960000D03*
X107950000Y-46990000D03*
X97790000Y-48260000D03*
X87630000Y-86360000D03*
X88900000Y-59690000D03*
X88900000Y-62230000D03*
X87630000Y-63500000D03*
X86360000Y-64770000D03*
X81280000Y-53340000D03*
X81280000Y-72390000D03*
X81280000Y-74930000D03*
X80010000Y-78740000D03*
X80010000Y-81280000D03*
X80010000Y-83820000D03*
X80010000Y-87630000D03*
X80010000Y-92710000D03*
X101600000Y-87630000D03*
X102870000Y-80010000D03*
X102870000Y-77470000D03*
X102870000Y-74930000D03*
X102870000Y-72390000D03*
X102870000Y-69850000D03*
X102870000Y-67310000D03*
X102870000Y-64770000D03*
X102870000Y-62230000D03*
X102870000Y-59690000D03*
X102870000Y-57150000D03*
X102870000Y-54610000D03*
X89020489Y-45840489D03*
%TD*%
D15*
%TO.N,Net-(J1-Pad6)*%
X90932000Y-62992000D02*
X86360000Y-58420000D01*
X86360000Y-58420000D02*
X86360000Y-50800000D01*
X85090000Y-49530000D02*
X80010000Y-49530000D01*
X86360000Y-50800000D02*
X85090000Y-49530000D01*
X80010000Y-55118000D02*
X76708000Y-58420000D01*
X80010000Y-49530000D02*
X80010000Y-55118000D01*
%TO.N,Net-(J1-Pad7)*%
X80010000Y-48260000D02*
X78740000Y-49530000D01*
X87630000Y-49530000D02*
X86360000Y-48260000D01*
X90932000Y-60452000D02*
X87630000Y-57150000D01*
X87630000Y-57150000D02*
X87630000Y-49530000D01*
X78740000Y-49530000D02*
X78740000Y-53848000D01*
X86360000Y-48260000D02*
X80010000Y-48260000D01*
X78740000Y-53848000D02*
X76708000Y-55880000D01*
%TO.N,Net-(J1-Pad8)*%
X88900000Y-49530000D02*
X88900000Y-57150000D01*
X78740000Y-46990000D02*
X86360000Y-46990000D01*
X76708000Y-53340000D02*
X76708000Y-49022000D01*
X76708000Y-49022000D02*
X78740000Y-46990000D01*
X89662000Y-57912000D02*
X90932000Y-57912000D01*
X86360000Y-46990000D02*
X88900000Y-49530000D01*
X88900000Y-57150000D02*
X89662000Y-57912000D01*
%TO.N,Net-(J1-Pad1)*%
X87630000Y-72390000D02*
X90932000Y-75692000D01*
X87630000Y-70764345D02*
X87630000Y-72390000D01*
X76708000Y-71120000D02*
X80397511Y-67430489D01*
X84296144Y-67430489D02*
X87630000Y-70764345D01*
X80397511Y-67430489D02*
X84296144Y-67430489D01*
%TO.N,Net-(J1-Pad2)*%
X84296144Y-64890489D02*
X89782489Y-70376834D01*
X89782489Y-70376834D02*
X89782489Y-72002489D01*
X80397511Y-64890489D02*
X84296144Y-64890489D01*
X76708000Y-68580000D02*
X80397511Y-64890489D01*
X89782489Y-72002489D02*
X90932000Y-73152000D01*
%TO.N,Net-(J1-Pad3)*%
X80397511Y-62350489D02*
X76708000Y-66040000D01*
X90932000Y-70612000D02*
X84969511Y-64649511D01*
X84969511Y-63023856D02*
X84296144Y-62350489D01*
X84969511Y-64649511D02*
X84969511Y-63023856D01*
X84296144Y-62350489D02*
X80397511Y-62350489D01*
%TO.N,Net-(J1-Pad4)*%
X84296144Y-59810489D02*
X80397511Y-59810489D01*
X80397511Y-59810489D02*
X76708000Y-63500000D01*
X90932000Y-68072000D02*
X84969511Y-62109511D01*
X84969511Y-60483856D02*
X84296144Y-59810489D01*
X84969511Y-62109511D02*
X84969511Y-60483856D01*
%TO.N,Net-(J1-Pad5)*%
X84175655Y-57150000D02*
X80518000Y-57150000D01*
X90932000Y-65532000D02*
X84969511Y-59569511D01*
X84969511Y-59569511D02*
X84969511Y-57943856D01*
X84969511Y-57943856D02*
X84175655Y-57150000D01*
X80518000Y-57150000D02*
X76708000Y-60960000D01*
%TO.N,Net-(J1-Pad8)*%
X90932000Y-57912000D02*
X90932000Y-57446551D01*
%TO.N,Net-(J2-Pad1)*%
X83820000Y-96520000D02*
X79756000Y-96520000D01*
X104140000Y-96520000D02*
X104140000Y-95504000D01*
X83820000Y-86360000D02*
X83820000Y-96520000D01*
X79756000Y-96520000D02*
X104140000Y-96520000D01*
X79756000Y-96520000D02*
X76708000Y-93472000D01*
X104140000Y-95504000D02*
X106172000Y-93472000D01*
%TO.N,Net-(J2-Pad2)*%
X90932000Y-93472000D02*
X85090000Y-87630000D01*
X79248000Y-90932000D02*
X76708000Y-90932000D01*
X83820000Y-83820000D02*
X82550000Y-85090000D01*
X82550000Y-85090000D02*
X82550000Y-87630000D01*
X85090000Y-87630000D02*
X85090000Y-85090000D01*
X82550000Y-87630000D02*
X79248000Y-90932000D01*
X85090000Y-85090000D02*
X83820000Y-83820000D01*
%TO.N,Net-(J2-Pad3)*%
X85589519Y-83049519D02*
X85589519Y-87423091D01*
X89098428Y-90932000D02*
X90932000Y-90932000D01*
X85589519Y-87423091D02*
X89098428Y-90932000D01*
X76708000Y-88392000D02*
X83820000Y-81280000D01*
X83820000Y-81280000D02*
X85589519Y-83049519D01*
%TO.N,Net-(J2-Pad4)*%
X90932000Y-88392000D02*
X90932000Y-87685572D01*
X76708000Y-85852000D02*
X83820000Y-78740000D01*
X90932000Y-87685572D02*
X85090000Y-81843572D01*
X85090000Y-80010000D02*
X83820000Y-78740000D01*
X85090000Y-81843572D02*
X85090000Y-80010000D01*
%TO.N,Net-(J2-Pad5)*%
X85090000Y-77470000D02*
X83820000Y-76200000D01*
X85090000Y-79303572D02*
X85090000Y-77470000D01*
X76708000Y-83312000D02*
X83820000Y-76200000D01*
X90932000Y-85852000D02*
X90932000Y-85145572D01*
X90932000Y-85145572D02*
X85090000Y-79303572D01*
%TO.N,Net-(J2-Pad6)*%
X85090000Y-74930000D02*
X83820000Y-73660000D01*
X90932000Y-82605572D02*
X85090000Y-76763572D01*
X76708000Y-80772000D02*
X83820000Y-73660000D01*
X90932000Y-83312000D02*
X90932000Y-82605572D01*
X85090000Y-76763572D02*
X85090000Y-74930000D01*
%TO.N,Net-(J2-Pad7)*%
X90932000Y-80065572D02*
X85090000Y-74223572D01*
X85090000Y-72390000D02*
X83820000Y-71120000D01*
X76708000Y-78232000D02*
X83820000Y-71120000D01*
X90932000Y-80772000D02*
X90932000Y-80065572D01*
X85090000Y-74223572D02*
X85090000Y-72390000D01*
%TO.N,Net-(J2-Pad8)*%
X90932000Y-78232000D02*
X86360000Y-73660000D01*
X76708000Y-75692000D02*
X83820000Y-68580000D01*
X86360000Y-71120000D02*
X83820000Y-68580000D01*
X86360000Y-73660000D02*
X86360000Y-71120000D01*
%TO.N,GND*%
X89282969Y-71502969D02*
X89282969Y-73128624D01*
X97910489Y-81756144D02*
X98824834Y-82670489D01*
X102990489Y-82670489D02*
X106172000Y-85852000D01*
X98824834Y-82670489D02*
X102990489Y-82670489D01*
X90696834Y-74542489D02*
X91408144Y-74542489D01*
X97910489Y-81044834D02*
X97910489Y-81756144D01*
X89282969Y-73128624D02*
X90696834Y-74542489D01*
X91408144Y-74542489D02*
X97910489Y-81044834D01*
X83820000Y-66040000D02*
X89282969Y-71502969D01*
%TO.N,Net-(U1-Pad22)*%
X103632000Y-90932000D02*
X106172000Y-90932000D01*
X99060000Y-86360000D02*
X103632000Y-90932000D01*
%TO.N,Net-(U1-Pad23)*%
X100330000Y-83820000D02*
X104902000Y-88392000D01*
X99060000Y-83820000D02*
X100330000Y-83820000D01*
X104902000Y-88392000D02*
X106172000Y-88392000D01*
%TO.N,Net-(U1-Pad25)*%
X102870000Y-81280000D02*
X104902000Y-83312000D01*
X104902000Y-83312000D02*
X106172000Y-83312000D01*
X99060000Y-81280000D02*
X102870000Y-81280000D01*
%TO.N,Net-(U1-Pad27)*%
X99060000Y-78740000D02*
X105664000Y-78740000D01*
X105664000Y-78740000D02*
X106172000Y-78232000D01*
%TO.N,Net-(U1-Pad28)*%
X99060000Y-76200000D02*
X105664000Y-76200000D01*
X105664000Y-76200000D02*
X106172000Y-75692000D01*
%TO.N,Net-(U1-Pad29)*%
X105664000Y-73660000D02*
X106172000Y-73152000D01*
X99060000Y-73660000D02*
X105664000Y-73660000D01*
%TO.N,Net-(U1-Pad30)*%
X99060000Y-71120000D02*
X105664000Y-71120000D01*
X105664000Y-71120000D02*
X106172000Y-70612000D01*
%TO.N,Net-(U1-Pad31)*%
X105664000Y-68580000D02*
X106172000Y-68072000D01*
X99060000Y-68580000D02*
X105664000Y-68580000D01*
%TO.N,Net-(U1-Pad32)*%
X105664000Y-66040000D02*
X106172000Y-65532000D01*
X99060000Y-66040000D02*
X105664000Y-66040000D01*
%TO.N,Net-(U1-Pad33)*%
X105664000Y-63500000D02*
X106172000Y-62992000D01*
X99060000Y-63500000D02*
X105664000Y-63500000D01*
%TO.N,Net-(U1-Pad34)*%
X105664000Y-60960000D02*
X106172000Y-60452000D01*
X99060000Y-60960000D02*
X105664000Y-60960000D01*
%TO.N,Net-(U1-Pad35)*%
X105664000Y-58420000D02*
X106172000Y-57912000D01*
X99060000Y-58420000D02*
X105664000Y-58420000D01*
%TO.N,Net-(U1-Pad36)*%
X99060000Y-55880000D02*
X105664000Y-55880000D01*
X105664000Y-55880000D02*
X106172000Y-55372000D01*
%TO.N,Net-(U1-Pad37)*%
X99060000Y-53340000D02*
X105664000Y-53340000D01*
X105664000Y-53340000D02*
X106172000Y-52832000D01*
%TD*%
%TA.AperFunction,Conductor*%
%TO.N,GND*%
G36*
X109924121Y-42438002D02*
G01*
X109970614Y-42491658D01*
X109982000Y-42544000D01*
X109982000Y-97156000D01*
X109961998Y-97224121D01*
X109908342Y-97270614D01*
X109856000Y-97282000D01*
X104601917Y-97282000D01*
X104533796Y-97261998D01*
X104487303Y-97208342D01*
X104477199Y-97138068D01*
X104506693Y-97073488D01*
X104534403Y-97049615D01*
X104536866Y-97048052D01*
X104563080Y-97031416D01*
X104569268Y-97024827D01*
X104587051Y-97009149D01*
X104594357Y-97003841D01*
X104599412Y-96997731D01*
X104631665Y-96958745D01*
X104636896Y-96952811D01*
X104671547Y-96915910D01*
X104676972Y-96910133D01*
X104680788Y-96903191D01*
X104680792Y-96903186D01*
X104681325Y-96902216D01*
X104694652Y-96882605D01*
X104695356Y-96881754D01*
X104700409Y-96875646D01*
X104725331Y-96822685D01*
X104728924Y-96815633D01*
X104753304Y-96771286D01*
X104753305Y-96771285D01*
X104757124Y-96764337D01*
X104759370Y-96755590D01*
X104767403Y-96733278D01*
X104767873Y-96732280D01*
X104767874Y-96732277D01*
X104771249Y-96725105D01*
X104782219Y-96667596D01*
X104783945Y-96659875D01*
X104796528Y-96610867D01*
X104798500Y-96603188D01*
X104798500Y-96594155D01*
X104800732Y-96570546D01*
X104800939Y-96569462D01*
X104800939Y-96569460D01*
X104802424Y-96561676D01*
X104798749Y-96503264D01*
X104798500Y-96495353D01*
X104798500Y-95828950D01*
X104818502Y-95760829D01*
X104835405Y-95739855D01*
X105786636Y-94788624D01*
X105848948Y-94754598D01*
X105908341Y-94756012D01*
X105936234Y-94763485D01*
X105943913Y-94765543D01*
X106172000Y-94785498D01*
X106400087Y-94765543D01*
X106405400Y-94764119D01*
X106405402Y-94764119D01*
X106615933Y-94707707D01*
X106615935Y-94707706D01*
X106621243Y-94706284D01*
X106654788Y-94690642D01*
X106823762Y-94611849D01*
X106823767Y-94611846D01*
X106828749Y-94609523D01*
X106933611Y-94536098D01*
X107011789Y-94481357D01*
X107011792Y-94481355D01*
X107016300Y-94478198D01*
X107178198Y-94316300D01*
X107309523Y-94128749D01*
X107311846Y-94123767D01*
X107311849Y-94123762D01*
X107403961Y-93926225D01*
X107403961Y-93926224D01*
X107406284Y-93921243D01*
X107423401Y-93857364D01*
X107464119Y-93705402D01*
X107464119Y-93705400D01*
X107465543Y-93700087D01*
X107485498Y-93472000D01*
X107465543Y-93243913D01*
X107464118Y-93238595D01*
X107407707Y-93028067D01*
X107407706Y-93028065D01*
X107406284Y-93022757D01*
X107403961Y-93017775D01*
X107311849Y-92820238D01*
X107311846Y-92820233D01*
X107309523Y-92815251D01*
X107178198Y-92627700D01*
X107016300Y-92465802D01*
X107011792Y-92462645D01*
X107011789Y-92462643D01*
X106876780Y-92368109D01*
X106828749Y-92334477D01*
X106823767Y-92332154D01*
X106823762Y-92332151D01*
X106789543Y-92316195D01*
X106736258Y-92269278D01*
X106716797Y-92201001D01*
X106737339Y-92133041D01*
X106789543Y-92087805D01*
X106823762Y-92071849D01*
X106823767Y-92071846D01*
X106828749Y-92069523D01*
X106966351Y-91973173D01*
X107011789Y-91941357D01*
X107011792Y-91941355D01*
X107016300Y-91938198D01*
X107178198Y-91776300D01*
X107202923Y-91740990D01*
X107294291Y-91610502D01*
X107309523Y-91588749D01*
X107311846Y-91583767D01*
X107311849Y-91583762D01*
X107403961Y-91386225D01*
X107403961Y-91386224D01*
X107406284Y-91381243D01*
X107413295Y-91355080D01*
X107464119Y-91165402D01*
X107464119Y-91165400D01*
X107465543Y-91160087D01*
X107485498Y-90932000D01*
X107465543Y-90703913D01*
X107459593Y-90681707D01*
X107407707Y-90488067D01*
X107407706Y-90488065D01*
X107406284Y-90482757D01*
X107394092Y-90456610D01*
X107311849Y-90280238D01*
X107311846Y-90280233D01*
X107309523Y-90275251D01*
X107236098Y-90170389D01*
X107181357Y-90092211D01*
X107181355Y-90092208D01*
X107178198Y-90087700D01*
X107016300Y-89925802D01*
X107011792Y-89922645D01*
X107011789Y-89922643D01*
X106933611Y-89867902D01*
X106828749Y-89794477D01*
X106823767Y-89792154D01*
X106823762Y-89792151D01*
X106789543Y-89776195D01*
X106736258Y-89729278D01*
X106716797Y-89661001D01*
X106737339Y-89593041D01*
X106789543Y-89547805D01*
X106823762Y-89531849D01*
X106823767Y-89531846D01*
X106828749Y-89529523D01*
X106971555Y-89429529D01*
X107011789Y-89401357D01*
X107011792Y-89401355D01*
X107016300Y-89398198D01*
X107178198Y-89236300D01*
X107202923Y-89200990D01*
X107294291Y-89070502D01*
X107309523Y-89048749D01*
X107311846Y-89043767D01*
X107311849Y-89043762D01*
X107403961Y-88846225D01*
X107403961Y-88846224D01*
X107406284Y-88841243D01*
X107413295Y-88815080D01*
X107464119Y-88625402D01*
X107464119Y-88625400D01*
X107465543Y-88620087D01*
X107485498Y-88392000D01*
X107465543Y-88163913D01*
X107458958Y-88139336D01*
X107407707Y-87948067D01*
X107407706Y-87948065D01*
X107406284Y-87942757D01*
X107379150Y-87884567D01*
X107311849Y-87740238D01*
X107311846Y-87740232D01*
X107309523Y-87735251D01*
X107204116Y-87584715D01*
X107181357Y-87552211D01*
X107181355Y-87552208D01*
X107178198Y-87547700D01*
X107016300Y-87385802D01*
X107011792Y-87382645D01*
X107011789Y-87382643D01*
X106900976Y-87305051D01*
X106828749Y-87254477D01*
X106823767Y-87252154D01*
X106823762Y-87252151D01*
X106788951Y-87235919D01*
X106735666Y-87189002D01*
X106716205Y-87120725D01*
X106736747Y-87052765D01*
X106788951Y-87007529D01*
X106823511Y-86991414D01*
X106833007Y-86985931D01*
X107011467Y-86860972D01*
X107019875Y-86853916D01*
X107173916Y-86699875D01*
X107180972Y-86691467D01*
X107305931Y-86513007D01*
X107311414Y-86503511D01*
X107403490Y-86306053D01*
X107407236Y-86295761D01*
X107453394Y-86123497D01*
X107453058Y-86109401D01*
X107445116Y-86106000D01*
X104904033Y-86106000D01*
X104890502Y-86109973D01*
X104889273Y-86118522D01*
X104936764Y-86295761D01*
X104940510Y-86306053D01*
X105032586Y-86503511D01*
X105038069Y-86513007D01*
X105163028Y-86691467D01*
X105170084Y-86699875D01*
X105324125Y-86853916D01*
X105332533Y-86860972D01*
X105510993Y-86985931D01*
X105520489Y-86991414D01*
X105555049Y-87007529D01*
X105608334Y-87054446D01*
X105627795Y-87122723D01*
X105607253Y-87190683D01*
X105555049Y-87235919D01*
X105520238Y-87252151D01*
X105520233Y-87252154D01*
X105515251Y-87254477D01*
X105443024Y-87305051D01*
X105332211Y-87382643D01*
X105332208Y-87382645D01*
X105327700Y-87385802D01*
X105166476Y-87547026D01*
X105104164Y-87581052D01*
X105033349Y-87575987D01*
X104988286Y-87547026D01*
X100853655Y-83412395D01*
X100845665Y-83403615D01*
X100845663Y-83403613D01*
X100841416Y-83396920D01*
X100821897Y-83378590D01*
X100789743Y-83348396D01*
X100786901Y-83345641D01*
X100766333Y-83325073D01*
X100762826Y-83322353D01*
X100753804Y-83314647D01*
X100725913Y-83288456D01*
X100720133Y-83283028D01*
X100713181Y-83279206D01*
X100701342Y-83272697D01*
X100684818Y-83261843D01*
X100674132Y-83253555D01*
X100667868Y-83248696D01*
X100660596Y-83245549D01*
X100660594Y-83245548D01*
X100625465Y-83230346D01*
X100614805Y-83225124D01*
X100581284Y-83206695D01*
X100581282Y-83206694D01*
X100574337Y-83202876D01*
X100553559Y-83197541D01*
X100534869Y-83191142D01*
X100515176Y-83182620D01*
X100469552Y-83175394D01*
X100457929Y-83172987D01*
X100429928Y-83165798D01*
X100413188Y-83161500D01*
X100391741Y-83161500D01*
X100372031Y-83159949D01*
X100350848Y-83156594D01*
X100304859Y-83160941D01*
X100293004Y-83161500D01*
X100261888Y-83161500D01*
X100193767Y-83141498D01*
X100158675Y-83107771D01*
X100145785Y-83089361D01*
X100066198Y-82975700D01*
X99904300Y-82813802D01*
X99899792Y-82810645D01*
X99899789Y-82810643D01*
X99821611Y-82755902D01*
X99716749Y-82682477D01*
X99711767Y-82680154D01*
X99711762Y-82680151D01*
X99677543Y-82664195D01*
X99624258Y-82617278D01*
X99604797Y-82549001D01*
X99625339Y-82481041D01*
X99677543Y-82435805D01*
X99711762Y-82419849D01*
X99711767Y-82419846D01*
X99716749Y-82417523D01*
X99821611Y-82344098D01*
X99899789Y-82289357D01*
X99899792Y-82289355D01*
X99904300Y-82286198D01*
X100066198Y-82124300D01*
X100158676Y-81992228D01*
X100214132Y-81947901D01*
X100261888Y-81938500D01*
X102545050Y-81938500D01*
X102613171Y-81958502D01*
X102634145Y-81975405D01*
X104378345Y-83719605D01*
X104386335Y-83728385D01*
X104390584Y-83735080D01*
X104396362Y-83740506D01*
X104396363Y-83740507D01*
X104442257Y-83783604D01*
X104445099Y-83786359D01*
X104465667Y-83806927D01*
X104469170Y-83809644D01*
X104478195Y-83817352D01*
X104511867Y-83848972D01*
X104518818Y-83852793D01*
X104518819Y-83852794D01*
X104530658Y-83859303D01*
X104547182Y-83870157D01*
X104557271Y-83877982D01*
X104564132Y-83883304D01*
X104571404Y-83886451D01*
X104571406Y-83886452D01*
X104606535Y-83901654D01*
X104617195Y-83906876D01*
X104644394Y-83921829D01*
X104657663Y-83929124D01*
X104678441Y-83934459D01*
X104697131Y-83940858D01*
X104716824Y-83949380D01*
X104760596Y-83956313D01*
X104762448Y-83956606D01*
X104774071Y-83959013D01*
X104802072Y-83966202D01*
X104818812Y-83970500D01*
X104840259Y-83970500D01*
X104859969Y-83972051D01*
X104881152Y-83975406D01*
X104927141Y-83971059D01*
X104938996Y-83970500D01*
X104970112Y-83970500D01*
X105038233Y-83990502D01*
X105073325Y-84024229D01*
X105141078Y-84120990D01*
X105165802Y-84156300D01*
X105327700Y-84318198D01*
X105332208Y-84321355D01*
X105332211Y-84321357D01*
X105410389Y-84376098D01*
X105515251Y-84449523D01*
X105520233Y-84451846D01*
X105520238Y-84451849D01*
X105555049Y-84468081D01*
X105608334Y-84514998D01*
X105627795Y-84583275D01*
X105607253Y-84651235D01*
X105555049Y-84696471D01*
X105520489Y-84712586D01*
X105510993Y-84718069D01*
X105332533Y-84843028D01*
X105324125Y-84850084D01*
X105170084Y-85004125D01*
X105163028Y-85012533D01*
X105038069Y-85190993D01*
X105032586Y-85200489D01*
X104940510Y-85397947D01*
X104936764Y-85408239D01*
X104890606Y-85580503D01*
X104890942Y-85594599D01*
X104898884Y-85598000D01*
X107439967Y-85598000D01*
X107453498Y-85594027D01*
X107454727Y-85585478D01*
X107407236Y-85408239D01*
X107403490Y-85397947D01*
X107311414Y-85200489D01*
X107305931Y-85190993D01*
X107180972Y-85012533D01*
X107173916Y-85004125D01*
X107019875Y-84850084D01*
X107011467Y-84843028D01*
X106833007Y-84718069D01*
X106823511Y-84712586D01*
X106788951Y-84696471D01*
X106735666Y-84649554D01*
X106716205Y-84581277D01*
X106736747Y-84513317D01*
X106788951Y-84468081D01*
X106823762Y-84451849D01*
X106823767Y-84451846D01*
X106828749Y-84449523D01*
X106933611Y-84376098D01*
X107011789Y-84321357D01*
X107011792Y-84321355D01*
X107016300Y-84318198D01*
X107178198Y-84156300D01*
X107202923Y-84120990D01*
X107294291Y-83990502D01*
X107309523Y-83968749D01*
X107311846Y-83963767D01*
X107311849Y-83963762D01*
X107403961Y-83766225D01*
X107403961Y-83766224D01*
X107406284Y-83761243D01*
X107408504Y-83752960D01*
X107464119Y-83545402D01*
X107464119Y-83545400D01*
X107465543Y-83540087D01*
X107485498Y-83312000D01*
X107465543Y-83083913D01*
X107459593Y-83061707D01*
X107407707Y-82868067D01*
X107407706Y-82868065D01*
X107406284Y-82862757D01*
X107394092Y-82836610D01*
X107311849Y-82660238D01*
X107311846Y-82660232D01*
X107309523Y-82655251D01*
X107204116Y-82504715D01*
X107181357Y-82472211D01*
X107181355Y-82472208D01*
X107178198Y-82467700D01*
X107016300Y-82305802D01*
X107011792Y-82302645D01*
X107011789Y-82302643D01*
X106933611Y-82247902D01*
X106828749Y-82174477D01*
X106823767Y-82172154D01*
X106823762Y-82172151D01*
X106789543Y-82156195D01*
X106736258Y-82109278D01*
X106716797Y-82041001D01*
X106737339Y-81973041D01*
X106789543Y-81927805D01*
X106823762Y-81911849D01*
X106823767Y-81911846D01*
X106828749Y-81909523D01*
X106933611Y-81836098D01*
X107011789Y-81781357D01*
X107011792Y-81781355D01*
X107016300Y-81778198D01*
X107178198Y-81616300D01*
X107202923Y-81580990D01*
X107306366Y-81433257D01*
X107309523Y-81428749D01*
X107311846Y-81423767D01*
X107311849Y-81423762D01*
X107403961Y-81226225D01*
X107403961Y-81226224D01*
X107406284Y-81221243D01*
X107408504Y-81212960D01*
X107464119Y-81005402D01*
X107464119Y-81005400D01*
X107465543Y-81000087D01*
X107485498Y-80772000D01*
X107465543Y-80543913D01*
X107459593Y-80521707D01*
X107407707Y-80328067D01*
X107407706Y-80328065D01*
X107406284Y-80322757D01*
X107394092Y-80296610D01*
X107311849Y-80120238D01*
X107311846Y-80120232D01*
X107309523Y-80115251D01*
X107188717Y-79942722D01*
X107181357Y-79932211D01*
X107181355Y-79932208D01*
X107178198Y-79927700D01*
X107016300Y-79765802D01*
X107011792Y-79762645D01*
X107011789Y-79762643D01*
X106933611Y-79707902D01*
X106828749Y-79634477D01*
X106823767Y-79632154D01*
X106823762Y-79632151D01*
X106789543Y-79616195D01*
X106736258Y-79569278D01*
X106716797Y-79501001D01*
X106737339Y-79433041D01*
X106789543Y-79387805D01*
X106823762Y-79371849D01*
X106823767Y-79371846D01*
X106828749Y-79369523D01*
X106933611Y-79296098D01*
X107011789Y-79241357D01*
X107011792Y-79241355D01*
X107016300Y-79238198D01*
X107178198Y-79076300D01*
X107202923Y-79040990D01*
X107306366Y-78893257D01*
X107309523Y-78888749D01*
X107311846Y-78883767D01*
X107311849Y-78883762D01*
X107403961Y-78686225D01*
X107403961Y-78686224D01*
X107406284Y-78681243D01*
X107408504Y-78672960D01*
X107464119Y-78465402D01*
X107464119Y-78465400D01*
X107465543Y-78460087D01*
X107485498Y-78232000D01*
X107465543Y-78003913D01*
X107459593Y-77981707D01*
X107407707Y-77788067D01*
X107407706Y-77788064D01*
X107406284Y-77782757D01*
X107313694Y-77584195D01*
X107311849Y-77580238D01*
X107311846Y-77580233D01*
X107309523Y-77575251D01*
X107188717Y-77402722D01*
X107181357Y-77392211D01*
X107181355Y-77392208D01*
X107178198Y-77387700D01*
X107016300Y-77225802D01*
X107011792Y-77222645D01*
X107011789Y-77222643D01*
X106933611Y-77167902D01*
X106828749Y-77094477D01*
X106823767Y-77092154D01*
X106823762Y-77092151D01*
X106789543Y-77076195D01*
X106736258Y-77029278D01*
X106716797Y-76961001D01*
X106737339Y-76893041D01*
X106789543Y-76847805D01*
X106823762Y-76831849D01*
X106823767Y-76831846D01*
X106828749Y-76829523D01*
X106933611Y-76756098D01*
X107011789Y-76701357D01*
X107011792Y-76701355D01*
X107016300Y-76698198D01*
X107178198Y-76536300D01*
X107202923Y-76500990D01*
X107306366Y-76353257D01*
X107309523Y-76348749D01*
X107311846Y-76343767D01*
X107311849Y-76343762D01*
X107403961Y-76146225D01*
X107403961Y-76146224D01*
X107406284Y-76141243D01*
X107408504Y-76132960D01*
X107464119Y-75925402D01*
X107464119Y-75925400D01*
X107465543Y-75920087D01*
X107485498Y-75692000D01*
X107465543Y-75463913D01*
X107459593Y-75441707D01*
X107407707Y-75248067D01*
X107407706Y-75248064D01*
X107406284Y-75242757D01*
X107313694Y-75044195D01*
X107311849Y-75040238D01*
X107311846Y-75040233D01*
X107309523Y-75035251D01*
X107188717Y-74862722D01*
X107181357Y-74852211D01*
X107181355Y-74852208D01*
X107178198Y-74847700D01*
X107016300Y-74685802D01*
X107011792Y-74682645D01*
X107011789Y-74682643D01*
X106933611Y-74627902D01*
X106828749Y-74554477D01*
X106823767Y-74552154D01*
X106823762Y-74552151D01*
X106789543Y-74536195D01*
X106736258Y-74489278D01*
X106716797Y-74421001D01*
X106737339Y-74353041D01*
X106789543Y-74307805D01*
X106823762Y-74291849D01*
X106823767Y-74291846D01*
X106828749Y-74289523D01*
X106933611Y-74216098D01*
X107011789Y-74161357D01*
X107011792Y-74161355D01*
X107016300Y-74158198D01*
X107178198Y-73996300D01*
X107189783Y-73979756D01*
X107306366Y-73813257D01*
X107309523Y-73808749D01*
X107311846Y-73803767D01*
X107311849Y-73803762D01*
X107403961Y-73606225D01*
X107403961Y-73606224D01*
X107406284Y-73601243D01*
X107408504Y-73592960D01*
X107464119Y-73385402D01*
X107464119Y-73385400D01*
X107465543Y-73380087D01*
X107485498Y-73152000D01*
X107465543Y-72923913D01*
X107456250Y-72889232D01*
X107407707Y-72708067D01*
X107407706Y-72708064D01*
X107406284Y-72702757D01*
X107313694Y-72504195D01*
X107311849Y-72500238D01*
X107311846Y-72500233D01*
X107309523Y-72495251D01*
X107217916Y-72364423D01*
X107181357Y-72312211D01*
X107181355Y-72312208D01*
X107178198Y-72307700D01*
X107016300Y-72145802D01*
X107011792Y-72142645D01*
X107011789Y-72142643D01*
X106933343Y-72087715D01*
X106828749Y-72014477D01*
X106823767Y-72012154D01*
X106823762Y-72012151D01*
X106789543Y-71996195D01*
X106736258Y-71949278D01*
X106716797Y-71881001D01*
X106737339Y-71813041D01*
X106789543Y-71767805D01*
X106823762Y-71751849D01*
X106823767Y-71751846D01*
X106828749Y-71749523D01*
X106933611Y-71676098D01*
X107011789Y-71621357D01*
X107011792Y-71621355D01*
X107016300Y-71618198D01*
X107178198Y-71456300D01*
X107309523Y-71268749D01*
X107311846Y-71263767D01*
X107311849Y-71263762D01*
X107403961Y-71066225D01*
X107403961Y-71066224D01*
X107406284Y-71061243D01*
X107408504Y-71052960D01*
X107464119Y-70845402D01*
X107464119Y-70845400D01*
X107465543Y-70840087D01*
X107485498Y-70612000D01*
X107465543Y-70383913D01*
X107456973Y-70351929D01*
X107407707Y-70168067D01*
X107407706Y-70168064D01*
X107406284Y-70162757D01*
X107345173Y-70031703D01*
X107311849Y-69960238D01*
X107311846Y-69960233D01*
X107309523Y-69955251D01*
X107188717Y-69782722D01*
X107181357Y-69772211D01*
X107181355Y-69772208D01*
X107178198Y-69767700D01*
X107016300Y-69605802D01*
X107011792Y-69602645D01*
X107011789Y-69602643D01*
X106933611Y-69547902D01*
X106828749Y-69474477D01*
X106823767Y-69472154D01*
X106823762Y-69472151D01*
X106789543Y-69456195D01*
X106736258Y-69409278D01*
X106716797Y-69341001D01*
X106737339Y-69273041D01*
X106789543Y-69227805D01*
X106823762Y-69211849D01*
X106823767Y-69211846D01*
X106828749Y-69209523D01*
X106933611Y-69136098D01*
X107011789Y-69081357D01*
X107011792Y-69081355D01*
X107016300Y-69078198D01*
X107178198Y-68916300D01*
X107309523Y-68728749D01*
X107311846Y-68723767D01*
X107311849Y-68723762D01*
X107403961Y-68526225D01*
X107403961Y-68526224D01*
X107406284Y-68521243D01*
X107450197Y-68357361D01*
X107464119Y-68305402D01*
X107464119Y-68305400D01*
X107465543Y-68300087D01*
X107485498Y-68072000D01*
X107465543Y-67843913D01*
X107461309Y-67828112D01*
X107407707Y-67628067D01*
X107407706Y-67628064D01*
X107406284Y-67622757D01*
X107381983Y-67570643D01*
X107311849Y-67420238D01*
X107311846Y-67420233D01*
X107309523Y-67415251D01*
X107210817Y-67274284D01*
X107181357Y-67232211D01*
X107181355Y-67232208D01*
X107178198Y-67227700D01*
X107016300Y-67065802D01*
X107011792Y-67062645D01*
X107011789Y-67062643D01*
X106932906Y-67007409D01*
X106828749Y-66934477D01*
X106823767Y-66932154D01*
X106823762Y-66932151D01*
X106789543Y-66916195D01*
X106736258Y-66869278D01*
X106716797Y-66801001D01*
X106737339Y-66733041D01*
X106789543Y-66687805D01*
X106823762Y-66671849D01*
X106823767Y-66671846D01*
X106828749Y-66669523D01*
X106938408Y-66592739D01*
X107011789Y-66541357D01*
X107011792Y-66541355D01*
X107016300Y-66538198D01*
X107178198Y-66376300D01*
X107309523Y-66188749D01*
X107311846Y-66183767D01*
X107311849Y-66183762D01*
X107403961Y-65986225D01*
X107403961Y-65986224D01*
X107406284Y-65981243D01*
X107450197Y-65817361D01*
X107464119Y-65765402D01*
X107464119Y-65765400D01*
X107465543Y-65760087D01*
X107485498Y-65532000D01*
X107465543Y-65303913D01*
X107461309Y-65288112D01*
X107407707Y-65088067D01*
X107407706Y-65088064D01*
X107406284Y-65082757D01*
X107381983Y-65030643D01*
X107311849Y-64880238D01*
X107311846Y-64880233D01*
X107309523Y-64875251D01*
X107210817Y-64734284D01*
X107181357Y-64692211D01*
X107181355Y-64692208D01*
X107178198Y-64687700D01*
X107016300Y-64525802D01*
X107011792Y-64522645D01*
X107011789Y-64522643D01*
X106933611Y-64467902D01*
X106828749Y-64394477D01*
X106823767Y-64392154D01*
X106823762Y-64392151D01*
X106789543Y-64376195D01*
X106736258Y-64329278D01*
X106716797Y-64261001D01*
X106737339Y-64193041D01*
X106789543Y-64147805D01*
X106823762Y-64131849D01*
X106823767Y-64131846D01*
X106828749Y-64129523D01*
X107008784Y-64003461D01*
X107011789Y-64001357D01*
X107011792Y-64001355D01*
X107016300Y-63998198D01*
X107178198Y-63836300D01*
X107309523Y-63648749D01*
X107311846Y-63643767D01*
X107311849Y-63643762D01*
X107403961Y-63446225D01*
X107403961Y-63446224D01*
X107406284Y-63441243D01*
X107450197Y-63277361D01*
X107464119Y-63225402D01*
X107464119Y-63225400D01*
X107465543Y-63220087D01*
X107485498Y-62992000D01*
X107465543Y-62763913D01*
X107406284Y-62542757D01*
X107381983Y-62490643D01*
X107311849Y-62340238D01*
X107311846Y-62340233D01*
X107309523Y-62335251D01*
X107210817Y-62194284D01*
X107181357Y-62152211D01*
X107181355Y-62152208D01*
X107178198Y-62147700D01*
X107016300Y-61985802D01*
X107011792Y-61982645D01*
X107011789Y-61982643D01*
X106933611Y-61927902D01*
X106828749Y-61854477D01*
X106823767Y-61852154D01*
X106823762Y-61852151D01*
X106789543Y-61836195D01*
X106736258Y-61789278D01*
X106716797Y-61721001D01*
X106737339Y-61653041D01*
X106789543Y-61607805D01*
X106823762Y-61591849D01*
X106823767Y-61591846D01*
X106828749Y-61589523D01*
X107008784Y-61463461D01*
X107011789Y-61461357D01*
X107011792Y-61461355D01*
X107016300Y-61458198D01*
X107178198Y-61296300D01*
X107309523Y-61108749D01*
X107311846Y-61103767D01*
X107311849Y-61103762D01*
X107403961Y-60906225D01*
X107403961Y-60906224D01*
X107406284Y-60901243D01*
X107450197Y-60737361D01*
X107464119Y-60685402D01*
X107464119Y-60685400D01*
X107465543Y-60680087D01*
X107485498Y-60452000D01*
X107465543Y-60223913D01*
X107461309Y-60208112D01*
X107407707Y-60008067D01*
X107407706Y-60008064D01*
X107406284Y-60002757D01*
X107381983Y-59950643D01*
X107311849Y-59800238D01*
X107311846Y-59800233D01*
X107309523Y-59795251D01*
X107210817Y-59654284D01*
X107181357Y-59612211D01*
X107181355Y-59612208D01*
X107178198Y-59607700D01*
X107016300Y-59445802D01*
X107011792Y-59442645D01*
X107011789Y-59442643D01*
X106933611Y-59387902D01*
X106828749Y-59314477D01*
X106823767Y-59312154D01*
X106823762Y-59312151D01*
X106789543Y-59296195D01*
X106736258Y-59249278D01*
X106716797Y-59181001D01*
X106737339Y-59113041D01*
X106789543Y-59067805D01*
X106823762Y-59051849D01*
X106823767Y-59051846D01*
X106828749Y-59049523D01*
X107008784Y-58923461D01*
X107011789Y-58921357D01*
X107011792Y-58921355D01*
X107016300Y-58918198D01*
X107178198Y-58756300D01*
X107189783Y-58739756D01*
X107264154Y-58633542D01*
X107309523Y-58568749D01*
X107311846Y-58563767D01*
X107311849Y-58563762D01*
X107403961Y-58366225D01*
X107403961Y-58366224D01*
X107406284Y-58361243D01*
X107450197Y-58197361D01*
X107464119Y-58145402D01*
X107464119Y-58145400D01*
X107465543Y-58140087D01*
X107485498Y-57912000D01*
X107465543Y-57683913D01*
X107444226Y-57604357D01*
X107407707Y-57468067D01*
X107407706Y-57468064D01*
X107406284Y-57462757D01*
X107395949Y-57440593D01*
X107311849Y-57260238D01*
X107311846Y-57260233D01*
X107309523Y-57255251D01*
X107210817Y-57114284D01*
X107181357Y-57072211D01*
X107181355Y-57072208D01*
X107178198Y-57067700D01*
X107016300Y-56905802D01*
X107011792Y-56902645D01*
X107011789Y-56902643D01*
X106933611Y-56847902D01*
X106828749Y-56774477D01*
X106823767Y-56772154D01*
X106823762Y-56772151D01*
X106789543Y-56756195D01*
X106736258Y-56709278D01*
X106716797Y-56641001D01*
X106737339Y-56573041D01*
X106789543Y-56527805D01*
X106823762Y-56511849D01*
X106823767Y-56511846D01*
X106828749Y-56509523D01*
X106933611Y-56436098D01*
X107011789Y-56381357D01*
X107011792Y-56381355D01*
X107016300Y-56378198D01*
X107178198Y-56216300D01*
X107309523Y-56028749D01*
X107311846Y-56023767D01*
X107311849Y-56023762D01*
X107403961Y-55826225D01*
X107403961Y-55826224D01*
X107406284Y-55821243D01*
X107450197Y-55657361D01*
X107464119Y-55605402D01*
X107464119Y-55605400D01*
X107465543Y-55600087D01*
X107485498Y-55372000D01*
X107465543Y-55143913D01*
X107464119Y-55138598D01*
X107407707Y-54928067D01*
X107407706Y-54928064D01*
X107406284Y-54922757D01*
X107381983Y-54870643D01*
X107311849Y-54720238D01*
X107311846Y-54720233D01*
X107309523Y-54715251D01*
X107210817Y-54574284D01*
X107181357Y-54532211D01*
X107181355Y-54532208D01*
X107178198Y-54527700D01*
X107016300Y-54365802D01*
X107011792Y-54362645D01*
X107011789Y-54362643D01*
X106931344Y-54306315D01*
X106828749Y-54234477D01*
X106823767Y-54232154D01*
X106823762Y-54232151D01*
X106789543Y-54216195D01*
X106736258Y-54169278D01*
X106716797Y-54101001D01*
X106737339Y-54033041D01*
X106789543Y-53987805D01*
X106823762Y-53971849D01*
X106823767Y-53971846D01*
X106828749Y-53969523D01*
X106933611Y-53896098D01*
X107011789Y-53841357D01*
X107011792Y-53841355D01*
X107016300Y-53838198D01*
X107178198Y-53676300D01*
X107309523Y-53488749D01*
X107311846Y-53483767D01*
X107311849Y-53483762D01*
X107403961Y-53286225D01*
X107403961Y-53286224D01*
X107406284Y-53281243D01*
X107450197Y-53117361D01*
X107464119Y-53065402D01*
X107464119Y-53065400D01*
X107465543Y-53060087D01*
X107485498Y-52832000D01*
X107465543Y-52603913D01*
X107436547Y-52495700D01*
X107407707Y-52388067D01*
X107407706Y-52388064D01*
X107406284Y-52382757D01*
X107387769Y-52343051D01*
X107311849Y-52180238D01*
X107311846Y-52180233D01*
X107309523Y-52175251D01*
X107219005Y-52045978D01*
X107181357Y-51992211D01*
X107181355Y-51992208D01*
X107178198Y-51987700D01*
X107016300Y-51825802D01*
X107011792Y-51822645D01*
X107011789Y-51822643D01*
X106933611Y-51767902D01*
X106828749Y-51694477D01*
X106823767Y-51692154D01*
X106823762Y-51692151D01*
X106789543Y-51676195D01*
X106736258Y-51629278D01*
X106716797Y-51561001D01*
X106737339Y-51493041D01*
X106789543Y-51447805D01*
X106823762Y-51431849D01*
X106823767Y-51431846D01*
X106828749Y-51429523D01*
X106933611Y-51356098D01*
X107011789Y-51301357D01*
X107011792Y-51301355D01*
X107016300Y-51298198D01*
X107178198Y-51136300D01*
X107186146Y-51124950D01*
X107236098Y-51053611D01*
X107309523Y-50948749D01*
X107311846Y-50943767D01*
X107311849Y-50943762D01*
X107403961Y-50746225D01*
X107403961Y-50746224D01*
X107406284Y-50741243D01*
X107465543Y-50520087D01*
X107485498Y-50292000D01*
X107465543Y-50063913D01*
X107406284Y-49842757D01*
X107387633Y-49802760D01*
X107311849Y-49640238D01*
X107311846Y-49640233D01*
X107309523Y-49635251D01*
X107204074Y-49484654D01*
X107181357Y-49452211D01*
X107181355Y-49452208D01*
X107178198Y-49447700D01*
X107016300Y-49285802D01*
X107011792Y-49282645D01*
X107011789Y-49282643D01*
X106892914Y-49199406D01*
X106828749Y-49154477D01*
X106823767Y-49152154D01*
X106823762Y-49152151D01*
X106789543Y-49136195D01*
X106736258Y-49089278D01*
X106716797Y-49021001D01*
X106737339Y-48953041D01*
X106789543Y-48907805D01*
X106823762Y-48891849D01*
X106823767Y-48891846D01*
X106828749Y-48889523D01*
X106958840Y-48798432D01*
X107011789Y-48761357D01*
X107011792Y-48761355D01*
X107016300Y-48758198D01*
X107178198Y-48596300D01*
X107183191Y-48589170D01*
X107306366Y-48413257D01*
X107309523Y-48408749D01*
X107311846Y-48403767D01*
X107311849Y-48403762D01*
X107403961Y-48206225D01*
X107403961Y-48206224D01*
X107406284Y-48201243D01*
X107465543Y-47980087D01*
X107485498Y-47752000D01*
X107465543Y-47523913D01*
X107406284Y-47302757D01*
X107403961Y-47297775D01*
X107311849Y-47100238D01*
X107311846Y-47100233D01*
X107309523Y-47095251D01*
X107178198Y-46907700D01*
X107016300Y-46745802D01*
X107011792Y-46742645D01*
X107011789Y-46742643D01*
X106933045Y-46687506D01*
X106828749Y-46614477D01*
X106823767Y-46612154D01*
X106823762Y-46612151D01*
X106789543Y-46596195D01*
X106736258Y-46549278D01*
X106716797Y-46481001D01*
X106737339Y-46413041D01*
X106789543Y-46367805D01*
X106823762Y-46351849D01*
X106823767Y-46351846D01*
X106828749Y-46349523D01*
X106970805Y-46250054D01*
X107011789Y-46221357D01*
X107011792Y-46221355D01*
X107016300Y-46218198D01*
X107178198Y-46056300D01*
X107309523Y-45868749D01*
X107311846Y-45863767D01*
X107311849Y-45863762D01*
X107403961Y-45666225D01*
X107403961Y-45666224D01*
X107406284Y-45661243D01*
X107454970Y-45479548D01*
X107464119Y-45445402D01*
X107464119Y-45445400D01*
X107465543Y-45440087D01*
X107485498Y-45212000D01*
X107465543Y-44983913D01*
X107457028Y-44952135D01*
X107407707Y-44768067D01*
X107407706Y-44768065D01*
X107406284Y-44762757D01*
X107403961Y-44757775D01*
X107311849Y-44560238D01*
X107311846Y-44560233D01*
X107309523Y-44555251D01*
X107178198Y-44367700D01*
X107016300Y-44205802D01*
X107011792Y-44202645D01*
X107011789Y-44202643D01*
X106933611Y-44147902D01*
X106828749Y-44074477D01*
X106823767Y-44072154D01*
X106823762Y-44072151D01*
X106626225Y-43980039D01*
X106626224Y-43980039D01*
X106621243Y-43977716D01*
X106615935Y-43976294D01*
X106615933Y-43976293D01*
X106405402Y-43919881D01*
X106405400Y-43919881D01*
X106400087Y-43918457D01*
X106172000Y-43898502D01*
X105943913Y-43918457D01*
X105938600Y-43919881D01*
X105938598Y-43919881D01*
X105728067Y-43976293D01*
X105728065Y-43976294D01*
X105722757Y-43977716D01*
X105717776Y-43980039D01*
X105717775Y-43980039D01*
X105520238Y-44072151D01*
X105520233Y-44072154D01*
X105515251Y-44074477D01*
X105410389Y-44147902D01*
X105332211Y-44202643D01*
X105332208Y-44202645D01*
X105327700Y-44205802D01*
X105165802Y-44367700D01*
X105034477Y-44555251D01*
X105032154Y-44560233D01*
X105032151Y-44560238D01*
X104940039Y-44757775D01*
X104937716Y-44762757D01*
X104936294Y-44768065D01*
X104936293Y-44768067D01*
X104886972Y-44952135D01*
X104878457Y-44983913D01*
X104858502Y-45212000D01*
X104878457Y-45440087D01*
X104879881Y-45445400D01*
X104879881Y-45445402D01*
X104889031Y-45479548D01*
X104937716Y-45661243D01*
X104940039Y-45666224D01*
X104940039Y-45666225D01*
X105032151Y-45863762D01*
X105032154Y-45863767D01*
X105034477Y-45868749D01*
X105165802Y-46056300D01*
X105327700Y-46218198D01*
X105332208Y-46221355D01*
X105332211Y-46221357D01*
X105373195Y-46250054D01*
X105515251Y-46349523D01*
X105520233Y-46351846D01*
X105520238Y-46351849D01*
X105554457Y-46367805D01*
X105607742Y-46414722D01*
X105627203Y-46482999D01*
X105606661Y-46550959D01*
X105554457Y-46596195D01*
X105520238Y-46612151D01*
X105520233Y-46612154D01*
X105515251Y-46614477D01*
X105410955Y-46687506D01*
X105332211Y-46742643D01*
X105332208Y-46742645D01*
X105327700Y-46745802D01*
X105165802Y-46907700D01*
X105034477Y-47095251D01*
X105032154Y-47100233D01*
X105032151Y-47100238D01*
X104940039Y-47297775D01*
X104937716Y-47302757D01*
X104878457Y-47523913D01*
X104858502Y-47752000D01*
X104878457Y-47980087D01*
X104937716Y-48201243D01*
X104940039Y-48206224D01*
X104940039Y-48206225D01*
X105032151Y-48403762D01*
X105032154Y-48403767D01*
X105034477Y-48408749D01*
X105037634Y-48413257D01*
X105160810Y-48589170D01*
X105165802Y-48596300D01*
X105327700Y-48758198D01*
X105332208Y-48761355D01*
X105332211Y-48761357D01*
X105385160Y-48798432D01*
X105515251Y-48889523D01*
X105520233Y-48891846D01*
X105520238Y-48891849D01*
X105554457Y-48907805D01*
X105607742Y-48954722D01*
X105627203Y-49022999D01*
X105606661Y-49090959D01*
X105554457Y-49136195D01*
X105520238Y-49152151D01*
X105520233Y-49152154D01*
X105515251Y-49154477D01*
X105451086Y-49199406D01*
X105332211Y-49282643D01*
X105332208Y-49282645D01*
X105327700Y-49285802D01*
X105165802Y-49447700D01*
X105162645Y-49452208D01*
X105162643Y-49452211D01*
X105139926Y-49484654D01*
X105034477Y-49635251D01*
X105032154Y-49640233D01*
X105032151Y-49640238D01*
X104956367Y-49802760D01*
X104937716Y-49842757D01*
X104878457Y-50063913D01*
X104858502Y-50292000D01*
X104878457Y-50520087D01*
X104937716Y-50741243D01*
X104940039Y-50746224D01*
X104940039Y-50746225D01*
X105032151Y-50943762D01*
X105032154Y-50943767D01*
X105034477Y-50948749D01*
X105107902Y-51053611D01*
X105157855Y-51124950D01*
X105165802Y-51136300D01*
X105327700Y-51298198D01*
X105332208Y-51301355D01*
X105332211Y-51301357D01*
X105410389Y-51356098D01*
X105515251Y-51429523D01*
X105520233Y-51431846D01*
X105520238Y-51431849D01*
X105554457Y-51447805D01*
X105607742Y-51494722D01*
X105627203Y-51562999D01*
X105606661Y-51630959D01*
X105554457Y-51676195D01*
X105520238Y-51692151D01*
X105520233Y-51692154D01*
X105515251Y-51694477D01*
X105410389Y-51767902D01*
X105332211Y-51822643D01*
X105332208Y-51822645D01*
X105327700Y-51825802D01*
X105165802Y-51987700D01*
X105162645Y-51992208D01*
X105162643Y-51992211D01*
X105124995Y-52045978D01*
X105034477Y-52175251D01*
X105032154Y-52180233D01*
X105032151Y-52180238D01*
X104956231Y-52343051D01*
X104937716Y-52382757D01*
X104896869Y-52535201D01*
X104882691Y-52588112D01*
X104845739Y-52648734D01*
X104781878Y-52679756D01*
X104760984Y-52681500D01*
X100261888Y-52681500D01*
X100193767Y-52661498D01*
X100158675Y-52627771D01*
X100069357Y-52500211D01*
X100069355Y-52500208D01*
X100066198Y-52495700D01*
X99904300Y-52333802D01*
X99899792Y-52330645D01*
X99899789Y-52330643D01*
X99770514Y-52240124D01*
X99716749Y-52202477D01*
X99711767Y-52200154D01*
X99711762Y-52200151D01*
X99514225Y-52108039D01*
X99514224Y-52108039D01*
X99509243Y-52105716D01*
X99503935Y-52104294D01*
X99503933Y-52104293D01*
X99293402Y-52047881D01*
X99293400Y-52047881D01*
X99288087Y-52046457D01*
X99060000Y-52026502D01*
X98831913Y-52046457D01*
X98826600Y-52047881D01*
X98826598Y-52047881D01*
X98616067Y-52104293D01*
X98616065Y-52104294D01*
X98610757Y-52105716D01*
X98605776Y-52108039D01*
X98605775Y-52108039D01*
X98408238Y-52200151D01*
X98408233Y-52200154D01*
X98403251Y-52202477D01*
X98349486Y-52240124D01*
X98220211Y-52330643D01*
X98220208Y-52330645D01*
X98215700Y-52333802D01*
X98053802Y-52495700D01*
X98050645Y-52500208D01*
X98050643Y-52500211D01*
X98026143Y-52535201D01*
X97922477Y-52683251D01*
X97920154Y-52688233D01*
X97920151Y-52688238D01*
X97837908Y-52864610D01*
X97825716Y-52890757D01*
X97824294Y-52896065D01*
X97824293Y-52896067D01*
X97772407Y-53089707D01*
X97766457Y-53111913D01*
X97746502Y-53340000D01*
X97766457Y-53568087D01*
X97767881Y-53573400D01*
X97767881Y-53573402D01*
X97815851Y-53752425D01*
X97825716Y-53789243D01*
X97828039Y-53794224D01*
X97828039Y-53794225D01*
X97920151Y-53991762D01*
X97920154Y-53991767D01*
X97922477Y-53996749D01*
X97925634Y-54001257D01*
X98044461Y-54170959D01*
X98053802Y-54184300D01*
X98215700Y-54346198D01*
X98220208Y-54349355D01*
X98220211Y-54349357D01*
X98261542Y-54378297D01*
X98403251Y-54477523D01*
X98408233Y-54479846D01*
X98408238Y-54479849D01*
X98442457Y-54495805D01*
X98495742Y-54542722D01*
X98515203Y-54610999D01*
X98494661Y-54678959D01*
X98442457Y-54724195D01*
X98408238Y-54740151D01*
X98408233Y-54740154D01*
X98403251Y-54742477D01*
X98298389Y-54815902D01*
X98220211Y-54870643D01*
X98220208Y-54870645D01*
X98215700Y-54873802D01*
X98053802Y-55035700D01*
X97922477Y-55223251D01*
X97920154Y-55228233D01*
X97920151Y-55228238D01*
X97837908Y-55404610D01*
X97825716Y-55430757D01*
X97824294Y-55436065D01*
X97824293Y-55436067D01*
X97767881Y-55646598D01*
X97766457Y-55651913D01*
X97746502Y-55880000D01*
X97766457Y-56108087D01*
X97767881Y-56113400D01*
X97767881Y-56113402D01*
X97815851Y-56292425D01*
X97825716Y-56329243D01*
X97828039Y-56334224D01*
X97828039Y-56334225D01*
X97920151Y-56531762D01*
X97920154Y-56531767D01*
X97922477Y-56536749D01*
X97971166Y-56606284D01*
X98044461Y-56710959D01*
X98053802Y-56724300D01*
X98215700Y-56886198D01*
X98220208Y-56889355D01*
X98220211Y-56889357D01*
X98255612Y-56914145D01*
X98403251Y-57017523D01*
X98408233Y-57019846D01*
X98408238Y-57019849D01*
X98442457Y-57035805D01*
X98495742Y-57082722D01*
X98515203Y-57150999D01*
X98494661Y-57218959D01*
X98442457Y-57264195D01*
X98408238Y-57280151D01*
X98408233Y-57280154D01*
X98403251Y-57282477D01*
X98298389Y-57355902D01*
X98220211Y-57410643D01*
X98220208Y-57410645D01*
X98215700Y-57413802D01*
X98053802Y-57575700D01*
X97922477Y-57763251D01*
X97920154Y-57768233D01*
X97920151Y-57768238D01*
X97843091Y-57933496D01*
X97825716Y-57970757D01*
X97824294Y-57976065D01*
X97824293Y-57976067D01*
X97772407Y-58169707D01*
X97766457Y-58191913D01*
X97746502Y-58420000D01*
X97766457Y-58648087D01*
X97767881Y-58653400D01*
X97767881Y-58653402D01*
X97821991Y-58855340D01*
X97825716Y-58869243D01*
X97828039Y-58874224D01*
X97828039Y-58874225D01*
X97920151Y-59071762D01*
X97920154Y-59071767D01*
X97922477Y-59076749D01*
X97985401Y-59166614D01*
X98050442Y-59259501D01*
X98053802Y-59264300D01*
X98215700Y-59426198D01*
X98220208Y-59429355D01*
X98220211Y-59429357D01*
X98298389Y-59484098D01*
X98403251Y-59557523D01*
X98408233Y-59559846D01*
X98408238Y-59559849D01*
X98442457Y-59575805D01*
X98495742Y-59622722D01*
X98515203Y-59690999D01*
X98494661Y-59758959D01*
X98442457Y-59804195D01*
X98408238Y-59820151D01*
X98408233Y-59820154D01*
X98403251Y-59822477D01*
X98298389Y-59895902D01*
X98220211Y-59950643D01*
X98220208Y-59950645D01*
X98215700Y-59953802D01*
X98053802Y-60115700D01*
X98050645Y-60120208D01*
X98050643Y-60120211D01*
X98002938Y-60188341D01*
X97922477Y-60303251D01*
X97920154Y-60308233D01*
X97920151Y-60308238D01*
X97835719Y-60489305D01*
X97825716Y-60510757D01*
X97824294Y-60516065D01*
X97824293Y-60516067D01*
X97772407Y-60709707D01*
X97766457Y-60731913D01*
X97746502Y-60960000D01*
X97766457Y-61188087D01*
X97767881Y-61193400D01*
X97767881Y-61193402D01*
X97821991Y-61395340D01*
X97825716Y-61409243D01*
X97828039Y-61414224D01*
X97828039Y-61414225D01*
X97920151Y-61611762D01*
X97920154Y-61611767D01*
X97922477Y-61616749D01*
X97985401Y-61706614D01*
X98050442Y-61799501D01*
X98053802Y-61804300D01*
X98215700Y-61966198D01*
X98220208Y-61969355D01*
X98220211Y-61969357D01*
X98298389Y-62024098D01*
X98403251Y-62097523D01*
X98408233Y-62099846D01*
X98408238Y-62099849D01*
X98442457Y-62115805D01*
X98495742Y-62162722D01*
X98515203Y-62230999D01*
X98494661Y-62298959D01*
X98442457Y-62344195D01*
X98408238Y-62360151D01*
X98408233Y-62360154D01*
X98403251Y-62362477D01*
X98298389Y-62435902D01*
X98220211Y-62490643D01*
X98220208Y-62490645D01*
X98215700Y-62493802D01*
X98053802Y-62655700D01*
X97922477Y-62843251D01*
X97920154Y-62848233D01*
X97920151Y-62848238D01*
X97835719Y-63029305D01*
X97825716Y-63050757D01*
X97824294Y-63056065D01*
X97824293Y-63056067D01*
X97772407Y-63249707D01*
X97766457Y-63271913D01*
X97746502Y-63500000D01*
X97766457Y-63728087D01*
X97767881Y-63733400D01*
X97767881Y-63733402D01*
X97821991Y-63935340D01*
X97825716Y-63949243D01*
X97828039Y-63954224D01*
X97828039Y-63954225D01*
X97920151Y-64151762D01*
X97920154Y-64151767D01*
X97922477Y-64156749D01*
X97985401Y-64246614D01*
X98050442Y-64339501D01*
X98053802Y-64344300D01*
X98215700Y-64506198D01*
X98220208Y-64509355D01*
X98220211Y-64509357D01*
X98298389Y-64564098D01*
X98403251Y-64637523D01*
X98408233Y-64639846D01*
X98408238Y-64639849D01*
X98442457Y-64655805D01*
X98495742Y-64702722D01*
X98515203Y-64770999D01*
X98494661Y-64838959D01*
X98442457Y-64884195D01*
X98408238Y-64900151D01*
X98408233Y-64900154D01*
X98403251Y-64902477D01*
X98298389Y-64975902D01*
X98220211Y-65030643D01*
X98220208Y-65030645D01*
X98215700Y-65033802D01*
X98053802Y-65195700D01*
X98050645Y-65200208D01*
X98050643Y-65200211D01*
X98002938Y-65268341D01*
X97922477Y-65383251D01*
X97920154Y-65388233D01*
X97920151Y-65388238D01*
X97835719Y-65569305D01*
X97825716Y-65590757D01*
X97824294Y-65596065D01*
X97824293Y-65596067D01*
X97773400Y-65786000D01*
X97766457Y-65811913D01*
X97746502Y-66040000D01*
X97766457Y-66268087D01*
X97767881Y-66273400D01*
X97767881Y-66273402D01*
X97815851Y-66452425D01*
X97825716Y-66489243D01*
X97828039Y-66494224D01*
X97828039Y-66494225D01*
X97920151Y-66691762D01*
X97920154Y-66691767D01*
X97922477Y-66696749D01*
X97984238Y-66784953D01*
X98050442Y-66879501D01*
X98053802Y-66884300D01*
X98215700Y-67046198D01*
X98220208Y-67049355D01*
X98220211Y-67049357D01*
X98298389Y-67104098D01*
X98403251Y-67177523D01*
X98408233Y-67179846D01*
X98408238Y-67179849D01*
X98442457Y-67195805D01*
X98495742Y-67242722D01*
X98515203Y-67310999D01*
X98494661Y-67378959D01*
X98442457Y-67424195D01*
X98408238Y-67440151D01*
X98408233Y-67440154D01*
X98403251Y-67442477D01*
X98298389Y-67515902D01*
X98220211Y-67570643D01*
X98220208Y-67570645D01*
X98215700Y-67573802D01*
X98053802Y-67735700D01*
X98050645Y-67740208D01*
X98050643Y-67740211D01*
X98002938Y-67808341D01*
X97922477Y-67923251D01*
X97920154Y-67928233D01*
X97920151Y-67928238D01*
X97835719Y-68109305D01*
X97825716Y-68130757D01*
X97824294Y-68136065D01*
X97824293Y-68136067D01*
X97772407Y-68329707D01*
X97766457Y-68351913D01*
X97746502Y-68580000D01*
X97766457Y-68808087D01*
X97767881Y-68813400D01*
X97767881Y-68813402D01*
X97815851Y-68992425D01*
X97825716Y-69029243D01*
X97828039Y-69034224D01*
X97828039Y-69034225D01*
X97920151Y-69231762D01*
X97920154Y-69231767D01*
X97922477Y-69236749D01*
X97925634Y-69241257D01*
X98029078Y-69388990D01*
X98053802Y-69424300D01*
X98215700Y-69586198D01*
X98220208Y-69589355D01*
X98220211Y-69589357D01*
X98298389Y-69644098D01*
X98403251Y-69717523D01*
X98408233Y-69719846D01*
X98408238Y-69719849D01*
X98442457Y-69735805D01*
X98495742Y-69782722D01*
X98515203Y-69850999D01*
X98494661Y-69918959D01*
X98442457Y-69964195D01*
X98408238Y-69980151D01*
X98408233Y-69980154D01*
X98403251Y-69982477D01*
X98355220Y-70016109D01*
X98220211Y-70110643D01*
X98220208Y-70110645D01*
X98215700Y-70113802D01*
X98053802Y-70275700D01*
X97922477Y-70463251D01*
X97920154Y-70468233D01*
X97920151Y-70468238D01*
X97840091Y-70639929D01*
X97825716Y-70670757D01*
X97824294Y-70676065D01*
X97824293Y-70676067D01*
X97811741Y-70722913D01*
X97766457Y-70891913D01*
X97746502Y-71120000D01*
X97766457Y-71348087D01*
X97767881Y-71353400D01*
X97767881Y-71353402D01*
X97808600Y-71505364D01*
X97825716Y-71569243D01*
X97828039Y-71574224D01*
X97828039Y-71574225D01*
X97920151Y-71771762D01*
X97920154Y-71771767D01*
X97922477Y-71776749D01*
X97971166Y-71846284D01*
X98031388Y-71932289D01*
X98053802Y-71964300D01*
X98215700Y-72126198D01*
X98220208Y-72129355D01*
X98220211Y-72129357D01*
X98274761Y-72167553D01*
X98403251Y-72257523D01*
X98408233Y-72259846D01*
X98408238Y-72259849D01*
X98442457Y-72275805D01*
X98495742Y-72322722D01*
X98515203Y-72390999D01*
X98494661Y-72458959D01*
X98442457Y-72504195D01*
X98408238Y-72520151D01*
X98408233Y-72520154D01*
X98403251Y-72522477D01*
X98298389Y-72595902D01*
X98220211Y-72650643D01*
X98220208Y-72650645D01*
X98215700Y-72653802D01*
X98053802Y-72815700D01*
X98050645Y-72820208D01*
X98050643Y-72820211D01*
X98033736Y-72844357D01*
X97922477Y-73003251D01*
X97920154Y-73008233D01*
X97920151Y-73008238D01*
X97828039Y-73205775D01*
X97825716Y-73210757D01*
X97824294Y-73216065D01*
X97824293Y-73216067D01*
X97785235Y-73361833D01*
X97766457Y-73431913D01*
X97746502Y-73660000D01*
X97766457Y-73888087D01*
X97767881Y-73893400D01*
X97767881Y-73893402D01*
X97808600Y-74045364D01*
X97825716Y-74109243D01*
X97828039Y-74114224D01*
X97828039Y-74114225D01*
X97920151Y-74311762D01*
X97920154Y-74311767D01*
X97922477Y-74316749D01*
X97961325Y-74372229D01*
X98024486Y-74462432D01*
X98053802Y-74504300D01*
X98215700Y-74666198D01*
X98220208Y-74669355D01*
X98220211Y-74669357D01*
X98298389Y-74724098D01*
X98403251Y-74797523D01*
X98408233Y-74799846D01*
X98408238Y-74799849D01*
X98442457Y-74815805D01*
X98495742Y-74862722D01*
X98515203Y-74930999D01*
X98494661Y-74998959D01*
X98442457Y-75044195D01*
X98408238Y-75060151D01*
X98408233Y-75060154D01*
X98403251Y-75062477D01*
X98298389Y-75135902D01*
X98220211Y-75190643D01*
X98220208Y-75190645D01*
X98215700Y-75193802D01*
X98053802Y-75355700D01*
X98050645Y-75360208D01*
X98050643Y-75360211D01*
X98032570Y-75386022D01*
X97922477Y-75543251D01*
X97920154Y-75548233D01*
X97920151Y-75548238D01*
X97837004Y-75726549D01*
X97825716Y-75750757D01*
X97824294Y-75756065D01*
X97824293Y-75756067D01*
X97789272Y-75886767D01*
X97766457Y-75971913D01*
X97746502Y-76200000D01*
X97766457Y-76428087D01*
X97767881Y-76433400D01*
X97767881Y-76433402D01*
X97808600Y-76585364D01*
X97825716Y-76649243D01*
X97828039Y-76654224D01*
X97828039Y-76654225D01*
X97920151Y-76851762D01*
X97920154Y-76851767D01*
X97922477Y-76856749D01*
X97925634Y-76861257D01*
X98024486Y-77002432D01*
X98053802Y-77044300D01*
X98215700Y-77206198D01*
X98220208Y-77209355D01*
X98220211Y-77209357D01*
X98298389Y-77264098D01*
X98403251Y-77337523D01*
X98408233Y-77339846D01*
X98408238Y-77339849D01*
X98442457Y-77355805D01*
X98495742Y-77402722D01*
X98515203Y-77470999D01*
X98494661Y-77538959D01*
X98442457Y-77584195D01*
X98408238Y-77600151D01*
X98408233Y-77600154D01*
X98403251Y-77602477D01*
X98298389Y-77675902D01*
X98220211Y-77730643D01*
X98220208Y-77730645D01*
X98215700Y-77733802D01*
X98053802Y-77895700D01*
X97922477Y-78083251D01*
X97920154Y-78088233D01*
X97920151Y-78088238D01*
X97837004Y-78266549D01*
X97825716Y-78290757D01*
X97824294Y-78296065D01*
X97824293Y-78296067D01*
X97789272Y-78426767D01*
X97766457Y-78511913D01*
X97746502Y-78740000D01*
X97766457Y-78968087D01*
X97767881Y-78973400D01*
X97767881Y-78973402D01*
X97808600Y-79125364D01*
X97825716Y-79189243D01*
X97828039Y-79194224D01*
X97828039Y-79194225D01*
X97920151Y-79391762D01*
X97920154Y-79391767D01*
X97922477Y-79396749D01*
X97925634Y-79401257D01*
X98024486Y-79542432D01*
X98053802Y-79584300D01*
X98215700Y-79746198D01*
X98220208Y-79749355D01*
X98220211Y-79749357D01*
X98298389Y-79804098D01*
X98403251Y-79877523D01*
X98408233Y-79879846D01*
X98408238Y-79879849D01*
X98442457Y-79895805D01*
X98495742Y-79942722D01*
X98515203Y-80010999D01*
X98494661Y-80078959D01*
X98442457Y-80124195D01*
X98408238Y-80140151D01*
X98408233Y-80140154D01*
X98403251Y-80142477D01*
X98298389Y-80215902D01*
X98220211Y-80270643D01*
X98220208Y-80270645D01*
X98215700Y-80273802D01*
X98053802Y-80435700D01*
X97922477Y-80623251D01*
X97920154Y-80628233D01*
X97920151Y-80628238D01*
X97837428Y-80805641D01*
X97825716Y-80830757D01*
X97824294Y-80836065D01*
X97824293Y-80836067D01*
X97789272Y-80966767D01*
X97766457Y-81051913D01*
X97746502Y-81280000D01*
X97766457Y-81508087D01*
X97767881Y-81513400D01*
X97767881Y-81513402D01*
X97808600Y-81665364D01*
X97825716Y-81729243D01*
X97828039Y-81734224D01*
X97828039Y-81734225D01*
X97920151Y-81931762D01*
X97920154Y-81931767D01*
X97922477Y-81936749D01*
X97954942Y-81983114D01*
X98044461Y-82110959D01*
X98053802Y-82124300D01*
X98215700Y-82286198D01*
X98220208Y-82289355D01*
X98220211Y-82289357D01*
X98298389Y-82344098D01*
X98403251Y-82417523D01*
X98408233Y-82419846D01*
X98408238Y-82419849D01*
X98442457Y-82435805D01*
X98495742Y-82482722D01*
X98515203Y-82550999D01*
X98494661Y-82618959D01*
X98442457Y-82664195D01*
X98408238Y-82680151D01*
X98408233Y-82680154D01*
X98403251Y-82682477D01*
X98298389Y-82755902D01*
X98220211Y-82810643D01*
X98220208Y-82810645D01*
X98215700Y-82813802D01*
X98053802Y-82975700D01*
X97922477Y-83163251D01*
X97920154Y-83168233D01*
X97920151Y-83168238D01*
X97837428Y-83345641D01*
X97825716Y-83370757D01*
X97824294Y-83376065D01*
X97824293Y-83376067D01*
X97789272Y-83506767D01*
X97766457Y-83591913D01*
X97746502Y-83820000D01*
X97766457Y-84048087D01*
X97825716Y-84269243D01*
X97828039Y-84274224D01*
X97828039Y-84274225D01*
X97920151Y-84471762D01*
X97920154Y-84471767D01*
X97922477Y-84476749D01*
X97988519Y-84571066D01*
X98048810Y-84657170D01*
X98053802Y-84664300D01*
X98215700Y-84826198D01*
X98220208Y-84829355D01*
X98220211Y-84829357D01*
X98273160Y-84866432D01*
X98403251Y-84957523D01*
X98408233Y-84959846D01*
X98408238Y-84959849D01*
X98442457Y-84975805D01*
X98495742Y-85022722D01*
X98515203Y-85090999D01*
X98494661Y-85158959D01*
X98442457Y-85204195D01*
X98408238Y-85220151D01*
X98408233Y-85220154D01*
X98403251Y-85222477D01*
X98298389Y-85295902D01*
X98220211Y-85350643D01*
X98220208Y-85350645D01*
X98215700Y-85353802D01*
X98053802Y-85515700D01*
X97922477Y-85703251D01*
X97920154Y-85708233D01*
X97920151Y-85708238D01*
X97837004Y-85886549D01*
X97825716Y-85910757D01*
X97824294Y-85916065D01*
X97824293Y-85916067D01*
X97789272Y-86046767D01*
X97766457Y-86131913D01*
X97746502Y-86360000D01*
X97766457Y-86588087D01*
X97767881Y-86593400D01*
X97767881Y-86593402D01*
X97808600Y-86745364D01*
X97825716Y-86809243D01*
X97828039Y-86814224D01*
X97828039Y-86814225D01*
X97920151Y-87011762D01*
X97920154Y-87011767D01*
X97922477Y-87016749D01*
X97979690Y-87098457D01*
X98041854Y-87187236D01*
X98053802Y-87204300D01*
X98215700Y-87366198D01*
X98220208Y-87369355D01*
X98220211Y-87369357D01*
X98298389Y-87424098D01*
X98403251Y-87497523D01*
X98408233Y-87499846D01*
X98408238Y-87499849D01*
X98590236Y-87584715D01*
X98610757Y-87594284D01*
X98616065Y-87595706D01*
X98616067Y-87595707D01*
X98826598Y-87652119D01*
X98826600Y-87652119D01*
X98831913Y-87653543D01*
X99060000Y-87673498D01*
X99288087Y-87653543D01*
X99295766Y-87651485D01*
X99323659Y-87644012D01*
X99394635Y-87645702D01*
X99445364Y-87676624D01*
X103108341Y-91339600D01*
X103116331Y-91348381D01*
X103116339Y-91348390D01*
X103120584Y-91355080D01*
X103142514Y-91375674D01*
X103172274Y-91403620D01*
X103175116Y-91406375D01*
X103195667Y-91426926D01*
X103198801Y-91429357D01*
X103199163Y-91429638D01*
X103208191Y-91437348D01*
X103241867Y-91468972D01*
X103248818Y-91472793D01*
X103248819Y-91472794D01*
X103260655Y-91479301D01*
X103277184Y-91490158D01*
X103287869Y-91498447D01*
X103287871Y-91498448D01*
X103294131Y-91503304D01*
X103336544Y-91521657D01*
X103347181Y-91526868D01*
X103387663Y-91549124D01*
X103395342Y-91551096D01*
X103395343Y-91551096D01*
X103408434Y-91554457D01*
X103427136Y-91560859D01*
X103446823Y-91569379D01*
X103454652Y-91570619D01*
X103492448Y-91576605D01*
X103504074Y-91579013D01*
X103541135Y-91588529D01*
X103541136Y-91588529D01*
X103548812Y-91590500D01*
X103570258Y-91590500D01*
X103589968Y-91592051D01*
X103611151Y-91595406D01*
X103657135Y-91591059D01*
X103668994Y-91590500D01*
X104970112Y-91590500D01*
X105038233Y-91610502D01*
X105073325Y-91644229D01*
X105141078Y-91740990D01*
X105165802Y-91776300D01*
X105327700Y-91938198D01*
X105332208Y-91941355D01*
X105332211Y-91941357D01*
X105377649Y-91973173D01*
X105515251Y-92069523D01*
X105520233Y-92071846D01*
X105520238Y-92071849D01*
X105554457Y-92087805D01*
X105607742Y-92134722D01*
X105627203Y-92202999D01*
X105606661Y-92270959D01*
X105554457Y-92316195D01*
X105520238Y-92332151D01*
X105520233Y-92332154D01*
X105515251Y-92334477D01*
X105467220Y-92368109D01*
X105332211Y-92462643D01*
X105332208Y-92462645D01*
X105327700Y-92465802D01*
X105165802Y-92627700D01*
X105034477Y-92815251D01*
X105032154Y-92820233D01*
X105032151Y-92820238D01*
X104940039Y-93017775D01*
X104937716Y-93022757D01*
X104936294Y-93028065D01*
X104936293Y-93028067D01*
X104879882Y-93238595D01*
X104878457Y-93243913D01*
X104858502Y-93472000D01*
X104878457Y-93700087D01*
X104879881Y-93705402D01*
X104879882Y-93705405D01*
X104887988Y-93735659D01*
X104886298Y-93806635D01*
X104855376Y-93857364D01*
X103732395Y-94980345D01*
X103723615Y-94988335D01*
X103723613Y-94988337D01*
X103716920Y-94992584D01*
X103711494Y-94998362D01*
X103711493Y-94998363D01*
X103668396Y-95044257D01*
X103665641Y-95047099D01*
X103645073Y-95067667D01*
X103642356Y-95071170D01*
X103634648Y-95080195D01*
X103603028Y-95113867D01*
X103599207Y-95120818D01*
X103599206Y-95120819D01*
X103592697Y-95132658D01*
X103581843Y-95149182D01*
X103574018Y-95159271D01*
X103568696Y-95166132D01*
X103565549Y-95173404D01*
X103565548Y-95173406D01*
X103550346Y-95208535D01*
X103545124Y-95219195D01*
X103522876Y-95259663D01*
X103517541Y-95280441D01*
X103511142Y-95299131D01*
X103502620Y-95318824D01*
X103501380Y-95326655D01*
X103495394Y-95364448D01*
X103492987Y-95376071D01*
X103481500Y-95420812D01*
X103481500Y-95442259D01*
X103479949Y-95461969D01*
X103476594Y-95483152D01*
X103477340Y-95491043D01*
X103480941Y-95529138D01*
X103481500Y-95540996D01*
X103481500Y-95735500D01*
X103461498Y-95803621D01*
X103407842Y-95850114D01*
X103355500Y-95861500D01*
X84604500Y-95861500D01*
X84536379Y-95841498D01*
X84489886Y-95787842D01*
X84478500Y-95735500D01*
X84478500Y-88253950D01*
X84498502Y-88185829D01*
X84552158Y-88139336D01*
X84622432Y-88129232D01*
X84687012Y-88158726D01*
X84693595Y-88164855D01*
X89615376Y-93086636D01*
X89649402Y-93148948D01*
X89647988Y-93208341D01*
X89640515Y-93236234D01*
X89638457Y-93243913D01*
X89618502Y-93472000D01*
X89638457Y-93700087D01*
X89639881Y-93705400D01*
X89639881Y-93705402D01*
X89680600Y-93857364D01*
X89697716Y-93921243D01*
X89700039Y-93926224D01*
X89700039Y-93926225D01*
X89792151Y-94123762D01*
X89792154Y-94123767D01*
X89794477Y-94128749D01*
X89925802Y-94316300D01*
X90087700Y-94478198D01*
X90092208Y-94481355D01*
X90092211Y-94481357D01*
X90170389Y-94536098D01*
X90275251Y-94609523D01*
X90280233Y-94611846D01*
X90280238Y-94611849D01*
X90449212Y-94690642D01*
X90482757Y-94706284D01*
X90488065Y-94707706D01*
X90488067Y-94707707D01*
X90698598Y-94764119D01*
X90698600Y-94764119D01*
X90703913Y-94765543D01*
X90932000Y-94785498D01*
X91160087Y-94765543D01*
X91165400Y-94764119D01*
X91165402Y-94764119D01*
X91375933Y-94707707D01*
X91375935Y-94707706D01*
X91381243Y-94706284D01*
X91414788Y-94690642D01*
X91583762Y-94611849D01*
X91583767Y-94611846D01*
X91588749Y-94609523D01*
X91693611Y-94536098D01*
X91771789Y-94481357D01*
X91771792Y-94481355D01*
X91776300Y-94478198D01*
X91938198Y-94316300D01*
X92069523Y-94128749D01*
X92071846Y-94123767D01*
X92071849Y-94123762D01*
X92163961Y-93926225D01*
X92163961Y-93926224D01*
X92166284Y-93921243D01*
X92183401Y-93857364D01*
X92224119Y-93705402D01*
X92224119Y-93705400D01*
X92225543Y-93700087D01*
X92245498Y-93472000D01*
X92225543Y-93243913D01*
X92224118Y-93238595D01*
X92167707Y-93028067D01*
X92167706Y-93028065D01*
X92166284Y-93022757D01*
X92163961Y-93017775D01*
X92071849Y-92820238D01*
X92071846Y-92820233D01*
X92069523Y-92815251D01*
X91938198Y-92627700D01*
X91776300Y-92465802D01*
X91771792Y-92462645D01*
X91771789Y-92462643D01*
X91636780Y-92368109D01*
X91588749Y-92334477D01*
X91583767Y-92332154D01*
X91583762Y-92332151D01*
X91549543Y-92316195D01*
X91496258Y-92269278D01*
X91476797Y-92201001D01*
X91497339Y-92133041D01*
X91549543Y-92087805D01*
X91583762Y-92071849D01*
X91583767Y-92071846D01*
X91588749Y-92069523D01*
X91726351Y-91973173D01*
X91771789Y-91941357D01*
X91771792Y-91941355D01*
X91776300Y-91938198D01*
X91938198Y-91776300D01*
X91962923Y-91740990D01*
X92054291Y-91610502D01*
X92069523Y-91588749D01*
X92071846Y-91583767D01*
X92071849Y-91583762D01*
X92163961Y-91386225D01*
X92163961Y-91386224D01*
X92166284Y-91381243D01*
X92173295Y-91355080D01*
X92224119Y-91165402D01*
X92224119Y-91165400D01*
X92225543Y-91160087D01*
X92245498Y-90932000D01*
X92225543Y-90703913D01*
X92219593Y-90681707D01*
X92167707Y-90488067D01*
X92167706Y-90488065D01*
X92166284Y-90482757D01*
X92154092Y-90456610D01*
X92071849Y-90280238D01*
X92071846Y-90280233D01*
X92069523Y-90275251D01*
X91996098Y-90170389D01*
X91941357Y-90092211D01*
X91941355Y-90092208D01*
X91938198Y-90087700D01*
X91776300Y-89925802D01*
X91771792Y-89922645D01*
X91771789Y-89922643D01*
X91693611Y-89867902D01*
X91588749Y-89794477D01*
X91583767Y-89792154D01*
X91583762Y-89792151D01*
X91549543Y-89776195D01*
X91496258Y-89729278D01*
X91476797Y-89661001D01*
X91497339Y-89593041D01*
X91549543Y-89547805D01*
X91583762Y-89531849D01*
X91583767Y-89531846D01*
X91588749Y-89529523D01*
X91731555Y-89429529D01*
X91771789Y-89401357D01*
X91771792Y-89401355D01*
X91776300Y-89398198D01*
X91938198Y-89236300D01*
X91962923Y-89200990D01*
X92054291Y-89070502D01*
X92069523Y-89048749D01*
X92071846Y-89043767D01*
X92071849Y-89043762D01*
X92163961Y-88846225D01*
X92163961Y-88846224D01*
X92166284Y-88841243D01*
X92173295Y-88815080D01*
X92224119Y-88625402D01*
X92224119Y-88625400D01*
X92225543Y-88620087D01*
X92245498Y-88392000D01*
X92225543Y-88163913D01*
X92218958Y-88139336D01*
X92167707Y-87948067D01*
X92167706Y-87948065D01*
X92166284Y-87942757D01*
X92139150Y-87884567D01*
X92071849Y-87740238D01*
X92071846Y-87740232D01*
X92069523Y-87735251D01*
X91964116Y-87584715D01*
X91941357Y-87552211D01*
X91941355Y-87552208D01*
X91938198Y-87547700D01*
X91776300Y-87385802D01*
X91771792Y-87382645D01*
X91771789Y-87382643D01*
X91660976Y-87305051D01*
X91588749Y-87254477D01*
X91583767Y-87252154D01*
X91583762Y-87252151D01*
X91549543Y-87236195D01*
X91496258Y-87189278D01*
X91476797Y-87121001D01*
X91497339Y-87053041D01*
X91549543Y-87007805D01*
X91583762Y-86991849D01*
X91583767Y-86991846D01*
X91588749Y-86989523D01*
X91693611Y-86916098D01*
X91771789Y-86861357D01*
X91771792Y-86861355D01*
X91776300Y-86858198D01*
X91938198Y-86696300D01*
X91947475Y-86683052D01*
X92066366Y-86513257D01*
X92069523Y-86508749D01*
X92071846Y-86503767D01*
X92071849Y-86503762D01*
X92163961Y-86306225D01*
X92163961Y-86306224D01*
X92166284Y-86301243D01*
X92176150Y-86264425D01*
X92224119Y-86085402D01*
X92224119Y-86085400D01*
X92225543Y-86080087D01*
X92245498Y-85852000D01*
X92225543Y-85623913D01*
X92218600Y-85598000D01*
X92167707Y-85408067D01*
X92167706Y-85408065D01*
X92166284Y-85402757D01*
X92154092Y-85376610D01*
X92071849Y-85200238D01*
X92071846Y-85200232D01*
X92069523Y-85195251D01*
X91948717Y-85022722D01*
X91941357Y-85012211D01*
X91941355Y-85012208D01*
X91938198Y-85007700D01*
X91776300Y-84845802D01*
X91771792Y-84842645D01*
X91771789Y-84842643D01*
X91652914Y-84759406D01*
X91588749Y-84714477D01*
X91583767Y-84712154D01*
X91583762Y-84712151D01*
X91549543Y-84696195D01*
X91496258Y-84649278D01*
X91476797Y-84581001D01*
X91497339Y-84513041D01*
X91549543Y-84467805D01*
X91583762Y-84451849D01*
X91583767Y-84451846D01*
X91588749Y-84449523D01*
X91693611Y-84376098D01*
X91771789Y-84321357D01*
X91771792Y-84321355D01*
X91776300Y-84318198D01*
X91938198Y-84156300D01*
X91962923Y-84120990D01*
X92054291Y-83990502D01*
X92069523Y-83968749D01*
X92071846Y-83963767D01*
X92071849Y-83963762D01*
X92163961Y-83766225D01*
X92163961Y-83766224D01*
X92166284Y-83761243D01*
X92168504Y-83752960D01*
X92224119Y-83545402D01*
X92224119Y-83545400D01*
X92225543Y-83540087D01*
X92245498Y-83312000D01*
X92225543Y-83083913D01*
X92219593Y-83061707D01*
X92167707Y-82868067D01*
X92167706Y-82868065D01*
X92166284Y-82862757D01*
X92154092Y-82836610D01*
X92071849Y-82660238D01*
X92071846Y-82660232D01*
X92069523Y-82655251D01*
X91964116Y-82504715D01*
X91941357Y-82472211D01*
X91941355Y-82472208D01*
X91938198Y-82467700D01*
X91776300Y-82305802D01*
X91771792Y-82302645D01*
X91771789Y-82302643D01*
X91693611Y-82247902D01*
X91588749Y-82174477D01*
X91583767Y-82172154D01*
X91583762Y-82172151D01*
X91549543Y-82156195D01*
X91496258Y-82109278D01*
X91476797Y-82041001D01*
X91497339Y-81973041D01*
X91549543Y-81927805D01*
X91583762Y-81911849D01*
X91583767Y-81911846D01*
X91588749Y-81909523D01*
X91693611Y-81836098D01*
X91771789Y-81781357D01*
X91771792Y-81781355D01*
X91776300Y-81778198D01*
X91938198Y-81616300D01*
X91962923Y-81580990D01*
X92066366Y-81433257D01*
X92069523Y-81428749D01*
X92071846Y-81423767D01*
X92071849Y-81423762D01*
X92163961Y-81226225D01*
X92163961Y-81226224D01*
X92166284Y-81221243D01*
X92168504Y-81212960D01*
X92224119Y-81005402D01*
X92224119Y-81005400D01*
X92225543Y-81000087D01*
X92245498Y-80772000D01*
X92225543Y-80543913D01*
X92219593Y-80521707D01*
X92167707Y-80328067D01*
X92167706Y-80328065D01*
X92166284Y-80322757D01*
X92154092Y-80296610D01*
X92071849Y-80120238D01*
X92071846Y-80120232D01*
X92069523Y-80115251D01*
X91948717Y-79942722D01*
X91941357Y-79932211D01*
X91941355Y-79932208D01*
X91938198Y-79927700D01*
X91776300Y-79765802D01*
X91771792Y-79762645D01*
X91771789Y-79762643D01*
X91693611Y-79707902D01*
X91588749Y-79634477D01*
X91583767Y-79632154D01*
X91583762Y-79632151D01*
X91549543Y-79616195D01*
X91496258Y-79569278D01*
X91476797Y-79501001D01*
X91497339Y-79433041D01*
X91549543Y-79387805D01*
X91583762Y-79371849D01*
X91583767Y-79371846D01*
X91588749Y-79369523D01*
X91693611Y-79296098D01*
X91771789Y-79241357D01*
X91771792Y-79241355D01*
X91776300Y-79238198D01*
X91938198Y-79076300D01*
X91962923Y-79040990D01*
X92066366Y-78893257D01*
X92069523Y-78888749D01*
X92071846Y-78883767D01*
X92071849Y-78883762D01*
X92163961Y-78686225D01*
X92163961Y-78686224D01*
X92166284Y-78681243D01*
X92168504Y-78672960D01*
X92224119Y-78465402D01*
X92224119Y-78465400D01*
X92225543Y-78460087D01*
X92245498Y-78232000D01*
X92225543Y-78003913D01*
X92219593Y-77981707D01*
X92167707Y-77788067D01*
X92167706Y-77788064D01*
X92166284Y-77782757D01*
X92073694Y-77584195D01*
X92071849Y-77580238D01*
X92071846Y-77580233D01*
X92069523Y-77575251D01*
X91948717Y-77402722D01*
X91941357Y-77392211D01*
X91941355Y-77392208D01*
X91938198Y-77387700D01*
X91776300Y-77225802D01*
X91771792Y-77222645D01*
X91771789Y-77222643D01*
X91693611Y-77167902D01*
X91588749Y-77094477D01*
X91583767Y-77092154D01*
X91583762Y-77092151D01*
X91549543Y-77076195D01*
X91496258Y-77029278D01*
X91476797Y-76961001D01*
X91497339Y-76893041D01*
X91549543Y-76847805D01*
X91583762Y-76831849D01*
X91583767Y-76831846D01*
X91588749Y-76829523D01*
X91693611Y-76756098D01*
X91771789Y-76701357D01*
X91771792Y-76701355D01*
X91776300Y-76698198D01*
X91938198Y-76536300D01*
X91962923Y-76500990D01*
X92066366Y-76353257D01*
X92069523Y-76348749D01*
X92071846Y-76343767D01*
X92071849Y-76343762D01*
X92163961Y-76146225D01*
X92163961Y-76146224D01*
X92166284Y-76141243D01*
X92168504Y-76132960D01*
X92224119Y-75925402D01*
X92224119Y-75925400D01*
X92225543Y-75920087D01*
X92245498Y-75692000D01*
X92225543Y-75463913D01*
X92219593Y-75441707D01*
X92167707Y-75248067D01*
X92167706Y-75248064D01*
X92166284Y-75242757D01*
X92073694Y-75044195D01*
X92071849Y-75040238D01*
X92071846Y-75040233D01*
X92069523Y-75035251D01*
X91948717Y-74862722D01*
X91941357Y-74852211D01*
X91941355Y-74852208D01*
X91938198Y-74847700D01*
X91776300Y-74685802D01*
X91771792Y-74682645D01*
X91771789Y-74682643D01*
X91693611Y-74627902D01*
X91588749Y-74554477D01*
X91583767Y-74552154D01*
X91583762Y-74552151D01*
X91549543Y-74536195D01*
X91496258Y-74489278D01*
X91476797Y-74421001D01*
X91497339Y-74353041D01*
X91549543Y-74307805D01*
X91583762Y-74291849D01*
X91583767Y-74291846D01*
X91588749Y-74289523D01*
X91693611Y-74216098D01*
X91771789Y-74161357D01*
X91771792Y-74161355D01*
X91776300Y-74158198D01*
X91938198Y-73996300D01*
X91949783Y-73979756D01*
X92066366Y-73813257D01*
X92069523Y-73808749D01*
X92071846Y-73803767D01*
X92071849Y-73803762D01*
X92163961Y-73606225D01*
X92163961Y-73606224D01*
X92166284Y-73601243D01*
X92168504Y-73592960D01*
X92224119Y-73385402D01*
X92224119Y-73385400D01*
X92225543Y-73380087D01*
X92245498Y-73152000D01*
X92225543Y-72923913D01*
X92216250Y-72889232D01*
X92167707Y-72708067D01*
X92167706Y-72708064D01*
X92166284Y-72702757D01*
X92073694Y-72504195D01*
X92071849Y-72500238D01*
X92071846Y-72500233D01*
X92069523Y-72495251D01*
X91977916Y-72364423D01*
X91941357Y-72312211D01*
X91941355Y-72312208D01*
X91938198Y-72307700D01*
X91776300Y-72145802D01*
X91771792Y-72142645D01*
X91771789Y-72142643D01*
X91693343Y-72087715D01*
X91588749Y-72014477D01*
X91583767Y-72012154D01*
X91583762Y-72012151D01*
X91549543Y-71996195D01*
X91496258Y-71949278D01*
X91476797Y-71881001D01*
X91497339Y-71813041D01*
X91549543Y-71767805D01*
X91583762Y-71751849D01*
X91583767Y-71751846D01*
X91588749Y-71749523D01*
X91693611Y-71676098D01*
X91771789Y-71621357D01*
X91771792Y-71621355D01*
X91776300Y-71618198D01*
X91938198Y-71456300D01*
X92069523Y-71268749D01*
X92071846Y-71263767D01*
X92071849Y-71263762D01*
X92163961Y-71066225D01*
X92163961Y-71066224D01*
X92166284Y-71061243D01*
X92168504Y-71052960D01*
X92224119Y-70845402D01*
X92224119Y-70845400D01*
X92225543Y-70840087D01*
X92245498Y-70612000D01*
X92225543Y-70383913D01*
X92216973Y-70351929D01*
X92167707Y-70168067D01*
X92167706Y-70168064D01*
X92166284Y-70162757D01*
X92105173Y-70031703D01*
X92071849Y-69960238D01*
X92071846Y-69960233D01*
X92069523Y-69955251D01*
X91948717Y-69782722D01*
X91941357Y-69772211D01*
X91941355Y-69772208D01*
X91938198Y-69767700D01*
X91776300Y-69605802D01*
X91771792Y-69602645D01*
X91771789Y-69602643D01*
X91693611Y-69547902D01*
X91588749Y-69474477D01*
X91583767Y-69472154D01*
X91583762Y-69472151D01*
X91549543Y-69456195D01*
X91496258Y-69409278D01*
X91476797Y-69341001D01*
X91497339Y-69273041D01*
X91549543Y-69227805D01*
X91583762Y-69211849D01*
X91583767Y-69211846D01*
X91588749Y-69209523D01*
X91693611Y-69136098D01*
X91771789Y-69081357D01*
X91771792Y-69081355D01*
X91776300Y-69078198D01*
X91938198Y-68916300D01*
X92069523Y-68728749D01*
X92071846Y-68723767D01*
X92071849Y-68723762D01*
X92163961Y-68526225D01*
X92163961Y-68526224D01*
X92166284Y-68521243D01*
X92210197Y-68357361D01*
X92224119Y-68305402D01*
X92224119Y-68305400D01*
X92225543Y-68300087D01*
X92245498Y-68072000D01*
X92225543Y-67843913D01*
X92221309Y-67828112D01*
X92167707Y-67628067D01*
X92167706Y-67628064D01*
X92166284Y-67622757D01*
X92141983Y-67570643D01*
X92071849Y-67420238D01*
X92071846Y-67420233D01*
X92069523Y-67415251D01*
X91970817Y-67274284D01*
X91941357Y-67232211D01*
X91941355Y-67232208D01*
X91938198Y-67227700D01*
X91776300Y-67065802D01*
X91771792Y-67062645D01*
X91771789Y-67062643D01*
X91692906Y-67007409D01*
X91588749Y-66934477D01*
X91583767Y-66932154D01*
X91583762Y-66932151D01*
X91549543Y-66916195D01*
X91496258Y-66869278D01*
X91476797Y-66801001D01*
X91497339Y-66733041D01*
X91549543Y-66687805D01*
X91583762Y-66671849D01*
X91583767Y-66671846D01*
X91588749Y-66669523D01*
X91698408Y-66592739D01*
X91771789Y-66541357D01*
X91771792Y-66541355D01*
X91776300Y-66538198D01*
X91938198Y-66376300D01*
X92069523Y-66188749D01*
X92071846Y-66183767D01*
X92071849Y-66183762D01*
X92163961Y-65986225D01*
X92163961Y-65986224D01*
X92166284Y-65981243D01*
X92210197Y-65817361D01*
X92224119Y-65765402D01*
X92224119Y-65765400D01*
X92225543Y-65760087D01*
X92245498Y-65532000D01*
X92225543Y-65303913D01*
X92221309Y-65288112D01*
X92167707Y-65088067D01*
X92167706Y-65088064D01*
X92166284Y-65082757D01*
X92141983Y-65030643D01*
X92071849Y-64880238D01*
X92071846Y-64880233D01*
X92069523Y-64875251D01*
X91970817Y-64734284D01*
X91941357Y-64692211D01*
X91941355Y-64692208D01*
X91938198Y-64687700D01*
X91776300Y-64525802D01*
X91771792Y-64522645D01*
X91771789Y-64522643D01*
X91693611Y-64467902D01*
X91588749Y-64394477D01*
X91583767Y-64392154D01*
X91583762Y-64392151D01*
X91549543Y-64376195D01*
X91496258Y-64329278D01*
X91476797Y-64261001D01*
X91497339Y-64193041D01*
X91549543Y-64147805D01*
X91583762Y-64131849D01*
X91583767Y-64131846D01*
X91588749Y-64129523D01*
X91768784Y-64003461D01*
X91771789Y-64001357D01*
X91771792Y-64001355D01*
X91776300Y-63998198D01*
X91938198Y-63836300D01*
X92069523Y-63648749D01*
X92071846Y-63643767D01*
X92071849Y-63643762D01*
X92163961Y-63446225D01*
X92163961Y-63446224D01*
X92166284Y-63441243D01*
X92210197Y-63277361D01*
X92224119Y-63225402D01*
X92224119Y-63225400D01*
X92225543Y-63220087D01*
X92245498Y-62992000D01*
X92225543Y-62763913D01*
X92166284Y-62542757D01*
X92141983Y-62490643D01*
X92071849Y-62340238D01*
X92071846Y-62340233D01*
X92069523Y-62335251D01*
X91970817Y-62194284D01*
X91941357Y-62152211D01*
X91941355Y-62152208D01*
X91938198Y-62147700D01*
X91776300Y-61985802D01*
X91771792Y-61982645D01*
X91771789Y-61982643D01*
X91693611Y-61927902D01*
X91588749Y-61854477D01*
X91583767Y-61852154D01*
X91583762Y-61852151D01*
X91549543Y-61836195D01*
X91496258Y-61789278D01*
X91476797Y-61721001D01*
X91497339Y-61653041D01*
X91549543Y-61607805D01*
X91583762Y-61591849D01*
X91583767Y-61591846D01*
X91588749Y-61589523D01*
X91768784Y-61463461D01*
X91771789Y-61461357D01*
X91771792Y-61461355D01*
X91776300Y-61458198D01*
X91938198Y-61296300D01*
X92069523Y-61108749D01*
X92071846Y-61103767D01*
X92071849Y-61103762D01*
X92163961Y-60906225D01*
X92163961Y-60906224D01*
X92166284Y-60901243D01*
X92210197Y-60737361D01*
X92224119Y-60685402D01*
X92224119Y-60685400D01*
X92225543Y-60680087D01*
X92245498Y-60452000D01*
X92225543Y-60223913D01*
X92221309Y-60208112D01*
X92167707Y-60008067D01*
X92167706Y-60008064D01*
X92166284Y-60002757D01*
X92141983Y-59950643D01*
X92071849Y-59800238D01*
X92071846Y-59800233D01*
X92069523Y-59795251D01*
X91970817Y-59654284D01*
X91941357Y-59612211D01*
X91941355Y-59612208D01*
X91938198Y-59607700D01*
X91776300Y-59445802D01*
X91771792Y-59442645D01*
X91771789Y-59442643D01*
X91693611Y-59387902D01*
X91588749Y-59314477D01*
X91583767Y-59312154D01*
X91583762Y-59312151D01*
X91549543Y-59296195D01*
X91496258Y-59249278D01*
X91476797Y-59181001D01*
X91497339Y-59113041D01*
X91549543Y-59067805D01*
X91583762Y-59051849D01*
X91583767Y-59051846D01*
X91588749Y-59049523D01*
X91768784Y-58923461D01*
X91771789Y-58921357D01*
X91771792Y-58921355D01*
X91776300Y-58918198D01*
X91938198Y-58756300D01*
X91949783Y-58739756D01*
X92024154Y-58633542D01*
X92069523Y-58568749D01*
X92071846Y-58563767D01*
X92071849Y-58563762D01*
X92163961Y-58366225D01*
X92163961Y-58366224D01*
X92166284Y-58361243D01*
X92210197Y-58197361D01*
X92224119Y-58145402D01*
X92224119Y-58145400D01*
X92225543Y-58140087D01*
X92245498Y-57912000D01*
X92225543Y-57683913D01*
X92204226Y-57604357D01*
X92167707Y-57468067D01*
X92167706Y-57468064D01*
X92166284Y-57462757D01*
X92155949Y-57440593D01*
X92071849Y-57260238D01*
X92071846Y-57260233D01*
X92069523Y-57255251D01*
X91970817Y-57114284D01*
X91941357Y-57072211D01*
X91941355Y-57072208D01*
X91938198Y-57067700D01*
X91776300Y-56905802D01*
X91771792Y-56902645D01*
X91771789Y-56902643D01*
X91693611Y-56847902D01*
X91588749Y-56774477D01*
X91583767Y-56772154D01*
X91583762Y-56772151D01*
X91549543Y-56756195D01*
X91496258Y-56709278D01*
X91476797Y-56641001D01*
X91497339Y-56573041D01*
X91549543Y-56527805D01*
X91583762Y-56511849D01*
X91583767Y-56511846D01*
X91588749Y-56509523D01*
X91693611Y-56436098D01*
X91771789Y-56381357D01*
X91771792Y-56381355D01*
X91776300Y-56378198D01*
X91938198Y-56216300D01*
X92069523Y-56028749D01*
X92071846Y-56023767D01*
X92071849Y-56023762D01*
X92163961Y-55826225D01*
X92163961Y-55826224D01*
X92166284Y-55821243D01*
X92210197Y-55657361D01*
X92224119Y-55605402D01*
X92224119Y-55605400D01*
X92225543Y-55600087D01*
X92245498Y-55372000D01*
X92225543Y-55143913D01*
X92224119Y-55138598D01*
X92167707Y-54928067D01*
X92167706Y-54928064D01*
X92166284Y-54922757D01*
X92141983Y-54870643D01*
X92071849Y-54720238D01*
X92071846Y-54720233D01*
X92069523Y-54715251D01*
X91970817Y-54574284D01*
X91941357Y-54532211D01*
X91941355Y-54532208D01*
X91938198Y-54527700D01*
X91776300Y-54365802D01*
X91771792Y-54362645D01*
X91771789Y-54362643D01*
X91691344Y-54306315D01*
X91588749Y-54234477D01*
X91583767Y-54232154D01*
X91583762Y-54232151D01*
X91549543Y-54216195D01*
X91496258Y-54169278D01*
X91476797Y-54101001D01*
X91497339Y-54033041D01*
X91549543Y-53987805D01*
X91583762Y-53971849D01*
X91583767Y-53971846D01*
X91588749Y-53969523D01*
X91693611Y-53896098D01*
X91771789Y-53841357D01*
X91771792Y-53841355D01*
X91776300Y-53838198D01*
X91938198Y-53676300D01*
X92069523Y-53488749D01*
X92071846Y-53483767D01*
X92071849Y-53483762D01*
X92163961Y-53286225D01*
X92163961Y-53286224D01*
X92166284Y-53281243D01*
X92210197Y-53117361D01*
X92224119Y-53065402D01*
X92224119Y-53065400D01*
X92225543Y-53060087D01*
X92245498Y-52832000D01*
X92225543Y-52603913D01*
X92196547Y-52495700D01*
X92167707Y-52388067D01*
X92167706Y-52388064D01*
X92166284Y-52382757D01*
X92147769Y-52343051D01*
X92071849Y-52180238D01*
X92071846Y-52180233D01*
X92069523Y-52175251D01*
X91979005Y-52045978D01*
X91941357Y-51992211D01*
X91941355Y-51992208D01*
X91938198Y-51987700D01*
X91776300Y-51825802D01*
X91771792Y-51822645D01*
X91771789Y-51822643D01*
X91693611Y-51767902D01*
X91588749Y-51694477D01*
X91583767Y-51692154D01*
X91583762Y-51692151D01*
X91549543Y-51676195D01*
X91496258Y-51629278D01*
X91476797Y-51561001D01*
X91497339Y-51493041D01*
X91549543Y-51447805D01*
X91583762Y-51431849D01*
X91583767Y-51431846D01*
X91588749Y-51429523D01*
X91693611Y-51356098D01*
X91771789Y-51301357D01*
X91771792Y-51301355D01*
X91776300Y-51298198D01*
X91938198Y-51136300D01*
X91946146Y-51124950D01*
X91996098Y-51053611D01*
X92069523Y-50948749D01*
X92071846Y-50943767D01*
X92071849Y-50943762D01*
X92163961Y-50746225D01*
X92163961Y-50746224D01*
X92166284Y-50741243D01*
X92225543Y-50520087D01*
X92245498Y-50292000D01*
X92225543Y-50063913D01*
X92166284Y-49842757D01*
X92147633Y-49802760D01*
X92071849Y-49640238D01*
X92071846Y-49640233D01*
X92069523Y-49635251D01*
X91964074Y-49484654D01*
X91941357Y-49452211D01*
X91941355Y-49452208D01*
X91938198Y-49447700D01*
X91776300Y-49285802D01*
X91771792Y-49282645D01*
X91771789Y-49282643D01*
X91652914Y-49199406D01*
X91588749Y-49154477D01*
X91583767Y-49152154D01*
X91583762Y-49152151D01*
X91549543Y-49136195D01*
X91496258Y-49089278D01*
X91476797Y-49021001D01*
X91497339Y-48953041D01*
X91549543Y-48907805D01*
X91583762Y-48891849D01*
X91583767Y-48891846D01*
X91588749Y-48889523D01*
X91718840Y-48798432D01*
X91771789Y-48761357D01*
X91771792Y-48761355D01*
X91776300Y-48758198D01*
X91938198Y-48596300D01*
X91943191Y-48589170D01*
X92066366Y-48413257D01*
X92069523Y-48408749D01*
X92071846Y-48403767D01*
X92071849Y-48403762D01*
X92163961Y-48206225D01*
X92163961Y-48206224D01*
X92166284Y-48201243D01*
X92225543Y-47980087D01*
X92245498Y-47752000D01*
X92225543Y-47523913D01*
X92166284Y-47302757D01*
X92163961Y-47297775D01*
X92071849Y-47100238D01*
X92071846Y-47100233D01*
X92069523Y-47095251D01*
X91938198Y-46907700D01*
X91776300Y-46745802D01*
X91771789Y-46742643D01*
X91767576Y-46739108D01*
X91768388Y-46738140D01*
X91727910Y-46687506D01*
X91720596Y-46616887D01*
X91752624Y-46553524D01*
X91813823Y-46517536D01*
X91830901Y-46514480D01*
X91834352Y-46514105D01*
X91849604Y-46510479D01*
X91970054Y-46465324D01*
X91985649Y-46456786D01*
X92087724Y-46380285D01*
X92100285Y-46367724D01*
X92176786Y-46265649D01*
X92185324Y-46250054D01*
X92230478Y-46129606D01*
X92234105Y-46114351D01*
X92239631Y-46063486D01*
X92240000Y-46056672D01*
X92240000Y-45484115D01*
X92235525Y-45468876D01*
X92234135Y-45467671D01*
X92226452Y-45466000D01*
X89642116Y-45466000D01*
X89626877Y-45470475D01*
X89625672Y-45471865D01*
X89624001Y-45479548D01*
X89624001Y-46056669D01*
X89624371Y-46063490D01*
X89629895Y-46114352D01*
X89633521Y-46129604D01*
X89678676Y-46250054D01*
X89687214Y-46265649D01*
X89763715Y-46367724D01*
X89776276Y-46380285D01*
X89878351Y-46456786D01*
X89893946Y-46465324D01*
X90014394Y-46510478D01*
X90029643Y-46514104D01*
X90033096Y-46514479D01*
X90035606Y-46515522D01*
X90037331Y-46515932D01*
X90037265Y-46516211D01*
X90098659Y-46541719D01*
X90139088Y-46600080D01*
X90141546Y-46671034D01*
X90105253Y-46732054D01*
X90093760Y-46741344D01*
X90092214Y-46742641D01*
X90087700Y-46745802D01*
X89925802Y-46907700D01*
X89794477Y-47095251D01*
X89792154Y-47100233D01*
X89792151Y-47100238D01*
X89700039Y-47297775D01*
X89697716Y-47302757D01*
X89638457Y-47523913D01*
X89618502Y-47752000D01*
X89638457Y-47980087D01*
X89697716Y-48201243D01*
X89700039Y-48206224D01*
X89700039Y-48206225D01*
X89792151Y-48403762D01*
X89792154Y-48403767D01*
X89794477Y-48408749D01*
X89797634Y-48413257D01*
X89920810Y-48589170D01*
X89925802Y-48596300D01*
X90087700Y-48758198D01*
X90092208Y-48761355D01*
X90092211Y-48761357D01*
X90145160Y-48798432D01*
X90275251Y-48889523D01*
X90280233Y-48891846D01*
X90280238Y-48891849D01*
X90314457Y-48907805D01*
X90367742Y-48954722D01*
X90387203Y-49022999D01*
X90366661Y-49090959D01*
X90314457Y-49136195D01*
X90280238Y-49152151D01*
X90280233Y-49152154D01*
X90275251Y-49154477D01*
X90211086Y-49199406D01*
X90092211Y-49282643D01*
X90092208Y-49282645D01*
X90087700Y-49285802D01*
X89925802Y-49447700D01*
X89922645Y-49452208D01*
X89922643Y-49452211D01*
X89882773Y-49509152D01*
X89794477Y-49635251D01*
X89794224Y-49635794D01*
X89743941Y-49683743D01*
X89674228Y-49697182D01*
X89608316Y-49670798D01*
X89567132Y-49612968D01*
X89560262Y-49575711D01*
X89558562Y-49521632D01*
X89558500Y-49517673D01*
X89558500Y-49488568D01*
X89557944Y-49484168D01*
X89557012Y-49472330D01*
X89556211Y-49446812D01*
X89555562Y-49426169D01*
X89549580Y-49405579D01*
X89545570Y-49386216D01*
X89543875Y-49372796D01*
X89543875Y-49372795D01*
X89542882Y-49364936D01*
X89539966Y-49357571D01*
X89539965Y-49357567D01*
X89525876Y-49321982D01*
X89522031Y-49310753D01*
X89511356Y-49274010D01*
X89509145Y-49266399D01*
X89498230Y-49247943D01*
X89489531Y-49230187D01*
X89489182Y-49229307D01*
X89481635Y-49210244D01*
X89454480Y-49172868D01*
X89447965Y-49162949D01*
X89428492Y-49130023D01*
X89428489Y-49130019D01*
X89424452Y-49123193D01*
X89409291Y-49108032D01*
X89396449Y-49092997D01*
X89383841Y-49075643D01*
X89348241Y-49046192D01*
X89339462Y-49038203D01*
X86883655Y-46582395D01*
X86875665Y-46573615D01*
X86875663Y-46573613D01*
X86871416Y-46566920D01*
X86853965Y-46550532D01*
X86819743Y-46518396D01*
X86816901Y-46515641D01*
X86796333Y-46495073D01*
X86792826Y-46492353D01*
X86783804Y-46484647D01*
X86779613Y-46480711D01*
X86750133Y-46453028D01*
X86743181Y-46449206D01*
X86731342Y-46442697D01*
X86714818Y-46431843D01*
X86704132Y-46423555D01*
X86697868Y-46418696D01*
X86690596Y-46415549D01*
X86690594Y-46415548D01*
X86655465Y-46400346D01*
X86644805Y-46395124D01*
X86611284Y-46376695D01*
X86611282Y-46376694D01*
X86604337Y-46372876D01*
X86583559Y-46367541D01*
X86564869Y-46361142D01*
X86545176Y-46352620D01*
X86499552Y-46345394D01*
X86487929Y-46342987D01*
X86453661Y-46334189D01*
X86443188Y-46331500D01*
X86421741Y-46331500D01*
X86402031Y-46329949D01*
X86388677Y-46327834D01*
X86380848Y-46326594D01*
X86334859Y-46330941D01*
X86323004Y-46331500D01*
X78822056Y-46331500D01*
X78810200Y-46330941D01*
X78810197Y-46330941D01*
X78802463Y-46329212D01*
X78747446Y-46330941D01*
X78731631Y-46331438D01*
X78727673Y-46331500D01*
X78698568Y-46331500D01*
X78694168Y-46332056D01*
X78682336Y-46332988D01*
X78636169Y-46334438D01*
X78615579Y-46340420D01*
X78596218Y-46344430D01*
X78589230Y-46345312D01*
X78582796Y-46346125D01*
X78582795Y-46346125D01*
X78574936Y-46347118D01*
X78567571Y-46350034D01*
X78567567Y-46350035D01*
X78531979Y-46364126D01*
X78520769Y-46367965D01*
X78476400Y-46380855D01*
X78457935Y-46391775D01*
X78440195Y-46400466D01*
X78420244Y-46408365D01*
X78382874Y-46435516D01*
X78372952Y-46442033D01*
X78340023Y-46461507D01*
X78340019Y-46461510D01*
X78333193Y-46465547D01*
X78318029Y-46480711D01*
X78302996Y-46493551D01*
X78285643Y-46506159D01*
X78275520Y-46518396D01*
X78256198Y-46541752D01*
X78248208Y-46550532D01*
X76300395Y-48498345D01*
X76291615Y-48506335D01*
X76291613Y-48506337D01*
X76284920Y-48510584D01*
X76279494Y-48516362D01*
X76279493Y-48516363D01*
X76236396Y-48562257D01*
X76233641Y-48565099D01*
X76213073Y-48585667D01*
X76210356Y-48589170D01*
X76202648Y-48598195D01*
X76171028Y-48631867D01*
X76167207Y-48638818D01*
X76167206Y-48638819D01*
X76160697Y-48650658D01*
X76149843Y-48667182D01*
X76142018Y-48677271D01*
X76136696Y-48684132D01*
X76133549Y-48691404D01*
X76133548Y-48691406D01*
X76118346Y-48726535D01*
X76113124Y-48737195D01*
X76099841Y-48761357D01*
X76090876Y-48777663D01*
X76085541Y-48798441D01*
X76079142Y-48817131D01*
X76070620Y-48836824D01*
X76069380Y-48844655D01*
X76063394Y-48882448D01*
X76060987Y-48894071D01*
X76049500Y-48938812D01*
X76049500Y-48960259D01*
X76047949Y-48979969D01*
X76044594Y-49001152D01*
X76047801Y-49035073D01*
X76048941Y-49047138D01*
X76049500Y-49058996D01*
X76049500Y-52074705D01*
X76029498Y-52142826D01*
X75989441Y-52179572D01*
X75990570Y-52181364D01*
X75986200Y-52184116D01*
X75981607Y-52186507D01*
X75977465Y-52189617D01*
X75839379Y-52293295D01*
X75802965Y-52320635D01*
X75648629Y-52482138D01*
X75645715Y-52486410D01*
X75645714Y-52486411D01*
X75636300Y-52500211D01*
X75522743Y-52666680D01*
X75428688Y-52869305D01*
X75368989Y-53084570D01*
X75345251Y-53306695D01*
X75345548Y-53311848D01*
X75345548Y-53311851D01*
X75347171Y-53340000D01*
X75358110Y-53529715D01*
X75359247Y-53534761D01*
X75359248Y-53534767D01*
X75377239Y-53614596D01*
X75407222Y-53747639D01*
X75491266Y-53954616D01*
X75511604Y-53987805D01*
X75603655Y-54138018D01*
X75607987Y-54145088D01*
X75754250Y-54313938D01*
X75926126Y-54456632D01*
X75993163Y-54495805D01*
X75999445Y-54499476D01*
X76048169Y-54551114D01*
X76061240Y-54620897D01*
X76034509Y-54686669D01*
X75994055Y-54720027D01*
X75981607Y-54726507D01*
X75977474Y-54729610D01*
X75977471Y-54729612D01*
X75807100Y-54857530D01*
X75802965Y-54860635D01*
X75648629Y-55022138D01*
X75645715Y-55026410D01*
X75645714Y-55026411D01*
X75636300Y-55040211D01*
X75522743Y-55206680D01*
X75501855Y-55251679D01*
X75431706Y-55402804D01*
X75428688Y-55409305D01*
X75368989Y-55624570D01*
X75345251Y-55846695D01*
X75345548Y-55851848D01*
X75345548Y-55851851D01*
X75347171Y-55880000D01*
X75358110Y-56069715D01*
X75359247Y-56074761D01*
X75359248Y-56074767D01*
X75367955Y-56113402D01*
X75407222Y-56287639D01*
X75442412Y-56374301D01*
X75475302Y-56455300D01*
X75491266Y-56494616D01*
X75534672Y-56565449D01*
X75593532Y-56661499D01*
X75607987Y-56685088D01*
X75754250Y-56853938D01*
X75926126Y-56996632D01*
X75993163Y-57035805D01*
X75999445Y-57039476D01*
X76048169Y-57091114D01*
X76061240Y-57160897D01*
X76034509Y-57226669D01*
X75994055Y-57260027D01*
X75981607Y-57266507D01*
X75977474Y-57269610D01*
X75977471Y-57269612D01*
X75956132Y-57285634D01*
X75802965Y-57400635D01*
X75799393Y-57404373D01*
X75655442Y-57555009D01*
X75648629Y-57562138D01*
X75645715Y-57566410D01*
X75645714Y-57566411D01*
X75586468Y-57653263D01*
X75522743Y-57746680D01*
X75428688Y-57949305D01*
X75368989Y-58164570D01*
X75345251Y-58386695D01*
X75345548Y-58391848D01*
X75345548Y-58391851D01*
X75348380Y-58440963D01*
X75358110Y-58609715D01*
X75359247Y-58614761D01*
X75359248Y-58614767D01*
X75367955Y-58653402D01*
X75407222Y-58827639D01*
X75491266Y-59034616D01*
X75511604Y-59067805D01*
X75593437Y-59201344D01*
X75607987Y-59225088D01*
X75754250Y-59393938D01*
X75926126Y-59536632D01*
X75993163Y-59575805D01*
X75999445Y-59579476D01*
X76048169Y-59631114D01*
X76061240Y-59700897D01*
X76034509Y-59766669D01*
X75994055Y-59800027D01*
X75981607Y-59806507D01*
X75977474Y-59809610D01*
X75977471Y-59809612D01*
X75956132Y-59825634D01*
X75802965Y-59940635D01*
X75799393Y-59944373D01*
X75682556Y-60066636D01*
X75648629Y-60102138D01*
X75645715Y-60106410D01*
X75645714Y-60106411D01*
X75637757Y-60118076D01*
X75522743Y-60286680D01*
X75515864Y-60301500D01*
X75446084Y-60451829D01*
X75428688Y-60489305D01*
X75368989Y-60704570D01*
X75345251Y-60926695D01*
X75345548Y-60931848D01*
X75345548Y-60931851D01*
X75347171Y-60960000D01*
X75358110Y-61149715D01*
X75359247Y-61154761D01*
X75359248Y-61154767D01*
X75367955Y-61193402D01*
X75407222Y-61367639D01*
X75491266Y-61574616D01*
X75511604Y-61607805D01*
X75593437Y-61741344D01*
X75607987Y-61765088D01*
X75754250Y-61933938D01*
X75926126Y-62076632D01*
X75993163Y-62115805D01*
X75999445Y-62119476D01*
X76048169Y-62171114D01*
X76061240Y-62240897D01*
X76034509Y-62306669D01*
X75994055Y-62340027D01*
X75981607Y-62346507D01*
X75977474Y-62349610D01*
X75977471Y-62349612D01*
X75956132Y-62365634D01*
X75802965Y-62480635D01*
X75648629Y-62642138D01*
X75645715Y-62646410D01*
X75645714Y-62646411D01*
X75636300Y-62660211D01*
X75522743Y-62826680D01*
X75515864Y-62841500D01*
X75446084Y-62991829D01*
X75428688Y-63029305D01*
X75368989Y-63244570D01*
X75345251Y-63466695D01*
X75345548Y-63471848D01*
X75345548Y-63471851D01*
X75347171Y-63500000D01*
X75358110Y-63689715D01*
X75359247Y-63694761D01*
X75359248Y-63694767D01*
X75367955Y-63733402D01*
X75407222Y-63907639D01*
X75491266Y-64114616D01*
X75511604Y-64147805D01*
X75593437Y-64281344D01*
X75607987Y-64305088D01*
X75754250Y-64473938D01*
X75926126Y-64616632D01*
X75993163Y-64655805D01*
X75999445Y-64659476D01*
X76048169Y-64711114D01*
X76061240Y-64780897D01*
X76034509Y-64846669D01*
X75994055Y-64880027D01*
X75981607Y-64886507D01*
X75977474Y-64889610D01*
X75977471Y-64889612D01*
X75956132Y-64905634D01*
X75802965Y-65020635D01*
X75799393Y-65024373D01*
X75682556Y-65146636D01*
X75648629Y-65182138D01*
X75645715Y-65186410D01*
X75645714Y-65186411D01*
X75637757Y-65198076D01*
X75522743Y-65366680D01*
X75515864Y-65381500D01*
X75446084Y-65531829D01*
X75428688Y-65569305D01*
X75368989Y-65784570D01*
X75345251Y-66006695D01*
X75345548Y-66011848D01*
X75345548Y-66011851D01*
X75347171Y-66040000D01*
X75358110Y-66229715D01*
X75359247Y-66234761D01*
X75359248Y-66234767D01*
X75367955Y-66273402D01*
X75407222Y-66447639D01*
X75491266Y-66654616D01*
X75504806Y-66676711D01*
X75593437Y-66821344D01*
X75607987Y-66845088D01*
X75754250Y-67013938D01*
X75926126Y-67156632D01*
X75993163Y-67195805D01*
X75999445Y-67199476D01*
X76048169Y-67251114D01*
X76061240Y-67320897D01*
X76034509Y-67386669D01*
X75994055Y-67420027D01*
X75981607Y-67426507D01*
X75977474Y-67429610D01*
X75977471Y-67429612D01*
X75956132Y-67445634D01*
X75802965Y-67560635D01*
X75799393Y-67564373D01*
X75682556Y-67686636D01*
X75648629Y-67722138D01*
X75645715Y-67726410D01*
X75645714Y-67726411D01*
X75637757Y-67738076D01*
X75522743Y-67906680D01*
X75515864Y-67921500D01*
X75446084Y-68071829D01*
X75428688Y-68109305D01*
X75368989Y-68324570D01*
X75345251Y-68546695D01*
X75345548Y-68551848D01*
X75345548Y-68551851D01*
X75347171Y-68580000D01*
X75358110Y-68769715D01*
X75359247Y-68774761D01*
X75359248Y-68774767D01*
X75367955Y-68813402D01*
X75407222Y-68987639D01*
X75491266Y-69194616D01*
X75511604Y-69227805D01*
X75580971Y-69341001D01*
X75607987Y-69385088D01*
X75754250Y-69553938D01*
X75758230Y-69557242D01*
X75762981Y-69561187D01*
X75802616Y-69620090D01*
X75804113Y-69691071D01*
X75766997Y-69751593D01*
X75726724Y-69776112D01*
X75611295Y-69819385D01*
X75494739Y-69906739D01*
X75407385Y-70023295D01*
X75356255Y-70159684D01*
X75349500Y-70221866D01*
X75349500Y-72018134D01*
X75356255Y-72080316D01*
X75407385Y-72216705D01*
X75494739Y-72333261D01*
X75611295Y-72420615D01*
X75747684Y-72471745D01*
X75809866Y-72478500D01*
X77606134Y-72478500D01*
X77668316Y-72471745D01*
X77804705Y-72420615D01*
X77921261Y-72333261D01*
X78008615Y-72216705D01*
X78059745Y-72080316D01*
X78066500Y-72018134D01*
X78066500Y-70744950D01*
X78086502Y-70676829D01*
X78103405Y-70655855D01*
X80633365Y-68125894D01*
X80695677Y-68091869D01*
X80722460Y-68088989D01*
X82432701Y-68088989D01*
X82500822Y-68108991D01*
X82547315Y-68162647D01*
X82557419Y-68232921D01*
X82554410Y-68247593D01*
X82526457Y-68351913D01*
X82506502Y-68580000D01*
X82526457Y-68808087D01*
X82527881Y-68813402D01*
X82527882Y-68813405D01*
X82535988Y-68843659D01*
X82534298Y-68914635D01*
X82503376Y-68965364D01*
X77135335Y-74333405D01*
X77073023Y-74367431D01*
X77024145Y-74368357D01*
X76978874Y-74360293D01*
X76841373Y-74335800D01*
X76841367Y-74335799D01*
X76836284Y-74334894D01*
X76762452Y-74333992D01*
X76618081Y-74332228D01*
X76618079Y-74332228D01*
X76612911Y-74332165D01*
X76392091Y-74365955D01*
X76179756Y-74435357D01*
X76101455Y-74476118D01*
X76003689Y-74527012D01*
X75981607Y-74538507D01*
X75977474Y-74541610D01*
X75977471Y-74541612D01*
X75807100Y-74669530D01*
X75802965Y-74672635D01*
X75648629Y-74834138D01*
X75645715Y-74838410D01*
X75645714Y-74838411D01*
X75636300Y-74852211D01*
X75522743Y-75018680D01*
X75428688Y-75221305D01*
X75368989Y-75436570D01*
X75345251Y-75658695D01*
X75345548Y-75663848D01*
X75345548Y-75663851D01*
X75353874Y-75808250D01*
X75358110Y-75881715D01*
X75359247Y-75886761D01*
X75359248Y-75886767D01*
X75367955Y-75925402D01*
X75407222Y-76099639D01*
X75491266Y-76306616D01*
X75493965Y-76311020D01*
X75588572Y-76465405D01*
X75607987Y-76497088D01*
X75754250Y-76665938D01*
X75926126Y-76808632D01*
X75993163Y-76847805D01*
X75999445Y-76851476D01*
X76048169Y-76903114D01*
X76061240Y-76972897D01*
X76034509Y-77038669D01*
X75994055Y-77072027D01*
X75981607Y-77078507D01*
X75977474Y-77081610D01*
X75977471Y-77081612D01*
X75807100Y-77209530D01*
X75802965Y-77212635D01*
X75648629Y-77374138D01*
X75645715Y-77378410D01*
X75645714Y-77378411D01*
X75636300Y-77392211D01*
X75522743Y-77558680D01*
X75428688Y-77761305D01*
X75368989Y-77976570D01*
X75345251Y-78198695D01*
X75345548Y-78203848D01*
X75345548Y-78203851D01*
X75347171Y-78232000D01*
X75358110Y-78421715D01*
X75359247Y-78426761D01*
X75359248Y-78426767D01*
X75367955Y-78465402D01*
X75407222Y-78639639D01*
X75491266Y-78846616D01*
X75493965Y-78851020D01*
X75588572Y-79005405D01*
X75607987Y-79037088D01*
X75754250Y-79205938D01*
X75926126Y-79348632D01*
X75993163Y-79387805D01*
X75999445Y-79391476D01*
X76048169Y-79443114D01*
X76061240Y-79512897D01*
X76034509Y-79578669D01*
X75994055Y-79612027D01*
X75981607Y-79618507D01*
X75977474Y-79621610D01*
X75977471Y-79621612D01*
X75807100Y-79749530D01*
X75802965Y-79752635D01*
X75648629Y-79914138D01*
X75645715Y-79918410D01*
X75645714Y-79918411D01*
X75636300Y-79932211D01*
X75522743Y-80098680D01*
X75503493Y-80140151D01*
X75432575Y-80292932D01*
X75428688Y-80301305D01*
X75368989Y-80516570D01*
X75345251Y-80738695D01*
X75345548Y-80743848D01*
X75345548Y-80743851D01*
X75349270Y-80808396D01*
X75358110Y-80961715D01*
X75359247Y-80966761D01*
X75359248Y-80966767D01*
X75367955Y-81005402D01*
X75407222Y-81179639D01*
X75491266Y-81386616D01*
X75493965Y-81391020D01*
X75588572Y-81545405D01*
X75607987Y-81577088D01*
X75754250Y-81745938D01*
X75926126Y-81888632D01*
X75993163Y-81927805D01*
X75999445Y-81931476D01*
X76048169Y-81983114D01*
X76061240Y-82052897D01*
X76034509Y-82118669D01*
X75994055Y-82152027D01*
X75981607Y-82158507D01*
X75977474Y-82161610D01*
X75977471Y-82161612D01*
X75807100Y-82289530D01*
X75802965Y-82292635D01*
X75648629Y-82454138D01*
X75645715Y-82458410D01*
X75645714Y-82458411D01*
X75616626Y-82501052D01*
X75522743Y-82638680D01*
X75503493Y-82680151D01*
X75432575Y-82832932D01*
X75428688Y-82841305D01*
X75368989Y-83056570D01*
X75345251Y-83278695D01*
X75345548Y-83283848D01*
X75345548Y-83283851D01*
X75349270Y-83348396D01*
X75358110Y-83501715D01*
X75359247Y-83506761D01*
X75359248Y-83506767D01*
X75367955Y-83545402D01*
X75407222Y-83719639D01*
X75491266Y-83926616D01*
X75530415Y-83990502D01*
X75587501Y-84083657D01*
X75607987Y-84117088D01*
X75754250Y-84285938D01*
X75926126Y-84428632D01*
X75993163Y-84467805D01*
X75999445Y-84471476D01*
X76048169Y-84523114D01*
X76061240Y-84592897D01*
X76034509Y-84658669D01*
X75994055Y-84692027D01*
X75981607Y-84698507D01*
X75977474Y-84701610D01*
X75977471Y-84701612D01*
X75807100Y-84829530D01*
X75802965Y-84832635D01*
X75648629Y-84994138D01*
X75645715Y-84998410D01*
X75645714Y-84998411D01*
X75597458Y-85069152D01*
X75522743Y-85178680D01*
X75503493Y-85220151D01*
X75432575Y-85372932D01*
X75428688Y-85381305D01*
X75368989Y-85596570D01*
X75345251Y-85818695D01*
X75345548Y-85823848D01*
X75345548Y-85823851D01*
X75347171Y-85852000D01*
X75358110Y-86041715D01*
X75359247Y-86046761D01*
X75359248Y-86046767D01*
X75377239Y-86126596D01*
X75407222Y-86259639D01*
X75491266Y-86466616D01*
X75607987Y-86657088D01*
X75754250Y-86825938D01*
X75926126Y-86968632D01*
X75992691Y-87007529D01*
X75999445Y-87011476D01*
X76048169Y-87063114D01*
X76061240Y-87132897D01*
X76034509Y-87198669D01*
X75994055Y-87232027D01*
X75981607Y-87238507D01*
X75977474Y-87241610D01*
X75977471Y-87241612D01*
X75807100Y-87369530D01*
X75802965Y-87372635D01*
X75648629Y-87534138D01*
X75645715Y-87538410D01*
X75645714Y-87538411D01*
X75568148Y-87652119D01*
X75522743Y-87718680D01*
X75428688Y-87921305D01*
X75368989Y-88136570D01*
X75345251Y-88358695D01*
X75345548Y-88363848D01*
X75345548Y-88363851D01*
X75351011Y-88458590D01*
X75358110Y-88581715D01*
X75359247Y-88586761D01*
X75359248Y-88586767D01*
X75367955Y-88625402D01*
X75407222Y-88799639D01*
X75491266Y-89006616D01*
X75607987Y-89197088D01*
X75754250Y-89365938D01*
X75926126Y-89508632D01*
X75993163Y-89547805D01*
X75999445Y-89551476D01*
X76048169Y-89603114D01*
X76061240Y-89672897D01*
X76034509Y-89738669D01*
X75994055Y-89772027D01*
X75981607Y-89778507D01*
X75977474Y-89781610D01*
X75977471Y-89781612D01*
X75956132Y-89797634D01*
X75802965Y-89912635D01*
X75648629Y-90074138D01*
X75645715Y-90078410D01*
X75645714Y-90078411D01*
X75636300Y-90092211D01*
X75522743Y-90258680D01*
X75428688Y-90461305D01*
X75368989Y-90676570D01*
X75345251Y-90898695D01*
X75345548Y-90903848D01*
X75345548Y-90903851D01*
X75347171Y-90932000D01*
X75358110Y-91121715D01*
X75359247Y-91126761D01*
X75359248Y-91126767D01*
X75367955Y-91165402D01*
X75407222Y-91339639D01*
X75452377Y-91450842D01*
X75484612Y-91530228D01*
X75491266Y-91546616D01*
X75607987Y-91737088D01*
X75754250Y-91905938D01*
X75758230Y-91909242D01*
X75762981Y-91913187D01*
X75802616Y-91972090D01*
X75804113Y-92043071D01*
X75766997Y-92103593D01*
X75726724Y-92128112D01*
X75611295Y-92171385D01*
X75494739Y-92258739D01*
X75407385Y-92375295D01*
X75356255Y-92511684D01*
X75349500Y-92573866D01*
X75349500Y-94370134D01*
X75356255Y-94432316D01*
X75407385Y-94568705D01*
X75494739Y-94685261D01*
X75611295Y-94772615D01*
X75747684Y-94823745D01*
X75809866Y-94830500D01*
X77083050Y-94830500D01*
X77151171Y-94850502D01*
X77172145Y-94867405D01*
X79232345Y-96927605D01*
X79240335Y-96936385D01*
X79244584Y-96943080D01*
X79250362Y-96948506D01*
X79250363Y-96948507D01*
X79296257Y-96991604D01*
X79299099Y-96994359D01*
X79319667Y-97014927D01*
X79323170Y-97017644D01*
X79332195Y-97025352D01*
X79365867Y-97056972D01*
X79365828Y-97057013D01*
X79406908Y-97110284D01*
X79412985Y-97181020D01*
X79379854Y-97243813D01*
X79318035Y-97278725D01*
X79289494Y-97282000D01*
X74294000Y-97282000D01*
X74225879Y-97261998D01*
X74179386Y-97208342D01*
X74168000Y-97156000D01*
X74168000Y-44939885D01*
X89624000Y-44939885D01*
X89628475Y-44955124D01*
X89629865Y-44956329D01*
X89637548Y-44958000D01*
X90659885Y-44958000D01*
X90675124Y-44953525D01*
X90676329Y-44952135D01*
X90678000Y-44944452D01*
X90678000Y-44939885D01*
X91186000Y-44939885D01*
X91190475Y-44955124D01*
X91191865Y-44956329D01*
X91199548Y-44958000D01*
X92221884Y-44958000D01*
X92237123Y-44953525D01*
X92238328Y-44952135D01*
X92239999Y-44944452D01*
X92239999Y-44367331D01*
X92239629Y-44360510D01*
X92234105Y-44309648D01*
X92230479Y-44294396D01*
X92185324Y-44173946D01*
X92176786Y-44158351D01*
X92100285Y-44056276D01*
X92087724Y-44043715D01*
X91985649Y-43967214D01*
X91970054Y-43958676D01*
X91849606Y-43913522D01*
X91834351Y-43909895D01*
X91783486Y-43904369D01*
X91776672Y-43904000D01*
X91204115Y-43904000D01*
X91188876Y-43908475D01*
X91187671Y-43909865D01*
X91186000Y-43917548D01*
X91186000Y-44939885D01*
X90678000Y-44939885D01*
X90678000Y-43922116D01*
X90673525Y-43906877D01*
X90672135Y-43905672D01*
X90664452Y-43904001D01*
X90087331Y-43904001D01*
X90080510Y-43904371D01*
X90029648Y-43909895D01*
X90014396Y-43913521D01*
X89893946Y-43958676D01*
X89878351Y-43967214D01*
X89776276Y-44043715D01*
X89763715Y-44056276D01*
X89687214Y-44158351D01*
X89678676Y-44173946D01*
X89633522Y-44294394D01*
X89629895Y-44309649D01*
X89624369Y-44360514D01*
X89624000Y-44367328D01*
X89624000Y-44939885D01*
X74168000Y-44939885D01*
X74168000Y-42544000D01*
X74188002Y-42475879D01*
X74241658Y-42429386D01*
X74294000Y-42418000D01*
X109856000Y-42418000D01*
X109924121Y-42438002D01*
G37*
%TD.AperFunction*%
%TA.AperFunction,Conductor*%
G36*
X83079532Y-88135894D02*
G01*
X83136368Y-88178441D01*
X83161179Y-88244961D01*
X83161500Y-88253950D01*
X83161500Y-95735500D01*
X83141498Y-95803621D01*
X83087842Y-95850114D01*
X83035500Y-95861500D01*
X80080950Y-95861500D01*
X80012829Y-95841498D01*
X79991855Y-95824595D01*
X78103405Y-93936145D01*
X78069379Y-93873833D01*
X78066500Y-93847050D01*
X78066500Y-92573866D01*
X78059745Y-92511684D01*
X78008615Y-92375295D01*
X77921261Y-92258739D01*
X77804705Y-92171385D01*
X77791098Y-92166284D01*
X77686203Y-92126960D01*
X77629439Y-92084318D01*
X77604739Y-92017756D01*
X77619947Y-91948408D01*
X77641493Y-91919727D01*
X77742435Y-91819137D01*
X77746096Y-91815489D01*
X77777498Y-91771789D01*
X77870060Y-91642974D01*
X77926055Y-91599326D01*
X77972383Y-91590500D01*
X79165944Y-91590500D01*
X79177800Y-91591059D01*
X79177803Y-91591059D01*
X79185537Y-91592788D01*
X79256369Y-91590562D01*
X79260327Y-91590500D01*
X79289432Y-91590500D01*
X79293832Y-91589944D01*
X79305664Y-91589012D01*
X79351831Y-91587562D01*
X79372421Y-91581580D01*
X79391782Y-91577570D01*
X79399424Y-91576605D01*
X79405204Y-91575875D01*
X79405205Y-91575875D01*
X79413064Y-91574882D01*
X79420429Y-91571966D01*
X79420433Y-91571965D01*
X79456021Y-91557874D01*
X79467231Y-91554035D01*
X79511600Y-91541145D01*
X79530065Y-91530225D01*
X79547805Y-91521534D01*
X79567756Y-91513635D01*
X79605129Y-91486482D01*
X79615048Y-91479967D01*
X79647977Y-91460493D01*
X79647981Y-91460490D01*
X79654807Y-91456453D01*
X79669971Y-91441289D01*
X79685005Y-91428448D01*
X79695943Y-91420501D01*
X79702357Y-91415841D01*
X79731803Y-91380247D01*
X79739792Y-91371468D01*
X82946405Y-88164855D01*
X83008717Y-88130829D01*
X83079532Y-88135894D01*
G37*
%TD.AperFunction*%
%TA.AperFunction,Conductor*%
G36*
X82425013Y-83710413D02*
G01*
X82481849Y-83752960D01*
X82506569Y-83819236D01*
X82506502Y-83820000D01*
X82506800Y-83823404D01*
X82506800Y-83823410D01*
X82510358Y-83864080D01*
X82526457Y-84048087D01*
X82527881Y-84053400D01*
X82527881Y-84053402D01*
X82535988Y-84083657D01*
X82534298Y-84154633D01*
X82503377Y-84205363D01*
X82142391Y-84566350D01*
X82133611Y-84574338D01*
X82126920Y-84578584D01*
X82121494Y-84584362D01*
X82078395Y-84630258D01*
X82075640Y-84633100D01*
X82055073Y-84653667D01*
X82052356Y-84657170D01*
X82044648Y-84666195D01*
X82013028Y-84699867D01*
X82009207Y-84706818D01*
X82009206Y-84706819D01*
X82002697Y-84718658D01*
X81991843Y-84735182D01*
X81984018Y-84745271D01*
X81978696Y-84752132D01*
X81975549Y-84759404D01*
X81975548Y-84759406D01*
X81960346Y-84794535D01*
X81955124Y-84805195D01*
X81941841Y-84829357D01*
X81932876Y-84845663D01*
X81927541Y-84866441D01*
X81921142Y-84885131D01*
X81912620Y-84904824D01*
X81911380Y-84912655D01*
X81905394Y-84950448D01*
X81902987Y-84962071D01*
X81891500Y-85006812D01*
X81891500Y-85028259D01*
X81889949Y-85047969D01*
X81886594Y-85069152D01*
X81888110Y-85085184D01*
X81890941Y-85115138D01*
X81891500Y-85126996D01*
X81891500Y-87305051D01*
X81871498Y-87373172D01*
X81854595Y-87394146D01*
X79012145Y-90236595D01*
X78949833Y-90270621D01*
X78923050Y-90273500D01*
X77968632Y-90273500D01*
X77900511Y-90253498D01*
X77862840Y-90215940D01*
X77790822Y-90104617D01*
X77790820Y-90104614D01*
X77788014Y-90100277D01*
X77637670Y-89935051D01*
X77633619Y-89931852D01*
X77633615Y-89931848D01*
X77466414Y-89799800D01*
X77466410Y-89799798D01*
X77462359Y-89796598D01*
X77421053Y-89773796D01*
X77371084Y-89723364D01*
X77356312Y-89653921D01*
X77381428Y-89587516D01*
X77408780Y-89560909D01*
X77457207Y-89526366D01*
X77587860Y-89433173D01*
X77619788Y-89401357D01*
X77742435Y-89279137D01*
X77746096Y-89275489D01*
X77777498Y-89231789D01*
X77873435Y-89098277D01*
X77876453Y-89094077D01*
X77888105Y-89070502D01*
X77973136Y-88898453D01*
X77973137Y-88898451D01*
X77975430Y-88893811D01*
X78040370Y-88680069D01*
X78069529Y-88458590D01*
X78071156Y-88392000D01*
X78052852Y-88169361D01*
X78031919Y-88086022D01*
X78034723Y-88015081D01*
X78065028Y-87966232D01*
X82291886Y-83739374D01*
X82354198Y-83705348D01*
X82425013Y-83710413D01*
G37*
%TD.AperFunction*%
%TA.AperFunction,Conductor*%
G36*
X86456531Y-84141817D02*
G01*
X86463114Y-84147946D01*
X89825123Y-87509955D01*
X89859149Y-87572267D01*
X89854084Y-87643082D01*
X89839243Y-87671319D01*
X89794477Y-87735251D01*
X89792156Y-87740229D01*
X89792154Y-87740232D01*
X89724850Y-87884567D01*
X89697716Y-87942757D01*
X89696294Y-87948065D01*
X89696293Y-87948067D01*
X89645042Y-88139336D01*
X89638457Y-88163913D01*
X89618502Y-88392000D01*
X89638457Y-88620087D01*
X89639881Y-88625400D01*
X89639881Y-88625402D01*
X89690706Y-88815080D01*
X89697716Y-88841243D01*
X89700039Y-88846224D01*
X89700039Y-88846225D01*
X89792151Y-89043762D01*
X89792154Y-89043767D01*
X89794477Y-89048749D01*
X89809709Y-89070502D01*
X89901078Y-89200990D01*
X89925802Y-89236300D01*
X90087700Y-89398198D01*
X90092208Y-89401355D01*
X90092211Y-89401357D01*
X90132445Y-89429529D01*
X90275251Y-89529523D01*
X90280233Y-89531846D01*
X90280238Y-89531849D01*
X90314457Y-89547805D01*
X90367742Y-89594722D01*
X90387203Y-89662999D01*
X90366661Y-89730959D01*
X90314457Y-89776195D01*
X90280238Y-89792151D01*
X90280233Y-89792154D01*
X90275251Y-89794477D01*
X90170389Y-89867902D01*
X90092211Y-89922643D01*
X90092208Y-89922645D01*
X90087700Y-89925802D01*
X89925802Y-90087700D01*
X89922645Y-90092208D01*
X89922643Y-90092211D01*
X89833325Y-90219771D01*
X89777868Y-90264099D01*
X89730112Y-90273500D01*
X89423378Y-90273500D01*
X89355257Y-90253498D01*
X89334283Y-90236595D01*
X86284924Y-87187236D01*
X86250898Y-87124924D01*
X86248019Y-87098141D01*
X86248019Y-84237041D01*
X86268021Y-84168920D01*
X86321677Y-84122427D01*
X86391951Y-84112323D01*
X86456531Y-84141817D01*
G37*
%TD.AperFunction*%
%TA.AperFunction,Conductor*%
G36*
X100198651Y-84636013D02*
G01*
X100243714Y-84664974D01*
X104378341Y-88799600D01*
X104386331Y-88808381D01*
X104386339Y-88808390D01*
X104390584Y-88815080D01*
X104396359Y-88820503D01*
X104442274Y-88863620D01*
X104445116Y-88866375D01*
X104465667Y-88886926D01*
X104468801Y-88889357D01*
X104469163Y-88889638D01*
X104478191Y-88897348D01*
X104511867Y-88928972D01*
X104518818Y-88932793D01*
X104518819Y-88932794D01*
X104530655Y-88939301D01*
X104547184Y-88950158D01*
X104557869Y-88958447D01*
X104557871Y-88958448D01*
X104564131Y-88963304D01*
X104606544Y-88981657D01*
X104617181Y-88986868D01*
X104657663Y-89009124D01*
X104665342Y-89011096D01*
X104665343Y-89011096D01*
X104678434Y-89014457D01*
X104697136Y-89020859D01*
X104716823Y-89029379D01*
X104724652Y-89030619D01*
X104762448Y-89036605D01*
X104774074Y-89039013D01*
X104811135Y-89048529D01*
X104811136Y-89048529D01*
X104818812Y-89050500D01*
X104840258Y-89050500D01*
X104859968Y-89052051D01*
X104881151Y-89055406D01*
X104927135Y-89051059D01*
X104938994Y-89050500D01*
X104970112Y-89050500D01*
X105038233Y-89070502D01*
X105073325Y-89104229D01*
X105141078Y-89200990D01*
X105165802Y-89236300D01*
X105327700Y-89398198D01*
X105332208Y-89401355D01*
X105332211Y-89401357D01*
X105372445Y-89429529D01*
X105515251Y-89529523D01*
X105520233Y-89531846D01*
X105520238Y-89531849D01*
X105554457Y-89547805D01*
X105607742Y-89594722D01*
X105627203Y-89662999D01*
X105606661Y-89730959D01*
X105554457Y-89776195D01*
X105520238Y-89792151D01*
X105520233Y-89792154D01*
X105515251Y-89794477D01*
X105410389Y-89867902D01*
X105332211Y-89922643D01*
X105332208Y-89922645D01*
X105327700Y-89925802D01*
X105165802Y-90087700D01*
X105162645Y-90092208D01*
X105162643Y-90092211D01*
X105073325Y-90219771D01*
X105017868Y-90264099D01*
X104970112Y-90273500D01*
X103956949Y-90273500D01*
X103888828Y-90253498D01*
X103867854Y-90236595D01*
X100376624Y-86745364D01*
X100342598Y-86683052D01*
X100344012Y-86623659D01*
X100352118Y-86593405D01*
X100352119Y-86593402D01*
X100353543Y-86588087D01*
X100373498Y-86360000D01*
X100353543Y-86131913D01*
X100330728Y-86046767D01*
X100295707Y-85916067D01*
X100295706Y-85916065D01*
X100294284Y-85910757D01*
X100282996Y-85886549D01*
X100199849Y-85708238D01*
X100199846Y-85708233D01*
X100197523Y-85703251D01*
X100066198Y-85515700D01*
X99904300Y-85353802D01*
X99899792Y-85350645D01*
X99899789Y-85350643D01*
X99821611Y-85295902D01*
X99716749Y-85222477D01*
X99711767Y-85220154D01*
X99711762Y-85220151D01*
X99677543Y-85204195D01*
X99624258Y-85157278D01*
X99604797Y-85089001D01*
X99625339Y-85021041D01*
X99677543Y-84975805D01*
X99711762Y-84959849D01*
X99711767Y-84959846D01*
X99716749Y-84957523D01*
X99846840Y-84866432D01*
X99899789Y-84829357D01*
X99899792Y-84829355D01*
X99904300Y-84826198D01*
X100065524Y-84664974D01*
X100127836Y-84630948D01*
X100198651Y-84636013D01*
G37*
%TD.AperFunction*%
%TA.AperFunction,Conductor*%
G36*
X82425013Y-81170413D02*
G01*
X82481849Y-81212960D01*
X82506569Y-81279236D01*
X82506502Y-81280000D01*
X82526457Y-81508087D01*
X82527881Y-81513402D01*
X82527882Y-81513405D01*
X82535988Y-81543659D01*
X82534298Y-81614635D01*
X82503376Y-81665364D01*
X78282191Y-85886549D01*
X78219879Y-85920575D01*
X78149064Y-85915510D01*
X78092228Y-85872963D01*
X78067520Y-85807778D01*
X78052852Y-85629361D01*
X78031919Y-85546022D01*
X78034723Y-85475081D01*
X78065028Y-85426232D01*
X82291886Y-81199374D01*
X82354198Y-81165348D01*
X82425013Y-81170413D01*
G37*
%TD.AperFunction*%
%TA.AperFunction,Conductor*%
G36*
X82425013Y-78630413D02*
G01*
X82481849Y-78672960D01*
X82506569Y-78739236D01*
X82506502Y-78740000D01*
X82526457Y-78968087D01*
X82527881Y-78973402D01*
X82527882Y-78973405D01*
X82535988Y-79003659D01*
X82534298Y-79074635D01*
X82503376Y-79125364D01*
X78282191Y-83346549D01*
X78219879Y-83380575D01*
X78149064Y-83375510D01*
X78092228Y-83332963D01*
X78067520Y-83267778D01*
X78066351Y-83253555D01*
X78052852Y-83089361D01*
X78031919Y-83006022D01*
X78034723Y-82935081D01*
X78065028Y-82886232D01*
X82291886Y-78659374D01*
X82354198Y-78625348D01*
X82425013Y-78630413D01*
G37*
%TD.AperFunction*%
%TA.AperFunction,Conductor*%
G36*
X105522816Y-79418502D02*
G01*
X105569309Y-79472158D01*
X105579413Y-79542432D01*
X105549919Y-79607012D01*
X105518480Y-79632971D01*
X105515251Y-79634477D01*
X105435876Y-79690056D01*
X105332211Y-79762643D01*
X105332208Y-79762645D01*
X105327700Y-79765802D01*
X105165802Y-79927700D01*
X105162645Y-79932208D01*
X105162643Y-79932211D01*
X105155283Y-79942722D01*
X105034477Y-80115251D01*
X105032154Y-80120232D01*
X105032151Y-80120238D01*
X104949908Y-80296610D01*
X104937716Y-80322757D01*
X104936294Y-80328065D01*
X104936293Y-80328067D01*
X104884407Y-80521707D01*
X104878457Y-80543913D01*
X104858502Y-80772000D01*
X104878457Y-81000087D01*
X104879881Y-81005400D01*
X104879881Y-81005402D01*
X104935497Y-81212960D01*
X104937716Y-81221243D01*
X104940039Y-81226224D01*
X104940039Y-81226225D01*
X105032151Y-81423762D01*
X105032154Y-81423767D01*
X105034477Y-81428749D01*
X105037634Y-81433257D01*
X105141078Y-81580990D01*
X105165802Y-81616300D01*
X105327700Y-81778198D01*
X105332208Y-81781355D01*
X105332211Y-81781357D01*
X105410389Y-81836098D01*
X105515251Y-81909523D01*
X105520233Y-81911846D01*
X105520238Y-81911849D01*
X105554457Y-81927805D01*
X105607742Y-81974722D01*
X105627203Y-82042999D01*
X105606661Y-82110959D01*
X105554457Y-82156195D01*
X105520238Y-82172151D01*
X105520233Y-82172154D01*
X105515251Y-82174477D01*
X105410389Y-82247902D01*
X105332211Y-82302643D01*
X105332208Y-82302645D01*
X105327700Y-82305802D01*
X105166476Y-82467026D01*
X105104164Y-82501052D01*
X105033349Y-82495987D01*
X104988286Y-82467026D01*
X103393655Y-80872395D01*
X103385665Y-80863615D01*
X103385663Y-80863613D01*
X103381416Y-80856920D01*
X103361897Y-80838590D01*
X103329743Y-80808396D01*
X103326901Y-80805641D01*
X103306333Y-80785073D01*
X103302826Y-80782353D01*
X103293804Y-80774647D01*
X103265913Y-80748456D01*
X103260133Y-80743028D01*
X103253181Y-80739206D01*
X103241342Y-80732697D01*
X103224818Y-80721843D01*
X103214132Y-80713555D01*
X103207868Y-80708696D01*
X103200596Y-80705549D01*
X103200594Y-80705548D01*
X103165465Y-80690346D01*
X103154805Y-80685124D01*
X103121284Y-80666695D01*
X103121282Y-80666694D01*
X103114337Y-80662876D01*
X103093559Y-80657541D01*
X103074869Y-80651142D01*
X103055176Y-80642620D01*
X103009552Y-80635394D01*
X102997929Y-80632987D01*
X102969928Y-80625798D01*
X102953188Y-80621500D01*
X102931741Y-80621500D01*
X102912031Y-80619949D01*
X102890848Y-80616594D01*
X102844859Y-80620941D01*
X102833004Y-80621500D01*
X100261888Y-80621500D01*
X100193767Y-80601498D01*
X100158675Y-80567771D01*
X100145785Y-80549361D01*
X100066198Y-80435700D01*
X99904300Y-80273802D01*
X99899792Y-80270645D01*
X99899789Y-80270643D01*
X99821611Y-80215902D01*
X99716749Y-80142477D01*
X99711767Y-80140154D01*
X99711762Y-80140151D01*
X99677543Y-80124195D01*
X99624258Y-80077278D01*
X99604797Y-80009001D01*
X99625339Y-79941041D01*
X99677543Y-79895805D01*
X99711762Y-79879849D01*
X99711767Y-79879846D01*
X99716749Y-79877523D01*
X99821611Y-79804098D01*
X99899789Y-79749357D01*
X99899792Y-79749355D01*
X99904300Y-79746198D01*
X100066198Y-79584300D01*
X100095515Y-79542432D01*
X100158675Y-79452229D01*
X100214132Y-79407901D01*
X100261888Y-79398500D01*
X105454695Y-79398500D01*
X105522816Y-79418502D01*
G37*
%TD.AperFunction*%
%TA.AperFunction,Conductor*%
G36*
X82425013Y-76090413D02*
G01*
X82481849Y-76132960D01*
X82506569Y-76199236D01*
X82506502Y-76200000D01*
X82526457Y-76428087D01*
X82527881Y-76433402D01*
X82527882Y-76433405D01*
X82535988Y-76463659D01*
X82534298Y-76534635D01*
X82503376Y-76585364D01*
X78282191Y-80806549D01*
X78219879Y-80840575D01*
X78149064Y-80835510D01*
X78092228Y-80792963D01*
X78067520Y-80727778D01*
X78066351Y-80713555D01*
X78052852Y-80549361D01*
X78031919Y-80466022D01*
X78034723Y-80395081D01*
X78065028Y-80346232D01*
X82291886Y-76119374D01*
X82354198Y-76085348D01*
X82425013Y-76090413D01*
G37*
%TD.AperFunction*%
%TA.AperFunction,Conductor*%
G36*
X82425013Y-73550413D02*
G01*
X82481849Y-73592960D01*
X82506569Y-73659236D01*
X82506502Y-73660000D01*
X82526457Y-73888087D01*
X82527881Y-73893402D01*
X82527882Y-73893405D01*
X82535988Y-73923659D01*
X82534298Y-73994635D01*
X82503376Y-74045364D01*
X78282191Y-78266549D01*
X78219879Y-78300575D01*
X78149064Y-78295510D01*
X78092228Y-78252963D01*
X78067520Y-78187778D01*
X78052852Y-78009361D01*
X78031919Y-77926022D01*
X78034723Y-77855081D01*
X78065028Y-77806232D01*
X82291886Y-73579374D01*
X82354198Y-73545348D01*
X82425013Y-73550413D01*
G37*
%TD.AperFunction*%
%TA.AperFunction,Conductor*%
G36*
X105522816Y-76878502D02*
G01*
X105569309Y-76932158D01*
X105579413Y-77002432D01*
X105549919Y-77067012D01*
X105518480Y-77092971D01*
X105515251Y-77094477D01*
X105435876Y-77150056D01*
X105332211Y-77222643D01*
X105332208Y-77222645D01*
X105327700Y-77225802D01*
X105165802Y-77387700D01*
X105162645Y-77392208D01*
X105162643Y-77392211D01*
X105155283Y-77402722D01*
X105034477Y-77575251D01*
X105032154Y-77580233D01*
X105032151Y-77580238D01*
X105030306Y-77584195D01*
X104937716Y-77782757D01*
X104936294Y-77788064D01*
X104882691Y-77988112D01*
X104845739Y-78048734D01*
X104781878Y-78079756D01*
X104760984Y-78081500D01*
X100261888Y-78081500D01*
X100193767Y-78061498D01*
X100158675Y-78027771D01*
X100145785Y-78009361D01*
X100066198Y-77895700D01*
X99904300Y-77733802D01*
X99899792Y-77730645D01*
X99899789Y-77730643D01*
X99821611Y-77675902D01*
X99716749Y-77602477D01*
X99711767Y-77600154D01*
X99711762Y-77600151D01*
X99677543Y-77584195D01*
X99624258Y-77537278D01*
X99604797Y-77469001D01*
X99625339Y-77401041D01*
X99677543Y-77355805D01*
X99711762Y-77339849D01*
X99711767Y-77339846D01*
X99716749Y-77337523D01*
X99821611Y-77264098D01*
X99899789Y-77209357D01*
X99899792Y-77209355D01*
X99904300Y-77206198D01*
X100066198Y-77044300D01*
X100095515Y-77002432D01*
X100158675Y-76912229D01*
X100214132Y-76867901D01*
X100261888Y-76858500D01*
X105454695Y-76858500D01*
X105522816Y-76878502D01*
G37*
%TD.AperFunction*%
%TA.AperFunction,Conductor*%
G36*
X82425013Y-71010413D02*
G01*
X82481849Y-71052960D01*
X82506569Y-71119236D01*
X82506502Y-71120000D01*
X82526457Y-71348087D01*
X82527881Y-71353402D01*
X82527882Y-71353405D01*
X82535988Y-71383659D01*
X82534298Y-71454635D01*
X82503376Y-71505364D01*
X78282191Y-75726549D01*
X78219879Y-75760575D01*
X78149064Y-75755510D01*
X78092228Y-75712963D01*
X78067520Y-75647778D01*
X78052852Y-75469361D01*
X78031919Y-75386022D01*
X78034723Y-75315081D01*
X78065028Y-75266232D01*
X82291886Y-71039374D01*
X82354198Y-71005348D01*
X82425013Y-71010413D01*
G37*
%TD.AperFunction*%
%TA.AperFunction,Conductor*%
G36*
X105522816Y-74338502D02*
G01*
X105569309Y-74392158D01*
X105579413Y-74462432D01*
X105549919Y-74527012D01*
X105518480Y-74552971D01*
X105515251Y-74554477D01*
X105435876Y-74610056D01*
X105332211Y-74682643D01*
X105332208Y-74682645D01*
X105327700Y-74685802D01*
X105165802Y-74847700D01*
X105162645Y-74852208D01*
X105162643Y-74852211D01*
X105155283Y-74862722D01*
X105034477Y-75035251D01*
X105032154Y-75040233D01*
X105032151Y-75040238D01*
X105030306Y-75044195D01*
X104937716Y-75242757D01*
X104936294Y-75248064D01*
X104882691Y-75448112D01*
X104845739Y-75508734D01*
X104781878Y-75539756D01*
X104760984Y-75541500D01*
X100261888Y-75541500D01*
X100193767Y-75521498D01*
X100158675Y-75487771D01*
X100145785Y-75469361D01*
X100087430Y-75386022D01*
X100069357Y-75360211D01*
X100069355Y-75360208D01*
X100066198Y-75355700D01*
X99904300Y-75193802D01*
X99899792Y-75190645D01*
X99899789Y-75190643D01*
X99821611Y-75135902D01*
X99716749Y-75062477D01*
X99711767Y-75060154D01*
X99711762Y-75060151D01*
X99677543Y-75044195D01*
X99624258Y-74997278D01*
X99604797Y-74929001D01*
X99625339Y-74861041D01*
X99677543Y-74815805D01*
X99711762Y-74799849D01*
X99711767Y-74799846D01*
X99716749Y-74797523D01*
X99821611Y-74724098D01*
X99899789Y-74669357D01*
X99899792Y-74669355D01*
X99904300Y-74666198D01*
X100066198Y-74504300D01*
X100095515Y-74462432D01*
X100158675Y-74372229D01*
X100214132Y-74327901D01*
X100261888Y-74318500D01*
X105454695Y-74318500D01*
X105522816Y-74338502D01*
G37*
%TD.AperFunction*%
%TA.AperFunction,Conductor*%
G36*
X85139882Y-66666750D02*
G01*
X85151106Y-66676711D01*
X89087084Y-70612689D01*
X89121110Y-70675001D01*
X89123989Y-70701784D01*
X89123989Y-71920433D01*
X89123430Y-71932289D01*
X89121701Y-71940026D01*
X89121950Y-71947948D01*
X89123927Y-72010858D01*
X89123989Y-72014816D01*
X89123989Y-72043921D01*
X89124545Y-72048321D01*
X89125477Y-72060153D01*
X89126927Y-72106320D01*
X89132703Y-72126198D01*
X89132908Y-72126905D01*
X89136919Y-72146271D01*
X89139607Y-72167553D01*
X89142523Y-72174918D01*
X89142524Y-72174922D01*
X89156615Y-72210510D01*
X89160454Y-72221720D01*
X89173344Y-72266089D01*
X89184264Y-72284554D01*
X89192955Y-72302294D01*
X89200854Y-72322245D01*
X89208858Y-72333261D01*
X89228005Y-72359615D01*
X89234522Y-72369537D01*
X89253996Y-72402466D01*
X89253999Y-72402470D01*
X89258036Y-72409296D01*
X89273200Y-72424460D01*
X89286040Y-72439493D01*
X89298648Y-72456846D01*
X89334241Y-72486291D01*
X89343021Y-72494281D01*
X89615376Y-72766636D01*
X89649402Y-72828948D01*
X89647988Y-72888341D01*
X89645042Y-72899336D01*
X89638457Y-72923913D01*
X89618502Y-73152000D01*
X89616545Y-73151829D01*
X89598979Y-73211652D01*
X89545323Y-73258145D01*
X89475049Y-73268249D01*
X89410469Y-73238755D01*
X89403886Y-73232626D01*
X88325405Y-72154145D01*
X88291379Y-72091833D01*
X88288500Y-72065050D01*
X88288500Y-70846401D01*
X88289059Y-70834545D01*
X88289059Y-70834542D01*
X88290788Y-70826808D01*
X88288562Y-70755976D01*
X88288500Y-70752018D01*
X88288500Y-70722913D01*
X88287944Y-70718513D01*
X88287012Y-70706675D01*
X88286859Y-70701784D01*
X88285562Y-70660514D01*
X88279580Y-70639924D01*
X88275570Y-70620561D01*
X88273875Y-70607141D01*
X88273875Y-70607140D01*
X88272882Y-70599281D01*
X88269966Y-70591916D01*
X88269965Y-70591912D01*
X88255874Y-70556324D01*
X88252035Y-70545114D01*
X88239145Y-70500745D01*
X88228229Y-70482288D01*
X88219534Y-70464538D01*
X88211635Y-70444589D01*
X88184477Y-70407209D01*
X88177960Y-70397288D01*
X88170050Y-70383913D01*
X88154452Y-70357538D01*
X88139291Y-70342377D01*
X88126449Y-70327342D01*
X88113841Y-70309988D01*
X88078241Y-70280537D01*
X88069462Y-70272548D01*
X84840890Y-67043975D01*
X84806864Y-66981663D01*
X84811929Y-66910847D01*
X84826772Y-66882609D01*
X84957088Y-66696498D01*
X84958487Y-66697478D01*
X85004255Y-66653823D01*
X85073966Y-66640374D01*
X85139882Y-66666750D01*
G37*
%TD.AperFunction*%
%TA.AperFunction,Conductor*%
G36*
X105522816Y-71798502D02*
G01*
X105569309Y-71852158D01*
X105579413Y-71922432D01*
X105549919Y-71987012D01*
X105518480Y-72012971D01*
X105515251Y-72014477D01*
X105435876Y-72070056D01*
X105332211Y-72142643D01*
X105332208Y-72142645D01*
X105327700Y-72145802D01*
X105165802Y-72307700D01*
X105162645Y-72312208D01*
X105162643Y-72312211D01*
X105126084Y-72364423D01*
X105034477Y-72495251D01*
X105032154Y-72500233D01*
X105032151Y-72500238D01*
X105030306Y-72504195D01*
X104937716Y-72702757D01*
X104885043Y-72899336D01*
X104882691Y-72908112D01*
X104845739Y-72968734D01*
X104781878Y-72999756D01*
X104760984Y-73001500D01*
X100261888Y-73001500D01*
X100193767Y-72981498D01*
X100158675Y-72947771D01*
X100157316Y-72945829D01*
X100086264Y-72844357D01*
X100069357Y-72820211D01*
X100069355Y-72820208D01*
X100066198Y-72815700D01*
X99904300Y-72653802D01*
X99899792Y-72650645D01*
X99899789Y-72650643D01*
X99821611Y-72595902D01*
X99716749Y-72522477D01*
X99711767Y-72520154D01*
X99711762Y-72520151D01*
X99677543Y-72504195D01*
X99624258Y-72457278D01*
X99604797Y-72389001D01*
X99625339Y-72321041D01*
X99677543Y-72275805D01*
X99711762Y-72259849D01*
X99711767Y-72259846D01*
X99716749Y-72257523D01*
X99845239Y-72167553D01*
X99899789Y-72129357D01*
X99899792Y-72129355D01*
X99904300Y-72126198D01*
X100066198Y-71964300D01*
X100088613Y-71932289D01*
X100148834Y-71846284D01*
X100158676Y-71832228D01*
X100214132Y-71787901D01*
X100261888Y-71778500D01*
X105454695Y-71778500D01*
X105522816Y-71798502D01*
G37*
%TD.AperFunction*%
%TA.AperFunction,Conductor*%
G36*
X105522816Y-69258502D02*
G01*
X105569309Y-69312158D01*
X105579413Y-69382432D01*
X105549919Y-69447012D01*
X105518480Y-69472971D01*
X105515251Y-69474477D01*
X105435876Y-69530056D01*
X105332211Y-69602643D01*
X105332208Y-69602645D01*
X105327700Y-69605802D01*
X105165802Y-69767700D01*
X105162645Y-69772208D01*
X105162643Y-69772211D01*
X105155283Y-69782722D01*
X105034477Y-69955251D01*
X105032154Y-69960233D01*
X105032151Y-69960238D01*
X104998827Y-70031703D01*
X104937716Y-70162757D01*
X104906157Y-70280538D01*
X104882691Y-70368112D01*
X104845739Y-70428734D01*
X104781878Y-70459756D01*
X104760984Y-70461500D01*
X100261888Y-70461500D01*
X100193767Y-70441498D01*
X100158675Y-70407771D01*
X100158282Y-70407209D01*
X100066198Y-70275700D01*
X99904300Y-70113802D01*
X99899792Y-70110645D01*
X99899789Y-70110643D01*
X99764780Y-70016109D01*
X99716749Y-69982477D01*
X99711767Y-69980154D01*
X99711762Y-69980151D01*
X99677543Y-69964195D01*
X99624258Y-69917278D01*
X99604797Y-69849001D01*
X99625339Y-69781041D01*
X99677543Y-69735805D01*
X99711762Y-69719849D01*
X99711767Y-69719846D01*
X99716749Y-69717523D01*
X99821611Y-69644098D01*
X99899789Y-69589357D01*
X99899792Y-69589355D01*
X99904300Y-69586198D01*
X100066198Y-69424300D01*
X100090923Y-69388990D01*
X100158675Y-69292229D01*
X100214132Y-69247901D01*
X100261888Y-69238500D01*
X105454695Y-69238500D01*
X105522816Y-69258502D01*
G37*
%TD.AperFunction*%
%TA.AperFunction,Conductor*%
G36*
X82501339Y-65568991D02*
G01*
X82547832Y-65622647D01*
X82557936Y-65692921D01*
X82554925Y-65707600D01*
X82538606Y-65768503D01*
X82538942Y-65782599D01*
X82546884Y-65786000D01*
X83948000Y-65786000D01*
X84016121Y-65806002D01*
X84062614Y-65859658D01*
X84074000Y-65912000D01*
X84074000Y-66168000D01*
X84053998Y-66236121D01*
X84000342Y-66282614D01*
X83948000Y-66294000D01*
X82552033Y-66294000D01*
X82538502Y-66297973D01*
X82537273Y-66306522D01*
X82584764Y-66483761D01*
X82588510Y-66494053D01*
X82634528Y-66592739D01*
X82645189Y-66662931D01*
X82616209Y-66727744D01*
X82556789Y-66766600D01*
X82520333Y-66771989D01*
X80479567Y-66771989D01*
X80467711Y-66771430D01*
X80467708Y-66771430D01*
X80459974Y-66769701D01*
X80404957Y-66771430D01*
X80389142Y-66771927D01*
X80385184Y-66771989D01*
X80356079Y-66771989D01*
X80351679Y-66772545D01*
X80339847Y-66773477D01*
X80293680Y-66774927D01*
X80273090Y-66780909D01*
X80253729Y-66784919D01*
X80246741Y-66785801D01*
X80240307Y-66786614D01*
X80240306Y-66786614D01*
X80232447Y-66787607D01*
X80225082Y-66790523D01*
X80225078Y-66790524D01*
X80189493Y-66804613D01*
X80178263Y-66808458D01*
X80133910Y-66821344D01*
X80127086Y-66825380D01*
X80115454Y-66832259D01*
X80097698Y-66840958D01*
X80077755Y-66848854D01*
X80063536Y-66859185D01*
X80040379Y-66876009D01*
X80030460Y-66882524D01*
X79997534Y-66901997D01*
X79997530Y-66902000D01*
X79990704Y-66906037D01*
X79975543Y-66921198D01*
X79960511Y-66934037D01*
X79943154Y-66946648D01*
X79914187Y-66981663D01*
X79913704Y-66982247D01*
X79905714Y-66991027D01*
X78282191Y-68614550D01*
X78219879Y-68648576D01*
X78149064Y-68643511D01*
X78092228Y-68600964D01*
X78067520Y-68535779D01*
X78066325Y-68521243D01*
X78052852Y-68357361D01*
X78031919Y-68274022D01*
X78034723Y-68203081D01*
X78065028Y-68154232D01*
X80633365Y-65585894D01*
X80695677Y-65551869D01*
X80722460Y-65548989D01*
X82433218Y-65548989D01*
X82501339Y-65568991D01*
G37*
%TD.AperFunction*%
%TA.AperFunction,Conductor*%
G36*
X85836523Y-63908237D02*
G01*
X85843106Y-63914366D01*
X89615376Y-67686636D01*
X89649402Y-67748948D01*
X89647988Y-67808341D01*
X89642691Y-67828112D01*
X89638457Y-67843913D01*
X89618502Y-68072000D01*
X89616545Y-68071829D01*
X89598979Y-68131652D01*
X89545323Y-68178145D01*
X89475049Y-68188249D01*
X89410469Y-68158755D01*
X89403886Y-68152626D01*
X85664916Y-64413656D01*
X85630890Y-64351344D01*
X85628011Y-64324561D01*
X85628011Y-64003461D01*
X85648013Y-63935340D01*
X85701669Y-63888847D01*
X85771943Y-63878743D01*
X85836523Y-63908237D01*
G37*
%TD.AperFunction*%
%TA.AperFunction,Conductor*%
G36*
X105522816Y-66718502D02*
G01*
X105569309Y-66772158D01*
X105579413Y-66842432D01*
X105549919Y-66907012D01*
X105518480Y-66932971D01*
X105515251Y-66934477D01*
X105497869Y-66946648D01*
X105332211Y-67062643D01*
X105332208Y-67062645D01*
X105327700Y-67065802D01*
X105165802Y-67227700D01*
X105162645Y-67232208D01*
X105162643Y-67232211D01*
X105133183Y-67274284D01*
X105034477Y-67415251D01*
X105032154Y-67420233D01*
X105032151Y-67420238D01*
X104962017Y-67570643D01*
X104937716Y-67622757D01*
X104936294Y-67628064D01*
X104882691Y-67828112D01*
X104845739Y-67888734D01*
X104781878Y-67919756D01*
X104760984Y-67921500D01*
X100261888Y-67921500D01*
X100193767Y-67901498D01*
X100158675Y-67867771D01*
X100069357Y-67740211D01*
X100069355Y-67740208D01*
X100066198Y-67735700D01*
X99904300Y-67573802D01*
X99899792Y-67570645D01*
X99899789Y-67570643D01*
X99821611Y-67515902D01*
X99716749Y-67442477D01*
X99711767Y-67440154D01*
X99711762Y-67440151D01*
X99677543Y-67424195D01*
X99624258Y-67377278D01*
X99604797Y-67309001D01*
X99625339Y-67241041D01*
X99677543Y-67195805D01*
X99711762Y-67179849D01*
X99711767Y-67179846D01*
X99716749Y-67177523D01*
X99821611Y-67104098D01*
X99899789Y-67049357D01*
X99899792Y-67049355D01*
X99904300Y-67046198D01*
X100066198Y-66884300D01*
X100069559Y-66879501D01*
X100133903Y-66787607D01*
X100158676Y-66752228D01*
X100214132Y-66707901D01*
X100261888Y-66698500D01*
X105454695Y-66698500D01*
X105522816Y-66718502D01*
G37*
%TD.AperFunction*%
%TA.AperFunction,Conductor*%
G36*
X82500822Y-63028991D02*
G01*
X82547315Y-63082647D01*
X82557419Y-63152921D01*
X82554410Y-63167593D01*
X82526457Y-63271913D01*
X82506502Y-63500000D01*
X82526457Y-63728087D01*
X82527881Y-63733400D01*
X82527881Y-63733402D01*
X82581991Y-63935340D01*
X82585716Y-63949243D01*
X82588039Y-63954224D01*
X82588039Y-63954225D01*
X82633977Y-64052739D01*
X82644638Y-64122931D01*
X82615658Y-64187743D01*
X82556238Y-64226600D01*
X82519782Y-64231989D01*
X80479567Y-64231989D01*
X80467711Y-64231430D01*
X80467708Y-64231430D01*
X80459974Y-64229701D01*
X80404957Y-64231430D01*
X80389142Y-64231927D01*
X80385184Y-64231989D01*
X80356079Y-64231989D01*
X80351679Y-64232545D01*
X80339847Y-64233477D01*
X80293680Y-64234927D01*
X80273090Y-64240909D01*
X80253729Y-64244919D01*
X80246741Y-64245801D01*
X80240307Y-64246614D01*
X80240306Y-64246614D01*
X80232447Y-64247607D01*
X80225082Y-64250523D01*
X80225078Y-64250524D01*
X80189493Y-64264613D01*
X80178263Y-64268458D01*
X80133910Y-64281344D01*
X80127086Y-64285380D01*
X80115454Y-64292259D01*
X80097698Y-64300958D01*
X80077755Y-64308854D01*
X80056136Y-64324561D01*
X80040379Y-64336009D01*
X80030460Y-64342524D01*
X79997534Y-64361997D01*
X79997530Y-64362000D01*
X79990704Y-64366037D01*
X79975543Y-64381198D01*
X79960511Y-64394037D01*
X79943154Y-64406648D01*
X79913704Y-64442247D01*
X79905714Y-64451027D01*
X78282191Y-66074550D01*
X78219879Y-66108576D01*
X78149064Y-66103511D01*
X78092228Y-66060964D01*
X78067520Y-65995779D01*
X78066325Y-65981243D01*
X78052852Y-65817361D01*
X78031919Y-65734022D01*
X78034723Y-65663081D01*
X78065028Y-65614232D01*
X80633365Y-63045894D01*
X80695677Y-63011869D01*
X80722460Y-63008989D01*
X82432701Y-63008989D01*
X82500822Y-63028991D01*
G37*
%TD.AperFunction*%
%TA.AperFunction,Conductor*%
G36*
X85836523Y-61368237D02*
G01*
X85843106Y-61374366D01*
X89615376Y-65146636D01*
X89649402Y-65208948D01*
X89647988Y-65268341D01*
X89642691Y-65288112D01*
X89638457Y-65303913D01*
X89618502Y-65532000D01*
X89616545Y-65531829D01*
X89598979Y-65591652D01*
X89545323Y-65638145D01*
X89475049Y-65648249D01*
X89410469Y-65618755D01*
X89403886Y-65612626D01*
X85664916Y-61873656D01*
X85630890Y-61811344D01*
X85628011Y-61784561D01*
X85628011Y-61463461D01*
X85648013Y-61395340D01*
X85701669Y-61348847D01*
X85771943Y-61338743D01*
X85836523Y-61368237D01*
G37*
%TD.AperFunction*%
%TA.AperFunction,Conductor*%
G36*
X105522816Y-64178502D02*
G01*
X105569309Y-64232158D01*
X105579413Y-64302432D01*
X105549919Y-64367012D01*
X105518480Y-64392971D01*
X105515251Y-64394477D01*
X105497869Y-64406648D01*
X105332211Y-64522643D01*
X105332208Y-64522645D01*
X105327700Y-64525802D01*
X105165802Y-64687700D01*
X105162645Y-64692208D01*
X105162643Y-64692211D01*
X105133183Y-64734284D01*
X105034477Y-64875251D01*
X105032154Y-64880233D01*
X105032151Y-64880238D01*
X104962017Y-65030643D01*
X104937716Y-65082757D01*
X104936294Y-65088064D01*
X104882691Y-65288112D01*
X104845739Y-65348734D01*
X104781878Y-65379756D01*
X104760984Y-65381500D01*
X100261888Y-65381500D01*
X100193767Y-65361498D01*
X100158675Y-65327771D01*
X100069357Y-65200211D01*
X100069355Y-65200208D01*
X100066198Y-65195700D01*
X99904300Y-65033802D01*
X99899792Y-65030645D01*
X99899789Y-65030643D01*
X99821611Y-64975902D01*
X99716749Y-64902477D01*
X99711767Y-64900154D01*
X99711762Y-64900151D01*
X99677543Y-64884195D01*
X99624258Y-64837278D01*
X99604797Y-64769001D01*
X99625339Y-64701041D01*
X99677543Y-64655805D01*
X99711762Y-64639849D01*
X99711767Y-64639846D01*
X99716749Y-64637523D01*
X99821611Y-64564098D01*
X99899789Y-64509357D01*
X99899792Y-64509355D01*
X99904300Y-64506198D01*
X100066198Y-64344300D01*
X100069559Y-64339501D01*
X100133903Y-64247607D01*
X100158676Y-64212228D01*
X100214132Y-64167901D01*
X100261888Y-64158500D01*
X105454695Y-64158500D01*
X105522816Y-64178502D01*
G37*
%TD.AperFunction*%
%TA.AperFunction,Conductor*%
G36*
X82500822Y-60488991D02*
G01*
X82547315Y-60542647D01*
X82557419Y-60612921D01*
X82554410Y-60627593D01*
X82526457Y-60731913D01*
X82506502Y-60960000D01*
X82526457Y-61188087D01*
X82527881Y-61193400D01*
X82527881Y-61193402D01*
X82581991Y-61395340D01*
X82585716Y-61409243D01*
X82588039Y-61414224D01*
X82588039Y-61414225D01*
X82633977Y-61512739D01*
X82644638Y-61582931D01*
X82615658Y-61647743D01*
X82556238Y-61686600D01*
X82519782Y-61691989D01*
X80479567Y-61691989D01*
X80467711Y-61691430D01*
X80467708Y-61691430D01*
X80459974Y-61689701D01*
X80404957Y-61691430D01*
X80389142Y-61691927D01*
X80385184Y-61691989D01*
X80356079Y-61691989D01*
X80351679Y-61692545D01*
X80339847Y-61693477D01*
X80293680Y-61694927D01*
X80273090Y-61700909D01*
X80253729Y-61704919D01*
X80246741Y-61705801D01*
X80240307Y-61706614D01*
X80240306Y-61706614D01*
X80232447Y-61707607D01*
X80225082Y-61710523D01*
X80225078Y-61710524D01*
X80189493Y-61724613D01*
X80178263Y-61728458D01*
X80133910Y-61741344D01*
X80127086Y-61745380D01*
X80115454Y-61752259D01*
X80097698Y-61760958D01*
X80077755Y-61768854D01*
X80056136Y-61784561D01*
X80040379Y-61796009D01*
X80030460Y-61802524D01*
X79997534Y-61821997D01*
X79997530Y-61822000D01*
X79990704Y-61826037D01*
X79975543Y-61841198D01*
X79960511Y-61854037D01*
X79943154Y-61866648D01*
X79913704Y-61902247D01*
X79905714Y-61911027D01*
X78282191Y-63534550D01*
X78219879Y-63568576D01*
X78149064Y-63563511D01*
X78092228Y-63520964D01*
X78067520Y-63455779D01*
X78066325Y-63441243D01*
X78052852Y-63277361D01*
X78031919Y-63194022D01*
X78034723Y-63123081D01*
X78065028Y-63074232D01*
X80633365Y-60505894D01*
X80695677Y-60471869D01*
X80722460Y-60468989D01*
X82432701Y-60468989D01*
X82500822Y-60488991D01*
G37*
%TD.AperFunction*%
%TA.AperFunction,Conductor*%
G36*
X85836523Y-58828237D02*
G01*
X85843106Y-58834366D01*
X85850711Y-58841971D01*
X85863551Y-58857004D01*
X85876159Y-58874357D01*
X85911752Y-58903802D01*
X85920532Y-58911792D01*
X89615376Y-62606635D01*
X89649402Y-62668947D01*
X89647988Y-62728340D01*
X89639882Y-62758594D01*
X89638457Y-62763913D01*
X89618502Y-62992000D01*
X89616545Y-62991829D01*
X89598979Y-63051652D01*
X89545323Y-63098145D01*
X89475049Y-63108249D01*
X89410469Y-63078755D01*
X89403886Y-63072626D01*
X85664916Y-59333656D01*
X85630890Y-59271344D01*
X85628011Y-59244561D01*
X85628011Y-58923461D01*
X85648013Y-58855340D01*
X85701669Y-58808847D01*
X85771943Y-58798743D01*
X85836523Y-58828237D01*
G37*
%TD.AperFunction*%
%TA.AperFunction,Conductor*%
G36*
X105522816Y-61638502D02*
G01*
X105569309Y-61692158D01*
X105579413Y-61762432D01*
X105549919Y-61827012D01*
X105518480Y-61852971D01*
X105515251Y-61854477D01*
X105497869Y-61866648D01*
X105332211Y-61982643D01*
X105332208Y-61982645D01*
X105327700Y-61985802D01*
X105165802Y-62147700D01*
X105162645Y-62152208D01*
X105162643Y-62152211D01*
X105133183Y-62194284D01*
X105034477Y-62335251D01*
X105032154Y-62340233D01*
X105032151Y-62340238D01*
X104962017Y-62490643D01*
X104937716Y-62542757D01*
X104936294Y-62548064D01*
X104882691Y-62748112D01*
X104845739Y-62808734D01*
X104781878Y-62839756D01*
X104760984Y-62841500D01*
X100261888Y-62841500D01*
X100193767Y-62821498D01*
X100158675Y-62787771D01*
X100069357Y-62660211D01*
X100069355Y-62660208D01*
X100066198Y-62655700D01*
X99904300Y-62493802D01*
X99899792Y-62490645D01*
X99899789Y-62490643D01*
X99821611Y-62435902D01*
X99716749Y-62362477D01*
X99711767Y-62360154D01*
X99711762Y-62360151D01*
X99677543Y-62344195D01*
X99624258Y-62297278D01*
X99604797Y-62229001D01*
X99625339Y-62161041D01*
X99677543Y-62115805D01*
X99711762Y-62099849D01*
X99711767Y-62099846D01*
X99716749Y-62097523D01*
X99821611Y-62024098D01*
X99899789Y-61969357D01*
X99899792Y-61969355D01*
X99904300Y-61966198D01*
X100066198Y-61804300D01*
X100069559Y-61799501D01*
X100133903Y-61707607D01*
X100158676Y-61672228D01*
X100214132Y-61627901D01*
X100261888Y-61618500D01*
X105454695Y-61618500D01*
X105522816Y-61638502D01*
G37*
%TD.AperFunction*%
%TA.AperFunction,Conductor*%
G36*
X82533457Y-57828502D02*
G01*
X82579950Y-57882158D01*
X82590054Y-57952432D01*
X82585471Y-57970691D01*
X82585716Y-57970757D01*
X82533784Y-58164570D01*
X82526457Y-58191913D01*
X82506502Y-58420000D01*
X82526457Y-58648087D01*
X82527881Y-58653400D01*
X82527881Y-58653402D01*
X82581991Y-58855340D01*
X82585716Y-58869243D01*
X82588039Y-58874224D01*
X82588039Y-58874225D01*
X82633977Y-58972739D01*
X82644638Y-59042931D01*
X82615658Y-59107743D01*
X82556238Y-59146600D01*
X82519782Y-59151989D01*
X80479567Y-59151989D01*
X80467711Y-59151430D01*
X80467708Y-59151430D01*
X80459974Y-59149701D01*
X80404957Y-59151430D01*
X80389142Y-59151927D01*
X80385184Y-59151989D01*
X80356079Y-59151989D01*
X80351679Y-59152545D01*
X80339847Y-59153477D01*
X80293680Y-59154927D01*
X80273090Y-59160909D01*
X80253729Y-59164919D01*
X80246741Y-59165801D01*
X80240307Y-59166614D01*
X80240306Y-59166614D01*
X80232447Y-59167607D01*
X80225082Y-59170523D01*
X80225078Y-59170524D01*
X80189493Y-59184613D01*
X80178263Y-59188458D01*
X80133910Y-59201344D01*
X80127086Y-59205380D01*
X80115454Y-59212259D01*
X80097698Y-59220958D01*
X80077755Y-59228854D01*
X80056136Y-59244561D01*
X80040379Y-59256009D01*
X80030460Y-59262524D01*
X79997534Y-59281997D01*
X79997530Y-59282000D01*
X79990704Y-59286037D01*
X79975543Y-59301198D01*
X79960511Y-59314037D01*
X79943154Y-59326648D01*
X79913704Y-59362247D01*
X79905714Y-59371027D01*
X78282191Y-60994550D01*
X78219879Y-61028576D01*
X78149064Y-61023511D01*
X78092228Y-60980964D01*
X78067520Y-60915779D01*
X78066325Y-60901243D01*
X78052852Y-60737361D01*
X78031919Y-60654022D01*
X78034723Y-60583081D01*
X78065028Y-60534232D01*
X80753855Y-57845405D01*
X80816167Y-57811379D01*
X80842950Y-57808500D01*
X82465336Y-57808500D01*
X82533457Y-57828502D01*
G37*
%TD.AperFunction*%
%TA.AperFunction,Conductor*%
G36*
X87227012Y-57678726D02*
G01*
X87233595Y-57684855D01*
X89615376Y-60066636D01*
X89649402Y-60128948D01*
X89647988Y-60188341D01*
X89642691Y-60208112D01*
X89638457Y-60223913D01*
X89618502Y-60452000D01*
X89616545Y-60451829D01*
X89598979Y-60511653D01*
X89545323Y-60558146D01*
X89475049Y-60568250D01*
X89410469Y-60538756D01*
X89403886Y-60532627D01*
X88320959Y-59449699D01*
X87055405Y-58184145D01*
X87021379Y-58121833D01*
X87018500Y-58095050D01*
X87018500Y-57773950D01*
X87038502Y-57705829D01*
X87092158Y-57659336D01*
X87162432Y-57649232D01*
X87227012Y-57678726D01*
G37*
%TD.AperFunction*%
%TA.AperFunction,Conductor*%
G36*
X105522816Y-59098502D02*
G01*
X105569309Y-59152158D01*
X105579413Y-59222432D01*
X105549919Y-59287012D01*
X105518480Y-59312971D01*
X105515251Y-59314477D01*
X105497869Y-59326648D01*
X105332211Y-59442643D01*
X105332208Y-59442645D01*
X105327700Y-59445802D01*
X105165802Y-59607700D01*
X105162645Y-59612208D01*
X105162643Y-59612211D01*
X105133183Y-59654284D01*
X105034477Y-59795251D01*
X105032154Y-59800233D01*
X105032151Y-59800238D01*
X104962017Y-59950643D01*
X104937716Y-60002757D01*
X104936294Y-60008064D01*
X104882691Y-60208112D01*
X104845739Y-60268734D01*
X104781878Y-60299756D01*
X104760984Y-60301500D01*
X100261888Y-60301500D01*
X100193767Y-60281498D01*
X100158675Y-60247771D01*
X100069357Y-60120211D01*
X100069355Y-60120208D01*
X100066198Y-60115700D01*
X99904300Y-59953802D01*
X99899792Y-59950645D01*
X99899789Y-59950643D01*
X99821611Y-59895902D01*
X99716749Y-59822477D01*
X99711767Y-59820154D01*
X99711762Y-59820151D01*
X99677543Y-59804195D01*
X99624258Y-59757278D01*
X99604797Y-59689001D01*
X99625339Y-59621041D01*
X99677543Y-59575805D01*
X99711762Y-59559849D01*
X99711767Y-59559846D01*
X99716749Y-59557523D01*
X99821611Y-59484098D01*
X99899789Y-59429357D01*
X99899792Y-59429355D01*
X99904300Y-59426198D01*
X100066198Y-59264300D01*
X100069559Y-59259501D01*
X100133903Y-59167607D01*
X100158676Y-59132228D01*
X100214132Y-59087901D01*
X100261888Y-59078500D01*
X105454695Y-59078500D01*
X105522816Y-59098502D01*
G37*
%TD.AperFunction*%
%TA.AperFunction,Conductor*%
G36*
X84833171Y-50208502D02*
G01*
X84854145Y-50225405D01*
X85664595Y-51035855D01*
X85698621Y-51098167D01*
X85701500Y-51124950D01*
X85701500Y-57440395D01*
X85681498Y-57508516D01*
X85627842Y-57555009D01*
X85557568Y-57565113D01*
X85492988Y-57535619D01*
X85486405Y-57529490D01*
X85478800Y-57521885D01*
X85465959Y-57506851D01*
X85458012Y-57495913D01*
X85453352Y-57489499D01*
X85417758Y-57460053D01*
X85408979Y-57452064D01*
X84841249Y-56884334D01*
X84807223Y-56822022D01*
X84812288Y-56751207D01*
X84827131Y-56722968D01*
X84954366Y-56541258D01*
X84954367Y-56541256D01*
X84957523Y-56536749D01*
X84959846Y-56531767D01*
X84959849Y-56531762D01*
X85051961Y-56334225D01*
X85051961Y-56334224D01*
X85054284Y-56329243D01*
X85064150Y-56292425D01*
X85112119Y-56113402D01*
X85112119Y-56113400D01*
X85113543Y-56108087D01*
X85133498Y-55880000D01*
X85113543Y-55651913D01*
X85112119Y-55646598D01*
X85055707Y-55436067D01*
X85055706Y-55436065D01*
X85054284Y-55430757D01*
X85042092Y-55404610D01*
X84959849Y-55228238D01*
X84959846Y-55228233D01*
X84957523Y-55223251D01*
X84826198Y-55035700D01*
X84664300Y-54873802D01*
X84659789Y-54870643D01*
X84655576Y-54867108D01*
X84656527Y-54865974D01*
X84616529Y-54815929D01*
X84609224Y-54745310D01*
X84641258Y-54681951D01*
X84702462Y-54645970D01*
X84719517Y-54642918D01*
X84730316Y-54641745D01*
X84866705Y-54590615D01*
X84983261Y-54503261D01*
X85070615Y-54386705D01*
X85121745Y-54250316D01*
X85128500Y-54188134D01*
X85128500Y-52491866D01*
X85121745Y-52429684D01*
X85070615Y-52293295D01*
X84983261Y-52176739D01*
X84866705Y-52089385D01*
X84730316Y-52038255D01*
X84668134Y-52031500D01*
X82971866Y-52031500D01*
X82909684Y-52038255D01*
X82773295Y-52089385D01*
X82656739Y-52176739D01*
X82569385Y-52293295D01*
X82518255Y-52429684D01*
X82511500Y-52491866D01*
X82511500Y-54188134D01*
X82518255Y-54250316D01*
X82569385Y-54386705D01*
X82656739Y-54503261D01*
X82773295Y-54590615D01*
X82909684Y-54641745D01*
X82920474Y-54642917D01*
X82922606Y-54643803D01*
X82925222Y-54644425D01*
X82925121Y-54644848D01*
X82986035Y-54670155D01*
X83026463Y-54728517D01*
X83028922Y-54799471D01*
X82992629Y-54860490D01*
X82983969Y-54867489D01*
X82980207Y-54870646D01*
X82975700Y-54873802D01*
X82813802Y-55035700D01*
X82682477Y-55223251D01*
X82680154Y-55228233D01*
X82680151Y-55228238D01*
X82597908Y-55404610D01*
X82585716Y-55430757D01*
X82584294Y-55436065D01*
X82584293Y-55436067D01*
X82527881Y-55646598D01*
X82526457Y-55651913D01*
X82506502Y-55880000D01*
X82526457Y-56108087D01*
X82527881Y-56113400D01*
X82527881Y-56113402D01*
X82585716Y-56329243D01*
X82584198Y-56329650D01*
X82588240Y-56393260D01*
X82553721Y-56455300D01*
X82491141Y-56488829D01*
X82465336Y-56491500D01*
X80600059Y-56491500D01*
X80588203Y-56490941D01*
X80580463Y-56489211D01*
X80572537Y-56489460D01*
X80572536Y-56489460D01*
X80509611Y-56491438D01*
X80505653Y-56491500D01*
X80476568Y-56491500D01*
X80472637Y-56491997D01*
X80472630Y-56491997D01*
X80472179Y-56492054D01*
X80460343Y-56492986D01*
X80414169Y-56494438D01*
X80393579Y-56500420D01*
X80374218Y-56504430D01*
X80367230Y-56505312D01*
X80360796Y-56506125D01*
X80360795Y-56506125D01*
X80352936Y-56507118D01*
X80345571Y-56510034D01*
X80345567Y-56510035D01*
X80309979Y-56524126D01*
X80298769Y-56527965D01*
X80254400Y-56540855D01*
X80235935Y-56551775D01*
X80218195Y-56560466D01*
X80198244Y-56568365D01*
X80165398Y-56592229D01*
X80160874Y-56595516D01*
X80150952Y-56602033D01*
X80118023Y-56621507D01*
X80118019Y-56621510D01*
X80111193Y-56625547D01*
X80096029Y-56640711D01*
X80080996Y-56653551D01*
X80063643Y-56666159D01*
X80051623Y-56680689D01*
X80034198Y-56701752D01*
X80026208Y-56710532D01*
X78282191Y-58454549D01*
X78219879Y-58488575D01*
X78149064Y-58483510D01*
X78092228Y-58440963D01*
X78067520Y-58375778D01*
X78066325Y-58361243D01*
X78052852Y-58197361D01*
X78041614Y-58152620D01*
X78031919Y-58114022D01*
X78034723Y-58043081D01*
X78065028Y-57994232D01*
X80417605Y-55641655D01*
X80426385Y-55633665D01*
X80426387Y-55633663D01*
X80433080Y-55629416D01*
X80481605Y-55577742D01*
X80484359Y-55574901D01*
X80504927Y-55554333D01*
X80507647Y-55550826D01*
X80515353Y-55541804D01*
X80541544Y-55513913D01*
X80546972Y-55508133D01*
X80550794Y-55501181D01*
X80557303Y-55489342D01*
X80568157Y-55472818D01*
X80576443Y-55462135D01*
X80576444Y-55462134D01*
X80581304Y-55455868D01*
X80594326Y-55425775D01*
X80599654Y-55413464D01*
X80604869Y-55402819D01*
X80627124Y-55362337D01*
X80629094Y-55354663D01*
X80629097Y-55354656D01*
X80632455Y-55341574D01*
X80638861Y-55322862D01*
X80644233Y-55310448D01*
X80647380Y-55303177D01*
X80654608Y-55257541D01*
X80657012Y-55245930D01*
X80668500Y-55201188D01*
X80668500Y-55179742D01*
X80670051Y-55160032D01*
X80672166Y-55146678D01*
X80672166Y-55146677D01*
X80673406Y-55138848D01*
X80669059Y-55092859D01*
X80668500Y-55081004D01*
X80668500Y-50314500D01*
X80688502Y-50246379D01*
X80742158Y-50199886D01*
X80794500Y-50188500D01*
X84765050Y-50188500D01*
X84833171Y-50208502D01*
G37*
%TD.AperFunction*%
%TA.AperFunction,Conductor*%
G36*
X105522816Y-56558502D02*
G01*
X105569309Y-56612158D01*
X105579413Y-56682432D01*
X105549919Y-56747012D01*
X105518480Y-56772971D01*
X105515251Y-56774477D01*
X105435876Y-56830056D01*
X105332211Y-56902643D01*
X105332208Y-56902645D01*
X105327700Y-56905802D01*
X105165802Y-57067700D01*
X105162645Y-57072208D01*
X105162643Y-57072211D01*
X105133183Y-57114284D01*
X105034477Y-57255251D01*
X105032154Y-57260233D01*
X105032151Y-57260238D01*
X104948051Y-57440593D01*
X104937716Y-57462757D01*
X104885043Y-57659336D01*
X104882691Y-57668112D01*
X104845739Y-57728734D01*
X104781878Y-57759756D01*
X104760984Y-57761500D01*
X100261888Y-57761500D01*
X100193767Y-57741498D01*
X100158675Y-57707771D01*
X100157316Y-57705829D01*
X100066198Y-57575700D01*
X99904300Y-57413802D01*
X99899792Y-57410645D01*
X99899789Y-57410643D01*
X99821611Y-57355902D01*
X99716749Y-57282477D01*
X99711767Y-57280154D01*
X99711762Y-57280151D01*
X99677543Y-57264195D01*
X99624258Y-57217278D01*
X99604797Y-57149001D01*
X99625339Y-57081041D01*
X99677543Y-57035805D01*
X99711762Y-57019849D01*
X99711767Y-57019846D01*
X99716749Y-57017523D01*
X99864388Y-56914145D01*
X99899789Y-56889357D01*
X99899792Y-56889355D01*
X99904300Y-56886198D01*
X100066198Y-56724300D01*
X100075839Y-56710532D01*
X100115736Y-56653552D01*
X100158676Y-56592228D01*
X100214132Y-56547901D01*
X100261888Y-56538500D01*
X105454695Y-56538500D01*
X105522816Y-56558502D01*
G37*
%TD.AperFunction*%
%TA.AperFunction,Conductor*%
G36*
X105522816Y-54018502D02*
G01*
X105569309Y-54072158D01*
X105579413Y-54142432D01*
X105549919Y-54207012D01*
X105518480Y-54232971D01*
X105515251Y-54234477D01*
X105510030Y-54238133D01*
X105332211Y-54362643D01*
X105332208Y-54362645D01*
X105327700Y-54365802D01*
X105165802Y-54527700D01*
X105162645Y-54532208D01*
X105162643Y-54532211D01*
X105133183Y-54574284D01*
X105034477Y-54715251D01*
X105032154Y-54720233D01*
X105032151Y-54720238D01*
X104962017Y-54870643D01*
X104937716Y-54922757D01*
X104936294Y-54928064D01*
X104882691Y-55128112D01*
X104845739Y-55188734D01*
X104781878Y-55219756D01*
X104760984Y-55221500D01*
X100261888Y-55221500D01*
X100193767Y-55201498D01*
X100158675Y-55167771D01*
X100069357Y-55040211D01*
X100069355Y-55040208D01*
X100066198Y-55035700D01*
X99904300Y-54873802D01*
X99899792Y-54870645D01*
X99899789Y-54870643D01*
X99821611Y-54815902D01*
X99716749Y-54742477D01*
X99711767Y-54740154D01*
X99711762Y-54740151D01*
X99677543Y-54724195D01*
X99624258Y-54677278D01*
X99604797Y-54609001D01*
X99625339Y-54541041D01*
X99677543Y-54495805D01*
X99711762Y-54479849D01*
X99711767Y-54479846D01*
X99716749Y-54477523D01*
X99858458Y-54378297D01*
X99899789Y-54349357D01*
X99899792Y-54349355D01*
X99904300Y-54346198D01*
X100066198Y-54184300D01*
X100090923Y-54148990D01*
X100158675Y-54052229D01*
X100214132Y-54007901D01*
X100261888Y-53998500D01*
X105454695Y-53998500D01*
X105522816Y-54018502D01*
G37*
%TD.AperFunction*%
%TD*%
M02*
